G75*
G70*
%OFA0B0*%
%FSLAX24Y24*%
%IPPOS*%
%LPD*%
%AMOC8*
5,1,8,0,0,1.08239X$1,22.5*
%
%ADD10R,0.0760X0.0760*%
%ADD11C,0.0760*%
%ADD12OC8,0.0720*%
%ADD13C,0.0714*%
D10*
X008101Y005802D03*
X013101Y005802D03*
X018101Y005802D03*
X023101Y005802D03*
X028101Y005802D03*
X036101Y005802D03*
X041101Y005802D03*
X046101Y005802D03*
X051101Y005802D03*
X056101Y005802D03*
D11*
X053101Y005802D03*
X053101Y006802D03*
X051101Y006802D03*
X048101Y006802D03*
X046101Y006802D03*
X046101Y007802D03*
X048101Y007802D03*
X048101Y008802D03*
X046101Y008802D03*
X046101Y009802D03*
X048101Y009802D03*
X051101Y009802D03*
X053101Y009802D03*
X056101Y009802D03*
X056101Y008802D03*
X056101Y007802D03*
X053101Y007802D03*
X051101Y007802D03*
X051101Y008802D03*
X053101Y008802D03*
X056101Y006802D03*
X048101Y005802D03*
X043101Y005802D03*
X043101Y006802D03*
X041101Y006802D03*
X038101Y006802D03*
X036101Y006802D03*
X033101Y006802D03*
X033101Y005802D03*
X028101Y006802D03*
X025101Y006802D03*
X023101Y006802D03*
X020101Y006802D03*
X018101Y006802D03*
X018101Y007802D03*
X020101Y007802D03*
X020101Y008802D03*
X018101Y008802D03*
X018101Y009802D03*
X020101Y009802D03*
X023101Y009802D03*
X025101Y009802D03*
X028101Y009802D03*
X028101Y008802D03*
X028101Y007802D03*
X025101Y007802D03*
X023101Y007802D03*
X023101Y008802D03*
X025101Y008802D03*
X025101Y010802D03*
X023101Y010802D03*
X020101Y010802D03*
X018101Y010802D03*
X018101Y011802D03*
X020101Y011802D03*
X023101Y011802D03*
X025101Y011802D03*
X028101Y011802D03*
X028101Y010802D03*
X033101Y010802D03*
X036101Y010802D03*
X038101Y010802D03*
X041101Y010802D03*
X043101Y010802D03*
X043101Y009802D03*
X041101Y009802D03*
X038101Y009802D03*
X036101Y009802D03*
X033101Y009802D03*
X033101Y008802D03*
X033101Y007802D03*
X036101Y007802D03*
X038101Y007802D03*
X038101Y008802D03*
X036101Y008802D03*
X041101Y008802D03*
X043101Y008802D03*
X043101Y007802D03*
X041101Y007802D03*
X038101Y005802D03*
X025101Y005802D03*
X020101Y005802D03*
X015101Y005802D03*
X015101Y006802D03*
X013101Y006802D03*
X010101Y006802D03*
X008101Y006802D03*
X005101Y006802D03*
X005101Y005802D03*
X010101Y005802D03*
X010101Y007802D03*
X008101Y007802D03*
X008101Y008802D03*
X010101Y008802D03*
X013101Y008802D03*
X015101Y008802D03*
X015101Y007802D03*
X013101Y007802D03*
X013101Y009802D03*
X015101Y009802D03*
X015101Y010802D03*
X013101Y010802D03*
X010101Y010802D03*
X008101Y010802D03*
X005101Y010802D03*
X005101Y009802D03*
X008101Y009802D03*
X010101Y009802D03*
X005101Y008802D03*
X005101Y007802D03*
X005101Y011802D03*
X008101Y011802D03*
X010101Y011802D03*
X013101Y011802D03*
X015101Y011802D03*
X015101Y012802D03*
X013101Y012802D03*
X013101Y013802D03*
X015101Y013802D03*
X015101Y014802D03*
X013101Y014802D03*
X010101Y014802D03*
X008101Y014802D03*
X005101Y014802D03*
X005101Y013802D03*
X005101Y012802D03*
X008101Y012802D03*
X010101Y012802D03*
X010101Y013802D03*
X008101Y013802D03*
X018101Y013802D03*
X020101Y013802D03*
X020101Y012802D03*
X018101Y012802D03*
X023101Y012802D03*
X025101Y012802D03*
X025101Y013802D03*
X023101Y013802D03*
X023101Y014802D03*
X025101Y014802D03*
X028101Y014802D03*
X028101Y013802D03*
X028101Y012802D03*
X033101Y012802D03*
X033101Y013802D03*
X036101Y013802D03*
X038101Y013802D03*
X038101Y012802D03*
X036101Y012802D03*
X036101Y011802D03*
X038101Y011802D03*
X041101Y011802D03*
X043101Y011802D03*
X043101Y012802D03*
X041101Y012802D03*
X041101Y013802D03*
X043101Y013802D03*
X043101Y014802D03*
X041101Y014802D03*
X038101Y014802D03*
X036101Y014802D03*
X033101Y014802D03*
X033101Y011802D03*
X020101Y014802D03*
X018101Y014802D03*
X046101Y014802D03*
X048101Y014802D03*
X051101Y014802D03*
X053101Y014802D03*
X056101Y014802D03*
X056101Y013802D03*
X056101Y012802D03*
X053101Y012802D03*
X051101Y012802D03*
X051101Y013802D03*
X053101Y013802D03*
X048101Y013802D03*
X046101Y013802D03*
X046101Y012802D03*
X048101Y012802D03*
X048101Y011802D03*
X046101Y011802D03*
X046101Y010802D03*
X048101Y010802D03*
X051101Y010802D03*
X053101Y010802D03*
X056101Y010802D03*
X056101Y011802D03*
X053101Y011802D03*
X051101Y011802D03*
D12*
X050601Y002802D03*
X049601Y002802D03*
X048601Y002802D03*
X047601Y002802D03*
X046601Y002802D03*
X045601Y002802D03*
X044601Y002802D03*
X043601Y002802D03*
X042601Y002802D03*
X041601Y002802D03*
X040601Y002802D03*
X039601Y002802D03*
X038601Y002802D03*
X037601Y002802D03*
X036601Y002802D03*
X035601Y002802D03*
X034601Y002802D03*
X033601Y002802D03*
X033601Y001802D03*
X034601Y001802D03*
X035601Y001802D03*
X036601Y001802D03*
X037601Y001802D03*
X038601Y001802D03*
X039601Y001802D03*
X040601Y001802D03*
X041601Y001802D03*
X042601Y001802D03*
X043601Y001802D03*
X044601Y001802D03*
X045601Y001802D03*
X046601Y001802D03*
X047601Y001802D03*
X048601Y001802D03*
X049601Y001802D03*
X050601Y001802D03*
X051601Y001802D03*
X052601Y001802D03*
X052601Y002802D03*
X051601Y002802D03*
X027101Y002802D03*
X026101Y002802D03*
X025101Y002802D03*
X024101Y002802D03*
X023101Y002802D03*
X022101Y002802D03*
X021101Y002802D03*
X020101Y002802D03*
X019101Y002802D03*
X018101Y002802D03*
X017101Y002802D03*
X016101Y002802D03*
X015101Y002802D03*
X014101Y002802D03*
X013101Y002802D03*
X012101Y002802D03*
X011101Y002802D03*
X010101Y002802D03*
X009101Y002802D03*
X008101Y002802D03*
X008101Y001802D03*
X009101Y001802D03*
X010101Y001802D03*
X011101Y001802D03*
X012101Y001802D03*
X013101Y001802D03*
X014101Y001802D03*
X015101Y001802D03*
X016101Y001802D03*
X017101Y001802D03*
X018101Y001802D03*
X019101Y001802D03*
X020101Y001802D03*
X021101Y001802D03*
X022101Y001802D03*
X023101Y001802D03*
X024101Y001802D03*
X025101Y001802D03*
X026101Y001802D03*
X027101Y001802D03*
D13*
X002918Y001802D02*
X002284Y001802D01*
X002284Y002802D02*
X002918Y002802D01*
X002918Y003802D02*
X002284Y003802D01*
X002284Y004802D02*
X002918Y004802D01*
X002918Y005802D02*
X002284Y005802D01*
X002284Y006802D02*
X002918Y006802D01*
X002918Y007802D02*
X002284Y007802D01*
X002284Y008802D02*
X002918Y008802D01*
M02*
