%
M48
M72
T01C0.0200
T02C0.0394
T03C0.0400
T04C0.0440
%
T01
X710Y230
X610Y280
X735Y305
X635Y355
X510Y505
X910Y730
X1110Y755
X1160Y755
X885Y830
X635Y980
X585Y980
X685Y1055
X1135Y1055
X1860Y730
X1910Y730
X1960Y730
X2410Y730
X2460Y730
X2035Y505
X1260Y330
X4260Y730
X4485Y630
X4735Y680
X4885Y830
X4410Y880
X5010Y505
X4360Y480
T02
X260Y180
X260Y280
X260Y380
X260Y480
X260Y580
X260Y680
X260Y780
X260Y880
T03
X810Y280
X910Y280
X1010Y280
X1110Y280
X1210Y280
X1310Y280
X1410Y280
X1510Y280
X1610Y280
X1710Y280
X1810Y280
X1910Y280
X2010Y280
X2110Y280
X2210Y280
X2310Y280
X2410Y280
X2510Y280
X2610Y280
X2710Y280
X2710Y180
X2610Y180
X2510Y180
X2410Y180
X2310Y180
X2210Y180
X2110Y180
X2010Y180
X1910Y180
X1810Y180
X1710Y180
X1610Y180
X1510Y180
X1410Y180
X1310Y180
X1210Y180
X1110Y180
X1010Y180
X910Y180
X810Y180
X3360Y180
X3460Y180
X3560Y180
X3660Y180
X3760Y180
X3860Y180
X3960Y180
X4060Y180
X4160Y180
X4260Y180
X4360Y180
X4460Y180
X4560Y180
X4660Y180
X4760Y180
X4860Y180
X4960Y180
X5060Y180
X5160Y180
X5260Y180
X5260Y280
X5160Y280
X5060Y280
X4960Y280
X4860Y280
X4760Y280
X4660Y280
X4560Y280
X4460Y280
X4360Y280
X4260Y280
X4160Y280
X4060Y280
X3960Y280
X3860Y280
X3760Y280
X3660Y280
X3560Y280
X3460Y280
X3360Y280
T04
X3310Y580
X3610Y580
X3810Y580
X4110Y580
X4310Y580
X4310Y680
X4110Y680
X3810Y680
X3610Y680
X3310Y680
X3310Y780
X3310Y880
X3610Y880
X3810Y880
X3810Y780
X3610Y780
X4110Y780
X4310Y780
X4310Y880
X4110Y880
X4110Y980
X4310Y980
X4310Y1080
X4110Y1080
X3810Y1080
X3610Y1080
X3310Y1080
X3310Y980
X3610Y980
X3810Y980
X3810Y1180
X3610Y1180
X3310Y1180
X3310Y1280
X3310Y1380
X3610Y1380
X3810Y1380
X3810Y1280
X3610Y1280
X4110Y1280
X4310Y1280
X4310Y1380
X4110Y1380
X4110Y1480
X4310Y1480
X4610Y1480
X4810Y1480
X5110Y1480
X5310Y1480
X5610Y1480
X5610Y1380
X5610Y1280
X5310Y1280
X5110Y1280
X5110Y1380
X5310Y1380
X4810Y1380
X4610Y1380
X4610Y1280
X4810Y1280
X4810Y1180
X4610Y1180
X4610Y1080
X4810Y1080
X5110Y1080
X5310Y1080
X5610Y1080
X5610Y980
X5310Y980
X5110Y980
X4810Y980
X4610Y980
X4610Y880
X4810Y880
X4810Y780
X4610Y780
X4610Y680
X4810Y680
X5110Y680
X5310Y680
X5610Y680
X5610Y580
X5310Y580
X5110Y580
X4810Y580
X4610Y580
X5110Y780
X5310Y780
X5310Y880
X5110Y880
X5610Y880
X5610Y780
X5610Y1180
X5310Y1180
X5110Y1180
X4310Y1180
X4110Y1180
X3810Y1480
X3610Y1480
X3310Y1480
X2810Y1480
X2510Y1480
X2310Y1480
X2010Y1480
X1810Y1480
X1810Y1380
X2010Y1380
X2010Y1280
X1810Y1280
X1810Y1180
X2010Y1180
X2310Y1180
X2510Y1180
X2810Y1180
X2810Y1080
X2510Y1080
X2310Y1080
X2010Y1080
X1810Y1080
X1810Y980
X2010Y980
X2310Y980
X2510Y980
X2810Y980
X2810Y880
X2810Y780
X2510Y780
X2310Y780
X2310Y880
X2510Y880
X2010Y880
X1810Y880
X1810Y780
X2010Y780
X2010Y680
X1810Y680
X1810Y580
X2010Y580
X2310Y580
X2510Y580
X2810Y580
X2810Y680
X2510Y680
X2310Y680
X1510Y680
X1310Y680
X1010Y680
X810Y680
X510Y680
X510Y580
X810Y580
X1010Y580
X1310Y580
X1510Y580
X1510Y780
X1310Y780
X1310Y880
X1510Y880
X1510Y980
X1310Y980
X1010Y980
X810Y980
X510Y980
X510Y880
X510Y780
X810Y780
X1010Y780
X1010Y880
X810Y880
X810Y1080
X1010Y1080
X1310Y1080
X1510Y1080
X1510Y1180
X1310Y1180
X1010Y1180
X810Y1180
X510Y1180
X510Y1080
X510Y1280
X510Y1380
X810Y1380
X1010Y1380
X1010Y1280
X810Y1280
X1310Y1280
X1510Y1280
X1510Y1380
X1310Y1380
X1310Y1480
X1510Y1480
X1010Y1480
X810Y1480
X510Y1480
X2310Y1380
X2510Y1380
X2510Y1280
X2310Y1280
X2810Y1280
X2810Y1380
M30
