G75*
G70*
%OFA0B0*%
%FSLAX24Y24*%
%IPPOS*%
%LPD*%
%AMOC8*
5,1,8,0,0,1.08239X$1,22.5*
%
%ADD10R,0.0680X0.0680*%
%ADD11C,0.0680*%
%ADD12OC8,0.0640*%
%ADD13C,0.0634*%
%ADD14C,0.0080*%
%ADD15C,0.0400*%
%ADD16C,0.0160*%
D10*
X008101Y005802D03*
X013101Y005802D03*
X018101Y005802D03*
X023101Y005802D03*
X028101Y005802D03*
X036101Y005802D03*
X041101Y005802D03*
X046101Y005802D03*
X051101Y005802D03*
X056101Y005802D03*
D11*
X053101Y005802D03*
X053101Y006802D03*
X051101Y006802D03*
X048101Y006802D03*
X046101Y006802D03*
X046101Y007802D03*
X048101Y007802D03*
X048101Y008802D03*
X046101Y008802D03*
X046101Y009802D03*
X048101Y009802D03*
X051101Y009802D03*
X053101Y009802D03*
X056101Y009802D03*
X056101Y008802D03*
X056101Y007802D03*
X053101Y007802D03*
X051101Y007802D03*
X051101Y008802D03*
X053101Y008802D03*
X056101Y006802D03*
X048101Y005802D03*
X043101Y005802D03*
X043101Y006802D03*
X041101Y006802D03*
X038101Y006802D03*
X036101Y006802D03*
X033101Y006802D03*
X033101Y005802D03*
X028101Y006802D03*
X025101Y006802D03*
X023101Y006802D03*
X020101Y006802D03*
X018101Y006802D03*
X018101Y007802D03*
X020101Y007802D03*
X020101Y008802D03*
X018101Y008802D03*
X018101Y009802D03*
X020101Y009802D03*
X023101Y009802D03*
X025101Y009802D03*
X028101Y009802D03*
X028101Y008802D03*
X028101Y007802D03*
X025101Y007802D03*
X023101Y007802D03*
X023101Y008802D03*
X025101Y008802D03*
X025101Y010802D03*
X023101Y010802D03*
X020101Y010802D03*
X018101Y010802D03*
X018101Y011802D03*
X020101Y011802D03*
X023101Y011802D03*
X025101Y011802D03*
X028101Y011802D03*
X028101Y010802D03*
X033101Y010802D03*
X036101Y010802D03*
X038101Y010802D03*
X041101Y010802D03*
X043101Y010802D03*
X043101Y009802D03*
X041101Y009802D03*
X038101Y009802D03*
X036101Y009802D03*
X033101Y009802D03*
X033101Y008802D03*
X033101Y007802D03*
X036101Y007802D03*
X038101Y007802D03*
X038101Y008802D03*
X036101Y008802D03*
X041101Y008802D03*
X043101Y008802D03*
X043101Y007802D03*
X041101Y007802D03*
X038101Y005802D03*
X025101Y005802D03*
X020101Y005802D03*
X015101Y005802D03*
X015101Y006802D03*
X013101Y006802D03*
X010101Y006802D03*
X008101Y006802D03*
X005101Y006802D03*
X005101Y005802D03*
X010101Y005802D03*
X010101Y007802D03*
X008101Y007802D03*
X008101Y008802D03*
X010101Y008802D03*
X013101Y008802D03*
X015101Y008802D03*
X015101Y007802D03*
X013101Y007802D03*
X013101Y009802D03*
X015101Y009802D03*
X015101Y010802D03*
X013101Y010802D03*
X010101Y010802D03*
X008101Y010802D03*
X005101Y010802D03*
X005101Y009802D03*
X008101Y009802D03*
X010101Y009802D03*
X005101Y008802D03*
X005101Y007802D03*
X005101Y011802D03*
X008101Y011802D03*
X010101Y011802D03*
X013101Y011802D03*
X015101Y011802D03*
X015101Y012802D03*
X013101Y012802D03*
X013101Y013802D03*
X015101Y013802D03*
X015101Y014802D03*
X013101Y014802D03*
X010101Y014802D03*
X008101Y014802D03*
X005101Y014802D03*
X005101Y013802D03*
X005101Y012802D03*
X008101Y012802D03*
X010101Y012802D03*
X010101Y013802D03*
X008101Y013802D03*
X018101Y013802D03*
X020101Y013802D03*
X020101Y012802D03*
X018101Y012802D03*
X023101Y012802D03*
X025101Y012802D03*
X025101Y013802D03*
X023101Y013802D03*
X023101Y014802D03*
X025101Y014802D03*
X028101Y014802D03*
X028101Y013802D03*
X028101Y012802D03*
X033101Y012802D03*
X033101Y013802D03*
X036101Y013802D03*
X038101Y013802D03*
X038101Y012802D03*
X036101Y012802D03*
X036101Y011802D03*
X038101Y011802D03*
X041101Y011802D03*
X043101Y011802D03*
X043101Y012802D03*
X041101Y012802D03*
X041101Y013802D03*
X043101Y013802D03*
X043101Y014802D03*
X041101Y014802D03*
X038101Y014802D03*
X036101Y014802D03*
X033101Y014802D03*
X033101Y011802D03*
X020101Y014802D03*
X018101Y014802D03*
X046101Y014802D03*
X048101Y014802D03*
X051101Y014802D03*
X053101Y014802D03*
X056101Y014802D03*
X056101Y013802D03*
X056101Y012802D03*
X053101Y012802D03*
X051101Y012802D03*
X051101Y013802D03*
X053101Y013802D03*
X048101Y013802D03*
X046101Y013802D03*
X046101Y012802D03*
X048101Y012802D03*
X048101Y011802D03*
X046101Y011802D03*
X046101Y010802D03*
X048101Y010802D03*
X051101Y010802D03*
X053101Y010802D03*
X056101Y010802D03*
X056101Y011802D03*
X053101Y011802D03*
X051101Y011802D03*
D12*
X050601Y002802D03*
X049601Y002802D03*
X048601Y002802D03*
X047601Y002802D03*
X046601Y002802D03*
X045601Y002802D03*
X044601Y002802D03*
X043601Y002802D03*
X042601Y002802D03*
X041601Y002802D03*
X040601Y002802D03*
X039601Y002802D03*
X038601Y002802D03*
X037601Y002802D03*
X036601Y002802D03*
X035601Y002802D03*
X034601Y002802D03*
X033601Y002802D03*
X033601Y001802D03*
X034601Y001802D03*
X035601Y001802D03*
X036601Y001802D03*
X037601Y001802D03*
X038601Y001802D03*
X039601Y001802D03*
X040601Y001802D03*
X041601Y001802D03*
X042601Y001802D03*
X043601Y001802D03*
X044601Y001802D03*
X045601Y001802D03*
X046601Y001802D03*
X047601Y001802D03*
X048601Y001802D03*
X049601Y001802D03*
X050601Y001802D03*
X051601Y001802D03*
X052601Y001802D03*
X052601Y002802D03*
X051601Y002802D03*
X027101Y002802D03*
X026101Y002802D03*
X025101Y002802D03*
X024101Y002802D03*
X023101Y002802D03*
X022101Y002802D03*
X021101Y002802D03*
X020101Y002802D03*
X019101Y002802D03*
X018101Y002802D03*
X017101Y002802D03*
X016101Y002802D03*
X015101Y002802D03*
X014101Y002802D03*
X013101Y002802D03*
X012101Y002802D03*
X011101Y002802D03*
X010101Y002802D03*
X009101Y002802D03*
X008101Y002802D03*
X008101Y001802D03*
X009101Y001802D03*
X010101Y001802D03*
X011101Y001802D03*
X012101Y001802D03*
X013101Y001802D03*
X014101Y001802D03*
X015101Y001802D03*
X016101Y001802D03*
X017101Y001802D03*
X018101Y001802D03*
X019101Y001802D03*
X020101Y001802D03*
X021101Y001802D03*
X022101Y001802D03*
X023101Y001802D03*
X024101Y001802D03*
X025101Y001802D03*
X026101Y001802D03*
X027101Y001802D03*
D13*
X002918Y001802D02*
X002284Y001802D01*
X002284Y002802D02*
X002918Y002802D01*
X002918Y003802D02*
X002284Y003802D01*
X002284Y004802D02*
X002918Y004802D01*
X002918Y005802D02*
X002284Y005802D01*
X002284Y006802D02*
X002918Y006802D01*
X002918Y007802D02*
X002284Y007802D01*
X002284Y008802D02*
X002918Y008802D01*
D14*
X001601Y001052D02*
X029851Y001052D01*
X032601Y003802D01*
X033601Y002802D02*
X033601Y009802D01*
X033101Y009802D01*
X028101Y010802D02*
X027601Y010802D01*
X027601Y007552D01*
X027851Y007302D01*
X028601Y007302D01*
X028601Y005302D01*
X026101Y002802D01*
X021101Y001802D02*
X020601Y002302D01*
X020601Y005052D01*
X020351Y005052D01*
X018601Y006302D02*
X018101Y006802D01*
X017601Y007302D01*
X013601Y007302D01*
X013101Y006802D01*
X011351Y006802D01*
X010851Y007302D01*
X009851Y007302D01*
X009351Y006802D01*
X008101Y006802D01*
X007601Y006552D02*
X007851Y006302D01*
X013601Y006302D01*
X013601Y002302D01*
X014101Y001802D01*
X014351Y001302D02*
X014601Y001552D01*
X014601Y003802D01*
X012601Y003302D02*
X010601Y005302D01*
X007601Y005302D01*
X005601Y007302D01*
X005601Y008802D01*
X005101Y008802D01*
X004851Y009302D02*
X004101Y008552D01*
X003601Y008552D01*
X003601Y006552D01*
X005101Y005052D01*
X005101Y004552D02*
X005601Y005052D01*
X006851Y003802D01*
X010851Y003802D01*
X011601Y003052D01*
X011601Y001302D01*
X014351Y001302D01*
X010101Y001802D02*
X009601Y002302D01*
X007101Y002302D01*
X006101Y002802D02*
X007601Y001302D01*
X008601Y001302D01*
X009101Y001802D01*
X009101Y002802D02*
X008351Y003552D01*
X006351Y003552D01*
X006101Y003302D02*
X006351Y003052D01*
X007351Y003052D01*
X006101Y003302D02*
X004101Y003302D01*
X002601Y001802D01*
X001601Y001052D02*
X001601Y002802D01*
X002601Y003802D01*
X002851Y004552D02*
X005101Y004552D01*
X005601Y005052D02*
X005601Y006802D01*
X005101Y006802D01*
X002601Y006802D02*
X001601Y007802D01*
X001601Y015302D01*
X053851Y015302D01*
X055851Y013302D01*
X056351Y013302D01*
X056601Y013052D01*
X056601Y012302D01*
X055851Y012302D01*
X055101Y011552D01*
X055101Y007802D01*
X056101Y007802D01*
X055851Y008302D02*
X055351Y008802D01*
X055351Y010802D01*
X056101Y010802D01*
X056351Y010302D02*
X056601Y010552D01*
X056601Y011802D01*
X056101Y011802D01*
X056101Y012802D02*
X055601Y013302D01*
X050601Y013302D01*
X045601Y013302D01*
X040601Y013302D01*
X041101Y012802D01*
X040601Y013302D02*
X036601Y013302D01*
X036101Y012802D01*
X035601Y013302D01*
X027601Y013302D01*
X022601Y013302D01*
X017601Y013302D01*
X018101Y012802D01*
X017601Y013302D02*
X013601Y013302D01*
X013101Y012802D01*
X014601Y012302D02*
X019601Y012302D01*
X024601Y012302D01*
X032601Y012302D01*
X033101Y012802D01*
X033601Y012302D01*
X037601Y012302D01*
X042601Y012302D01*
X047601Y012302D01*
X052601Y012302D01*
X053101Y012802D01*
X051101Y012802D02*
X050601Y013302D01*
X048101Y012802D02*
X047601Y012302D01*
X048101Y011802D02*
X047601Y011302D01*
X045601Y011302D01*
X045601Y007552D01*
X045851Y007302D01*
X046851Y007302D01*
X047351Y006802D01*
X046601Y006302D02*
X046101Y006802D01*
X044851Y006802D01*
X044351Y006302D01*
X041601Y006302D01*
X041101Y006802D01*
X040601Y007302D01*
X036601Y007302D01*
X036101Y006802D01*
X035601Y006552D02*
X035851Y006302D01*
X038351Y006302D01*
X039351Y005302D01*
X044101Y005302D01*
X044101Y004302D01*
X042601Y002802D01*
X041601Y002802D02*
X043601Y004802D01*
X047601Y005302D02*
X049601Y005302D01*
X050601Y006302D01*
X056351Y006302D01*
X056601Y006552D01*
X056601Y007302D01*
X055351Y007302D01*
X053351Y009302D01*
X052601Y009302D01*
X051101Y010802D01*
X055601Y010302D02*
X055601Y009552D01*
X055851Y009302D01*
X057601Y009302D01*
X057601Y005802D01*
X054101Y002302D01*
X052101Y002302D01*
X051601Y001802D01*
X052601Y001802D02*
X052851Y002052D01*
X055601Y002052D01*
X057851Y004302D01*
X057851Y009802D01*
X056101Y009802D01*
X056351Y010302D02*
X055601Y010302D01*
X056101Y008802D02*
X057351Y008802D01*
X057351Y005802D01*
X056601Y005052D01*
X054851Y005052D01*
X052601Y002802D01*
X051601Y002802D02*
X054101Y005302D01*
X056601Y005302D01*
X056851Y005552D01*
X056851Y008302D01*
X055851Y008302D01*
X053101Y007802D02*
X051101Y007802D01*
X051601Y007302D02*
X055101Y007302D01*
X055601Y006802D01*
X056101Y006802D01*
X051601Y007302D02*
X051101Y006802D01*
X050851Y006802D01*
X050351Y006302D01*
X046601Y006302D01*
X045101Y006302D02*
X044851Y006302D01*
X045101Y006302D02*
X045101Y002302D01*
X044601Y001802D01*
X047601Y002802D02*
X047601Y005302D01*
X049101Y005052D02*
X050101Y005052D01*
X049101Y005052D02*
X049101Y002302D01*
X048601Y001802D01*
X034601Y002802D02*
X034601Y011802D01*
X033101Y011802D01*
X035601Y011302D02*
X042601Y011302D01*
X043101Y011802D01*
X042601Y012302D02*
X043101Y012802D01*
X043101Y013802D02*
X042601Y014302D01*
X047601Y014302D01*
X052601Y014302D01*
X053101Y013802D01*
X048101Y013802D02*
X047601Y014302D01*
X046101Y012802D02*
X045601Y013302D01*
X042601Y014302D02*
X037601Y014302D01*
X038101Y013802D01*
X037601Y014302D02*
X033601Y014302D01*
X033101Y013802D01*
X032601Y014302D01*
X024601Y014302D01*
X019601Y014302D01*
X014601Y014302D01*
X009601Y014302D01*
X005601Y014302D01*
X005101Y013802D01*
X002601Y013802D01*
X002601Y008802D01*
X004851Y009302D02*
X006851Y009302D01*
X007851Y010302D01*
X009601Y010302D01*
X010101Y010802D01*
X010601Y009802D02*
X011351Y010552D01*
X010601Y009802D02*
X010101Y009802D01*
X010601Y009302D02*
X013101Y011802D01*
X014601Y012302D02*
X009601Y012302D01*
X004601Y012302D01*
X004601Y009802D01*
X002601Y007802D01*
X007601Y006552D02*
X007601Y009302D01*
X010601Y009302D01*
X010351Y008802D02*
X010101Y008802D01*
X010351Y008802D02*
X011601Y007552D01*
X011101Y007552D02*
X010351Y008302D01*
X009351Y008302D01*
X008851Y008802D01*
X008101Y008802D01*
X008851Y008302D02*
X009101Y008302D01*
X009101Y007302D01*
X013101Y007802D02*
X015101Y007802D01*
X017601Y008302D02*
X015101Y010802D01*
X018101Y009802D02*
X019601Y009802D01*
X019601Y007302D01*
X019101Y007302D02*
X019101Y008802D01*
X018101Y008802D01*
X018601Y008302D02*
X017601Y008302D01*
X018601Y008302D02*
X018601Y007302D01*
X018601Y006302D02*
X022601Y006302D01*
X027601Y006302D01*
X028101Y006802D01*
X028101Y007802D02*
X033101Y007802D01*
X036101Y007802D02*
X038101Y007802D01*
X035601Y006552D02*
X035601Y011302D01*
X037601Y012302D02*
X038101Y012802D01*
X044351Y010302D02*
X045851Y011802D01*
X046101Y011802D01*
X044351Y010302D02*
X042601Y010302D01*
X042601Y007302D01*
X046101Y007802D02*
X048101Y007802D01*
X048851Y008302D02*
X049351Y008802D01*
X051101Y008802D01*
X044101Y008802D02*
X043101Y008802D01*
X028101Y012802D02*
X027601Y013302D01*
X025101Y012802D02*
X024601Y012302D01*
X023101Y012802D02*
X022601Y013302D01*
X020101Y012802D02*
X019601Y012302D01*
X020101Y013802D02*
X019601Y014302D01*
X015101Y013802D02*
X014601Y014302D01*
X015101Y012802D02*
X014601Y012302D01*
X010101Y012802D02*
X009601Y012302D01*
X008101Y011802D02*
X006851Y010552D01*
X005851Y010802D02*
X005101Y010802D01*
X005851Y010802D02*
X005851Y009802D01*
X006351Y009802D02*
X006351Y011802D01*
X005101Y011802D01*
X004601Y012302D02*
X004601Y012802D01*
X005101Y012802D01*
X009601Y014302D02*
X010101Y013802D01*
X024101Y009802D02*
X025101Y009802D01*
X024101Y009802D02*
X024101Y007302D01*
X024601Y007302D02*
X024601Y008802D01*
X025101Y008802D01*
X023101Y006802D02*
X022601Y006302D01*
X002851Y004552D02*
X002601Y004802D01*
X024601Y014302D02*
X025101Y013802D01*
D15*
X011351Y010552D03*
X006851Y010552D03*
X006351Y009802D03*
X005851Y009802D03*
X008851Y008302D03*
X011101Y007552D03*
X011601Y007552D03*
X009101Y007302D03*
X005101Y005052D03*
X006351Y003552D03*
X007351Y003052D03*
X006101Y002802D03*
X007101Y002302D03*
X012601Y003302D03*
X020351Y005052D03*
X019601Y007302D03*
X019101Y007302D03*
X018601Y007302D03*
X024101Y007302D03*
X024601Y007302D03*
X042601Y007302D03*
X044851Y006302D03*
X047351Y006802D03*
X048851Y008302D03*
X044101Y008802D03*
X050101Y005052D03*
X043601Y004802D03*
D16*
X040601Y005502D02*
X039434Y005502D01*
X038551Y006385D01*
X038485Y006451D01*
X038497Y006464D01*
X038546Y006530D01*
X038583Y006603D01*
X038608Y006681D01*
X038621Y006761D01*
X038621Y006772D01*
X038131Y006772D01*
X038131Y006832D01*
X038621Y006832D01*
X038621Y006843D01*
X038608Y006924D01*
X038583Y007002D01*
X038546Y007075D01*
X038526Y007102D01*
X040518Y007102D01*
X040635Y006985D01*
X040601Y006902D01*
X040601Y006703D01*
X040677Y006519D01*
X040818Y006378D01*
X041001Y006302D01*
X041200Y006302D01*
X041283Y006337D01*
X041318Y006302D01*
X040694Y006302D01*
X040601Y006209D01*
X040601Y005502D01*
X039434Y005502D01*
X038551Y006385D01*
X038485Y006451D01*
X038497Y006464D01*
X038546Y006530D01*
X038583Y006603D01*
X038608Y006681D01*
X038621Y006761D01*
X038621Y006772D01*
X038131Y006772D01*
X038131Y006832D01*
X038621Y006832D01*
X038621Y006843D01*
X038608Y006924D01*
X038583Y007002D01*
X038546Y007075D01*
X038526Y007102D01*
X040518Y007102D01*
X040635Y006985D01*
X040601Y006902D01*
X040601Y006703D01*
X040677Y006519D01*
X040818Y006378D01*
X041001Y006302D01*
X041200Y006302D01*
X041283Y006337D01*
X041318Y006302D01*
X040694Y006302D01*
X040601Y006209D01*
X040601Y005502D01*
X040601Y005534D02*
X039402Y005534D01*
X040601Y005534D01*
X040601Y005693D02*
X039243Y005693D01*
X040601Y005693D01*
X040601Y005851D02*
X039085Y005851D01*
X040601Y005851D01*
X040601Y006010D02*
X038926Y006010D01*
X040601Y006010D01*
X040601Y006168D02*
X038767Y006168D01*
X040601Y006168D01*
X040942Y006327D02*
X038609Y006327D01*
X040942Y006327D01*
X040710Y006486D02*
X038513Y006486D01*
X040710Y006486D01*
X040625Y006644D02*
X038596Y006644D01*
X040625Y006644D01*
X040601Y006803D02*
X038131Y006803D01*
X040601Y006803D01*
X040625Y006961D02*
X038596Y006961D01*
X040625Y006961D01*
X040918Y007268D02*
X040684Y007502D01*
X040518Y007502D01*
X038508Y007502D01*
X038525Y007519D01*
X038601Y007703D01*
X038601Y007902D01*
X038525Y008086D01*
X038384Y008226D01*
X038200Y008302D01*
X038384Y008378D01*
X038525Y008519D01*
X038601Y008703D01*
X038601Y008902D01*
X038525Y009086D01*
X038384Y009226D01*
X038200Y009302D01*
X038001Y009302D01*
X037818Y009226D01*
X037677Y009086D01*
X037601Y008902D01*
X037601Y008703D01*
X037677Y008519D01*
X037818Y008378D01*
X038001Y008302D01*
X037818Y008226D01*
X037677Y008086D01*
X037642Y008002D01*
X036559Y008002D01*
X036525Y008086D01*
X036384Y008226D01*
X036200Y008302D01*
X036384Y008378D01*
X036525Y008519D01*
X036601Y008703D01*
X036601Y008902D01*
X036525Y009086D01*
X036384Y009226D01*
X036200Y009302D01*
X036384Y009378D01*
X036525Y009519D01*
X036601Y009703D01*
X036601Y009902D01*
X036525Y010086D01*
X036384Y010226D01*
X036200Y010302D01*
X036384Y010378D01*
X036525Y010519D01*
X036601Y010703D01*
X036601Y010902D01*
X036525Y011086D01*
X036508Y011102D01*
X037694Y011102D01*
X037677Y011086D01*
X037601Y010902D01*
X037601Y010703D01*
X037677Y010519D01*
X037818Y010378D01*
X038001Y010302D01*
X037818Y010226D01*
X037677Y010086D01*
X037601Y009902D01*
X037601Y009703D01*
X037677Y009519D01*
X037818Y009378D01*
X038001Y009302D01*
X037818Y009226D01*
X037677Y009086D01*
X037601Y008902D01*
X037601Y008703D01*
X037677Y008519D01*
X037818Y008378D01*
X038001Y008302D01*
X038200Y008302D01*
X038001Y008302D01*
X037818Y008226D01*
X037677Y008086D01*
X037642Y008002D01*
X036559Y008002D01*
X036525Y008086D01*
X036384Y008226D01*
X036200Y008302D01*
X036001Y008302D01*
X035818Y008226D01*
X035801Y008209D01*
X035801Y008395D01*
X035818Y008378D01*
X036001Y008302D01*
X036200Y008302D01*
X036384Y008378D01*
X036525Y008519D01*
X036601Y008703D01*
X036601Y008902D01*
X036525Y009086D01*
X036384Y009226D01*
X036200Y009302D01*
X036001Y009302D01*
X035818Y009226D01*
X035801Y009209D01*
X035801Y009395D01*
X035818Y009378D01*
X036001Y009302D01*
X036200Y009302D01*
X036384Y009378D01*
X036525Y009519D01*
X036601Y009703D01*
X036601Y009902D01*
X036525Y010086D01*
X036384Y010226D01*
X036200Y010302D01*
X036001Y010302D01*
X035818Y010226D01*
X035801Y010209D01*
X035801Y010395D01*
X035818Y010378D01*
X036001Y010302D01*
X036200Y010302D01*
X036384Y010378D01*
X036525Y010519D01*
X036601Y010703D01*
X036601Y010902D01*
X036525Y011086D01*
X036508Y011102D01*
X037694Y011102D01*
X037677Y011086D01*
X037601Y010902D01*
X037601Y010703D01*
X037677Y010519D01*
X037818Y010378D01*
X038001Y010302D01*
X038200Y010302D01*
X038384Y010226D01*
X038525Y010086D01*
X038601Y009902D01*
X038601Y009703D01*
X038525Y009519D01*
X038384Y009378D01*
X038200Y009302D01*
X038001Y009302D01*
X038200Y009302D01*
X038384Y009226D01*
X038525Y009086D01*
X038601Y008902D01*
X038601Y008703D01*
X038525Y008519D01*
X038384Y008378D01*
X038200Y008302D01*
X038001Y008302D01*
X038200Y008302D01*
X038384Y008226D01*
X038525Y008086D01*
X038601Y007902D01*
X038601Y007703D01*
X038525Y007519D01*
X038508Y007502D01*
X040518Y007502D01*
X040684Y007502D01*
X040918Y007268D01*
X041001Y007302D01*
X041200Y007302D01*
X041384Y007378D01*
X041525Y007519D01*
X041601Y007703D01*
X041601Y007902D01*
X041525Y008086D01*
X041384Y008226D01*
X041200Y008302D01*
X041001Y008302D01*
X040818Y008226D01*
X040677Y008086D01*
X040601Y007902D01*
X040601Y007703D01*
X040677Y007519D01*
X040818Y007378D01*
X041001Y007302D01*
X040918Y007268D01*
X040908Y007278D02*
X040943Y007278D01*
X040908Y007278D01*
X041001Y007302D02*
X041200Y007302D01*
X041384Y007226D01*
X041525Y007086D01*
X041601Y006902D01*
X041601Y006703D01*
X041566Y006620D01*
X041684Y006502D01*
X042676Y006502D01*
X042656Y006530D01*
X042619Y006603D01*
X042594Y006681D01*
X042581Y006761D01*
X042581Y006772D01*
X043071Y006772D01*
X043071Y006832D01*
X042581Y006832D01*
X042581Y006843D01*
X042594Y006924D01*
X042600Y006942D01*
X042529Y006942D01*
X042397Y006997D01*
X042296Y007098D01*
X042241Y007231D01*
X042241Y007374D01*
X042296Y007506D01*
X042397Y007608D01*
X042401Y007609D01*
X042401Y010219D01*
X042401Y010385D01*
X042518Y010502D01*
X042694Y010502D01*
X042677Y010519D01*
X042601Y010703D01*
X042601Y010902D01*
X042677Y011086D01*
X042818Y011226D01*
X043001Y011302D01*
X043200Y011302D01*
X043384Y011378D01*
X043525Y011519D01*
X043601Y011703D01*
X043601Y011902D01*
X043525Y012086D01*
X043508Y012102D01*
X045694Y012102D01*
X045677Y012086D01*
X045601Y011902D01*
X045601Y011835D01*
X044268Y010502D01*
X043508Y010502D01*
X043525Y010519D01*
X043601Y010703D01*
X043601Y010902D01*
X043525Y011086D01*
X043384Y011226D01*
X043200Y011302D01*
X043001Y011302D01*
X042818Y011226D01*
X042677Y011086D01*
X042601Y010902D01*
X042601Y010703D01*
X042677Y010519D01*
X042694Y010502D01*
X042518Y010502D01*
X042401Y010385D01*
X042401Y010219D01*
X042401Y007609D01*
X042397Y007608D01*
X042296Y007506D01*
X042241Y007374D01*
X042241Y007231D01*
X042296Y007098D01*
X042397Y006997D01*
X042529Y006942D01*
X042600Y006942D01*
X042594Y006924D01*
X042581Y006843D01*
X042581Y006832D01*
X043071Y006832D01*
X043071Y006772D01*
X042581Y006772D01*
X042581Y006761D01*
X042594Y006681D01*
X042619Y006603D01*
X042656Y006530D01*
X042676Y006502D01*
X041684Y006502D01*
X041566Y006620D01*
X041601Y006703D01*
X041601Y006902D01*
X041525Y007086D01*
X041384Y007226D01*
X041200Y007302D01*
X041384Y007378D01*
X041525Y007519D01*
X041601Y007703D01*
X041601Y007902D01*
X041525Y008086D01*
X041384Y008226D01*
X041200Y008302D01*
X041384Y008378D01*
X041525Y008519D01*
X041601Y008703D01*
X041601Y008902D01*
X041525Y009086D01*
X041384Y009226D01*
X041200Y009302D01*
X041001Y009302D01*
X040818Y009226D01*
X040677Y009086D01*
X040601Y008902D01*
X040601Y008703D01*
X040677Y008519D01*
X040818Y008378D01*
X041001Y008302D01*
X040818Y008226D01*
X040677Y008086D01*
X040601Y007902D01*
X040601Y007703D01*
X040677Y007519D01*
X040818Y007378D01*
X041001Y007302D01*
X041200Y007302D01*
X041001Y007302D01*
X041258Y007278D02*
X042241Y007278D01*
X041258Y007278D01*
X041442Y007437D02*
X042267Y007437D01*
X041442Y007437D01*
X041556Y007595D02*
X042385Y007595D01*
X041556Y007595D01*
X041601Y007754D02*
X042401Y007754D01*
X041601Y007754D01*
X041596Y007912D02*
X042401Y007912D01*
X041596Y007912D01*
X041531Y008071D02*
X042401Y008071D01*
X041531Y008071D01*
X041376Y008230D02*
X042401Y008230D01*
X041376Y008230D01*
X041384Y008378D02*
X041200Y008302D01*
X041001Y008302D01*
X041200Y008302D01*
X041001Y008302D01*
X040818Y008378D01*
X040677Y008519D01*
X040601Y008703D01*
X040601Y008902D01*
X040677Y009086D01*
X040818Y009226D01*
X041001Y009302D01*
X041200Y009302D01*
X041384Y009378D01*
X041525Y009519D01*
X041601Y009703D01*
X041601Y009902D01*
X041525Y010086D01*
X041384Y010226D01*
X041200Y010302D01*
X041001Y010302D01*
X040818Y010226D01*
X040677Y010086D01*
X040601Y009902D01*
X040601Y009703D01*
X040677Y009519D01*
X040818Y009378D01*
X041001Y009302D01*
X041200Y009302D01*
X041384Y009226D01*
X041525Y009086D01*
X041601Y008902D01*
X041601Y008703D01*
X041525Y008519D01*
X041384Y008378D01*
X041394Y008388D02*
X042401Y008388D01*
X041394Y008388D01*
X041536Y008547D02*
X042401Y008547D01*
X041536Y008547D01*
X041601Y008705D02*
X042401Y008705D01*
X041601Y008705D01*
X041601Y008864D02*
X042401Y008864D01*
X041601Y008864D01*
X041551Y009022D02*
X042401Y009022D01*
X041551Y009022D01*
X041429Y009181D02*
X042401Y009181D01*
X041429Y009181D01*
X041384Y009378D02*
X041525Y009519D01*
X041601Y009703D01*
X041601Y009902D01*
X041525Y010086D01*
X041384Y010226D01*
X041200Y010302D01*
X041384Y010378D01*
X041525Y010519D01*
X041601Y010703D01*
X041601Y010902D01*
X041525Y011086D01*
X041508Y011102D01*
X042518Y011102D01*
X042684Y011102D01*
X042918Y011337D01*
X043001Y011302D01*
X043200Y011302D01*
X043384Y011378D01*
X043525Y011519D01*
X043601Y011703D01*
X043601Y011902D01*
X043525Y012086D01*
X043508Y012102D01*
X045694Y012102D01*
X045677Y012086D01*
X045601Y011902D01*
X045601Y011835D01*
X044268Y010502D01*
X043508Y010502D01*
X043525Y010519D01*
X043601Y010703D01*
X043601Y010902D01*
X043525Y011086D01*
X043384Y011226D01*
X043200Y011302D01*
X043001Y011302D01*
X042918Y011337D01*
X042684Y011102D01*
X042518Y011102D01*
X041508Y011102D01*
X041525Y011086D01*
X041601Y010902D01*
X041601Y010703D01*
X041525Y010519D01*
X041384Y010378D01*
X041200Y010302D01*
X041001Y010302D01*
X040818Y010226D01*
X040677Y010086D01*
X040601Y009902D01*
X040601Y009703D01*
X040677Y009519D01*
X040818Y009378D01*
X041001Y009302D01*
X041200Y009302D01*
X041384Y009378D01*
X041289Y009339D02*
X042401Y009339D01*
X041289Y009339D01*
X041503Y009498D02*
X042401Y009498D01*
X041503Y009498D01*
X041581Y009656D02*
X042401Y009656D01*
X041581Y009656D01*
X041601Y009815D02*
X042401Y009815D01*
X041601Y009815D01*
X041571Y009974D02*
X042401Y009974D01*
X041571Y009974D01*
X041478Y010132D02*
X042401Y010132D01*
X041478Y010132D01*
X041229Y010291D02*
X042401Y010291D01*
X041229Y010291D01*
X041200Y010302D02*
X041001Y010302D01*
X040818Y010378D01*
X040677Y010519D01*
X040601Y010703D01*
X040601Y010902D01*
X040677Y011086D01*
X040694Y011102D01*
X038508Y011102D01*
X038525Y011086D01*
X038601Y010902D01*
X038601Y010703D01*
X038525Y010519D01*
X038384Y010378D01*
X038200Y010302D01*
X038001Y010302D01*
X037818Y010226D01*
X037677Y010086D01*
X037601Y009902D01*
X037601Y009703D01*
X037677Y009519D01*
X037818Y009378D01*
X038001Y009302D01*
X038200Y009302D01*
X038384Y009378D01*
X038525Y009519D01*
X038601Y009703D01*
X038601Y009902D01*
X038525Y010086D01*
X038384Y010226D01*
X038200Y010302D01*
X038001Y010302D01*
X038200Y010302D01*
X038384Y010378D01*
X038525Y010519D01*
X038601Y010703D01*
X038601Y010902D01*
X038525Y011086D01*
X038508Y011102D01*
X040694Y011102D01*
X040677Y011086D01*
X040601Y010902D01*
X040601Y010703D01*
X040677Y010519D01*
X040818Y010378D01*
X041001Y010302D01*
X041200Y010302D01*
X040973Y010291D02*
X038229Y010291D01*
X040973Y010291D01*
X040747Y010449D02*
X038455Y010449D01*
X040747Y010449D01*
X040640Y010608D02*
X038561Y010608D01*
X040640Y010608D01*
X040601Y010766D02*
X038601Y010766D01*
X040601Y010766D01*
X040610Y010925D02*
X038591Y010925D01*
X040610Y010925D01*
X040676Y011083D02*
X038526Y011083D01*
X040676Y011083D01*
X041526Y011083D02*
X042676Y011083D01*
X041526Y011083D01*
X041591Y010925D02*
X042610Y010925D01*
X041591Y010925D01*
X041601Y010766D02*
X042601Y010766D01*
X041601Y010766D01*
X041561Y010608D02*
X042640Y010608D01*
X041561Y010608D01*
X041455Y010449D02*
X042465Y010449D01*
X041455Y010449D01*
X040723Y010132D02*
X038478Y010132D01*
X040723Y010132D01*
X040631Y009974D02*
X038571Y009974D01*
X040631Y009974D01*
X040601Y009815D02*
X038601Y009815D01*
X040601Y009815D01*
X040620Y009656D02*
X038581Y009656D01*
X040620Y009656D01*
X040698Y009498D02*
X038503Y009498D01*
X040698Y009498D01*
X040912Y009339D02*
X038289Y009339D01*
X040912Y009339D01*
X040772Y009181D02*
X038429Y009181D01*
X040772Y009181D01*
X040651Y009022D02*
X038551Y009022D01*
X040651Y009022D01*
X040601Y008864D02*
X038601Y008864D01*
X040601Y008864D01*
X040601Y008705D02*
X038601Y008705D01*
X040601Y008705D01*
X040665Y008547D02*
X038536Y008547D01*
X040665Y008547D01*
X040808Y008388D02*
X038394Y008388D01*
X040808Y008388D01*
X040826Y008230D02*
X038376Y008230D01*
X040826Y008230D01*
X040671Y008071D02*
X038531Y008071D01*
X040671Y008071D01*
X040605Y007912D02*
X038596Y007912D01*
X040605Y007912D01*
X040601Y007754D02*
X038601Y007754D01*
X040601Y007754D01*
X040645Y007595D02*
X038556Y007595D01*
X040645Y007595D01*
X040749Y007437D02*
X040759Y007437D01*
X040749Y007437D01*
X041490Y007120D02*
X042287Y007120D01*
X041490Y007120D01*
X041576Y006961D02*
X042484Y006961D01*
X041576Y006961D01*
X041601Y006803D02*
X043071Y006803D01*
X041601Y006803D01*
X041576Y006644D02*
X042605Y006644D01*
X041576Y006644D01*
X041293Y006327D02*
X041260Y006327D01*
X041293Y006327D01*
X043131Y006772D02*
X043131Y006832D01*
X043621Y006832D01*
X043621Y006843D01*
X043608Y006924D01*
X043583Y007002D01*
X043546Y007075D01*
X043497Y007141D01*
X043440Y007199D01*
X043373Y007247D01*
X043300Y007284D01*
X043223Y007310D01*
X043219Y007310D01*
X043384Y007378D01*
X043525Y007519D01*
X043601Y007703D01*
X043601Y007902D01*
X043525Y008086D01*
X043384Y008226D01*
X043200Y008302D01*
X043384Y008378D01*
X043525Y008519D01*
X043559Y008602D01*
X043794Y008602D01*
X043796Y008598D01*
X043897Y008497D01*
X044029Y008442D01*
X044172Y008442D01*
X044305Y008497D01*
X044406Y008598D01*
X044461Y008731D01*
X044461Y008874D01*
X044406Y009006D01*
X044305Y009108D01*
X044172Y009162D01*
X044029Y009162D01*
X043897Y009108D01*
X043796Y009006D01*
X043794Y009002D01*
X043559Y009002D01*
X043525Y009086D01*
X043384Y009226D01*
X043200Y009302D01*
X043384Y009378D01*
X043525Y009519D01*
X043601Y009703D01*
X043601Y009902D01*
X043525Y010086D01*
X043508Y010102D01*
X044268Y010102D01*
X044434Y010102D01*
X045401Y011070D01*
X045401Y007469D01*
X045518Y007352D01*
X045731Y007139D01*
X045677Y007086D01*
X045642Y007002D01*
X044768Y007002D01*
X044651Y006885D01*
X044268Y006502D01*
X043526Y006502D01*
X043546Y006530D01*
X043583Y006603D01*
X043608Y006681D01*
X043621Y006761D01*
X043621Y006772D01*
X043131Y006772D01*
X043131Y006832D01*
X043621Y006832D01*
X043621Y006843D01*
X043608Y006924D01*
X043583Y007002D01*
X043546Y007075D01*
X043497Y007141D01*
X043440Y007199D01*
X043373Y007247D01*
X043300Y007284D01*
X043223Y007310D01*
X043219Y007310D01*
X043384Y007378D01*
X043525Y007519D01*
X043601Y007703D01*
X043601Y007902D01*
X043525Y008086D01*
X043384Y008226D01*
X043200Y008302D01*
X043001Y008302D01*
X042818Y008226D01*
X042801Y008209D01*
X042801Y008395D01*
X042818Y008378D01*
X043001Y008302D01*
X043200Y008302D01*
X043384Y008378D01*
X043525Y008519D01*
X043559Y008602D01*
X043794Y008602D01*
X043796Y008598D01*
X043897Y008497D01*
X044029Y008442D01*
X044172Y008442D01*
X044305Y008497D01*
X044406Y008598D01*
X044461Y008731D01*
X044461Y008874D01*
X044406Y009006D01*
X044305Y009108D01*
X044172Y009162D01*
X044029Y009162D01*
X043897Y009108D01*
X043796Y009006D01*
X043794Y009002D01*
X043559Y009002D01*
X043525Y009086D01*
X043384Y009226D01*
X043200Y009302D01*
X043001Y009302D01*
X042818Y009226D01*
X042801Y009209D01*
X042801Y009395D01*
X042818Y009378D01*
X043001Y009302D01*
X043200Y009302D01*
X043384Y009378D01*
X043525Y009519D01*
X043601Y009703D01*
X043601Y009902D01*
X043525Y010086D01*
X043508Y010102D01*
X044268Y010102D01*
X044434Y010102D01*
X045401Y011070D01*
X045401Y007469D01*
X045518Y007352D01*
X045731Y007139D01*
X045677Y007086D01*
X045642Y007002D01*
X044768Y007002D01*
X044651Y006885D01*
X044651Y006885D01*
X044268Y006502D01*
X043526Y006502D01*
X043546Y006530D01*
X043583Y006603D01*
X043608Y006681D01*
X043621Y006761D01*
X043621Y006772D01*
X043131Y006772D01*
X043131Y006803D02*
X044568Y006803D01*
X043131Y006803D01*
X043596Y006961D02*
X044727Y006961D01*
X043596Y006961D01*
X043513Y007120D02*
X045711Y007120D01*
X043513Y007120D01*
X043312Y007278D02*
X045592Y007278D01*
X043312Y007278D01*
X043442Y007437D02*
X045433Y007437D01*
X043442Y007437D01*
X043556Y007595D02*
X045401Y007595D01*
X043556Y007595D01*
X043601Y007754D02*
X045401Y007754D01*
X043601Y007754D01*
X043596Y007912D02*
X045401Y007912D01*
X043596Y007912D01*
X043531Y008071D02*
X045401Y008071D01*
X043531Y008071D01*
X043376Y008230D02*
X045401Y008230D01*
X043376Y008230D01*
X043394Y008388D02*
X045401Y008388D01*
X043394Y008388D01*
X043200Y008302D02*
X043001Y008302D01*
X042818Y008226D01*
X042801Y008209D01*
X042801Y008395D01*
X042818Y008378D01*
X043001Y008302D01*
X043200Y008302D01*
X042826Y008230D02*
X042801Y008230D01*
X042826Y008230D01*
X042801Y008388D02*
X042808Y008388D01*
X042801Y008388D01*
X043536Y008547D02*
X043847Y008547D01*
X043536Y008547D01*
X044354Y008547D02*
X045401Y008547D01*
X044354Y008547D01*
X044450Y008705D02*
X045401Y008705D01*
X044450Y008705D01*
X044461Y008864D02*
X045401Y008864D01*
X044461Y008864D01*
X044390Y009022D02*
X045401Y009022D01*
X044390Y009022D01*
X043812Y009022D02*
X043551Y009022D01*
X043812Y009022D01*
X043429Y009181D02*
X045401Y009181D01*
X043429Y009181D01*
X043289Y009339D02*
X045401Y009339D01*
X043289Y009339D01*
X043200Y009302D02*
X043001Y009302D01*
X042818Y009226D01*
X042801Y009209D01*
X042801Y009395D01*
X042818Y009378D01*
X043001Y009302D01*
X043200Y009302D01*
X042912Y009339D02*
X042801Y009339D01*
X042912Y009339D01*
X043503Y009498D02*
X045401Y009498D01*
X043503Y009498D01*
X043581Y009656D02*
X045401Y009656D01*
X043581Y009656D01*
X043601Y009815D02*
X045401Y009815D01*
X043601Y009815D01*
X043571Y009974D02*
X045401Y009974D01*
X043571Y009974D01*
X044463Y010132D02*
X045401Y010132D01*
X044463Y010132D01*
X044622Y010291D02*
X045401Y010291D01*
X044622Y010291D01*
X044780Y010449D02*
X045401Y010449D01*
X044780Y010449D01*
X044939Y010608D02*
X045401Y010608D01*
X044939Y010608D01*
X045097Y010766D02*
X045401Y010766D01*
X045097Y010766D01*
X045256Y010925D02*
X045401Y010925D01*
X045256Y010925D01*
X044849Y011083D02*
X043526Y011083D01*
X044849Y011083D01*
X044690Y010925D02*
X043591Y010925D01*
X044690Y010925D01*
X044532Y010766D02*
X043601Y010766D01*
X044532Y010766D01*
X044373Y010608D02*
X043561Y010608D01*
X044373Y010608D01*
X045007Y011242D02*
X043346Y011242D01*
X045007Y011242D01*
X045166Y011400D02*
X043406Y011400D01*
X045166Y011400D01*
X045325Y011559D02*
X043541Y011559D01*
X045325Y011559D01*
X045483Y011717D02*
X043601Y011717D01*
X045483Y011717D01*
X045601Y011876D02*
X043601Y011876D01*
X045601Y011876D01*
X045656Y012035D02*
X043546Y012035D01*
X045656Y012035D01*
X047684Y011102D02*
X047918Y011337D01*
X048001Y011302D01*
X047818Y011226D01*
X047677Y011086D01*
X047601Y010902D01*
X047601Y010703D01*
X047677Y010519D01*
X047818Y010378D01*
X048001Y010302D01*
X047818Y010226D01*
X047677Y010086D01*
X047601Y009902D01*
X047601Y009703D01*
X047677Y009519D01*
X047818Y009378D01*
X048001Y009302D01*
X047818Y009226D01*
X047677Y009086D01*
X047601Y008902D01*
X047601Y008703D01*
X047677Y008519D01*
X047818Y008378D01*
X048001Y008302D01*
X047818Y008226D01*
X047677Y008086D01*
X047642Y008002D01*
X047601Y008002D01*
X047601Y011102D01*
X047684Y011102D01*
X047918Y011337D01*
X048001Y011302D01*
X048200Y011302D01*
X048384Y011226D01*
X048525Y011086D01*
X048601Y010902D01*
X048601Y010703D01*
X048525Y010519D01*
X048384Y010378D01*
X048200Y010302D01*
X048001Y010302D01*
X047818Y010226D01*
X047677Y010086D01*
X047601Y009902D01*
X047601Y009703D01*
X047677Y009519D01*
X047818Y009378D01*
X048001Y009302D01*
X048200Y009302D01*
X048384Y009226D01*
X048525Y009086D01*
X048601Y008902D01*
X048601Y008703D01*
X048525Y008519D01*
X048384Y008378D01*
X048200Y008302D01*
X048001Y008302D01*
X048200Y008302D01*
X048384Y008226D01*
X048525Y008086D01*
X048601Y007902D01*
X048601Y007703D01*
X048525Y007519D01*
X048384Y007378D01*
X048219Y007310D01*
X048223Y007310D01*
X048300Y007284D01*
X048373Y007247D01*
X048440Y007199D01*
X048497Y007141D01*
X048546Y007075D01*
X048583Y007002D01*
X048608Y006924D01*
X048621Y006843D01*
X048621Y006832D01*
X048131Y006832D01*
X048131Y006772D01*
X048621Y006772D01*
X048621Y006761D01*
X048608Y006681D01*
X048583Y006603D01*
X048546Y006530D01*
X048526Y006502D01*
X050268Y006502D01*
X050601Y006835D01*
X050601Y006902D01*
X050677Y007086D01*
X050818Y007226D01*
X051001Y007302D01*
X051200Y007302D01*
X051283Y007268D01*
X051401Y007385D01*
X051518Y007502D01*
X052694Y007502D01*
X052677Y007519D01*
X052642Y007602D01*
X051559Y007602D01*
X051525Y007519D01*
X051384Y007378D01*
X051200Y007302D01*
X051001Y007302D01*
X050818Y007226D01*
X050677Y007086D01*
X050601Y006902D01*
X050601Y006835D01*
X050268Y006502D01*
X048526Y006502D01*
X048546Y006530D01*
X048583Y006603D01*
X048608Y006681D01*
X048621Y006761D01*
X048621Y006772D01*
X048131Y006772D01*
X048131Y006832D01*
X048621Y006832D01*
X048621Y006843D01*
X048608Y006924D01*
X048583Y007002D01*
X048546Y007075D01*
X048497Y007141D01*
X048440Y007199D01*
X048373Y007247D01*
X048300Y007284D01*
X048223Y007310D01*
X048219Y007310D01*
X048384Y007378D01*
X048525Y007519D01*
X048601Y007703D01*
X048601Y007902D01*
X048525Y008086D01*
X048384Y008226D01*
X048200Y008302D01*
X048384Y008378D01*
X048525Y008519D01*
X048601Y008703D01*
X048601Y008902D01*
X048525Y009086D01*
X048384Y009226D01*
X048200Y009302D01*
X048384Y009378D01*
X048525Y009519D01*
X048601Y009703D01*
X048601Y009902D01*
X048525Y010086D01*
X048384Y010226D01*
X048200Y010302D01*
X048001Y010302D01*
X048200Y010302D01*
X048384Y010226D01*
X048525Y010086D01*
X048601Y009902D01*
X048601Y009703D01*
X048525Y009519D01*
X048384Y009378D01*
X048200Y009302D01*
X048001Y009302D01*
X047818Y009226D01*
X047677Y009086D01*
X047601Y008902D01*
X047601Y008703D01*
X047677Y008519D01*
X047818Y008378D01*
X048001Y008302D01*
X047818Y008226D01*
X047677Y008086D01*
X047642Y008002D01*
X047601Y008002D01*
X047601Y011102D01*
X047684Y011102D01*
X047677Y011086D02*
X047601Y010902D01*
X047601Y010703D01*
X047677Y010519D01*
X047818Y010378D01*
X048001Y010302D01*
X048200Y010302D01*
X048384Y010378D01*
X048525Y010519D01*
X048601Y010703D01*
X048601Y010902D01*
X048525Y011086D01*
X048384Y011226D01*
X048200Y011302D01*
X048384Y011378D01*
X048525Y011519D01*
X048601Y011703D01*
X048601Y011902D01*
X048525Y012086D01*
X048508Y012102D01*
X050694Y012102D01*
X050677Y012086D01*
X050601Y011902D01*
X050601Y011703D01*
X050677Y011519D01*
X050818Y011378D01*
X051001Y011302D01*
X050818Y011226D01*
X050677Y011086D01*
X050601Y010902D01*
X050601Y010703D01*
X050677Y010519D01*
X050818Y010378D01*
X051001Y010302D01*
X050818Y010226D01*
X050677Y010086D01*
X050601Y009902D01*
X050601Y009703D01*
X050677Y009519D01*
X050818Y009378D01*
X051001Y009302D01*
X050818Y009226D01*
X050677Y009086D01*
X050642Y009002D01*
X049268Y009002D01*
X049151Y008885D01*
X048926Y008661D01*
X048922Y008662D01*
X048779Y008662D01*
X048647Y008608D01*
X048546Y008506D01*
X048491Y008374D01*
X048491Y008231D01*
X048546Y008098D01*
X048647Y007997D01*
X048779Y007942D01*
X048922Y007942D01*
X049055Y007997D01*
X049156Y008098D01*
X049211Y008231D01*
X049211Y008374D01*
X049209Y008378D01*
X049434Y008602D01*
X050642Y008602D01*
X050677Y008519D01*
X050818Y008378D01*
X051001Y008302D01*
X050818Y008226D01*
X050677Y008086D01*
X050601Y007902D01*
X050601Y007703D01*
X050677Y007519D01*
X050818Y007378D01*
X051001Y007302D01*
X051200Y007302D01*
X051283Y007268D01*
X051401Y007385D01*
X051518Y007502D01*
X052694Y007502D01*
X052677Y007519D01*
X052642Y007602D01*
X051559Y007602D01*
X051525Y007519D01*
X051384Y007378D01*
X051200Y007302D01*
X051001Y007302D01*
X050818Y007378D01*
X050677Y007519D01*
X050601Y007703D01*
X050601Y007902D01*
X050677Y008086D01*
X050818Y008226D01*
X051001Y008302D01*
X051200Y008302D01*
X051384Y008378D01*
X051525Y008519D01*
X051601Y008703D01*
X051601Y008902D01*
X051525Y009086D01*
X051384Y009226D01*
X051200Y009302D01*
X051384Y009378D01*
X051525Y009519D01*
X051601Y009703D01*
X051601Y009902D01*
X051525Y010086D01*
X051384Y010226D01*
X051200Y010302D01*
X051001Y010302D01*
X050818Y010226D01*
X050677Y010086D01*
X050601Y009902D01*
X050601Y009703D01*
X050677Y009519D01*
X050818Y009378D01*
X051001Y009302D01*
X051200Y009302D01*
X051001Y009302D01*
X050818Y009226D01*
X050677Y009086D01*
X050642Y009002D01*
X049268Y009002D01*
X049151Y008885D01*
X048926Y008661D01*
X048922Y008662D01*
X048779Y008662D01*
X048647Y008608D01*
X048546Y008506D01*
X048491Y008374D01*
X048491Y008231D01*
X048546Y008098D01*
X048647Y007997D01*
X048779Y007942D01*
X048922Y007942D01*
X049055Y007997D01*
X049156Y008098D01*
X049211Y008231D01*
X049211Y008374D01*
X049209Y008378D01*
X049434Y008602D01*
X050642Y008602D01*
X050677Y008519D01*
X050818Y008378D01*
X051001Y008302D01*
X051200Y008302D01*
X051001Y008302D01*
X051200Y008302D01*
X051384Y008226D01*
X051525Y008086D01*
X051559Y008002D01*
X052642Y008002D01*
X052677Y008086D01*
X052818Y008226D01*
X053001Y008302D01*
X053200Y008302D01*
X053384Y008226D01*
X053525Y008086D01*
X053601Y007902D01*
X053601Y007703D01*
X053525Y007519D01*
X053508Y007502D01*
X054868Y007502D01*
X053601Y008770D01*
X053601Y008703D01*
X053525Y008519D01*
X053384Y008378D01*
X053200Y008302D01*
X053001Y008302D01*
X052818Y008226D01*
X052677Y008086D01*
X052642Y008002D01*
X051559Y008002D01*
X051525Y008086D01*
X051384Y008226D01*
X051200Y008302D01*
X051384Y008378D01*
X051525Y008519D01*
X051601Y008703D01*
X051601Y008902D01*
X051525Y009086D01*
X051384Y009226D01*
X051200Y009302D01*
X051384Y009378D01*
X051525Y009519D01*
X051601Y009703D01*
X051601Y009902D01*
X051525Y010086D01*
X051384Y010226D01*
X051200Y010302D01*
X051283Y010337D01*
X052518Y009102D01*
X052684Y009102D01*
X052694Y009102D01*
X052677Y009086D01*
X052601Y008902D01*
X052601Y008703D01*
X052677Y008519D01*
X052818Y008378D01*
X053001Y008302D01*
X053200Y008302D01*
X053384Y008226D01*
X053525Y008086D01*
X053601Y007902D01*
X053601Y007703D01*
X053525Y007519D01*
X053508Y007502D01*
X054868Y007502D01*
X053601Y008770D01*
X053601Y008703D01*
X053525Y008519D01*
X053384Y008378D01*
X053200Y008302D01*
X053001Y008302D01*
X052818Y008378D01*
X052677Y008519D01*
X052601Y008703D01*
X052601Y008902D01*
X052677Y009086D01*
X052694Y009102D01*
X052684Y009102D01*
X052518Y009102D01*
X051283Y010337D01*
X051200Y010302D01*
X051001Y010302D01*
X051200Y010302D01*
X051001Y010302D01*
X050818Y010378D01*
X050677Y010519D01*
X050601Y010703D01*
X050601Y010902D01*
X050677Y011086D01*
X050818Y011226D01*
X051001Y011302D01*
X051200Y011302D01*
X051384Y011378D01*
X051525Y011519D01*
X051601Y011703D01*
X051601Y011902D01*
X051525Y012086D01*
X051508Y012102D01*
X052684Y012102D01*
X052801Y012219D01*
X052918Y012337D01*
X053001Y012302D01*
X052818Y012226D01*
X052677Y012086D01*
X052601Y011902D01*
X052601Y011703D01*
X052677Y011519D01*
X052818Y011378D01*
X053001Y011302D01*
X052818Y011226D01*
X052677Y011086D01*
X052601Y010902D01*
X052601Y010703D01*
X052677Y010519D01*
X052818Y010378D01*
X053001Y010302D01*
X052818Y010226D01*
X052677Y010086D01*
X052601Y009902D01*
X052601Y009703D01*
X052677Y009519D01*
X052694Y009502D01*
X052684Y009502D01*
X051566Y010620D01*
X051601Y010703D01*
X051601Y010902D01*
X051525Y011086D01*
X051384Y011226D01*
X051200Y011302D01*
X051001Y011302D01*
X051200Y011302D01*
X051384Y011378D01*
X051525Y011519D01*
X051601Y011703D01*
X051601Y011902D01*
X051525Y012086D01*
X051508Y012102D01*
X052684Y012102D01*
X052801Y012219D01*
X052918Y012337D01*
X053001Y012302D01*
X053200Y012302D01*
X053384Y012226D01*
X053525Y012086D01*
X053601Y011902D01*
X053601Y011703D01*
X053525Y011519D01*
X053384Y011378D01*
X053200Y011302D01*
X053001Y011302D01*
X053200Y011302D01*
X053384Y011226D01*
X053525Y011086D01*
X053601Y010902D01*
X053601Y010703D01*
X053525Y010519D01*
X053384Y010378D01*
X053200Y010302D01*
X053001Y010302D01*
X053200Y010302D01*
X053384Y010226D01*
X053525Y010086D01*
X053601Y009902D01*
X053601Y009703D01*
X053525Y009519D01*
X053471Y009465D01*
X053551Y009385D01*
X054901Y008035D01*
X054901Y011635D01*
X055018Y011752D01*
X055731Y012465D01*
X055677Y012519D01*
X055601Y012703D01*
X055601Y012902D01*
X055635Y012985D01*
X055518Y013102D01*
X053508Y013102D01*
X053525Y013086D01*
X053601Y012902D01*
X053601Y012703D01*
X053525Y012519D01*
X053384Y012378D01*
X053200Y012302D01*
X053001Y012302D01*
X052818Y012226D01*
X052677Y012086D01*
X052601Y011902D01*
X052601Y011703D01*
X052677Y011519D01*
X052818Y011378D01*
X053001Y011302D01*
X052818Y011226D01*
X052677Y011086D01*
X052601Y010902D01*
X052601Y010703D01*
X052677Y010519D01*
X052818Y010378D01*
X053001Y010302D01*
X052818Y010226D01*
X052677Y010086D01*
X052601Y009902D01*
X052601Y009703D01*
X052677Y009519D01*
X052694Y009502D01*
X052684Y009502D01*
X051566Y010620D01*
X051601Y010703D01*
X051601Y010902D01*
X051525Y011086D01*
X051384Y011226D01*
X051200Y011302D01*
X051001Y011302D01*
X050818Y011378D01*
X050677Y011519D01*
X050601Y011703D01*
X050601Y011902D01*
X050677Y012086D01*
X050694Y012102D01*
X048508Y012102D01*
X048525Y012086D01*
X048601Y011902D01*
X048601Y011703D01*
X048525Y011519D01*
X048384Y011378D01*
X048200Y011302D01*
X048001Y011302D01*
X047818Y011226D01*
X047677Y011086D01*
X047676Y011083D02*
X047601Y011083D01*
X047676Y011083D01*
X047610Y010925D02*
X047601Y010925D01*
X047610Y010925D01*
X047601Y010608D02*
X047640Y010608D01*
X047601Y010608D01*
X047601Y010449D02*
X047747Y010449D01*
X047601Y010449D01*
X047601Y010291D02*
X047973Y010291D01*
X047601Y010291D01*
X047601Y010132D02*
X047723Y010132D01*
X047601Y010132D01*
X047601Y009974D02*
X047631Y009974D01*
X047601Y009974D01*
X047601Y009656D02*
X047620Y009656D01*
X047601Y009656D01*
X047601Y009498D02*
X047698Y009498D01*
X047601Y009498D01*
X047601Y009339D02*
X047912Y009339D01*
X047601Y009339D01*
X047601Y009181D02*
X047772Y009181D01*
X047601Y009181D01*
X047601Y009022D02*
X047651Y009022D01*
X047601Y009022D01*
X048001Y009302D02*
X048200Y009302D01*
X048001Y009302D01*
X048289Y009339D02*
X050912Y009339D01*
X048289Y009339D01*
X048429Y009181D02*
X050772Y009181D01*
X048429Y009181D01*
X048551Y009022D02*
X050651Y009022D01*
X048551Y009022D01*
X048601Y008864D02*
X049129Y008864D01*
X048601Y008864D01*
X048601Y008705D02*
X048971Y008705D01*
X048601Y008705D01*
X048586Y008547D02*
X048536Y008547D01*
X048586Y008547D01*
X048497Y008388D02*
X048394Y008388D01*
X048497Y008388D01*
X048491Y008230D02*
X048376Y008230D01*
X048491Y008230D01*
X048531Y008071D02*
X048573Y008071D01*
X048531Y008071D01*
X048596Y007912D02*
X050605Y007912D01*
X048596Y007912D01*
X048601Y007754D02*
X050601Y007754D01*
X048601Y007754D01*
X048556Y007595D02*
X050645Y007595D01*
X048556Y007595D01*
X048442Y007437D02*
X050759Y007437D01*
X048442Y007437D01*
X048312Y007278D02*
X050943Y007278D01*
X048312Y007278D01*
X048513Y007120D02*
X050711Y007120D01*
X048513Y007120D01*
X048596Y006961D02*
X050625Y006961D01*
X048596Y006961D01*
X048131Y006803D02*
X050568Y006803D01*
X048131Y006803D01*
X048596Y006644D02*
X050410Y006644D01*
X048596Y006644D01*
X051258Y007278D02*
X051294Y007278D01*
X051258Y007278D01*
X051442Y007437D02*
X051452Y007437D01*
X051442Y007437D01*
X051556Y007595D02*
X052645Y007595D01*
X051556Y007595D01*
X051684Y007102D02*
X052676Y007102D01*
X052656Y007075D01*
X052619Y007002D01*
X052594Y006924D01*
X052581Y006843D01*
X052581Y006832D01*
X053071Y006832D01*
X053071Y006772D01*
X052581Y006772D01*
X052581Y006761D01*
X052594Y006681D01*
X052619Y006603D01*
X052656Y006530D01*
X052676Y006502D01*
X051508Y006502D01*
X051525Y006519D01*
X051601Y006703D01*
X051601Y006902D01*
X051566Y006985D01*
X051684Y007102D01*
X052676Y007102D01*
X052656Y007075D01*
X052619Y007002D01*
X052594Y006924D01*
X052581Y006843D01*
X052581Y006832D01*
X053071Y006832D01*
X053071Y006772D01*
X052581Y006772D01*
X052581Y006761D01*
X052594Y006681D01*
X052619Y006603D01*
X052656Y006530D01*
X052676Y006502D01*
X051508Y006502D01*
X051525Y006519D01*
X051601Y006703D01*
X051601Y006902D01*
X051566Y006985D01*
X051684Y007102D01*
X051576Y006961D02*
X052606Y006961D01*
X051576Y006961D01*
X051601Y006803D02*
X053071Y006803D01*
X051601Y006803D01*
X051576Y006644D02*
X052605Y006644D01*
X051576Y006644D01*
X053131Y006772D02*
X053131Y006832D01*
X053621Y006832D01*
X053621Y006843D01*
X053608Y006924D01*
X053583Y007002D01*
X053546Y007075D01*
X053526Y007102D01*
X055018Y007102D01*
X055401Y006719D01*
X055518Y006602D01*
X055642Y006602D01*
X055677Y006519D01*
X055694Y006502D01*
X053526Y006502D01*
X053546Y006530D01*
X053583Y006603D01*
X053608Y006681D01*
X053621Y006761D01*
X053608Y006681D01*
X053583Y006603D01*
X053546Y006530D01*
X053526Y006502D01*
X055694Y006502D01*
X055677Y006519D01*
X055642Y006602D01*
X055518Y006602D01*
X055401Y006719D01*
X055018Y007102D01*
X053526Y007102D01*
X053546Y007075D01*
X053583Y007002D01*
X053608Y006924D01*
X053621Y006843D01*
X053621Y006832D01*
X053131Y006832D01*
X053131Y006772D01*
X053621Y006772D01*
X053621Y006761D01*
X053621Y006772D01*
X053131Y006772D01*
X053131Y006803D02*
X055318Y006803D01*
X053131Y006803D01*
X053596Y006961D02*
X055159Y006961D01*
X053596Y006961D01*
X053596Y006644D02*
X055476Y006644D01*
X053596Y006644D01*
X053556Y007595D02*
X054775Y007595D01*
X053556Y007595D01*
X053601Y007754D02*
X054616Y007754D01*
X053601Y007754D01*
X053596Y007912D02*
X054458Y007912D01*
X053596Y007912D01*
X053531Y008071D02*
X054299Y008071D01*
X053531Y008071D01*
X053376Y008230D02*
X054141Y008230D01*
X053376Y008230D01*
X053394Y008388D02*
X053982Y008388D01*
X053394Y008388D01*
X053536Y008547D02*
X053824Y008547D01*
X053536Y008547D01*
X053601Y008705D02*
X053665Y008705D01*
X053601Y008705D01*
X054072Y008864D02*
X054901Y008864D01*
X054072Y008864D01*
X053914Y009022D02*
X054901Y009022D01*
X053914Y009022D01*
X053755Y009181D02*
X054901Y009181D01*
X053755Y009181D01*
X053597Y009339D02*
X054901Y009339D01*
X053597Y009339D01*
X053551Y009385D02*
X053471Y009465D01*
X053525Y009519D01*
X053601Y009703D01*
X053601Y009902D01*
X053525Y010086D01*
X053384Y010226D01*
X053200Y010302D01*
X053384Y010378D01*
X053525Y010519D01*
X053601Y010703D01*
X053601Y010902D01*
X053525Y011086D01*
X053384Y011226D01*
X053200Y011302D01*
X053384Y011378D01*
X053525Y011519D01*
X053601Y011703D01*
X053601Y011902D01*
X053525Y012086D01*
X053384Y012226D01*
X053200Y012302D01*
X053001Y012302D01*
X053200Y012302D01*
X053384Y012378D01*
X053525Y012519D01*
X053601Y012703D01*
X053601Y012902D01*
X053525Y013086D01*
X053508Y013102D01*
X055518Y013102D01*
X055635Y012985D01*
X055601Y012902D01*
X055601Y012703D01*
X055677Y012519D01*
X055731Y012465D01*
X055018Y011752D01*
X054901Y011635D01*
X054901Y008035D01*
X053551Y009385D01*
X053503Y009498D02*
X054901Y009498D01*
X053503Y009498D01*
X053581Y009656D02*
X054901Y009656D01*
X053581Y009656D01*
X053601Y009815D02*
X054901Y009815D01*
X053601Y009815D01*
X053571Y009974D02*
X054901Y009974D01*
X053571Y009974D01*
X053478Y010132D02*
X054901Y010132D01*
X053478Y010132D01*
X053229Y010291D02*
X054901Y010291D01*
X053229Y010291D01*
X053200Y010302D02*
X053001Y010302D01*
X053200Y010302D01*
X052973Y010291D02*
X051895Y010291D01*
X052973Y010291D01*
X052747Y010449D02*
X051737Y010449D01*
X052747Y010449D01*
X052640Y010608D02*
X051578Y010608D01*
X052640Y010608D01*
X052601Y010766D02*
X051601Y010766D01*
X052601Y010766D01*
X052610Y010925D02*
X051591Y010925D01*
X052610Y010925D01*
X052676Y011083D02*
X051526Y011083D01*
X052676Y011083D01*
X052855Y011242D02*
X051346Y011242D01*
X052855Y011242D01*
X053001Y011302D02*
X053200Y011302D01*
X053001Y011302D01*
X052796Y011400D02*
X051406Y011400D01*
X052796Y011400D01*
X052660Y011559D02*
X051541Y011559D01*
X052660Y011559D01*
X052601Y011717D02*
X051601Y011717D01*
X052601Y011717D01*
X052601Y011876D02*
X051601Y011876D01*
X052601Y011876D01*
X052656Y012035D02*
X051546Y012035D01*
X052656Y012035D01*
X052774Y012193D02*
X052784Y012193D01*
X052774Y012193D01*
X053319Y012352D02*
X055617Y012352D01*
X053319Y012352D01*
X053417Y012193D02*
X055459Y012193D01*
X053417Y012193D01*
X053546Y012035D02*
X055300Y012035D01*
X053546Y012035D01*
X053601Y011876D02*
X055142Y011876D01*
X053601Y011876D01*
X053601Y011717D02*
X054983Y011717D01*
X053601Y011717D01*
X053541Y011559D02*
X054901Y011559D01*
X053541Y011559D01*
X053406Y011400D02*
X054901Y011400D01*
X053406Y011400D01*
X053346Y011242D02*
X054901Y011242D01*
X053346Y011242D01*
X053526Y011083D02*
X054901Y011083D01*
X053526Y011083D01*
X053591Y010925D02*
X054901Y010925D01*
X053591Y010925D01*
X053601Y010766D02*
X054901Y010766D01*
X053601Y010766D01*
X053561Y010608D02*
X054901Y010608D01*
X053561Y010608D01*
X053455Y010449D02*
X054901Y010449D01*
X053455Y010449D01*
X052723Y010132D02*
X052054Y010132D01*
X052723Y010132D01*
X052631Y009974D02*
X052212Y009974D01*
X052631Y009974D01*
X052601Y009815D02*
X052371Y009815D01*
X052601Y009815D01*
X052620Y009656D02*
X052530Y009656D01*
X052620Y009656D01*
X052281Y009339D02*
X051289Y009339D01*
X052281Y009339D01*
X052439Y009181D02*
X051429Y009181D01*
X052439Y009181D01*
X052651Y009022D02*
X051551Y009022D01*
X052651Y009022D01*
X052601Y008864D02*
X051601Y008864D01*
X052601Y008864D01*
X052601Y008705D02*
X051601Y008705D01*
X052601Y008705D01*
X052665Y008547D02*
X051536Y008547D01*
X052665Y008547D01*
X052808Y008388D02*
X051394Y008388D01*
X052808Y008388D01*
X052826Y008230D02*
X051376Y008230D01*
X052826Y008230D01*
X052671Y008071D02*
X051531Y008071D01*
X052671Y008071D01*
X054389Y008547D02*
X054901Y008547D01*
X054389Y008547D01*
X054231Y008705D02*
X054901Y008705D01*
X054231Y008705D01*
X054548Y008388D02*
X054901Y008388D01*
X054548Y008388D01*
X054706Y008230D02*
X054901Y008230D01*
X054706Y008230D01*
X054865Y008071D02*
X054901Y008071D01*
X054865Y008071D01*
X051200Y009302D02*
X051001Y009302D01*
X051200Y009302D01*
X051503Y009498D02*
X052122Y009498D01*
X051503Y009498D01*
X051581Y009656D02*
X051964Y009656D01*
X051581Y009656D01*
X051601Y009815D02*
X051805Y009815D01*
X051601Y009815D01*
X051571Y009974D02*
X051647Y009974D01*
X051571Y009974D01*
X051488Y010132D02*
X051478Y010132D01*
X051488Y010132D01*
X051330Y010291D02*
X051229Y010291D01*
X051330Y010291D01*
X050973Y010291D02*
X048229Y010291D01*
X050973Y010291D01*
X050747Y010449D02*
X048455Y010449D01*
X050747Y010449D01*
X050640Y010608D02*
X048561Y010608D01*
X050640Y010608D01*
X050601Y010766D02*
X048601Y010766D01*
X050601Y010766D01*
X050610Y010925D02*
X048591Y010925D01*
X050610Y010925D01*
X050676Y011083D02*
X048526Y011083D01*
X050676Y011083D01*
X050855Y011242D02*
X048346Y011242D01*
X050855Y011242D01*
X050796Y011400D02*
X048406Y011400D01*
X050796Y011400D01*
X050660Y011559D02*
X048541Y011559D01*
X050660Y011559D01*
X050601Y011717D02*
X048601Y011717D01*
X050601Y011717D01*
X050601Y011876D02*
X048601Y011876D01*
X050601Y011876D01*
X050656Y012035D02*
X048546Y012035D01*
X050656Y012035D01*
X048200Y011302D02*
X048001Y011302D01*
X048200Y011302D01*
X047855Y011242D02*
X047823Y011242D01*
X047855Y011242D01*
X048478Y010132D02*
X050723Y010132D01*
X048478Y010132D01*
X048571Y009974D02*
X050631Y009974D01*
X048571Y009974D01*
X048601Y009815D02*
X050601Y009815D01*
X048601Y009815D01*
X048581Y009656D02*
X050620Y009656D01*
X048581Y009656D01*
X048503Y009498D02*
X050698Y009498D01*
X048503Y009498D01*
X047665Y008547D02*
X047601Y008547D01*
X047665Y008547D01*
X047601Y008388D02*
X047808Y008388D01*
X047601Y008388D01*
X047601Y008230D02*
X047826Y008230D01*
X047601Y008230D01*
X047601Y008071D02*
X047671Y008071D01*
X047601Y008071D01*
X048001Y008302D02*
X048200Y008302D01*
X048001Y008302D01*
X049129Y008071D02*
X050671Y008071D01*
X049129Y008071D01*
X049210Y008230D02*
X050826Y008230D01*
X049210Y008230D01*
X049219Y008388D02*
X050808Y008388D01*
X049219Y008388D01*
X049378Y008547D02*
X050666Y008547D01*
X049378Y008547D01*
X044651Y006885D02*
X044651Y006885D01*
X044410Y006644D02*
X043596Y006644D01*
X044410Y006644D01*
X038071Y006772D02*
X037581Y006772D01*
X037581Y006761D01*
X037594Y006681D01*
X037619Y006603D01*
X037656Y006530D01*
X037676Y006502D01*
X036508Y006502D01*
X036525Y006519D01*
X036601Y006703D01*
X036601Y006902D01*
X036566Y006985D01*
X036684Y007102D01*
X037676Y007102D01*
X037656Y007075D01*
X037619Y007002D01*
X037594Y006924D01*
X037581Y006843D01*
X037581Y006832D01*
X038071Y006832D01*
X038071Y006772D01*
X037581Y006772D01*
X037581Y006761D01*
X037594Y006681D01*
X037619Y006603D01*
X037656Y006530D01*
X037676Y006502D01*
X036508Y006502D01*
X036525Y006519D01*
X036601Y006703D01*
X036601Y006902D01*
X036566Y006985D01*
X036684Y007102D01*
X037676Y007102D01*
X037656Y007075D01*
X037619Y007002D01*
X037594Y006924D01*
X037581Y006843D01*
X037581Y006832D01*
X038071Y006832D01*
X038071Y006772D01*
X038071Y006803D02*
X036601Y006803D01*
X038071Y006803D01*
X037606Y006961D02*
X036576Y006961D01*
X037606Y006961D01*
X037605Y006644D02*
X036576Y006644D01*
X037605Y006644D01*
X033401Y005395D02*
X033401Y003802D01*
X032601Y003802D01*
X032601Y006659D01*
X032619Y006603D01*
X032656Y006530D01*
X032704Y006464D01*
X032762Y006406D01*
X032828Y006358D01*
X032901Y006320D01*
X032979Y006295D01*
X032983Y006295D01*
X032818Y006226D01*
X032677Y006086D01*
X032601Y005902D01*
X032601Y005703D01*
X032677Y005519D01*
X032818Y005378D01*
X033001Y005302D01*
X033200Y005302D01*
X033384Y005378D01*
X033401Y005395D01*
X033401Y003802D01*
X032601Y003802D01*
X032601Y006659D01*
X032619Y006603D01*
X032656Y006530D01*
X032704Y006464D01*
X032762Y006406D01*
X032828Y006358D01*
X032901Y006320D01*
X032979Y006295D01*
X032983Y006295D01*
X032818Y006226D01*
X032677Y006086D01*
X032601Y005902D01*
X032601Y005703D01*
X032677Y005519D01*
X032818Y005378D01*
X033001Y005302D01*
X033200Y005302D01*
X033384Y005378D01*
X033401Y005395D01*
X033401Y005376D02*
X033377Y005376D01*
X033401Y005376D01*
X033401Y005217D02*
X032601Y005217D01*
X033401Y005217D01*
X033401Y005059D02*
X032601Y005059D01*
X033401Y005059D01*
X033401Y004900D02*
X032601Y004900D01*
X033401Y004900D01*
X033401Y004742D02*
X032601Y004742D01*
X033401Y004742D01*
X033401Y004583D02*
X032601Y004583D01*
X033401Y004583D01*
X033401Y004424D02*
X032601Y004424D01*
X033401Y004424D01*
X033401Y004266D02*
X032601Y004266D01*
X033401Y004266D01*
X033401Y004107D02*
X032601Y004107D01*
X033401Y004107D01*
X033401Y003949D02*
X032601Y003949D01*
X033401Y003949D01*
X032824Y005376D02*
X032601Y005376D01*
X032824Y005376D01*
X032671Y005534D02*
X032601Y005534D01*
X032671Y005534D01*
X032605Y005693D02*
X032601Y005693D01*
X032605Y005693D01*
X032601Y006010D02*
X032646Y006010D01*
X032601Y006010D01*
X032601Y006168D02*
X032760Y006168D01*
X032601Y006168D01*
X032601Y006327D02*
X032888Y006327D01*
X032601Y006327D01*
X032601Y006486D02*
X032688Y006486D01*
X032601Y006486D01*
X032601Y006644D02*
X032605Y006644D01*
X032601Y006644D01*
X029101Y008002D02*
X028559Y008002D01*
X028525Y008086D01*
X028384Y008226D01*
X028200Y008302D01*
X028384Y008378D01*
X028525Y008519D01*
X028601Y008703D01*
X028601Y008902D01*
X028525Y009086D01*
X028384Y009226D01*
X028200Y009302D01*
X028384Y009378D01*
X028525Y009519D01*
X028601Y009703D01*
X028601Y009902D01*
X028525Y010086D01*
X028384Y010226D01*
X028200Y010302D01*
X028384Y010378D01*
X028525Y010519D01*
X028601Y010703D01*
X028601Y010902D01*
X028525Y011086D01*
X028384Y011226D01*
X028200Y011302D01*
X028001Y011302D01*
X027818Y011226D01*
X027677Y011086D01*
X027642Y011002D01*
X027518Y011002D01*
X027401Y010885D01*
X027401Y010719D01*
X027401Y007469D01*
X027518Y007352D01*
X027731Y007139D01*
X027677Y007086D01*
X027601Y006902D01*
X027601Y006703D01*
X027635Y006620D01*
X027518Y006502D01*
X025526Y006502D01*
X025546Y006530D01*
X025583Y006603D01*
X025608Y006681D01*
X025621Y006761D01*
X025621Y006772D01*
X025131Y006772D01*
X025131Y006832D01*
X025621Y006832D01*
X025621Y006843D01*
X025608Y006924D01*
X025583Y007002D01*
X025546Y007075D01*
X025497Y007141D01*
X025440Y007199D01*
X025373Y007247D01*
X025300Y007284D01*
X025223Y007310D01*
X025219Y007310D01*
X025384Y007378D01*
X025525Y007519D01*
X025601Y007703D01*
X025601Y007902D01*
X025525Y008086D01*
X025384Y008226D01*
X025200Y008302D01*
X025384Y008378D01*
X025525Y008519D01*
X025601Y008703D01*
X025601Y008902D01*
X025525Y009086D01*
X025384Y009226D01*
X025200Y009302D01*
X025384Y009378D01*
X025525Y009519D01*
X025601Y009703D01*
X025601Y009902D01*
X025525Y010086D01*
X025384Y010226D01*
X025200Y010302D01*
X025384Y010378D01*
X025525Y010519D01*
X025601Y010703D01*
X025601Y010902D01*
X025525Y011086D01*
X025384Y011226D01*
X025200Y011302D01*
X025001Y011302D01*
X024818Y011226D01*
X024677Y011086D01*
X024601Y010902D01*
X024601Y010703D01*
X024677Y010519D01*
X024818Y010378D01*
X025001Y010302D01*
X024818Y010226D01*
X024677Y010086D01*
X024642Y010002D01*
X024018Y010002D01*
X023901Y009885D01*
X023901Y009719D01*
X023901Y007609D01*
X023897Y007608D01*
X023796Y007506D01*
X023741Y007374D01*
X023741Y007231D01*
X023796Y007098D01*
X023897Y006997D01*
X024029Y006942D01*
X024172Y006942D01*
X024305Y006997D01*
X024351Y007043D01*
X024397Y006997D01*
X024529Y006942D01*
X024600Y006942D01*
X024594Y006924D01*
X024581Y006843D01*
X024581Y006832D01*
X025071Y006832D01*
X025071Y006772D01*
X024581Y006772D01*
X024581Y006761D01*
X024594Y006681D01*
X024619Y006603D01*
X024656Y006530D01*
X024676Y006502D01*
X023508Y006502D01*
X023525Y006519D01*
X023601Y006703D01*
X023601Y006902D01*
X023525Y007086D01*
X023384Y007226D01*
X023200Y007302D01*
X023384Y007378D01*
X023525Y007519D01*
X023601Y007703D01*
X023601Y007902D01*
X023525Y008086D01*
X023384Y008226D01*
X023200Y008302D01*
X023001Y008302D01*
X022818Y008226D01*
X022677Y008086D01*
X022601Y007902D01*
X022601Y007703D01*
X022677Y007519D01*
X022818Y007378D01*
X023001Y007302D01*
X022818Y007226D01*
X022677Y007086D01*
X022601Y006902D01*
X022601Y006703D01*
X022635Y006620D01*
X022518Y006502D01*
X020526Y006502D01*
X020546Y006530D01*
X020583Y006603D01*
X020608Y006681D01*
X020621Y006761D01*
X020621Y006772D01*
X020131Y006772D01*
X020131Y006832D01*
X020621Y006832D01*
X020621Y006843D01*
X020608Y006924D01*
X020583Y007002D01*
X020546Y007075D01*
X020497Y007141D01*
X020440Y007199D01*
X020373Y007247D01*
X020300Y007284D01*
X020223Y007310D01*
X020219Y007310D01*
X020384Y007378D01*
X020525Y007519D01*
X020601Y007703D01*
X020601Y007902D01*
X020525Y008086D01*
X020384Y008226D01*
X020200Y008302D01*
X020384Y008378D01*
X020525Y008519D01*
X020601Y008703D01*
X020601Y008902D01*
X020525Y009086D01*
X020384Y009226D01*
X020200Y009302D01*
X020384Y009378D01*
X020525Y009519D01*
X020601Y009703D01*
X020601Y009902D01*
X020525Y010086D01*
X020384Y010226D01*
X020200Y010302D01*
X020384Y010378D01*
X020525Y010519D01*
X020601Y010703D01*
X020601Y010902D01*
X020525Y011086D01*
X020384Y011226D01*
X020200Y011302D01*
X020001Y011302D01*
X019818Y011226D01*
X019677Y011086D01*
X019601Y010902D01*
X019601Y010703D01*
X019677Y010519D01*
X019818Y010378D01*
X020001Y010302D01*
X019818Y010226D01*
X019677Y010086D01*
X019642Y010002D01*
X018559Y010002D01*
X018525Y010086D01*
X018384Y010226D01*
X018200Y010302D01*
X018384Y010378D01*
X018525Y010519D01*
X018601Y010703D01*
X018601Y010902D01*
X018525Y011086D01*
X018384Y011226D01*
X018200Y011302D01*
X018001Y011302D01*
X017818Y011226D01*
X017677Y011086D01*
X017601Y010902D01*
X017601Y010703D01*
X017677Y010519D01*
X017818Y010378D01*
X018001Y010302D01*
X017818Y010226D01*
X017677Y010086D01*
X017601Y009902D01*
X017601Y009703D01*
X017677Y009519D01*
X017818Y009378D01*
X018001Y009302D01*
X017818Y009226D01*
X017677Y009086D01*
X017601Y008902D01*
X017601Y008703D01*
X017677Y008519D01*
X017694Y008502D01*
X017684Y008502D01*
X015566Y010620D01*
X015601Y010703D01*
X015601Y010902D01*
X015525Y011086D01*
X015384Y011226D01*
X015200Y011302D01*
X015384Y011378D01*
X015525Y011519D01*
X015601Y011703D01*
X015601Y011902D01*
X015525Y012086D01*
X015508Y012102D01*
X017694Y012102D01*
X017677Y012086D01*
X017601Y011902D01*
X017601Y011703D01*
X017677Y011519D01*
X017818Y011378D01*
X018001Y011302D01*
X017818Y011226D01*
X017677Y011086D01*
X017601Y010902D01*
X017601Y010703D01*
X017677Y010519D01*
X017818Y010378D01*
X018001Y010302D01*
X018200Y010302D01*
X018001Y010302D01*
X017818Y010226D01*
X017677Y010086D01*
X017601Y009902D01*
X017601Y009703D01*
X017677Y009519D01*
X017818Y009378D01*
X018001Y009302D01*
X018200Y009302D01*
X018384Y009226D01*
X018525Y009086D01*
X018559Y009002D01*
X019184Y009002D01*
X019301Y008885D01*
X019301Y008719D01*
X019301Y007609D01*
X019305Y007608D01*
X019351Y007561D01*
X019397Y007608D01*
X019401Y007609D01*
X019401Y009602D01*
X018559Y009602D01*
X018525Y009519D01*
X018384Y009378D01*
X018200Y009302D01*
X018001Y009302D01*
X017818Y009226D01*
X017677Y009086D01*
X017601Y008902D01*
X017601Y008703D01*
X017677Y008519D01*
X017694Y008502D01*
X017684Y008502D01*
X015566Y010620D01*
X015601Y010703D01*
X015601Y010902D01*
X015525Y011086D01*
X015384Y011226D01*
X015200Y011302D01*
X015001Y011302D01*
X014818Y011226D01*
X014677Y011086D01*
X014601Y010902D01*
X014601Y010703D01*
X014677Y010519D01*
X014818Y010378D01*
X015001Y010302D01*
X014818Y010226D01*
X014677Y010086D01*
X014601Y009902D01*
X014601Y009703D01*
X014677Y009519D01*
X014818Y009378D01*
X015001Y009302D01*
X014818Y009226D01*
X014677Y009086D01*
X014601Y008902D01*
X014601Y008703D01*
X014677Y008519D01*
X014818Y008378D01*
X015001Y008302D01*
X014818Y008226D01*
X014677Y008086D01*
X014642Y008002D01*
X014601Y008002D01*
X014601Y012102D01*
X014694Y012102D01*
X014677Y012086D01*
X014601Y011902D01*
X014601Y011703D01*
X014677Y011519D01*
X014818Y011378D01*
X015001Y011302D01*
X015200Y011302D01*
X015384Y011378D01*
X015525Y011519D01*
X015601Y011703D01*
X015601Y011902D01*
X015525Y012086D01*
X015508Y012102D01*
X017694Y012102D01*
X017677Y012086D01*
X017601Y011902D01*
X017601Y011703D01*
X017677Y011519D01*
X017818Y011378D01*
X018001Y011302D01*
X018200Y011302D01*
X018384Y011378D01*
X018525Y011519D01*
X018601Y011703D01*
X018601Y011902D01*
X018525Y012086D01*
X018508Y012102D01*
X019518Y012102D01*
X019694Y012102D01*
X019677Y012086D01*
X019601Y011902D01*
X019601Y011703D01*
X019677Y011519D01*
X019818Y011378D01*
X020001Y011302D01*
X019818Y011226D01*
X019677Y011086D01*
X019601Y010902D01*
X019601Y010703D01*
X019677Y010519D01*
X019818Y010378D01*
X020001Y010302D01*
X020200Y010302D01*
X020001Y010302D01*
X019818Y010226D01*
X019677Y010086D01*
X019642Y010002D01*
X018559Y010002D01*
X018525Y010086D01*
X018384Y010226D01*
X018200Y010302D01*
X018384Y010378D01*
X018525Y010519D01*
X018601Y010703D01*
X018601Y010902D01*
X018525Y011086D01*
X018384Y011226D01*
X018200Y011302D01*
X018001Y011302D01*
X018200Y011302D01*
X018384Y011378D01*
X018525Y011519D01*
X018601Y011703D01*
X018601Y011902D01*
X018525Y012086D01*
X018508Y012102D01*
X019518Y012102D01*
X019694Y012102D01*
X019677Y012086D01*
X019601Y011902D01*
X019601Y011703D01*
X019677Y011519D01*
X019818Y011378D01*
X020001Y011302D01*
X020200Y011302D01*
X020384Y011378D01*
X020525Y011519D01*
X020601Y011703D01*
X020601Y011902D01*
X020525Y012086D01*
X020508Y012102D01*
X022694Y012102D01*
X022677Y012086D01*
X022601Y011902D01*
X022601Y011703D01*
X022677Y011519D01*
X022818Y011378D01*
X023001Y011302D01*
X022818Y011226D01*
X022677Y011086D01*
X022601Y010902D01*
X022601Y010703D01*
X022677Y010519D01*
X022818Y010378D01*
X023001Y010302D01*
X022818Y010226D01*
X022677Y010086D01*
X022601Y009902D01*
X022601Y009703D01*
X022677Y009519D01*
X022818Y009378D01*
X023001Y009302D01*
X022818Y009226D01*
X022677Y009086D01*
X022601Y008902D01*
X022601Y008703D01*
X022677Y008519D01*
X022818Y008378D01*
X023001Y008302D01*
X022818Y008226D01*
X022677Y008086D01*
X022601Y007902D01*
X022601Y007703D01*
X022677Y007519D01*
X022818Y007378D01*
X023001Y007302D01*
X023200Y007302D01*
X023001Y007302D01*
X022818Y007226D01*
X022677Y007086D01*
X022601Y006902D01*
X022601Y006703D01*
X022635Y006620D01*
X022518Y006502D01*
X020526Y006502D01*
X020546Y006530D01*
X020583Y006603D01*
X020608Y006681D01*
X020621Y006761D01*
X020621Y006772D01*
X020131Y006772D01*
X020131Y006832D01*
X020621Y006832D01*
X020621Y006843D01*
X020608Y006924D01*
X020583Y007002D01*
X020546Y007075D01*
X020497Y007141D01*
X020440Y007199D01*
X020373Y007247D01*
X020300Y007284D01*
X020223Y007310D01*
X020219Y007310D01*
X020384Y007378D01*
X020525Y007519D01*
X020601Y007703D01*
X020601Y007902D01*
X020525Y008086D01*
X020384Y008226D01*
X020200Y008302D01*
X020001Y008302D01*
X019818Y008226D01*
X019801Y008209D01*
X019801Y008395D01*
X019818Y008378D01*
X020001Y008302D01*
X020200Y008302D01*
X020384Y008378D01*
X020525Y008519D01*
X020601Y008703D01*
X020601Y008902D01*
X020525Y009086D01*
X020384Y009226D01*
X020200Y009302D01*
X020001Y009302D01*
X019818Y009226D01*
X019801Y009209D01*
X019801Y009395D01*
X019818Y009378D01*
X020001Y009302D01*
X020200Y009302D01*
X020384Y009378D01*
X020525Y009519D01*
X020601Y009703D01*
X020601Y009902D01*
X020525Y010086D01*
X020384Y010226D01*
X020200Y010302D01*
X020384Y010378D01*
X020525Y010519D01*
X020601Y010703D01*
X020601Y010902D01*
X020525Y011086D01*
X020384Y011226D01*
X020200Y011302D01*
X020001Y011302D01*
X020200Y011302D01*
X020384Y011378D01*
X020525Y011519D01*
X020601Y011703D01*
X020601Y011902D01*
X020525Y012086D01*
X020508Y012102D01*
X022694Y012102D01*
X022677Y012086D01*
X022601Y011902D01*
X022601Y011703D01*
X022677Y011519D01*
X022818Y011378D01*
X023001Y011302D01*
X023200Y011302D01*
X023384Y011226D01*
X023525Y011086D01*
X023601Y010902D01*
X023601Y010703D01*
X023525Y010519D01*
X023384Y010378D01*
X023200Y010302D01*
X023001Y010302D01*
X022818Y010226D01*
X022677Y010086D01*
X022601Y009902D01*
X022601Y009703D01*
X022677Y009519D01*
X022818Y009378D01*
X023001Y009302D01*
X023200Y009302D01*
X023384Y009226D01*
X023525Y009086D01*
X023601Y008902D01*
X023601Y008703D01*
X023525Y008519D01*
X023384Y008378D01*
X023200Y008302D01*
X023001Y008302D01*
X023200Y008302D01*
X023384Y008226D01*
X023525Y008086D01*
X023601Y007902D01*
X023601Y007703D01*
X023525Y007519D01*
X023384Y007378D01*
X023200Y007302D01*
X023001Y007302D01*
X023200Y007302D01*
X023384Y007226D01*
X023525Y007086D01*
X023601Y006902D01*
X023601Y006703D01*
X023525Y006519D01*
X023508Y006502D01*
X024676Y006502D01*
X024656Y006530D01*
X024619Y006603D01*
X024594Y006681D01*
X024581Y006761D01*
X024581Y006772D01*
X025071Y006772D01*
X025071Y006832D01*
X024581Y006832D01*
X024581Y006843D01*
X024594Y006924D01*
X024600Y006942D01*
X024529Y006942D01*
X024397Y006997D01*
X024351Y007043D01*
X024305Y006997D01*
X024172Y006942D01*
X024029Y006942D01*
X023897Y006997D01*
X023796Y007098D01*
X023741Y007231D01*
X023741Y007374D01*
X023796Y007506D01*
X023897Y007608D01*
X023901Y007609D01*
X023901Y009719D01*
X023901Y009885D01*
X024018Y010002D01*
X024642Y010002D01*
X024677Y010086D01*
X024818Y010226D01*
X025001Y010302D01*
X025200Y010302D01*
X025001Y010302D01*
X025200Y010302D01*
X025384Y010378D01*
X025525Y010519D01*
X025601Y010703D01*
X025601Y010902D01*
X025525Y011086D01*
X025384Y011226D01*
X025200Y011302D01*
X025384Y011378D01*
X025525Y011519D01*
X025601Y011703D01*
X025601Y011902D01*
X025525Y012086D01*
X025508Y012102D01*
X027694Y012102D01*
X027677Y012086D01*
X027601Y011902D01*
X027601Y011703D01*
X027677Y011519D01*
X027818Y011378D01*
X028001Y011302D01*
X027818Y011226D01*
X027677Y011086D01*
X027642Y011002D01*
X027518Y011002D01*
X027401Y010885D01*
X027401Y010719D01*
X027401Y007469D01*
X027518Y007352D01*
X027731Y007139D01*
X027677Y007086D01*
X027601Y006902D01*
X027601Y006703D01*
X027635Y006620D01*
X027518Y006502D01*
X025526Y006502D01*
X025546Y006530D01*
X025583Y006603D01*
X025608Y006681D01*
X025621Y006761D01*
X025621Y006772D01*
X025131Y006772D01*
X025131Y006832D01*
X025621Y006832D01*
X025621Y006843D01*
X025608Y006924D01*
X025583Y007002D01*
X025546Y007075D01*
X025497Y007141D01*
X025440Y007199D01*
X025373Y007247D01*
X025300Y007284D01*
X025223Y007310D01*
X025219Y007310D01*
X025384Y007378D01*
X025525Y007519D01*
X025601Y007703D01*
X025601Y007902D01*
X025525Y008086D01*
X025384Y008226D01*
X025200Y008302D01*
X025001Y008302D01*
X024818Y008226D01*
X024801Y008209D01*
X024801Y008395D01*
X024818Y008378D01*
X025001Y008302D01*
X025200Y008302D01*
X025384Y008378D01*
X025525Y008519D01*
X025601Y008703D01*
X025601Y008902D01*
X025525Y009086D01*
X025384Y009226D01*
X025200Y009302D01*
X025001Y009302D01*
X024818Y009226D01*
X024677Y009086D01*
X024642Y009002D01*
X024518Y009002D01*
X024401Y008885D01*
X024401Y008719D01*
X024401Y007609D01*
X024397Y007608D01*
X024351Y007561D01*
X024305Y007608D01*
X024301Y007609D01*
X024301Y009602D01*
X024642Y009602D01*
X024677Y009519D01*
X024818Y009378D01*
X025001Y009302D01*
X025200Y009302D01*
X025384Y009378D01*
X025525Y009519D01*
X025601Y009703D01*
X025601Y009902D01*
X025525Y010086D01*
X025384Y010226D01*
X025200Y010302D01*
X025001Y010302D01*
X024818Y010378D01*
X024677Y010519D01*
X024601Y010703D01*
X024601Y010902D01*
X024677Y011086D01*
X024818Y011226D01*
X025001Y011302D01*
X025200Y011302D01*
X025001Y011302D01*
X024818Y011378D01*
X024677Y011519D01*
X024601Y011703D01*
X024601Y011902D01*
X024677Y012086D01*
X024694Y012102D01*
X024518Y012102D01*
X023508Y012102D01*
X023525Y012086D01*
X023601Y011902D01*
X023601Y011703D01*
X023525Y011519D01*
X023384Y011378D01*
X023200Y011302D01*
X023001Y011302D01*
X022818Y011226D01*
X022677Y011086D01*
X022601Y010902D01*
X022601Y010703D01*
X022677Y010519D01*
X022818Y010378D01*
X023001Y010302D01*
X023200Y010302D01*
X023384Y010226D01*
X023525Y010086D01*
X023601Y009902D01*
X023601Y009703D01*
X023525Y009519D01*
X023384Y009378D01*
X023200Y009302D01*
X023001Y009302D01*
X022818Y009226D01*
X022677Y009086D01*
X022601Y008902D01*
X022601Y008703D01*
X022677Y008519D01*
X022818Y008378D01*
X023001Y008302D01*
X023200Y008302D01*
X023384Y008378D01*
X023525Y008519D01*
X023601Y008703D01*
X023601Y008902D01*
X023525Y009086D01*
X023384Y009226D01*
X023200Y009302D01*
X023001Y009302D01*
X023200Y009302D01*
X023384Y009378D01*
X023525Y009519D01*
X023601Y009703D01*
X023601Y009902D01*
X023525Y010086D01*
X023384Y010226D01*
X023200Y010302D01*
X023001Y010302D01*
X023200Y010302D01*
X023384Y010378D01*
X023525Y010519D01*
X023601Y010703D01*
X023601Y010902D01*
X023525Y011086D01*
X023384Y011226D01*
X023200Y011302D01*
X023001Y011302D01*
X023200Y011302D01*
X023384Y011378D01*
X023525Y011519D01*
X023601Y011703D01*
X023601Y011902D01*
X023525Y012086D01*
X023508Y012102D01*
X024518Y012102D01*
X024694Y012102D01*
X024677Y012086D01*
X024601Y011902D01*
X024601Y011703D01*
X024677Y011519D01*
X024818Y011378D01*
X025001Y011302D01*
X025200Y011302D01*
X025384Y011378D01*
X025525Y011519D01*
X025601Y011703D01*
X025601Y011902D01*
X025525Y012086D01*
X025508Y012102D01*
X027694Y012102D01*
X027677Y012086D01*
X027601Y011902D01*
X027601Y011703D01*
X027677Y011519D01*
X027818Y011378D01*
X028001Y011302D01*
X028200Y011302D01*
X028384Y011378D01*
X028525Y011519D01*
X028601Y011703D01*
X028601Y011902D01*
X028525Y012086D01*
X028508Y012102D01*
X029101Y012102D01*
X029101Y008002D01*
X028559Y008002D01*
X028525Y008086D01*
X028384Y008226D01*
X028200Y008302D01*
X028001Y008302D01*
X027818Y008226D01*
X027801Y008209D01*
X027801Y008395D01*
X027818Y008378D01*
X028001Y008302D01*
X028200Y008302D01*
X028384Y008378D01*
X028525Y008519D01*
X028601Y008703D01*
X028601Y008902D01*
X028525Y009086D01*
X028384Y009226D01*
X028200Y009302D01*
X028001Y009302D01*
X027818Y009226D01*
X027801Y009209D01*
X027801Y009395D01*
X027818Y009378D01*
X028001Y009302D01*
X028200Y009302D01*
X028384Y009378D01*
X028525Y009519D01*
X028601Y009703D01*
X028601Y009902D01*
X028525Y010086D01*
X028384Y010226D01*
X028200Y010302D01*
X028001Y010302D01*
X027818Y010226D01*
X027801Y010209D01*
X027801Y010395D01*
X027818Y010378D01*
X028001Y010302D01*
X028200Y010302D01*
X028384Y010378D01*
X028525Y010519D01*
X028601Y010703D01*
X028601Y010902D01*
X028525Y011086D01*
X028384Y011226D01*
X028200Y011302D01*
X028001Y011302D01*
X028200Y011302D01*
X028384Y011378D01*
X028525Y011519D01*
X028601Y011703D01*
X028601Y011902D01*
X028525Y012086D01*
X028508Y012102D01*
X029101Y012102D01*
X029101Y008002D01*
X029101Y008071D02*
X028531Y008071D01*
X029101Y008071D01*
X029101Y008230D02*
X028376Y008230D01*
X029101Y008230D01*
X029101Y008388D02*
X028394Y008388D01*
X029101Y008388D01*
X029101Y008547D02*
X028536Y008547D01*
X029101Y008547D01*
X029101Y008705D02*
X028601Y008705D01*
X029101Y008705D01*
X029101Y008864D02*
X028601Y008864D01*
X029101Y008864D01*
X029101Y009022D02*
X028551Y009022D01*
X029101Y009022D01*
X029101Y009181D02*
X028429Y009181D01*
X029101Y009181D01*
X029101Y009339D02*
X028289Y009339D01*
X029101Y009339D01*
X029101Y009498D02*
X028503Y009498D01*
X029101Y009498D01*
X029101Y009656D02*
X028581Y009656D01*
X029101Y009656D01*
X029101Y009815D02*
X028601Y009815D01*
X029101Y009815D01*
X029101Y009974D02*
X028571Y009974D01*
X029101Y009974D01*
X029101Y010132D02*
X028478Y010132D01*
X029101Y010132D01*
X029101Y010291D02*
X028229Y010291D01*
X029101Y010291D01*
X029101Y010449D02*
X028455Y010449D01*
X029101Y010449D01*
X029101Y010608D02*
X028561Y010608D01*
X029101Y010608D01*
X029101Y010766D02*
X028601Y010766D01*
X029101Y010766D01*
X029101Y010925D02*
X028591Y010925D01*
X029101Y010925D01*
X029101Y011083D02*
X028526Y011083D01*
X029101Y011083D01*
X029101Y011242D02*
X028346Y011242D01*
X029101Y011242D01*
X029101Y011400D02*
X028406Y011400D01*
X029101Y011400D01*
X029101Y011559D02*
X028541Y011559D01*
X029101Y011559D01*
X029101Y011717D02*
X028601Y011717D01*
X029101Y011717D01*
X029101Y011876D02*
X028601Y011876D01*
X029101Y011876D01*
X029101Y012035D02*
X028546Y012035D01*
X029101Y012035D01*
X027656Y012035D02*
X025546Y012035D01*
X027656Y012035D01*
X027601Y011876D02*
X025601Y011876D01*
X027601Y011876D01*
X027601Y011717D02*
X025601Y011717D01*
X027601Y011717D01*
X027660Y011559D02*
X025541Y011559D01*
X027660Y011559D01*
X027796Y011400D02*
X025406Y011400D01*
X027796Y011400D01*
X027855Y011242D02*
X025346Y011242D01*
X027855Y011242D01*
X027676Y011083D02*
X025526Y011083D01*
X027676Y011083D01*
X027440Y010925D02*
X025591Y010925D01*
X027440Y010925D01*
X027401Y010766D02*
X025601Y010766D01*
X027401Y010766D01*
X027401Y010608D02*
X025561Y010608D01*
X027401Y010608D01*
X027401Y010449D02*
X025455Y010449D01*
X027401Y010449D01*
X027401Y010291D02*
X025229Y010291D01*
X027401Y010291D01*
X027401Y010132D02*
X025478Y010132D01*
X027401Y010132D01*
X027401Y009974D02*
X025571Y009974D01*
X027401Y009974D01*
X027401Y009815D02*
X025601Y009815D01*
X027401Y009815D01*
X027401Y009656D02*
X025581Y009656D01*
X027401Y009656D01*
X027401Y009498D02*
X025503Y009498D01*
X027401Y009498D01*
X027401Y009339D02*
X025289Y009339D01*
X027401Y009339D01*
X027401Y009181D02*
X025429Y009181D01*
X027401Y009181D01*
X027401Y009022D02*
X025551Y009022D01*
X027401Y009022D01*
X027401Y008864D02*
X025601Y008864D01*
X027401Y008864D01*
X027401Y008705D02*
X025601Y008705D01*
X027401Y008705D01*
X027401Y008547D02*
X025536Y008547D01*
X027401Y008547D01*
X027401Y008388D02*
X025394Y008388D01*
X027401Y008388D01*
X027401Y008230D02*
X025376Y008230D01*
X027401Y008230D01*
X027401Y008071D02*
X025531Y008071D01*
X027401Y008071D01*
X027401Y007912D02*
X025596Y007912D01*
X027401Y007912D01*
X027401Y007754D02*
X025601Y007754D01*
X027401Y007754D01*
X027401Y007595D02*
X025556Y007595D01*
X027401Y007595D01*
X027433Y007437D02*
X025442Y007437D01*
X027433Y007437D01*
X027592Y007278D02*
X025312Y007278D01*
X027592Y007278D01*
X027711Y007120D02*
X025513Y007120D01*
X027711Y007120D01*
X027625Y006961D02*
X025596Y006961D01*
X027625Y006961D01*
X027601Y006803D02*
X025131Y006803D01*
X027601Y006803D01*
X027625Y006644D02*
X025596Y006644D01*
X027625Y006644D01*
X025071Y006803D02*
X023601Y006803D01*
X025071Y006803D01*
X024605Y006644D02*
X023576Y006644D01*
X024605Y006644D01*
X024484Y006961D02*
X024218Y006961D01*
X024484Y006961D01*
X023984Y006961D02*
X023576Y006961D01*
X023984Y006961D01*
X023787Y007120D02*
X023490Y007120D01*
X023787Y007120D01*
X023741Y007278D02*
X023258Y007278D01*
X023741Y007278D01*
X023767Y007437D02*
X023442Y007437D01*
X023767Y007437D01*
X023885Y007595D02*
X023556Y007595D01*
X023885Y007595D01*
X023901Y007754D02*
X023601Y007754D01*
X023901Y007754D01*
X023901Y007912D02*
X023596Y007912D01*
X023901Y007912D01*
X023901Y008071D02*
X023531Y008071D01*
X023901Y008071D01*
X023901Y008230D02*
X023376Y008230D01*
X023901Y008230D01*
X023901Y008388D02*
X023394Y008388D01*
X023901Y008388D01*
X023901Y008547D02*
X023536Y008547D01*
X023901Y008547D01*
X023901Y008705D02*
X023601Y008705D01*
X023901Y008705D01*
X023901Y008864D02*
X023601Y008864D01*
X023901Y008864D01*
X023901Y009022D02*
X023551Y009022D01*
X023901Y009022D01*
X023901Y009181D02*
X023429Y009181D01*
X023901Y009181D01*
X023901Y009339D02*
X023289Y009339D01*
X023901Y009339D01*
X023901Y009498D02*
X023503Y009498D01*
X023901Y009498D01*
X023901Y009656D02*
X023581Y009656D01*
X023901Y009656D01*
X023901Y009815D02*
X023601Y009815D01*
X023901Y009815D01*
X023989Y009974D02*
X023571Y009974D01*
X023989Y009974D01*
X023478Y010132D02*
X024723Y010132D01*
X023478Y010132D01*
X023229Y010291D02*
X024973Y010291D01*
X023229Y010291D01*
X022973Y010291D02*
X020229Y010291D01*
X022973Y010291D01*
X022747Y010449D02*
X020455Y010449D01*
X022747Y010449D01*
X022640Y010608D02*
X020561Y010608D01*
X022640Y010608D01*
X022601Y010766D02*
X020601Y010766D01*
X022601Y010766D01*
X022610Y010925D02*
X020591Y010925D01*
X022610Y010925D01*
X022676Y011083D02*
X020526Y011083D01*
X022676Y011083D01*
X022855Y011242D02*
X020346Y011242D01*
X022855Y011242D01*
X022796Y011400D02*
X020406Y011400D01*
X022796Y011400D01*
X022660Y011559D02*
X020541Y011559D01*
X022660Y011559D01*
X022601Y011717D02*
X020601Y011717D01*
X022601Y011717D01*
X022601Y011876D02*
X020601Y011876D01*
X022601Y011876D01*
X022656Y012035D02*
X020546Y012035D01*
X022656Y012035D01*
X023546Y012035D02*
X024656Y012035D01*
X023546Y012035D01*
X023601Y011876D02*
X024601Y011876D01*
X023601Y011876D01*
X023601Y011717D02*
X024601Y011717D01*
X023601Y011717D01*
X023541Y011559D02*
X024660Y011559D01*
X023541Y011559D01*
X023406Y011400D02*
X024796Y011400D01*
X023406Y011400D01*
X023346Y011242D02*
X024855Y011242D01*
X023346Y011242D01*
X023526Y011083D02*
X024676Y011083D01*
X023526Y011083D01*
X023591Y010925D02*
X024610Y010925D01*
X023591Y010925D01*
X023601Y010766D02*
X024601Y010766D01*
X023601Y010766D01*
X023561Y010608D02*
X024640Y010608D01*
X023561Y010608D01*
X023455Y010449D02*
X024747Y010449D01*
X023455Y010449D01*
X022723Y010132D02*
X020478Y010132D01*
X022723Y010132D01*
X022631Y009974D02*
X020571Y009974D01*
X022631Y009974D01*
X022601Y009815D02*
X020601Y009815D01*
X022601Y009815D01*
X022620Y009656D02*
X020581Y009656D01*
X022620Y009656D01*
X022698Y009498D02*
X020503Y009498D01*
X022698Y009498D01*
X022912Y009339D02*
X020289Y009339D01*
X022912Y009339D01*
X022772Y009181D02*
X020429Y009181D01*
X022772Y009181D01*
X022651Y009022D02*
X020551Y009022D01*
X022651Y009022D01*
X022601Y008864D02*
X020601Y008864D01*
X022601Y008864D01*
X022601Y008705D02*
X020601Y008705D01*
X022601Y008705D01*
X022665Y008547D02*
X020536Y008547D01*
X022665Y008547D01*
X022808Y008388D02*
X020394Y008388D01*
X022808Y008388D01*
X022826Y008230D02*
X020376Y008230D01*
X022826Y008230D01*
X022671Y008071D02*
X020531Y008071D01*
X022671Y008071D01*
X022605Y007912D02*
X020596Y007912D01*
X022605Y007912D01*
X022601Y007754D02*
X020601Y007754D01*
X022601Y007754D01*
X022645Y007595D02*
X020556Y007595D01*
X022645Y007595D01*
X022759Y007437D02*
X020442Y007437D01*
X022759Y007437D01*
X022943Y007278D02*
X020312Y007278D01*
X022943Y007278D01*
X022711Y007120D02*
X020513Y007120D01*
X022711Y007120D01*
X022625Y006961D02*
X020596Y006961D01*
X022625Y006961D01*
X022601Y006803D02*
X020131Y006803D01*
X022601Y006803D01*
X022625Y006644D02*
X020596Y006644D01*
X022625Y006644D01*
X020071Y006772D02*
X019581Y006772D01*
X019581Y006761D01*
X019594Y006681D01*
X019619Y006603D01*
X019656Y006530D01*
X019676Y006502D01*
X018684Y006502D01*
X018566Y006620D01*
X018601Y006703D01*
X018601Y006902D01*
X018584Y006942D01*
X018672Y006942D01*
X018805Y006997D01*
X018851Y007043D01*
X018897Y006997D01*
X019029Y006942D01*
X019172Y006942D01*
X019305Y006997D01*
X019351Y007043D01*
X019397Y006997D01*
X019529Y006942D01*
X019600Y006942D01*
X019594Y006924D01*
X019581Y006843D01*
X019581Y006832D01*
X020071Y006832D01*
X020071Y006772D01*
X019581Y006772D01*
X019581Y006761D01*
X019594Y006681D01*
X019619Y006603D01*
X019656Y006530D01*
X019676Y006502D01*
X018684Y006502D01*
X018566Y006620D01*
X018601Y006703D01*
X018601Y006902D01*
X018584Y006942D01*
X018672Y006942D01*
X018805Y006997D01*
X018851Y007043D01*
X018897Y006997D01*
X019029Y006942D01*
X019172Y006942D01*
X019305Y006997D01*
X019351Y007043D01*
X019397Y006997D01*
X019529Y006942D01*
X019600Y006942D01*
X019594Y006924D01*
X019581Y006843D01*
X019581Y006832D01*
X020071Y006832D01*
X020071Y006772D01*
X020071Y006803D02*
X018601Y006803D01*
X020071Y006803D01*
X019605Y006644D02*
X018576Y006644D01*
X019605Y006644D01*
X019484Y006961D02*
X019218Y006961D01*
X019484Y006961D01*
X018984Y006961D02*
X018718Y006961D01*
X018984Y006961D01*
X018241Y007286D02*
X018200Y007302D01*
X018001Y007302D01*
X017918Y007268D01*
X017684Y007502D01*
X017518Y007502D01*
X015508Y007502D01*
X015525Y007519D01*
X015601Y007703D01*
X015601Y007902D01*
X015525Y008086D01*
X015384Y008226D01*
X015200Y008302D01*
X015384Y008378D01*
X015525Y008519D01*
X015601Y008703D01*
X015601Y008902D01*
X015525Y009086D01*
X015384Y009226D01*
X015200Y009302D01*
X015384Y009378D01*
X015525Y009519D01*
X015601Y009703D01*
X015601Y009902D01*
X015525Y010086D01*
X015384Y010226D01*
X015200Y010302D01*
X015001Y010302D01*
X014818Y010226D01*
X014677Y010086D01*
X014601Y009902D01*
X014601Y009703D01*
X014677Y009519D01*
X014818Y009378D01*
X015001Y009302D01*
X015200Y009302D01*
X015001Y009302D01*
X014818Y009226D01*
X014677Y009086D01*
X014601Y008902D01*
X014601Y008703D01*
X014677Y008519D01*
X014818Y008378D01*
X015001Y008302D01*
X015200Y008302D01*
X015001Y008302D01*
X014818Y008226D01*
X014677Y008086D01*
X014642Y008002D01*
X014601Y008002D01*
X014601Y012102D01*
X014694Y012102D01*
X014677Y012086D01*
X014601Y011902D01*
X014601Y011703D01*
X014677Y011519D01*
X014818Y011378D01*
X015001Y011302D01*
X014818Y011226D01*
X014677Y011086D01*
X014601Y010902D01*
X014601Y010703D01*
X014677Y010519D01*
X014818Y010378D01*
X015001Y010302D01*
X015200Y010302D01*
X015283Y010337D01*
X017518Y008102D01*
X017684Y008102D01*
X017694Y008102D01*
X017677Y008086D01*
X017601Y007902D01*
X017601Y007703D01*
X017677Y007519D01*
X017818Y007378D01*
X018001Y007302D01*
X017918Y007268D01*
X017684Y007502D01*
X017518Y007502D01*
X015508Y007502D01*
X015525Y007519D01*
X015601Y007703D01*
X015601Y007902D01*
X015525Y008086D01*
X015384Y008226D01*
X015200Y008302D01*
X015384Y008378D01*
X015525Y008519D01*
X015601Y008703D01*
X015601Y008902D01*
X015525Y009086D01*
X015384Y009226D01*
X015200Y009302D01*
X015384Y009378D01*
X015525Y009519D01*
X015601Y009703D01*
X015601Y009902D01*
X015525Y010086D01*
X015384Y010226D01*
X015200Y010302D01*
X015001Y010302D01*
X015200Y010302D01*
X015283Y010337D01*
X017518Y008102D01*
X017684Y008102D01*
X017694Y008102D01*
X017677Y008086D01*
X017601Y007902D01*
X017601Y007703D01*
X017677Y007519D01*
X017818Y007378D01*
X018001Y007302D01*
X018200Y007302D01*
X018241Y007319D01*
X018241Y007286D01*
X018200Y007302D01*
X018001Y007302D01*
X018200Y007302D01*
X018241Y007319D01*
X018241Y007286D01*
X017943Y007278D02*
X017908Y007278D01*
X017943Y007278D01*
X017759Y007437D02*
X017749Y007437D01*
X017759Y007437D01*
X017645Y007595D02*
X015556Y007595D01*
X017645Y007595D01*
X017601Y007754D02*
X015601Y007754D01*
X017601Y007754D01*
X017605Y007912D02*
X015596Y007912D01*
X017605Y007912D01*
X017671Y008071D02*
X015531Y008071D01*
X017671Y008071D01*
X017391Y008230D02*
X015376Y008230D01*
X017391Y008230D01*
X017232Y008388D02*
X015394Y008388D01*
X017232Y008388D01*
X017074Y008547D02*
X015536Y008547D01*
X017074Y008547D01*
X016915Y008705D02*
X015601Y008705D01*
X016915Y008705D01*
X016757Y008864D02*
X015601Y008864D01*
X016757Y008864D01*
X016598Y009022D02*
X015551Y009022D01*
X016598Y009022D01*
X016439Y009181D02*
X015429Y009181D01*
X016439Y009181D01*
X016281Y009339D02*
X015289Y009339D01*
X016281Y009339D01*
X016122Y009498D02*
X015503Y009498D01*
X016122Y009498D01*
X015964Y009656D02*
X015581Y009656D01*
X015964Y009656D01*
X015805Y009815D02*
X015601Y009815D01*
X015805Y009815D01*
X015647Y009974D02*
X015571Y009974D01*
X015647Y009974D01*
X015488Y010132D02*
X015478Y010132D01*
X015488Y010132D01*
X015330Y010291D02*
X015229Y010291D01*
X015330Y010291D01*
X014973Y010291D02*
X014601Y010291D01*
X014973Y010291D01*
X014747Y010449D02*
X014601Y010449D01*
X014747Y010449D01*
X014640Y010608D02*
X014601Y010608D01*
X014640Y010608D01*
X015578Y010608D02*
X017640Y010608D01*
X015578Y010608D01*
X015601Y010766D02*
X017601Y010766D01*
X015601Y010766D01*
X015591Y010925D02*
X017610Y010925D01*
X015591Y010925D01*
X015526Y011083D02*
X017676Y011083D01*
X015526Y011083D01*
X015346Y011242D02*
X017855Y011242D01*
X015346Y011242D01*
X015200Y011302D02*
X015001Y011302D01*
X015200Y011302D01*
X015406Y011400D02*
X017796Y011400D01*
X015406Y011400D01*
X015541Y011559D02*
X017660Y011559D01*
X015541Y011559D01*
X015601Y011717D02*
X017601Y011717D01*
X015601Y011717D01*
X015601Y011876D02*
X017601Y011876D01*
X015601Y011876D01*
X015546Y012035D02*
X017656Y012035D01*
X015546Y012035D01*
X014656Y012035D02*
X014601Y012035D01*
X014656Y012035D01*
X014660Y011559D02*
X014601Y011559D01*
X014660Y011559D01*
X014601Y011400D02*
X014796Y011400D01*
X014601Y011400D01*
X014601Y011242D02*
X014855Y011242D01*
X014601Y011242D01*
X014601Y011083D02*
X014676Y011083D01*
X014601Y011083D01*
X014601Y010925D02*
X014610Y010925D01*
X014601Y010925D01*
X015737Y010449D02*
X017747Y010449D01*
X015737Y010449D01*
X015895Y010291D02*
X017973Y010291D01*
X015895Y010291D01*
X016054Y010132D02*
X017723Y010132D01*
X016054Y010132D01*
X016212Y009974D02*
X017631Y009974D01*
X016212Y009974D01*
X016371Y009815D02*
X017601Y009815D01*
X016371Y009815D01*
X016530Y009656D02*
X017620Y009656D01*
X016530Y009656D01*
X016688Y009498D02*
X017698Y009498D01*
X016688Y009498D01*
X016847Y009339D02*
X017912Y009339D01*
X016847Y009339D01*
X017005Y009181D02*
X017772Y009181D01*
X017005Y009181D01*
X017164Y009022D02*
X017651Y009022D01*
X017164Y009022D01*
X017322Y008864D02*
X017601Y008864D01*
X017322Y008864D01*
X017481Y008705D02*
X017601Y008705D01*
X017481Y008705D01*
X017639Y008547D02*
X017665Y008547D01*
X017639Y008547D01*
X018384Y009226D02*
X018525Y009086D01*
X018559Y009002D01*
X019184Y009002D01*
X019301Y008885D01*
X019301Y008719D01*
X019301Y007609D01*
X019305Y007608D01*
X019351Y007561D01*
X019397Y007608D01*
X019401Y007609D01*
X019401Y009602D01*
X018559Y009602D01*
X018525Y009519D01*
X018384Y009378D01*
X018200Y009302D01*
X018001Y009302D01*
X018200Y009302D01*
X018384Y009226D01*
X018429Y009181D02*
X019401Y009181D01*
X018429Y009181D01*
X018551Y009022D02*
X019401Y009022D01*
X018551Y009022D01*
X018289Y009339D02*
X019401Y009339D01*
X018289Y009339D01*
X018503Y009498D02*
X019401Y009498D01*
X018503Y009498D01*
X019801Y009395D02*
X019801Y009209D01*
X019818Y009226D01*
X020001Y009302D01*
X020200Y009302D01*
X020001Y009302D01*
X019818Y009378D01*
X019801Y009395D01*
X019801Y009339D02*
X019912Y009339D01*
X019801Y009339D01*
X019401Y008864D02*
X019301Y008864D01*
X019401Y008864D01*
X019401Y008705D02*
X019301Y008705D01*
X019401Y008705D01*
X019401Y008547D02*
X019301Y008547D01*
X019401Y008547D01*
X019401Y008388D02*
X019301Y008388D01*
X019401Y008388D01*
X019401Y008230D02*
X019301Y008230D01*
X019401Y008230D01*
X019401Y008071D02*
X019301Y008071D01*
X019401Y008071D01*
X019401Y007912D02*
X019301Y007912D01*
X019401Y007912D01*
X019401Y007754D02*
X019301Y007754D01*
X019401Y007754D01*
X019385Y007595D02*
X019317Y007595D01*
X019385Y007595D01*
X017635Y006985D02*
X017601Y006902D01*
X017601Y006703D01*
X017677Y006519D01*
X017818Y006378D01*
X018001Y006302D01*
X018200Y006302D01*
X018283Y006337D01*
X018318Y006302D01*
X017694Y006302D01*
X017601Y006209D01*
X017601Y005396D01*
X017694Y005302D01*
X018507Y005302D01*
X018601Y005396D01*
X018601Y006102D01*
X019694Y006102D01*
X019677Y006086D01*
X019601Y005902D01*
X019601Y005703D01*
X019677Y005519D01*
X019818Y005378D01*
X020001Y005302D01*
X020092Y005302D01*
X020046Y005256D01*
X019991Y005124D01*
X019991Y004981D01*
X020046Y004848D01*
X020147Y004747D01*
X020279Y004692D01*
X020401Y004692D01*
X020401Y003802D01*
X014601Y003802D01*
X014601Y006659D01*
X014619Y006603D01*
X014656Y006530D01*
X014704Y006464D01*
X014762Y006406D01*
X014828Y006358D01*
X014901Y006320D01*
X014979Y006295D01*
X014983Y006295D01*
X014818Y006226D01*
X014677Y006086D01*
X014601Y005902D01*
X014601Y005703D01*
X014677Y005519D01*
X014818Y005378D01*
X015001Y005302D01*
X015200Y005302D01*
X015384Y005378D01*
X015525Y005519D01*
X015601Y005703D01*
X015601Y005902D01*
X015525Y006086D01*
X015384Y006226D01*
X015219Y006295D01*
X015223Y006295D01*
X015300Y006320D01*
X015373Y006358D01*
X015440Y006406D01*
X015497Y006464D01*
X015546Y006530D01*
X015583Y006603D01*
X015608Y006681D01*
X015621Y006761D01*
X015621Y006772D01*
X015131Y006772D01*
X015131Y006832D01*
X015621Y006832D01*
X015621Y006843D01*
X015608Y006924D01*
X015583Y007002D01*
X015546Y007075D01*
X015526Y007102D01*
X017518Y007102D01*
X017635Y006985D01*
X017601Y006902D01*
X017601Y006703D01*
X017677Y006519D01*
X017818Y006378D01*
X018001Y006302D01*
X018200Y006302D01*
X018283Y006337D01*
X018318Y006302D01*
X017694Y006302D01*
X017601Y006209D01*
X017601Y005396D01*
X017694Y005302D01*
X018507Y005302D01*
X018601Y005396D01*
X018601Y006102D01*
X019694Y006102D01*
X019677Y006086D01*
X019601Y005902D01*
X019601Y005703D01*
X019677Y005519D01*
X019818Y005378D01*
X020001Y005302D01*
X020092Y005302D01*
X020046Y005256D01*
X019991Y005124D01*
X019991Y004981D01*
X020046Y004848D01*
X020147Y004747D01*
X020279Y004692D01*
X020401Y004692D01*
X020401Y003802D01*
X014601Y003802D01*
X014601Y006659D01*
X014619Y006603D01*
X014656Y006530D01*
X014704Y006464D01*
X014762Y006406D01*
X014828Y006358D01*
X014901Y006320D01*
X014979Y006295D01*
X014983Y006295D01*
X014818Y006226D01*
X014677Y006086D01*
X014601Y005902D01*
X014601Y005703D01*
X014677Y005519D01*
X014818Y005378D01*
X015001Y005302D01*
X015200Y005302D01*
X015384Y005378D01*
X015525Y005519D01*
X015601Y005703D01*
X015601Y005902D01*
X015525Y006086D01*
X015384Y006226D01*
X015219Y006295D01*
X015223Y006295D01*
X015300Y006320D01*
X015373Y006358D01*
X015440Y006406D01*
X015497Y006464D01*
X015546Y006530D01*
X015583Y006603D01*
X015608Y006681D01*
X015621Y006761D01*
X015621Y006772D01*
X015131Y006772D01*
X015131Y006832D01*
X015621Y006832D01*
X015621Y006843D01*
X015608Y006924D01*
X015583Y007002D01*
X015546Y007075D01*
X015526Y007102D01*
X017518Y007102D01*
X017635Y006985D01*
X017625Y006961D02*
X015596Y006961D01*
X017625Y006961D01*
X017601Y006803D02*
X015131Y006803D01*
X017601Y006803D01*
X017625Y006644D02*
X015596Y006644D01*
X017625Y006644D01*
X017710Y006486D02*
X015513Y006486D01*
X017710Y006486D01*
X017942Y006327D02*
X015313Y006327D01*
X017942Y006327D01*
X018260Y006327D02*
X018293Y006327D01*
X018260Y006327D01*
X017601Y006168D02*
X015442Y006168D01*
X017601Y006168D01*
X017601Y006010D02*
X015556Y006010D01*
X017601Y006010D01*
X017601Y005851D02*
X015601Y005851D01*
X017601Y005851D01*
X017601Y005693D02*
X015597Y005693D01*
X017601Y005693D01*
X017601Y005534D02*
X015531Y005534D01*
X017601Y005534D01*
X017621Y005376D02*
X015377Y005376D01*
X017621Y005376D01*
X018580Y005376D02*
X019824Y005376D01*
X018580Y005376D01*
X018601Y005534D02*
X019671Y005534D01*
X018601Y005534D01*
X018601Y005693D02*
X019605Y005693D01*
X018601Y005693D01*
X018601Y005851D02*
X019601Y005851D01*
X018601Y005851D01*
X018601Y006010D02*
X019646Y006010D01*
X018601Y006010D01*
X020029Y005217D02*
X014601Y005217D01*
X020029Y005217D01*
X019991Y005059D02*
X014601Y005059D01*
X019991Y005059D01*
X020024Y004900D02*
X014601Y004900D01*
X020024Y004900D01*
X020160Y004742D02*
X014601Y004742D01*
X020160Y004742D01*
X020401Y004583D02*
X014601Y004583D01*
X020401Y004583D01*
X020401Y004424D02*
X014601Y004424D01*
X020401Y004424D01*
X020401Y004266D02*
X014601Y004266D01*
X020401Y004266D01*
X020401Y004107D02*
X014601Y004107D01*
X020401Y004107D01*
X020401Y003949D02*
X014601Y003949D01*
X020401Y003949D01*
X014824Y005376D02*
X014601Y005376D01*
X014824Y005376D01*
X014671Y005534D02*
X014601Y005534D01*
X014671Y005534D01*
X014605Y005693D02*
X014601Y005693D01*
X014605Y005693D01*
X014601Y006010D02*
X014646Y006010D01*
X014601Y006010D01*
X014601Y006168D02*
X014760Y006168D01*
X014601Y006168D01*
X014601Y006327D02*
X014888Y006327D01*
X014601Y006327D01*
X014601Y006486D02*
X014688Y006486D01*
X014601Y006486D01*
X014601Y006644D02*
X014605Y006644D01*
X014601Y006644D01*
X014601Y008071D02*
X014671Y008071D01*
X014601Y008071D01*
X014601Y008230D02*
X014826Y008230D01*
X014601Y008230D01*
X014601Y008388D02*
X014808Y008388D01*
X014601Y008388D01*
X014601Y008547D02*
X014665Y008547D01*
X014601Y008547D01*
X015001Y008302D02*
X015200Y008302D01*
X015001Y008302D01*
X014651Y009022D02*
X014601Y009022D01*
X014651Y009022D01*
X014601Y009181D02*
X014772Y009181D01*
X014601Y009181D01*
X014601Y009339D02*
X014912Y009339D01*
X014601Y009339D01*
X014601Y009498D02*
X014698Y009498D01*
X014601Y009498D01*
X014601Y009656D02*
X014620Y009656D01*
X014601Y009656D01*
X014601Y009974D02*
X014631Y009974D01*
X014601Y009974D01*
X014601Y010132D02*
X014723Y010132D01*
X014601Y010132D01*
X015001Y009302D02*
X015200Y009302D01*
X015001Y009302D01*
X018001Y010302D02*
X018200Y010302D01*
X018001Y010302D01*
X018229Y010291D02*
X019973Y010291D01*
X018229Y010291D01*
X018455Y010449D02*
X019747Y010449D01*
X018455Y010449D01*
X018561Y010608D02*
X019640Y010608D01*
X018561Y010608D01*
X018601Y010766D02*
X019601Y010766D01*
X018601Y010766D01*
X018591Y010925D02*
X019610Y010925D01*
X018591Y010925D01*
X018526Y011083D02*
X019676Y011083D01*
X018526Y011083D01*
X018346Y011242D02*
X019855Y011242D01*
X018346Y011242D01*
X018406Y011400D02*
X019796Y011400D01*
X018406Y011400D01*
X018541Y011559D02*
X019660Y011559D01*
X018541Y011559D01*
X018601Y011717D02*
X019601Y011717D01*
X018601Y011717D01*
X018601Y011876D02*
X019601Y011876D01*
X018601Y011876D01*
X018546Y012035D02*
X019656Y012035D01*
X018546Y012035D01*
X020001Y010302D02*
X020200Y010302D01*
X020001Y010302D01*
X019723Y010132D02*
X018478Y010132D01*
X019723Y010132D01*
X024301Y009602D02*
X024642Y009602D01*
X024677Y009519D01*
X024818Y009378D01*
X025001Y009302D01*
X024818Y009226D01*
X024677Y009086D01*
X024642Y009002D01*
X024518Y009002D01*
X024401Y008885D01*
X024401Y008719D01*
X024401Y007609D01*
X024397Y007608D01*
X024351Y007561D01*
X024305Y007608D01*
X024301Y007609D01*
X024301Y009602D01*
X024301Y009498D02*
X024698Y009498D01*
X024301Y009498D01*
X024301Y009339D02*
X024912Y009339D01*
X024301Y009339D01*
X024301Y009181D02*
X024772Y009181D01*
X024301Y009181D01*
X024301Y009022D02*
X024651Y009022D01*
X024301Y009022D01*
X024301Y008864D02*
X024401Y008864D01*
X024301Y008864D01*
X024301Y008705D02*
X024401Y008705D01*
X024301Y008705D01*
X024301Y008547D02*
X024401Y008547D01*
X024301Y008547D01*
X024301Y008388D02*
X024401Y008388D01*
X024301Y008388D01*
X024301Y008230D02*
X024401Y008230D01*
X024301Y008230D01*
X024301Y008071D02*
X024401Y008071D01*
X024301Y008071D01*
X024301Y007912D02*
X024401Y007912D01*
X024301Y007912D01*
X024301Y007754D02*
X024401Y007754D01*
X024301Y007754D01*
X024317Y007595D02*
X024385Y007595D01*
X024317Y007595D01*
X024801Y008209D02*
X024801Y008395D01*
X024818Y008378D01*
X025001Y008302D01*
X024818Y008226D01*
X024801Y008209D01*
X024801Y008230D02*
X024826Y008230D01*
X024801Y008230D01*
X024801Y008388D02*
X024808Y008388D01*
X024801Y008388D01*
X025001Y008302D02*
X025200Y008302D01*
X025001Y008302D01*
X025001Y009302D02*
X025200Y009302D01*
X025001Y009302D01*
X027801Y009339D02*
X027912Y009339D01*
X027801Y009339D01*
X027818Y009378D02*
X028001Y009302D01*
X027818Y009226D01*
X027801Y009209D01*
X027801Y009395D01*
X027818Y009378D01*
X028001Y009302D02*
X028200Y009302D01*
X028001Y009302D01*
X027801Y008395D02*
X027818Y008378D01*
X028001Y008302D01*
X027818Y008226D01*
X027801Y008209D01*
X027801Y008395D01*
X027801Y008388D02*
X027808Y008388D01*
X027801Y008388D01*
X027801Y008230D02*
X027826Y008230D01*
X027801Y008230D01*
X028001Y008302D02*
X028200Y008302D01*
X028001Y008302D01*
X027801Y010209D02*
X027801Y010395D01*
X027818Y010378D01*
X028001Y010302D01*
X027818Y010226D01*
X027801Y010209D01*
X027801Y010291D02*
X027973Y010291D01*
X027801Y010291D01*
X028001Y010302D02*
X028200Y010302D01*
X028001Y010302D01*
X035801Y010291D02*
X035973Y010291D01*
X035801Y010291D01*
X035818Y010226D02*
X035801Y010209D01*
X035801Y010395D01*
X035818Y010378D01*
X036001Y010302D01*
X035818Y010226D01*
X036001Y010302D02*
X036200Y010302D01*
X036001Y010302D01*
X036229Y010291D02*
X037973Y010291D01*
X036229Y010291D01*
X036455Y010449D02*
X037747Y010449D01*
X036455Y010449D01*
X036561Y010608D02*
X037640Y010608D01*
X036561Y010608D01*
X036601Y010766D02*
X037601Y010766D01*
X036601Y010766D01*
X036591Y010925D02*
X037610Y010925D01*
X036591Y010925D01*
X036526Y011083D02*
X037676Y011083D01*
X036526Y011083D01*
X036478Y010132D02*
X037723Y010132D01*
X036478Y010132D01*
X036571Y009974D02*
X037631Y009974D01*
X036571Y009974D01*
X036601Y009815D02*
X037601Y009815D01*
X036601Y009815D01*
X036581Y009656D02*
X037620Y009656D01*
X036581Y009656D01*
X036503Y009498D02*
X037698Y009498D01*
X036503Y009498D01*
X036289Y009339D02*
X037912Y009339D01*
X036289Y009339D01*
X036200Y009302D02*
X036001Y009302D01*
X035818Y009226D01*
X035801Y009209D01*
X035801Y009395D01*
X035818Y009378D01*
X036001Y009302D01*
X036200Y009302D01*
X036429Y009181D02*
X037772Y009181D01*
X036429Y009181D01*
X036551Y009022D02*
X037651Y009022D01*
X036551Y009022D01*
X036601Y008864D02*
X037601Y008864D01*
X036601Y008864D01*
X036601Y008705D02*
X037601Y008705D01*
X036601Y008705D01*
X036536Y008547D02*
X037665Y008547D01*
X036536Y008547D01*
X036394Y008388D02*
X037808Y008388D01*
X036394Y008388D01*
X036376Y008230D02*
X037826Y008230D01*
X036376Y008230D01*
X036200Y008302D02*
X036001Y008302D01*
X035818Y008226D01*
X035801Y008209D01*
X035801Y008395D01*
X035818Y008378D01*
X036001Y008302D01*
X036200Y008302D01*
X035826Y008230D02*
X035801Y008230D01*
X035826Y008230D01*
X035801Y008388D02*
X035808Y008388D01*
X035801Y008388D01*
X036531Y008071D02*
X037671Y008071D01*
X036531Y008071D01*
X035912Y009339D02*
X035801Y009339D01*
X035912Y009339D01*
X042823Y011242D02*
X042855Y011242D01*
X042823Y011242D01*
X042676Y014502D02*
X042518Y014502D01*
X041526Y014502D01*
X041546Y014530D01*
X041583Y014603D01*
X041608Y014681D01*
X041621Y014761D01*
X041621Y014772D01*
X041131Y014772D01*
X041131Y014832D01*
X041621Y014832D01*
X041621Y014843D01*
X041608Y014924D01*
X041583Y015002D01*
X041546Y015075D01*
X041526Y015102D01*
X042676Y015102D01*
X042656Y015075D01*
X042619Y015002D01*
X042594Y014924D01*
X042581Y014843D01*
X042581Y014832D01*
X043071Y014832D01*
X043071Y014772D01*
X042581Y014772D01*
X042581Y014761D01*
X042594Y014681D01*
X042581Y014761D01*
X042581Y014772D01*
X043071Y014772D01*
X043071Y014832D01*
X042581Y014832D01*
X042581Y014843D01*
X042594Y014924D01*
X042619Y015002D01*
X042656Y015075D01*
X042676Y015102D01*
X041526Y015102D01*
X041546Y015075D01*
X041583Y015002D01*
X041608Y014924D01*
X041621Y014843D01*
X041621Y014832D01*
X041131Y014832D01*
X041131Y014772D01*
X041621Y014772D01*
X041621Y014761D01*
X041608Y014681D01*
X041583Y014603D01*
X041546Y014530D01*
X041526Y014502D01*
X042518Y014502D01*
X042676Y014502D01*
X042656Y014530D01*
X042619Y014603D01*
X042594Y014681D01*
X042619Y014603D01*
X042656Y014530D01*
X042676Y014502D01*
X042635Y014571D02*
X041567Y014571D01*
X042635Y014571D01*
X042586Y014730D02*
X041616Y014730D01*
X042586Y014730D01*
X042588Y014888D02*
X041614Y014888D01*
X042588Y014888D01*
X042642Y015047D02*
X041560Y015047D01*
X042642Y015047D01*
X043526Y015102D02*
X045676Y015102D01*
X045656Y015075D01*
X045619Y015002D01*
X045594Y014924D01*
X045581Y014843D01*
X045581Y014832D01*
X046071Y014832D01*
X046071Y014772D01*
X045581Y014772D01*
X045581Y014761D01*
X045594Y014681D01*
X045581Y014761D01*
X045581Y014772D01*
X046071Y014772D01*
X046071Y014832D01*
X045581Y014832D01*
X045581Y014843D01*
X045594Y014924D01*
X045619Y015002D01*
X045656Y015075D01*
X045676Y015102D01*
X043526Y015102D01*
X043546Y015075D01*
X043583Y015002D01*
X043608Y014924D01*
X043621Y014843D01*
X043621Y014832D01*
X043131Y014832D01*
X043131Y014772D01*
X043621Y014772D01*
X043621Y014761D01*
X043608Y014681D01*
X043621Y014761D01*
X043621Y014772D01*
X043131Y014772D01*
X043131Y014832D01*
X043621Y014832D01*
X043621Y014843D01*
X043608Y014924D01*
X043583Y015002D01*
X043546Y015075D01*
X043526Y015102D01*
X043560Y015047D02*
X045642Y015047D01*
X043560Y015047D01*
X043614Y014888D02*
X045588Y014888D01*
X043614Y014888D01*
X043616Y014730D02*
X045586Y014730D01*
X043616Y014730D01*
X043608Y014681D02*
X043583Y014603D01*
X043546Y014530D01*
X043526Y014502D01*
X045676Y014502D01*
X045656Y014530D01*
X045619Y014603D01*
X045594Y014681D01*
X045619Y014603D01*
X045656Y014530D01*
X045676Y014502D01*
X043526Y014502D01*
X043546Y014530D01*
X043583Y014603D01*
X043608Y014681D01*
X043567Y014571D02*
X045635Y014571D01*
X043567Y014571D01*
X041071Y014772D02*
X040581Y014772D01*
X040581Y014761D01*
X040594Y014681D01*
X040581Y014761D01*
X040581Y014772D01*
X041071Y014772D01*
X041071Y014832D01*
X040581Y014832D01*
X040581Y014843D01*
X040594Y014924D01*
X040619Y015002D01*
X040656Y015075D01*
X040676Y015102D01*
X038526Y015102D01*
X038546Y015075D01*
X038583Y015002D01*
X038608Y014924D01*
X038621Y014843D01*
X038621Y014832D01*
X038131Y014832D01*
X038131Y014772D01*
X038621Y014772D01*
X038621Y014761D01*
X038608Y014681D01*
X038621Y014761D01*
X038621Y014772D01*
X038131Y014772D01*
X038131Y014832D01*
X038621Y014832D01*
X038621Y014843D01*
X038608Y014924D01*
X038583Y015002D01*
X038546Y015075D01*
X038526Y015102D01*
X040676Y015102D01*
X040656Y015075D01*
X040619Y015002D01*
X040594Y014924D01*
X040581Y014843D01*
X040581Y014832D01*
X041071Y014832D01*
X041071Y014772D01*
X040676Y014502D02*
X040656Y014530D01*
X040619Y014603D01*
X040594Y014681D01*
X040619Y014603D01*
X040656Y014530D01*
X040676Y014502D01*
X038526Y014502D01*
X038546Y014530D01*
X038583Y014603D01*
X038608Y014681D01*
X038583Y014603D01*
X038546Y014530D01*
X038526Y014502D01*
X040676Y014502D01*
X040635Y014571D02*
X038567Y014571D01*
X040635Y014571D01*
X040586Y014730D02*
X038616Y014730D01*
X040586Y014730D01*
X040588Y014888D02*
X038614Y014888D01*
X040588Y014888D01*
X040642Y015047D02*
X038560Y015047D01*
X040642Y015047D01*
X038071Y014832D02*
X038071Y014772D01*
X037581Y014772D01*
X037581Y014761D01*
X037594Y014681D01*
X037581Y014761D01*
X037581Y014772D01*
X038071Y014772D01*
X038071Y014832D01*
X037581Y014832D01*
X037581Y014843D01*
X037594Y014924D01*
X037619Y015002D01*
X037656Y015075D01*
X037676Y015102D01*
X036526Y015102D01*
X036546Y015075D01*
X036583Y015002D01*
X036608Y014924D01*
X036621Y014843D01*
X036621Y014832D01*
X036131Y014832D01*
X036131Y014772D01*
X036621Y014772D01*
X036621Y014761D01*
X036608Y014681D01*
X036621Y014761D01*
X036621Y014772D01*
X036131Y014772D01*
X036131Y014832D01*
X036621Y014832D01*
X036621Y014843D01*
X036608Y014924D01*
X036583Y015002D01*
X036546Y015075D01*
X036526Y015102D01*
X037676Y015102D01*
X037656Y015075D01*
X037619Y015002D01*
X037594Y014924D01*
X037581Y014843D01*
X037581Y014832D01*
X038071Y014832D01*
X037588Y014888D02*
X036614Y014888D01*
X037588Y014888D01*
X037586Y014730D02*
X036616Y014730D01*
X037586Y014730D01*
X037594Y014681D02*
X037619Y014603D01*
X037656Y014530D01*
X037676Y014502D01*
X037518Y014502D01*
X036526Y014502D01*
X036546Y014530D01*
X036583Y014603D01*
X036608Y014681D01*
X036583Y014603D01*
X036546Y014530D01*
X036526Y014502D01*
X037518Y014502D01*
X037676Y014502D01*
X037656Y014530D01*
X037619Y014603D01*
X037594Y014681D01*
X037635Y014571D02*
X036567Y014571D01*
X037635Y014571D01*
X037642Y015047D02*
X036560Y015047D01*
X037642Y015047D01*
X036071Y014832D02*
X036071Y014772D01*
X035581Y014772D01*
X035581Y014761D01*
X035594Y014681D01*
X035581Y014761D01*
X035581Y014772D01*
X036071Y014772D01*
X036071Y014832D01*
X035581Y014832D01*
X035581Y014843D01*
X035594Y014924D01*
X035619Y015002D01*
X035656Y015075D01*
X035676Y015102D01*
X033526Y015102D01*
X033546Y015075D01*
X033583Y015002D01*
X033608Y014924D01*
X033621Y014843D01*
X033621Y014832D01*
X033131Y014832D01*
X033131Y014772D01*
X033621Y014772D01*
X033621Y014761D01*
X033608Y014681D01*
X033621Y014761D01*
X033621Y014772D01*
X033131Y014772D01*
X033131Y014832D01*
X033621Y014832D01*
X033621Y014843D01*
X033608Y014924D01*
X033583Y015002D01*
X033546Y015075D01*
X033526Y015102D01*
X035676Y015102D01*
X035656Y015075D01*
X035619Y015002D01*
X035594Y014924D01*
X035581Y014843D01*
X035581Y014832D01*
X036071Y014832D01*
X035588Y014888D02*
X033614Y014888D01*
X035588Y014888D01*
X035586Y014730D02*
X033616Y014730D01*
X035586Y014730D01*
X035594Y014681D02*
X035619Y014603D01*
X035656Y014530D01*
X035676Y014502D01*
X033526Y014502D01*
X033546Y014530D01*
X033583Y014603D01*
X033608Y014681D01*
X033583Y014603D01*
X033546Y014530D01*
X033526Y014502D01*
X035676Y014502D01*
X035656Y014530D01*
X035619Y014603D01*
X035594Y014681D01*
X035635Y014571D02*
X033567Y014571D01*
X035635Y014571D01*
X035642Y015047D02*
X033560Y015047D01*
X035642Y015047D01*
X029101Y015047D02*
X028560Y015047D01*
X029101Y015047D01*
X029101Y015102D02*
X029101Y014502D01*
X028526Y014502D01*
X028546Y014530D01*
X028583Y014603D01*
X028608Y014681D01*
X028621Y014761D01*
X028621Y014772D01*
X028131Y014772D01*
X028131Y014832D01*
X028621Y014832D01*
X028621Y014843D01*
X028608Y014924D01*
X028583Y015002D01*
X028546Y015075D01*
X028526Y015102D01*
X029101Y015102D01*
X029101Y014502D01*
X028526Y014502D01*
X028546Y014530D01*
X028583Y014603D01*
X028608Y014681D01*
X028621Y014761D01*
X028621Y014772D01*
X028131Y014772D01*
X028131Y014832D01*
X028621Y014832D01*
X028621Y014843D01*
X028608Y014924D01*
X028583Y015002D01*
X028546Y015075D01*
X028526Y015102D01*
X029101Y015102D01*
X029101Y014888D02*
X028614Y014888D01*
X029101Y014888D01*
X029101Y014730D02*
X028616Y014730D01*
X029101Y014730D01*
X029101Y014571D02*
X028567Y014571D01*
X029101Y014571D01*
X028071Y014772D02*
X027581Y014772D01*
X027581Y014761D01*
X027594Y014681D01*
X027581Y014761D01*
X027581Y014772D01*
X028071Y014772D01*
X028071Y014832D01*
X027581Y014832D01*
X027581Y014843D01*
X027594Y014924D01*
X027619Y015002D01*
X027656Y015075D01*
X027676Y015102D01*
X025526Y015102D01*
X025546Y015075D01*
X025583Y015002D01*
X025608Y014924D01*
X025621Y014843D01*
X025621Y014832D01*
X025131Y014832D01*
X025131Y014772D01*
X025621Y014772D01*
X025621Y014761D01*
X025608Y014681D01*
X025621Y014761D01*
X025621Y014772D01*
X025131Y014772D01*
X025131Y014832D01*
X025621Y014832D01*
X025621Y014843D01*
X025608Y014924D01*
X025583Y015002D01*
X025546Y015075D01*
X025526Y015102D01*
X027676Y015102D01*
X027656Y015075D01*
X027619Y015002D01*
X027594Y014924D01*
X027581Y014843D01*
X027581Y014832D01*
X028071Y014832D01*
X028071Y014772D01*
X027676Y014502D02*
X027656Y014530D01*
X027619Y014603D01*
X027594Y014681D01*
X027619Y014603D01*
X027656Y014530D01*
X027676Y014502D01*
X025526Y014502D01*
X025546Y014530D01*
X025583Y014603D01*
X025608Y014681D01*
X025583Y014603D01*
X025546Y014530D01*
X025526Y014502D01*
X027676Y014502D01*
X027635Y014571D02*
X025567Y014571D01*
X027635Y014571D01*
X027586Y014730D02*
X025616Y014730D01*
X027586Y014730D01*
X027588Y014888D02*
X025614Y014888D01*
X027588Y014888D01*
X027642Y015047D02*
X025560Y015047D01*
X027642Y015047D01*
X025071Y014832D02*
X025071Y014772D01*
X024581Y014772D01*
X024581Y014761D01*
X024594Y014681D01*
X024581Y014761D01*
X024581Y014772D01*
X025071Y014772D01*
X025071Y014832D01*
X024581Y014832D01*
X024581Y014843D01*
X024594Y014924D01*
X024619Y015002D01*
X024656Y015075D01*
X024676Y015102D01*
X023526Y015102D01*
X023546Y015075D01*
X023583Y015002D01*
X023608Y014924D01*
X023621Y014843D01*
X023621Y014832D01*
X023131Y014832D01*
X023131Y014772D01*
X023621Y014772D01*
X023621Y014761D01*
X023608Y014681D01*
X023621Y014761D01*
X023621Y014772D01*
X023131Y014772D01*
X023131Y014832D01*
X023621Y014832D01*
X023621Y014843D01*
X023608Y014924D01*
X023583Y015002D01*
X023546Y015075D01*
X023526Y015102D01*
X024676Y015102D01*
X024656Y015075D01*
X024619Y015002D01*
X024594Y014924D01*
X024581Y014843D01*
X024581Y014832D01*
X025071Y014832D01*
X024588Y014888D02*
X023614Y014888D01*
X024588Y014888D01*
X024586Y014730D02*
X023616Y014730D01*
X024586Y014730D01*
X024594Y014681D02*
X024619Y014603D01*
X024656Y014530D01*
X024676Y014502D01*
X024518Y014502D01*
X023526Y014502D01*
X023546Y014530D01*
X023583Y014603D01*
X023608Y014681D01*
X023583Y014603D01*
X023546Y014530D01*
X023526Y014502D01*
X024518Y014502D01*
X024676Y014502D01*
X024656Y014530D01*
X024619Y014603D01*
X024594Y014681D01*
X024635Y014571D02*
X023567Y014571D01*
X024635Y014571D01*
X024642Y015047D02*
X023560Y015047D01*
X024642Y015047D01*
X023071Y014832D02*
X023071Y014772D01*
X022581Y014772D01*
X022581Y014761D01*
X022594Y014681D01*
X022581Y014761D01*
X022581Y014772D01*
X023071Y014772D01*
X023071Y014832D01*
X022581Y014832D01*
X022581Y014843D01*
X022594Y014924D01*
X022619Y015002D01*
X022656Y015075D01*
X022676Y015102D01*
X020526Y015102D01*
X020546Y015075D01*
X020583Y015002D01*
X020608Y014924D01*
X020621Y014843D01*
X020621Y014832D01*
X020131Y014832D01*
X020131Y014772D01*
X020621Y014772D01*
X020621Y014761D01*
X020608Y014681D01*
X020621Y014761D01*
X020621Y014772D01*
X020131Y014772D01*
X020131Y014832D01*
X020621Y014832D01*
X020621Y014843D01*
X020608Y014924D01*
X020583Y015002D01*
X020546Y015075D01*
X020526Y015102D01*
X022676Y015102D01*
X022656Y015075D01*
X022619Y015002D01*
X022594Y014924D01*
X022581Y014843D01*
X022581Y014832D01*
X023071Y014832D01*
X022588Y014888D02*
X020614Y014888D01*
X022588Y014888D01*
X022586Y014730D02*
X020616Y014730D01*
X022586Y014730D01*
X022594Y014681D02*
X022619Y014603D01*
X022656Y014530D01*
X022676Y014502D01*
X020526Y014502D01*
X020546Y014530D01*
X020583Y014603D01*
X020608Y014681D01*
X020583Y014603D01*
X020546Y014530D01*
X020526Y014502D01*
X022676Y014502D01*
X022656Y014530D01*
X022619Y014603D01*
X022594Y014681D01*
X022635Y014571D02*
X020567Y014571D01*
X022635Y014571D01*
X022642Y015047D02*
X020560Y015047D01*
X022642Y015047D01*
X020071Y014832D02*
X020071Y014772D01*
X019581Y014772D01*
X019581Y014761D01*
X019594Y014681D01*
X019581Y014761D01*
X019581Y014772D01*
X020071Y014772D01*
X020071Y014832D01*
X019581Y014832D01*
X019581Y014843D01*
X019594Y014924D01*
X019619Y015002D01*
X019656Y015075D01*
X019676Y015102D01*
X018526Y015102D01*
X018546Y015075D01*
X018583Y015002D01*
X018608Y014924D01*
X018621Y014843D01*
X018621Y014832D01*
X018131Y014832D01*
X018131Y014772D01*
X018621Y014772D01*
X018621Y014761D01*
X018608Y014681D01*
X018621Y014761D01*
X018621Y014772D01*
X018131Y014772D01*
X018131Y014832D01*
X018621Y014832D01*
X018621Y014843D01*
X018608Y014924D01*
X018583Y015002D01*
X018546Y015075D01*
X018526Y015102D01*
X019676Y015102D01*
X019656Y015075D01*
X019619Y015002D01*
X019594Y014924D01*
X019581Y014843D01*
X019581Y014832D01*
X020071Y014832D01*
X019588Y014888D02*
X018614Y014888D01*
X019588Y014888D01*
X019586Y014730D02*
X018616Y014730D01*
X019586Y014730D01*
X019594Y014681D02*
X019619Y014603D01*
X019656Y014530D01*
X019676Y014502D01*
X018526Y014502D01*
X018546Y014530D01*
X018583Y014603D01*
X018608Y014681D01*
X018583Y014603D01*
X018546Y014530D01*
X018526Y014502D01*
X019676Y014502D01*
X019656Y014530D01*
X019619Y014603D01*
X019594Y014681D01*
X019635Y014571D02*
X018567Y014571D01*
X019635Y014571D01*
X018071Y014772D02*
X017581Y014772D01*
X017581Y014761D01*
X017594Y014681D01*
X017581Y014761D01*
X017581Y014772D01*
X018071Y014772D01*
X018071Y014832D01*
X017581Y014832D01*
X017581Y014843D01*
X017594Y014924D01*
X017619Y015002D01*
X017656Y015075D01*
X017676Y015102D01*
X015526Y015102D01*
X015546Y015075D01*
X015583Y015002D01*
X015608Y014924D01*
X015621Y014843D01*
X015621Y014832D01*
X015131Y014832D01*
X015131Y014772D01*
X015621Y014772D01*
X015621Y014761D01*
X015608Y014681D01*
X015621Y014761D01*
X015621Y014772D01*
X015131Y014772D01*
X015131Y014832D01*
X015621Y014832D01*
X015621Y014843D01*
X015608Y014924D01*
X015583Y015002D01*
X015546Y015075D01*
X015526Y015102D01*
X017676Y015102D01*
X017656Y015075D01*
X017619Y015002D01*
X017594Y014924D01*
X017581Y014843D01*
X017581Y014832D01*
X018071Y014832D01*
X018071Y014772D01*
X017676Y014502D02*
X017656Y014530D01*
X017619Y014603D01*
X017594Y014681D01*
X017619Y014603D01*
X017656Y014530D01*
X017676Y014502D01*
X015526Y014502D01*
X015546Y014530D01*
X015583Y014603D01*
X015608Y014681D01*
X015583Y014603D01*
X015546Y014530D01*
X015526Y014502D01*
X017676Y014502D01*
X017635Y014571D02*
X015567Y014571D01*
X017635Y014571D01*
X017586Y014730D02*
X015616Y014730D01*
X017586Y014730D01*
X017588Y014888D02*
X015614Y014888D01*
X017588Y014888D01*
X017642Y015047D02*
X015560Y015047D01*
X017642Y015047D01*
X018560Y015047D02*
X019642Y015047D01*
X018560Y015047D01*
X019801Y008395D02*
X019818Y008378D01*
X020001Y008302D01*
X019818Y008226D01*
X019801Y008209D01*
X019801Y008395D01*
X019801Y008388D02*
X019808Y008388D01*
X019801Y008388D01*
X019801Y008230D02*
X019826Y008230D01*
X019801Y008230D01*
X020001Y008302D02*
X020200Y008302D01*
X020001Y008302D01*
X046131Y014772D02*
X046131Y014832D01*
X046621Y014832D01*
X046621Y014843D01*
X046608Y014924D01*
X046583Y015002D01*
X046546Y015075D01*
X046526Y015102D01*
X047101Y015102D01*
X047101Y014502D01*
X046526Y014502D01*
X046546Y014530D01*
X046583Y014603D01*
X046608Y014681D01*
X046621Y014761D01*
X046621Y014772D01*
X046131Y014772D01*
X046131Y014832D01*
X046621Y014832D01*
X046621Y014843D01*
X046608Y014924D01*
X046583Y015002D01*
X046546Y015075D01*
X046526Y015102D01*
X047101Y015102D01*
X047101Y014502D01*
X046526Y014502D01*
X046546Y014530D01*
X046583Y014603D01*
X046608Y014681D01*
X046621Y014761D01*
X046621Y014772D01*
X046131Y014772D01*
X046567Y014571D02*
X047101Y014571D01*
X046567Y014571D01*
X046616Y014730D02*
X047101Y014730D01*
X046616Y014730D01*
X046614Y014888D02*
X047101Y014888D01*
X046614Y014888D01*
X046560Y015047D02*
X047101Y015047D01*
X046560Y015047D01*
X047601Y015502D02*
X047601Y016802D01*
X057913Y016802D01*
X057913Y010002D01*
X056559Y010002D01*
X056525Y010086D01*
X056471Y010139D01*
X056684Y010352D01*
X056801Y010469D01*
X056801Y011719D01*
X056801Y011885D01*
X056684Y012002D01*
X056559Y012002D01*
X056525Y012086D01*
X056508Y012102D01*
X056684Y012102D01*
X056801Y012219D01*
X056801Y012385D01*
X056801Y013135D01*
X056684Y013252D01*
X056471Y013465D01*
X056525Y013519D01*
X056601Y013703D01*
X056601Y013902D01*
X056525Y014086D01*
X056384Y014226D01*
X056219Y014295D01*
X056223Y014295D01*
X056300Y014320D01*
X056373Y014358D01*
X056440Y014406D01*
X056497Y014464D01*
X056546Y014530D01*
X056583Y014603D01*
X056608Y014681D01*
X056621Y014761D01*
X056621Y014772D01*
X056131Y014772D01*
X056131Y014832D01*
X056621Y014832D01*
X056621Y014843D01*
X056608Y014924D01*
X056583Y015002D01*
X056546Y015075D01*
X056497Y015141D01*
X056440Y015199D01*
X056373Y015247D01*
X056300Y015284D01*
X056223Y015310D01*
X056142Y015322D01*
X056131Y015322D01*
X056131Y014833D01*
X056071Y014833D01*
X056071Y015322D01*
X056060Y015322D01*
X055979Y015310D01*
X055901Y015284D01*
X055828Y015247D01*
X055762Y015199D01*
X055704Y015141D01*
X055656Y015075D01*
X055619Y015002D01*
X055594Y014924D01*
X055581Y014843D01*
X055581Y014832D01*
X056071Y014832D01*
X056071Y014772D01*
X055581Y014772D01*
X055581Y014761D01*
X055594Y014681D01*
X055581Y014761D01*
X055581Y014772D01*
X056071Y014772D01*
X056071Y014832D01*
X055581Y014832D01*
X055581Y014843D01*
X055594Y014924D01*
X055619Y015002D01*
X055656Y015075D01*
X055704Y015141D01*
X055762Y015199D01*
X055828Y015247D01*
X055901Y015284D01*
X055979Y015310D01*
X056060Y015322D01*
X056071Y015322D01*
X056071Y014833D01*
X056131Y014833D01*
X056131Y015322D01*
X056142Y015322D01*
X056223Y015310D01*
X056300Y015284D01*
X056373Y015247D01*
X056440Y015199D01*
X056497Y015141D01*
X056546Y015075D01*
X056583Y015002D01*
X056608Y014924D01*
X056621Y014843D01*
X056621Y014832D01*
X056131Y014832D01*
X056131Y014772D01*
X056621Y014772D01*
X056621Y014761D01*
X056608Y014681D01*
X056583Y014603D01*
X056546Y014530D01*
X056497Y014464D01*
X056440Y014406D01*
X056373Y014358D01*
X056300Y014320D01*
X056223Y014295D01*
X056219Y014295D01*
X056384Y014226D01*
X056525Y014086D01*
X056601Y013902D01*
X056601Y013703D01*
X056525Y013519D01*
X056471Y013465D01*
X056684Y013252D01*
X056801Y013135D01*
X056801Y012385D01*
X056801Y012219D01*
X056684Y012102D01*
X056508Y012102D01*
X056525Y012086D01*
X056559Y012002D01*
X056684Y012002D01*
X056801Y011885D01*
X056801Y011719D01*
X056801Y010469D01*
X056684Y010352D01*
X056471Y010139D01*
X056525Y010086D01*
X056559Y010002D01*
X057913Y010002D01*
X057913Y016802D01*
X047601Y016802D01*
X047601Y015502D01*
X053768Y015502D01*
X053934Y015502D01*
X055601Y013835D01*
X055601Y013902D01*
X055677Y014086D01*
X055818Y014226D01*
X055983Y014295D01*
X055979Y014295D01*
X055901Y014320D01*
X055828Y014358D01*
X055762Y014406D01*
X055704Y014464D01*
X055656Y014530D01*
X055619Y014603D01*
X055594Y014681D01*
X055619Y014603D01*
X055656Y014530D01*
X055704Y014464D01*
X055762Y014406D01*
X055828Y014358D01*
X055901Y014320D01*
X055979Y014295D01*
X055983Y014295D01*
X055818Y014226D01*
X055677Y014086D01*
X055601Y013902D01*
X055601Y013835D01*
X053934Y015502D01*
X053768Y015502D01*
X047601Y015502D01*
X047601Y015523D02*
X057913Y015523D01*
X047601Y015523D01*
X047601Y015681D02*
X057913Y015681D01*
X047601Y015681D01*
X047601Y015840D02*
X057913Y015840D01*
X047601Y015840D01*
X047601Y015998D02*
X057913Y015998D01*
X047601Y015998D01*
X047601Y016157D02*
X057913Y016157D01*
X047601Y016157D01*
X047601Y016315D02*
X057913Y016315D01*
X047601Y016315D01*
X047601Y016474D02*
X057913Y016474D01*
X047601Y016474D01*
X047601Y016632D02*
X057913Y016632D01*
X047601Y016632D01*
X047601Y016791D02*
X057913Y016791D01*
X047601Y016791D01*
X048526Y015102D02*
X050676Y015102D01*
X050656Y015075D01*
X050619Y015002D01*
X050594Y014924D01*
X050581Y014843D01*
X050581Y014832D01*
X051071Y014832D01*
X051071Y014772D01*
X050581Y014772D01*
X050581Y014761D01*
X050594Y014681D01*
X050581Y014761D01*
X050581Y014772D01*
X051071Y014772D01*
X051071Y014832D01*
X050581Y014832D01*
X050581Y014843D01*
X050594Y014924D01*
X050619Y015002D01*
X050656Y015075D01*
X050676Y015102D01*
X048526Y015102D01*
X048546Y015075D01*
X048583Y015002D01*
X048608Y014924D01*
X048621Y014843D01*
X048621Y014832D01*
X048131Y014832D01*
X048131Y014772D01*
X048621Y014772D01*
X048621Y014761D01*
X048608Y014681D01*
X048621Y014761D01*
X048621Y014772D01*
X048131Y014772D01*
X048131Y014832D01*
X048621Y014832D01*
X048621Y014843D01*
X048608Y014924D01*
X048583Y015002D01*
X048546Y015075D01*
X048526Y015102D01*
X048560Y015047D02*
X050642Y015047D01*
X048560Y015047D01*
X048614Y014888D02*
X050588Y014888D01*
X048614Y014888D01*
X048616Y014730D02*
X050586Y014730D01*
X048616Y014730D01*
X048608Y014681D02*
X048583Y014603D01*
X048546Y014530D01*
X048526Y014502D01*
X050676Y014502D01*
X050656Y014530D01*
X050619Y014603D01*
X050594Y014681D01*
X050619Y014603D01*
X050656Y014530D01*
X050676Y014502D01*
X048526Y014502D01*
X048546Y014530D01*
X048583Y014603D01*
X048608Y014681D01*
X048567Y014571D02*
X050635Y014571D01*
X048567Y014571D01*
X051131Y014772D02*
X051131Y014832D01*
X051621Y014832D01*
X051621Y014843D01*
X051608Y014924D01*
X051583Y015002D01*
X051546Y015075D01*
X051526Y015102D01*
X052676Y015102D01*
X052656Y015075D01*
X052619Y015002D01*
X052594Y014924D01*
X052581Y014843D01*
X052581Y014832D01*
X053071Y014832D01*
X053071Y014772D01*
X052581Y014772D01*
X052581Y014761D01*
X052594Y014681D01*
X052581Y014761D01*
X052581Y014772D01*
X053071Y014772D01*
X053071Y014832D01*
X052581Y014832D01*
X052581Y014843D01*
X052594Y014924D01*
X052619Y015002D01*
X052656Y015075D01*
X052676Y015102D01*
X051526Y015102D01*
X051546Y015075D01*
X051583Y015002D01*
X051608Y014924D01*
X051621Y014843D01*
X051621Y014832D01*
X051131Y014832D01*
X051131Y014772D01*
X051621Y014772D01*
X051621Y014761D01*
X051608Y014681D01*
X051621Y014761D01*
X051621Y014772D01*
X051131Y014772D01*
X051526Y014502D02*
X051546Y014530D01*
X051583Y014603D01*
X051608Y014681D01*
X051583Y014603D01*
X051546Y014530D01*
X051526Y014502D01*
X052676Y014502D01*
X052656Y014530D01*
X052619Y014603D01*
X052594Y014681D01*
X052619Y014603D01*
X052656Y014530D01*
X052676Y014502D01*
X051526Y014502D01*
X051567Y014571D02*
X052635Y014571D01*
X051567Y014571D01*
X051616Y014730D02*
X052586Y014730D01*
X051616Y014730D01*
X051614Y014888D02*
X052588Y014888D01*
X051614Y014888D01*
X051560Y015047D02*
X052642Y015047D01*
X051560Y015047D01*
X053131Y014832D02*
X053621Y014832D01*
X053621Y014843D01*
X053608Y014924D01*
X053583Y015002D01*
X053546Y015075D01*
X053526Y015102D01*
X053768Y015102D01*
X055368Y013502D01*
X053508Y013502D01*
X053525Y013519D01*
X053601Y013703D01*
X053601Y013902D01*
X053525Y014086D01*
X053384Y014226D01*
X053219Y014295D01*
X053223Y014295D01*
X053300Y014320D01*
X053373Y014358D01*
X053440Y014406D01*
X053497Y014464D01*
X053546Y014530D01*
X053583Y014603D01*
X053608Y014681D01*
X053621Y014761D01*
X053608Y014681D01*
X053583Y014603D01*
X053546Y014530D01*
X053497Y014464D01*
X053440Y014406D01*
X053373Y014358D01*
X053300Y014320D01*
X053223Y014295D01*
X053219Y014295D01*
X053384Y014226D01*
X053525Y014086D01*
X053601Y013902D01*
X053601Y013703D01*
X053525Y013519D01*
X053508Y013502D01*
X055368Y013502D01*
X053768Y015102D01*
X053526Y015102D01*
X053546Y015075D01*
X053583Y015002D01*
X053608Y014924D01*
X053621Y014843D01*
X053621Y014832D01*
X053131Y014832D01*
X053131Y014772D01*
X053621Y014772D01*
X053621Y014761D01*
X053621Y014772D01*
X053131Y014772D01*
X053131Y014832D01*
X053614Y014888D02*
X053982Y014888D01*
X053614Y014888D01*
X053616Y014730D02*
X054140Y014730D01*
X053616Y014730D01*
X053567Y014571D02*
X054299Y014571D01*
X053567Y014571D01*
X053447Y014413D02*
X054458Y014413D01*
X053447Y014413D01*
X053316Y014254D02*
X054616Y014254D01*
X053316Y014254D01*
X053515Y014096D02*
X054775Y014096D01*
X053515Y014096D01*
X053586Y013937D02*
X054933Y013937D01*
X053586Y013937D01*
X053601Y013779D02*
X055092Y013779D01*
X053601Y013779D01*
X053566Y013620D02*
X055250Y013620D01*
X053566Y013620D01*
X053566Y012986D02*
X055634Y012986D01*
X053566Y012986D01*
X053601Y012827D02*
X055601Y012827D01*
X053601Y012827D01*
X053587Y012669D02*
X055615Y012669D01*
X053587Y012669D01*
X053516Y012510D02*
X055686Y012510D01*
X053516Y012510D01*
X056474Y013461D02*
X057913Y013461D01*
X056474Y013461D01*
X056566Y013620D02*
X057913Y013620D01*
X056566Y013620D01*
X056601Y013779D02*
X057913Y013779D01*
X056601Y013779D01*
X056586Y013937D02*
X057913Y013937D01*
X056586Y013937D01*
X056515Y014096D02*
X057913Y014096D01*
X056515Y014096D01*
X056316Y014254D02*
X057913Y014254D01*
X056316Y014254D01*
X056447Y014413D02*
X057913Y014413D01*
X056447Y014413D01*
X056567Y014571D02*
X057913Y014571D01*
X056567Y014571D01*
X056616Y014730D02*
X057913Y014730D01*
X056616Y014730D01*
X056614Y014888D02*
X057913Y014888D01*
X056614Y014888D01*
X056560Y015047D02*
X057913Y015047D01*
X056560Y015047D01*
X056431Y015205D02*
X057913Y015205D01*
X056431Y015205D01*
X056131Y015205D02*
X056071Y015205D01*
X056131Y015205D01*
X056131Y015047D02*
X056071Y015047D01*
X056131Y015047D01*
X056131Y014888D02*
X056071Y014888D01*
X056131Y014888D01*
X055642Y015047D02*
X054389Y015047D01*
X055642Y015047D01*
X055588Y014888D02*
X054548Y014888D01*
X055588Y014888D01*
X055586Y014730D02*
X054706Y014730D01*
X055586Y014730D01*
X055635Y014571D02*
X054865Y014571D01*
X055635Y014571D01*
X055755Y014413D02*
X055023Y014413D01*
X055755Y014413D01*
X055885Y014254D02*
X055182Y014254D01*
X055885Y014254D01*
X055687Y014096D02*
X055340Y014096D01*
X055687Y014096D01*
X055615Y013937D02*
X055499Y013937D01*
X055615Y013937D01*
X056633Y013303D02*
X057913Y013303D01*
X056633Y013303D01*
X056792Y013144D02*
X057913Y013144D01*
X056792Y013144D01*
X056801Y012986D02*
X057913Y012986D01*
X056801Y012986D01*
X056801Y012827D02*
X057913Y012827D01*
X056801Y012827D01*
X056801Y012669D02*
X057913Y012669D01*
X056801Y012669D01*
X056801Y012510D02*
X057913Y012510D01*
X056801Y012510D01*
X056801Y012352D02*
X057913Y012352D01*
X056801Y012352D01*
X056774Y012193D02*
X057913Y012193D01*
X056774Y012193D01*
X056546Y012035D02*
X057913Y012035D01*
X056546Y012035D01*
X056801Y011876D02*
X057913Y011876D01*
X056801Y011876D01*
X056801Y011717D02*
X057913Y011717D01*
X056801Y011717D01*
X056801Y011559D02*
X057913Y011559D01*
X056801Y011559D01*
X056801Y011400D02*
X057913Y011400D01*
X056801Y011400D01*
X056801Y011242D02*
X057913Y011242D01*
X056801Y011242D01*
X056801Y011083D02*
X057913Y011083D01*
X056801Y011083D01*
X056801Y010925D02*
X057913Y010925D01*
X056801Y010925D01*
X056801Y010766D02*
X057913Y010766D01*
X056801Y010766D01*
X056801Y010608D02*
X057913Y010608D01*
X056801Y010608D01*
X056780Y010449D02*
X057913Y010449D01*
X056780Y010449D01*
X056622Y010291D02*
X057913Y010291D01*
X056622Y010291D01*
X056478Y010132D02*
X057913Y010132D01*
X056478Y010132D01*
X053823Y015047D02*
X053560Y015047D01*
X053823Y015047D01*
X054072Y015364D02*
X057913Y015364D01*
X054072Y015364D01*
X054231Y015205D02*
X055771Y015205D01*
X054231Y015205D01*
M02*
