G75*
G70*
%OFA0B0*%
%FSLAX24Y24*%
%IPPOS*%
%LPD*%
%AMOC8*
5,1,8,0,0,1.08239X$1,22.5*
%
%ADD10C,0.0000*%
%ADD11R,0.0680X0.0680*%
%ADD12C,0.0680*%
%ADD13OC8,0.0640*%
%ADD14C,0.0634*%
%ADD15C,0.0080*%
%ADD16C,0.0400*%
%ADD17C,0.0160*%
D10*
X000101Y000302D02*
X000101Y017172D01*
X058093Y017172D01*
X058093Y000302D01*
X000101Y000302D01*
D11*
X008101Y005802D03*
X013101Y005802D03*
X018101Y005802D03*
X023101Y005802D03*
X028101Y005802D03*
X036101Y005802D03*
X041101Y005802D03*
X046101Y005802D03*
X051101Y005802D03*
X056101Y005802D03*
D12*
X053101Y005802D03*
X053101Y006802D03*
X051101Y006802D03*
X048101Y006802D03*
X046101Y006802D03*
X046101Y007802D03*
X048101Y007802D03*
X048101Y008802D03*
X046101Y008802D03*
X046101Y009802D03*
X048101Y009802D03*
X051101Y009802D03*
X053101Y009802D03*
X056101Y009802D03*
X056101Y008802D03*
X056101Y007802D03*
X053101Y007802D03*
X051101Y007802D03*
X051101Y008802D03*
X053101Y008802D03*
X056101Y006802D03*
X048101Y005802D03*
X043101Y005802D03*
X043101Y006802D03*
X041101Y006802D03*
X038101Y006802D03*
X036101Y006802D03*
X033101Y006802D03*
X033101Y005802D03*
X028101Y006802D03*
X025101Y006802D03*
X023101Y006802D03*
X020101Y006802D03*
X018101Y006802D03*
X018101Y007802D03*
X020101Y007802D03*
X020101Y008802D03*
X018101Y008802D03*
X018101Y009802D03*
X020101Y009802D03*
X023101Y009802D03*
X025101Y009802D03*
X028101Y009802D03*
X028101Y008802D03*
X028101Y007802D03*
X025101Y007802D03*
X023101Y007802D03*
X023101Y008802D03*
X025101Y008802D03*
X025101Y010802D03*
X023101Y010802D03*
X020101Y010802D03*
X018101Y010802D03*
X018101Y011802D03*
X020101Y011802D03*
X023101Y011802D03*
X025101Y011802D03*
X028101Y011802D03*
X028101Y010802D03*
X033101Y010802D03*
X036101Y010802D03*
X038101Y010802D03*
X041101Y010802D03*
X043101Y010802D03*
X043101Y009802D03*
X041101Y009802D03*
X038101Y009802D03*
X036101Y009802D03*
X033101Y009802D03*
X033101Y008802D03*
X033101Y007802D03*
X036101Y007802D03*
X038101Y007802D03*
X038101Y008802D03*
X036101Y008802D03*
X041101Y008802D03*
X043101Y008802D03*
X043101Y007802D03*
X041101Y007802D03*
X038101Y005802D03*
X025101Y005802D03*
X020101Y005802D03*
X015101Y005802D03*
X015101Y006802D03*
X013101Y006802D03*
X010101Y006802D03*
X008101Y006802D03*
X005101Y006802D03*
X005101Y005802D03*
X010101Y005802D03*
X010101Y007802D03*
X008101Y007802D03*
X008101Y008802D03*
X010101Y008802D03*
X013101Y008802D03*
X015101Y008802D03*
X015101Y007802D03*
X013101Y007802D03*
X013101Y009802D03*
X015101Y009802D03*
X015101Y010802D03*
X013101Y010802D03*
X010101Y010802D03*
X008101Y010802D03*
X005101Y010802D03*
X005101Y009802D03*
X008101Y009802D03*
X010101Y009802D03*
X005101Y008802D03*
X005101Y007802D03*
X005101Y011802D03*
X008101Y011802D03*
X010101Y011802D03*
X013101Y011802D03*
X015101Y011802D03*
X015101Y012802D03*
X013101Y012802D03*
X013101Y013802D03*
X015101Y013802D03*
X015101Y014802D03*
X013101Y014802D03*
X010101Y014802D03*
X008101Y014802D03*
X005101Y014802D03*
X005101Y013802D03*
X005101Y012802D03*
X008101Y012802D03*
X010101Y012802D03*
X010101Y013802D03*
X008101Y013802D03*
X018101Y013802D03*
X020101Y013802D03*
X020101Y012802D03*
X018101Y012802D03*
X023101Y012802D03*
X025101Y012802D03*
X025101Y013802D03*
X023101Y013802D03*
X023101Y014802D03*
X025101Y014802D03*
X028101Y014802D03*
X028101Y013802D03*
X028101Y012802D03*
X033101Y012802D03*
X033101Y013802D03*
X036101Y013802D03*
X038101Y013802D03*
X038101Y012802D03*
X036101Y012802D03*
X036101Y011802D03*
X038101Y011802D03*
X041101Y011802D03*
X043101Y011802D03*
X043101Y012802D03*
X041101Y012802D03*
X041101Y013802D03*
X043101Y013802D03*
X043101Y014802D03*
X041101Y014802D03*
X038101Y014802D03*
X036101Y014802D03*
X033101Y014802D03*
X033101Y011802D03*
X020101Y014802D03*
X018101Y014802D03*
X046101Y014802D03*
X048101Y014802D03*
X051101Y014802D03*
X053101Y014802D03*
X056101Y014802D03*
X056101Y013802D03*
X056101Y012802D03*
X053101Y012802D03*
X051101Y012802D03*
X051101Y013802D03*
X053101Y013802D03*
X048101Y013802D03*
X046101Y013802D03*
X046101Y012802D03*
X048101Y012802D03*
X048101Y011802D03*
X046101Y011802D03*
X046101Y010802D03*
X048101Y010802D03*
X051101Y010802D03*
X053101Y010802D03*
X056101Y010802D03*
X056101Y011802D03*
X053101Y011802D03*
X051101Y011802D03*
D13*
X050601Y002802D03*
X049601Y002802D03*
X048601Y002802D03*
X047601Y002802D03*
X046601Y002802D03*
X045601Y002802D03*
X044601Y002802D03*
X043601Y002802D03*
X042601Y002802D03*
X041601Y002802D03*
X040601Y002802D03*
X039601Y002802D03*
X038601Y002802D03*
X037601Y002802D03*
X036601Y002802D03*
X035601Y002802D03*
X034601Y002802D03*
X033601Y002802D03*
X033601Y001802D03*
X034601Y001802D03*
X035601Y001802D03*
X036601Y001802D03*
X037601Y001802D03*
X038601Y001802D03*
X039601Y001802D03*
X040601Y001802D03*
X041601Y001802D03*
X042601Y001802D03*
X043601Y001802D03*
X044601Y001802D03*
X045601Y001802D03*
X046601Y001802D03*
X047601Y001802D03*
X048601Y001802D03*
X049601Y001802D03*
X050601Y001802D03*
X051601Y001802D03*
X052601Y001802D03*
X052601Y002802D03*
X051601Y002802D03*
X027101Y002802D03*
X026101Y002802D03*
X025101Y002802D03*
X024101Y002802D03*
X023101Y002802D03*
X022101Y002802D03*
X021101Y002802D03*
X020101Y002802D03*
X019101Y002802D03*
X018101Y002802D03*
X017101Y002802D03*
X016101Y002802D03*
X015101Y002802D03*
X014101Y002802D03*
X013101Y002802D03*
X012101Y002802D03*
X011101Y002802D03*
X010101Y002802D03*
X009101Y002802D03*
X008101Y002802D03*
X008101Y001802D03*
X009101Y001802D03*
X010101Y001802D03*
X011101Y001802D03*
X012101Y001802D03*
X013101Y001802D03*
X014101Y001802D03*
X015101Y001802D03*
X016101Y001802D03*
X017101Y001802D03*
X018101Y001802D03*
X019101Y001802D03*
X020101Y001802D03*
X021101Y001802D03*
X022101Y001802D03*
X023101Y001802D03*
X024101Y001802D03*
X025101Y001802D03*
X026101Y001802D03*
X027101Y001802D03*
D14*
X002918Y001802D02*
X002284Y001802D01*
X002284Y002802D02*
X002918Y002802D01*
X002918Y003802D02*
X002284Y003802D01*
X002284Y004802D02*
X002918Y004802D01*
X002918Y005802D02*
X002284Y005802D01*
X002284Y006802D02*
X002918Y006802D01*
X002918Y007802D02*
X002284Y007802D01*
X002284Y008802D02*
X002918Y008802D01*
D15*
X005101Y009802D02*
X005601Y009302D01*
X005601Y001802D01*
X007101Y001802D01*
X008101Y002802D01*
X007601Y003302D02*
X007351Y003052D01*
X007601Y003302D02*
X007601Y006302D01*
X007851Y006552D01*
X007351Y007052D01*
X007351Y012052D01*
X008101Y012802D01*
X007851Y013302D02*
X009601Y013302D01*
X009601Y012302D01*
X010101Y011802D01*
X012351Y012052D02*
X013101Y012802D01*
X012351Y012052D02*
X012351Y007552D01*
X013101Y006802D01*
X011601Y007552D02*
X011601Y002302D01*
X012101Y001802D01*
X011101Y001802D02*
X010601Y002302D01*
X008601Y002302D01*
X008601Y007052D01*
X008351Y007302D01*
X007601Y007302D01*
X007601Y009302D01*
X008101Y009802D01*
X008601Y010302D02*
X008101Y010802D01*
X006851Y010552D02*
X006851Y002552D01*
X007101Y002302D01*
X008101Y001802D02*
X008601Y001302D01*
X012351Y001302D01*
X012601Y001552D01*
X012601Y003302D01*
X013851Y003052D02*
X013851Y007802D01*
X013351Y008302D01*
X012601Y008302D01*
X012601Y010302D01*
X013101Y010802D01*
X012101Y009802D02*
X011351Y010552D01*
X012101Y009802D02*
X012101Y002802D01*
X011101Y002802D02*
X011101Y007552D01*
X010601Y007302D02*
X010601Y014302D01*
X010101Y014802D01*
X013101Y014802D01*
X010101Y014802D02*
X010101Y015302D01*
X004851Y015302D01*
X001601Y012052D01*
X001601Y003802D01*
X002601Y002802D01*
X005851Y003052D02*
X006101Y002802D01*
X005851Y003052D02*
X005851Y009802D01*
X006351Y009802D02*
X006351Y003552D01*
X009101Y003802D02*
X009101Y007302D01*
X010101Y006802D02*
X010601Y007302D01*
X010101Y007802D02*
X008101Y007802D01*
X008851Y008302D02*
X008601Y008552D01*
X008601Y010302D01*
X006351Y010302D02*
X006351Y011802D01*
X007851Y013302D01*
X005101Y014802D02*
X003601Y013302D01*
X003601Y005802D01*
X002601Y004802D01*
X005101Y005052D02*
X005101Y001052D01*
X012351Y001052D01*
X013101Y001802D01*
X013601Y001552D02*
X012851Y000802D01*
X004601Y000802D01*
X004601Y010052D01*
X004851Y010302D01*
X006351Y010302D01*
X013101Y009802D02*
X014351Y008552D01*
X014351Y005802D01*
X015601Y004552D01*
X015601Y002302D01*
X015101Y001802D01*
X016101Y001802D02*
X016601Y002302D01*
X016601Y009052D01*
X015351Y010302D01*
X014601Y010302D01*
X014601Y009302D01*
X015101Y008802D01*
X015851Y009052D02*
X015101Y009802D01*
X016851Y010052D02*
X015101Y011802D01*
X017351Y011052D02*
X018101Y011802D01*
X020101Y011802D02*
X020601Y011302D01*
X020601Y010302D01*
X019851Y010302D01*
X019601Y010052D01*
X019601Y009302D01*
X020351Y009302D01*
X021101Y008552D01*
X021101Y002802D01*
X022101Y002802D02*
X022101Y009802D01*
X023101Y010802D01*
X025101Y010802D02*
X025601Y010302D01*
X025601Y002302D01*
X025101Y001802D01*
X025601Y002052D02*
X025851Y002302D01*
X026601Y002302D01*
X026601Y010302D01*
X025101Y011802D01*
X023101Y011802D02*
X023101Y012302D01*
X028351Y012302D01*
X029101Y011552D01*
X029101Y001052D01*
X022851Y001052D01*
X022101Y001802D01*
X022601Y002302D02*
X023101Y001802D01*
X024101Y001802D02*
X024351Y002052D01*
X024351Y002302D01*
X024601Y002552D01*
X024601Y007302D01*
X024101Y007302D02*
X024101Y002802D01*
X024601Y002302D02*
X025101Y002802D01*
X024601Y002302D02*
X024601Y001552D01*
X024851Y001302D01*
X025601Y001302D01*
X025601Y002052D01*
X026101Y001802D02*
X026601Y001302D01*
X028851Y001302D01*
X028851Y011052D01*
X028101Y011802D01*
X033101Y010802D02*
X034101Y009802D01*
X034101Y002302D01*
X034601Y001802D01*
X035101Y002302D02*
X035601Y001802D01*
X036101Y002302D02*
X036601Y001802D01*
X037601Y001802D02*
X038101Y001302D01*
X039101Y001302D01*
X039101Y002052D01*
X038851Y002302D01*
X038351Y002302D01*
X038101Y002552D01*
X038101Y005052D01*
X038601Y005552D01*
X038601Y008302D01*
X038101Y008802D01*
X037351Y009052D02*
X038101Y009802D01*
X039101Y009802D02*
X041101Y011802D01*
X038851Y011052D02*
X038101Y011802D01*
X036101Y011802D02*
X035101Y010802D01*
X035101Y002302D01*
X036101Y002302D02*
X036101Y004802D01*
X035601Y005302D01*
X035601Y009302D01*
X036101Y009802D01*
X035351Y010052D02*
X036101Y010802D01*
X035351Y010052D02*
X035351Y003052D01*
X035601Y002802D01*
X036601Y002802D02*
X036601Y008302D01*
X036101Y008802D01*
X037351Y009052D02*
X037351Y003052D01*
X037601Y002802D01*
X038601Y002802D02*
X038851Y003052D01*
X038851Y011052D01*
X038101Y010802D02*
X037101Y009802D01*
X037101Y002302D01*
X038101Y002302D01*
X038601Y001802D01*
X039101Y002302D02*
X039601Y001802D01*
X040101Y002302D02*
X040601Y001802D01*
X041601Y001802D02*
X042101Y001302D01*
X044101Y001302D01*
X044101Y008802D01*
X043851Y008552D02*
X043601Y008802D01*
X043601Y009302D01*
X043101Y009802D01*
X042601Y010052D02*
X042851Y010302D01*
X046101Y010302D01*
X046101Y010802D01*
X047101Y010552D02*
X047851Y011302D01*
X048601Y011302D01*
X048601Y010302D01*
X048101Y009802D01*
X049351Y009802D02*
X050851Y011302D01*
X053101Y011302D01*
X053101Y010802D01*
X053101Y010302D02*
X053101Y009802D01*
X053101Y010302D02*
X050851Y010302D01*
X049601Y009052D01*
X049601Y002802D01*
X050601Y002802D02*
X053101Y005302D01*
X053601Y005302D01*
X053601Y011302D01*
X053101Y011802D01*
X053351Y012302D02*
X053851Y011802D01*
X053851Y001052D01*
X048351Y001052D01*
X047601Y001802D01*
X046601Y001802D02*
X046101Y002302D01*
X046101Y004802D01*
X046851Y005552D01*
X046851Y007802D01*
X047601Y008552D01*
X047601Y010302D01*
X048101Y010802D01*
X047101Y010552D02*
X047101Y008302D01*
X045851Y008302D01*
X045601Y008052D01*
X045601Y002802D01*
X046601Y002802D02*
X046851Y003052D01*
X046851Y005302D01*
X047351Y005802D01*
X047351Y006802D01*
X045101Y006552D02*
X045101Y008802D01*
X046101Y009802D01*
X049351Y009802D02*
X049351Y008302D01*
X049101Y008052D01*
X049101Y001302D01*
X050101Y001302D01*
X050601Y001802D01*
X050101Y002302D02*
X049601Y001802D01*
X050101Y002302D02*
X050101Y003802D01*
X052601Y006302D01*
X052601Y008302D01*
X053101Y008802D01*
X051101Y009802D02*
X050601Y009302D01*
X050601Y005552D01*
X050101Y005052D01*
X048601Y005552D02*
X048601Y008052D01*
X048101Y008552D01*
X048101Y008802D01*
X048851Y008302D02*
X048851Y003052D01*
X048601Y002802D01*
X046101Y001302D02*
X045601Y001802D01*
X046101Y001302D02*
X047101Y001302D01*
X047101Y004052D01*
X048601Y005552D01*
X045101Y006552D02*
X044851Y006302D01*
X043601Y005552D02*
X043601Y008052D01*
X043351Y008302D01*
X042601Y008302D01*
X042601Y010052D01*
X042351Y010052D02*
X043101Y010802D01*
X041101Y010802D02*
X039851Y009552D01*
X039851Y003052D01*
X039601Y002802D01*
X040351Y003052D02*
X040601Y002802D01*
X040351Y003052D02*
X040351Y008052D01*
X041101Y008802D01*
X040851Y008302D02*
X042351Y008302D01*
X042351Y010052D01*
X041101Y009802D02*
X040101Y008802D01*
X040101Y002302D01*
X039101Y002302D02*
X039101Y009802D01*
X040601Y008052D02*
X040851Y008302D01*
X040601Y008052D02*
X040601Y005302D01*
X042101Y003802D01*
X042101Y002302D01*
X042601Y001802D01*
X043101Y002302D02*
X043601Y001802D01*
X043101Y002302D02*
X043101Y004552D01*
X042601Y005052D01*
X042601Y007302D01*
X043101Y007802D02*
X041101Y007802D01*
X043851Y008552D02*
X043851Y005052D01*
X043601Y004802D01*
X043351Y004552D02*
X043101Y004802D01*
X043101Y005052D01*
X043601Y005552D01*
X043351Y004552D02*
X043351Y003052D01*
X043601Y002802D01*
X044601Y002802D02*
X045351Y003552D01*
X045351Y008052D01*
X046101Y008802D01*
X056101Y006802D02*
X056601Y007302D01*
X056601Y012302D01*
X056101Y012802D01*
X053351Y012302D02*
X051101Y012302D01*
X051101Y011802D01*
X033101Y008802D02*
X032601Y008302D01*
X032601Y002802D01*
X033601Y001802D01*
X028601Y003302D02*
X028601Y009302D01*
X028101Y009802D01*
X028101Y008802D02*
X027601Y008302D01*
X027601Y003302D01*
X027101Y002802D01*
X027101Y001802D02*
X028601Y003302D01*
X023101Y002802D02*
X022851Y003052D01*
X022851Y005052D01*
X022601Y005302D01*
X022601Y008302D01*
X023101Y008802D01*
X022351Y009052D02*
X023101Y009802D01*
X022351Y009052D02*
X022351Y005302D01*
X022601Y005052D01*
X022601Y002302D01*
X020601Y002302D02*
X020601Y004802D01*
X020851Y005052D01*
X020851Y008052D01*
X020101Y008802D01*
X020351Y008302D02*
X019351Y008302D01*
X019351Y010052D01*
X020101Y010802D01*
X018101Y010802D02*
X017601Y010302D01*
X017601Y005302D01*
X017851Y005052D01*
X017851Y003052D01*
X018101Y002802D01*
X019101Y002802D02*
X019101Y007302D01*
X019601Y007302D02*
X019601Y002552D01*
X019351Y002302D01*
X019351Y002052D01*
X019101Y001802D01*
X018101Y001802D02*
X017601Y002302D01*
X017601Y005052D01*
X017351Y005302D01*
X017351Y011052D01*
X016851Y010052D02*
X016851Y003052D01*
X017101Y002802D01*
X016101Y002802D02*
X015851Y003052D01*
X015851Y009052D01*
X014101Y007802D02*
X013101Y008802D01*
X014101Y007802D02*
X014101Y003802D01*
X015101Y002802D01*
X014101Y002802D02*
X013851Y003052D01*
X013601Y002302D02*
X013101Y002802D01*
X013601Y002302D02*
X013601Y001552D01*
X017101Y001802D02*
X017601Y001302D01*
X018601Y001302D01*
X018601Y007302D01*
X018101Y007802D02*
X020101Y007802D01*
X020601Y008052D02*
X020351Y008302D01*
X020601Y008052D02*
X020601Y005302D01*
X020351Y005052D01*
X020101Y002802D02*
X019601Y002302D01*
X019601Y001552D01*
X019851Y001302D01*
X021601Y001302D01*
X021601Y008302D01*
X020101Y009802D01*
X023101Y007802D02*
X025101Y007802D01*
X010101Y002802D02*
X009101Y003802D01*
X007851Y006552D02*
X008101Y006802D01*
X020101Y001802D02*
X020601Y002302D01*
X008101Y014802D02*
X005101Y014802D01*
D16*
X006851Y010552D03*
X006351Y009802D03*
X005851Y009802D03*
X008851Y008302D03*
X011101Y007552D03*
X011601Y007552D03*
X009101Y007302D03*
X005101Y005052D03*
X006351Y003552D03*
X007351Y003052D03*
X006101Y002802D03*
X007101Y002302D03*
X012601Y003302D03*
X020351Y005052D03*
X019601Y007302D03*
X019101Y007302D03*
X018601Y007302D03*
X024101Y007302D03*
X024601Y007302D03*
X011351Y010552D03*
X042601Y007302D03*
X044851Y006302D03*
X047351Y006802D03*
X048851Y008302D03*
X044101Y008802D03*
X050101Y005052D03*
X043601Y004802D03*
D17*
X039651Y004742D02*
X039301Y004742D01*
X039301Y004900D02*
X039651Y004900D01*
X039651Y005059D02*
X039301Y005059D01*
X039301Y005217D02*
X039651Y005217D01*
X039651Y005376D02*
X039301Y005376D01*
X039301Y005534D02*
X039651Y005534D01*
X039651Y005693D02*
X039301Y005693D01*
X039301Y005851D02*
X039651Y005851D01*
X039651Y006010D02*
X039301Y006010D01*
X039301Y006168D02*
X039651Y006168D01*
X039651Y006327D02*
X039301Y006327D01*
X039301Y006486D02*
X039651Y006486D01*
X039651Y006644D02*
X039301Y006644D01*
X039301Y006803D02*
X039651Y006803D01*
X039651Y006961D02*
X039301Y006961D01*
X039301Y007120D02*
X039651Y007120D01*
X039651Y007278D02*
X039301Y007278D01*
X039301Y007437D02*
X039651Y007437D01*
X039651Y007595D02*
X039301Y007595D01*
X039301Y007754D02*
X039651Y007754D01*
X039651Y007912D02*
X039301Y007912D01*
X039301Y008071D02*
X039651Y008071D01*
X039651Y008230D02*
X039301Y008230D01*
X039301Y008388D02*
X039651Y008388D01*
X039651Y008547D02*
X039301Y008547D01*
X039301Y008705D02*
X039651Y008705D01*
X039651Y008864D02*
X039301Y008864D01*
X039301Y009022D02*
X039651Y009022D01*
X039651Y009181D02*
X039301Y009181D01*
X039301Y009339D02*
X039651Y009339D01*
X039651Y009469D02*
X039651Y003802D01*
X039301Y003802D01*
X039301Y009719D01*
X040918Y011337D01*
X041001Y011302D01*
X040818Y011226D01*
X040677Y011086D01*
X040601Y010902D01*
X040601Y010703D01*
X040635Y010620D01*
X039651Y009635D01*
X039651Y009469D01*
X039651Y009498D02*
X039301Y009498D01*
X039301Y009656D02*
X039672Y009656D01*
X039831Y009815D02*
X039396Y009815D01*
X039555Y009974D02*
X039989Y009974D01*
X040148Y010132D02*
X039713Y010132D01*
X039872Y010291D02*
X040306Y010291D01*
X040465Y010449D02*
X040030Y010449D01*
X040189Y010608D02*
X040623Y010608D01*
X040601Y010766D02*
X040347Y010766D01*
X040506Y010925D02*
X040610Y010925D01*
X040665Y011083D02*
X040676Y011083D01*
X040823Y011242D02*
X040855Y011242D01*
X041001Y011302D02*
X041200Y011302D01*
X041384Y011378D01*
X041525Y011519D01*
X041601Y011703D01*
X041601Y011902D01*
X041525Y012086D01*
X041384Y012226D01*
X041200Y012302D01*
X041384Y012378D01*
X041525Y012519D01*
X041601Y012703D01*
X041601Y012902D01*
X041525Y013086D01*
X041384Y013226D01*
X041200Y013302D01*
X041001Y013302D01*
X040818Y013226D01*
X040677Y013086D01*
X040601Y012902D01*
X040601Y012703D01*
X040677Y012519D01*
X040818Y012378D01*
X041001Y012302D01*
X040818Y012226D01*
X040677Y012086D01*
X040601Y011902D01*
X040601Y011703D01*
X040635Y011620D01*
X039051Y010035D01*
X039051Y010969D01*
X039051Y011135D01*
X038566Y011620D01*
X038601Y011703D01*
X038601Y011902D01*
X038525Y012086D01*
X038384Y012226D01*
X038200Y012302D01*
X038384Y012378D01*
X038525Y012519D01*
X038601Y012703D01*
X038601Y012902D01*
X038525Y013086D01*
X038384Y013226D01*
X038200Y013302D01*
X038001Y013302D01*
X037818Y013226D01*
X037677Y013086D01*
X037601Y012902D01*
X037601Y012703D01*
X037677Y012519D01*
X037818Y012378D01*
X038001Y012302D01*
X037818Y012226D01*
X037677Y012086D01*
X037601Y011902D01*
X037601Y011703D01*
X037677Y011519D01*
X037818Y011378D01*
X038001Y011302D01*
X037818Y011226D01*
X037677Y011086D01*
X037601Y010902D01*
X037601Y010703D01*
X037635Y010620D01*
X036901Y009885D01*
X036901Y009719D01*
X036901Y003802D01*
X036801Y003802D01*
X036801Y008219D01*
X036801Y008385D01*
X036566Y008620D01*
X036601Y008703D01*
X036601Y008902D01*
X036525Y009086D01*
X036384Y009226D01*
X036200Y009302D01*
X036384Y009378D01*
X036525Y009519D01*
X036601Y009703D01*
X036601Y009902D01*
X036525Y010086D01*
X036384Y010226D01*
X036200Y010302D01*
X036384Y010378D01*
X036525Y010519D01*
X036601Y010703D01*
X036601Y010902D01*
X036525Y011086D01*
X036384Y011226D01*
X036200Y011302D01*
X036384Y011378D01*
X036525Y011519D01*
X036601Y011703D01*
X036601Y011902D01*
X036525Y012086D01*
X036384Y012226D01*
X036200Y012302D01*
X036384Y012378D01*
X036525Y012519D01*
X036601Y012703D01*
X036601Y012902D01*
X036525Y013086D01*
X036384Y013226D01*
X036200Y013302D01*
X036384Y013378D01*
X036525Y013519D01*
X036601Y013703D01*
X036601Y013902D01*
X036525Y014086D01*
X036384Y014226D01*
X036219Y014295D01*
X036223Y014295D01*
X036300Y014320D01*
X036373Y014358D01*
X036440Y014406D01*
X036497Y014464D01*
X036546Y014530D01*
X036583Y014603D01*
X036608Y014681D01*
X036621Y014761D01*
X036621Y014772D01*
X036131Y014772D01*
X036131Y014832D01*
X036621Y014832D01*
X036621Y014843D01*
X036608Y014924D01*
X036583Y015002D01*
X036546Y015075D01*
X036497Y015141D01*
X036440Y015199D01*
X036373Y015247D01*
X036300Y015284D01*
X036223Y015310D01*
X036142Y015322D01*
X036131Y015322D01*
X036131Y014833D01*
X036071Y014833D01*
X036071Y015322D01*
X036060Y015322D01*
X035979Y015310D01*
X035901Y015284D01*
X035828Y015247D01*
X035762Y015199D01*
X035704Y015141D01*
X035656Y015075D01*
X035619Y015002D01*
X035594Y014924D01*
X035581Y014843D01*
X035581Y014832D01*
X036071Y014832D01*
X036071Y014772D01*
X035581Y014772D01*
X035581Y014761D01*
X035594Y014681D01*
X035619Y014603D01*
X035656Y014530D01*
X035704Y014464D01*
X035762Y014406D01*
X035828Y014358D01*
X035901Y014320D01*
X035979Y014295D01*
X035983Y014295D01*
X035818Y014226D01*
X035677Y014086D01*
X035601Y013902D01*
X035601Y013703D01*
X035677Y013519D01*
X035818Y013378D01*
X036001Y013302D01*
X035818Y013226D01*
X035677Y013086D01*
X035601Y012902D01*
X035601Y012703D01*
X035677Y012519D01*
X035818Y012378D01*
X036001Y012302D01*
X035818Y012226D01*
X035677Y012086D01*
X035601Y011902D01*
X035601Y011703D01*
X035635Y011620D01*
X034901Y010885D01*
X034901Y010719D01*
X034901Y003802D01*
X034301Y003802D01*
X034301Y009719D01*
X034301Y009885D01*
X033566Y010620D01*
X033601Y010703D01*
X033601Y010902D01*
X033525Y011086D01*
X033384Y011226D01*
X033200Y011302D01*
X033384Y011378D01*
X033525Y011519D01*
X033601Y011703D01*
X033601Y011902D01*
X033525Y012086D01*
X033384Y012226D01*
X033200Y012302D01*
X033384Y012378D01*
X033525Y012519D01*
X033601Y012703D01*
X033601Y012902D01*
X033525Y013086D01*
X033384Y013226D01*
X033200Y013302D01*
X033001Y013302D01*
X032818Y013226D01*
X032677Y013086D01*
X032601Y012902D01*
X032601Y012703D01*
X032677Y012519D01*
X032818Y012378D01*
X033001Y012302D01*
X032818Y012226D01*
X032677Y012086D01*
X032601Y011902D01*
X032601Y011703D01*
X032677Y011519D01*
X032818Y011378D01*
X033001Y011302D01*
X032818Y011226D01*
X032677Y011086D01*
X032601Y010902D01*
X032601Y010703D01*
X032677Y010519D01*
X032818Y010378D01*
X033001Y010302D01*
X032818Y010226D01*
X032677Y010086D01*
X032601Y009902D01*
X032601Y009703D01*
X032677Y009519D01*
X032818Y009378D01*
X033001Y009302D01*
X032818Y009226D01*
X032677Y009086D01*
X032601Y008902D01*
X032601Y008703D01*
X032635Y008620D01*
X032601Y008585D01*
X032601Y014659D01*
X032619Y014603D01*
X032656Y014530D01*
X032704Y014464D01*
X032762Y014406D01*
X032828Y014358D01*
X032901Y014320D01*
X032979Y014295D01*
X032983Y014295D01*
X032818Y014226D01*
X032677Y014086D01*
X032601Y013902D01*
X032601Y013703D01*
X032677Y013519D01*
X032818Y013378D01*
X033001Y013302D01*
X033200Y013302D01*
X033384Y013378D01*
X033525Y013519D01*
X033601Y013703D01*
X033601Y013902D01*
X033525Y014086D01*
X033384Y014226D01*
X033219Y014295D01*
X033223Y014295D01*
X033300Y014320D01*
X033373Y014358D01*
X033440Y014406D01*
X033497Y014464D01*
X033546Y014530D01*
X033583Y014603D01*
X033608Y014681D01*
X033621Y014761D01*
X033621Y014772D01*
X033131Y014772D01*
X033131Y014832D01*
X033621Y014832D01*
X033621Y014843D01*
X033608Y014924D01*
X033583Y015002D01*
X033546Y015075D01*
X033497Y015141D01*
X033440Y015199D01*
X033373Y015247D01*
X033300Y015284D01*
X033223Y015310D01*
X033142Y015322D01*
X033131Y015322D01*
X033131Y014833D01*
X033071Y014833D01*
X033071Y015322D01*
X033060Y015322D01*
X032979Y015310D01*
X032901Y015284D01*
X032828Y015247D01*
X032762Y015199D01*
X032704Y015141D01*
X032656Y015075D01*
X032619Y015002D01*
X032601Y014946D01*
X032601Y016802D01*
X047101Y016802D01*
X047101Y010835D01*
X046901Y010635D01*
X046901Y010469D01*
X046901Y008502D01*
X046508Y008502D01*
X046525Y008519D01*
X046601Y008703D01*
X046601Y008902D01*
X046525Y009086D01*
X046384Y009226D01*
X046200Y009302D01*
X046384Y009378D01*
X046525Y009519D01*
X046601Y009703D01*
X046601Y009902D01*
X046525Y010086D01*
X046384Y010226D01*
X046301Y010261D01*
X046301Y010344D01*
X046384Y010378D01*
X046525Y010519D01*
X046601Y010703D01*
X046601Y010902D01*
X046525Y011086D01*
X046384Y011226D01*
X046200Y011302D01*
X046384Y011378D01*
X046525Y011519D01*
X046601Y011703D01*
X046601Y011902D01*
X046525Y012086D01*
X046384Y012226D01*
X046200Y012302D01*
X046384Y012378D01*
X046525Y012519D01*
X046601Y012703D01*
X046601Y012902D01*
X046525Y013086D01*
X046384Y013226D01*
X046200Y013302D01*
X046384Y013378D01*
X046525Y013519D01*
X046601Y013703D01*
X046601Y013902D01*
X046525Y014086D01*
X046384Y014226D01*
X046219Y014295D01*
X046223Y014295D01*
X046300Y014320D01*
X046373Y014358D01*
X046440Y014406D01*
X046497Y014464D01*
X046546Y014530D01*
X046583Y014603D01*
X046608Y014681D01*
X046621Y014761D01*
X046621Y014772D01*
X046131Y014772D01*
X046131Y014832D01*
X046621Y014832D01*
X046621Y014843D01*
X046608Y014924D01*
X046583Y015002D01*
X046546Y015075D01*
X046497Y015141D01*
X046440Y015199D01*
X046373Y015247D01*
X046300Y015284D01*
X046223Y015310D01*
X046142Y015322D01*
X046131Y015322D01*
X046131Y014833D01*
X046071Y014833D01*
X046071Y015322D01*
X046060Y015322D01*
X045979Y015310D01*
X045901Y015284D01*
X045828Y015247D01*
X045762Y015199D01*
X045704Y015141D01*
X045656Y015075D01*
X045619Y015002D01*
X045594Y014924D01*
X045581Y014843D01*
X045581Y014832D01*
X046071Y014832D01*
X046071Y014772D01*
X045581Y014772D01*
X045581Y014761D01*
X045594Y014681D01*
X045619Y014603D01*
X045656Y014530D01*
X045704Y014464D01*
X045762Y014406D01*
X045828Y014358D01*
X045901Y014320D01*
X045979Y014295D01*
X045983Y014295D01*
X045818Y014226D01*
X045677Y014086D01*
X045601Y013902D01*
X045601Y013703D01*
X045677Y013519D01*
X045818Y013378D01*
X046001Y013302D01*
X045818Y013226D01*
X045677Y013086D01*
X045601Y012902D01*
X045601Y012703D01*
X045677Y012519D01*
X045818Y012378D01*
X046001Y012302D01*
X045818Y012226D01*
X045677Y012086D01*
X045601Y011902D01*
X045601Y011703D01*
X045677Y011519D01*
X045818Y011378D01*
X046001Y011302D01*
X045818Y011226D01*
X045677Y011086D01*
X045601Y010902D01*
X045601Y010703D01*
X045677Y010519D01*
X045694Y010502D01*
X043508Y010502D01*
X043525Y010519D01*
X043601Y010703D01*
X043601Y010902D01*
X043525Y011086D01*
X043384Y011226D01*
X043200Y011302D01*
X043384Y011378D01*
X043525Y011519D01*
X043601Y011703D01*
X043601Y011902D01*
X043525Y012086D01*
X043384Y012226D01*
X043200Y012302D01*
X043384Y012378D01*
X043525Y012519D01*
X043601Y012703D01*
X043601Y012902D01*
X043525Y013086D01*
X043384Y013226D01*
X043200Y013302D01*
X043384Y013378D01*
X043525Y013519D01*
X043601Y013703D01*
X043601Y013902D01*
X043525Y014086D01*
X043384Y014226D01*
X043219Y014295D01*
X043223Y014295D01*
X043300Y014320D01*
X043373Y014358D01*
X043440Y014406D01*
X043497Y014464D01*
X043546Y014530D01*
X043583Y014603D01*
X043608Y014681D01*
X043621Y014761D01*
X043621Y014772D01*
X043131Y014772D01*
X043131Y014832D01*
X043621Y014832D01*
X043621Y014843D01*
X043608Y014924D01*
X043583Y015002D01*
X043546Y015075D01*
X043497Y015141D01*
X043440Y015199D01*
X043373Y015247D01*
X043300Y015284D01*
X043223Y015310D01*
X043142Y015322D01*
X043131Y015322D01*
X043131Y014833D01*
X043071Y014833D01*
X043071Y015322D01*
X043060Y015322D01*
X042979Y015310D01*
X042901Y015284D01*
X042828Y015247D01*
X042762Y015199D01*
X042704Y015141D01*
X042656Y015075D01*
X042619Y015002D01*
X042594Y014924D01*
X042581Y014843D01*
X042581Y014832D01*
X043071Y014832D01*
X043071Y014772D01*
X042581Y014772D01*
X042581Y014761D01*
X042594Y014681D01*
X042619Y014603D01*
X042656Y014530D01*
X042704Y014464D01*
X042762Y014406D01*
X042828Y014358D01*
X042901Y014320D01*
X042979Y014295D01*
X042983Y014295D01*
X042818Y014226D01*
X042677Y014086D01*
X042601Y013902D01*
X042601Y013703D01*
X042677Y013519D01*
X042818Y013378D01*
X043001Y013302D01*
X042818Y013226D01*
X042677Y013086D01*
X042601Y012902D01*
X042601Y012703D01*
X042677Y012519D01*
X042818Y012378D01*
X043001Y012302D01*
X042818Y012226D01*
X042677Y012086D01*
X042601Y011902D01*
X042601Y011703D01*
X042677Y011519D01*
X042818Y011378D01*
X043001Y011302D01*
X042818Y011226D01*
X042677Y011086D01*
X042601Y010902D01*
X042601Y010703D01*
X042635Y010620D01*
X042151Y010135D01*
X042151Y009969D01*
X042151Y008502D01*
X041508Y008502D01*
X041525Y008519D01*
X041601Y008703D01*
X041601Y008902D01*
X041525Y009086D01*
X041384Y009226D01*
X041200Y009302D01*
X041384Y009378D01*
X041525Y009519D01*
X041601Y009703D01*
X041601Y009902D01*
X041525Y010086D01*
X041384Y010226D01*
X041200Y010302D01*
X041384Y010378D01*
X041525Y010519D01*
X041601Y010703D01*
X041601Y010902D01*
X041525Y011086D01*
X041384Y011226D01*
X041200Y011302D01*
X041001Y011302D01*
X041346Y011242D02*
X042855Y011242D01*
X043001Y011302D02*
X043200Y011302D01*
X043001Y011302D01*
X042796Y011400D02*
X041406Y011400D01*
X041541Y011559D02*
X042660Y011559D01*
X042601Y011717D02*
X041601Y011717D01*
X041601Y011876D02*
X042601Y011876D01*
X042656Y012035D02*
X041546Y012035D01*
X041417Y012193D02*
X042784Y012193D01*
X042882Y012352D02*
X041319Y012352D01*
X041200Y012302D02*
X041001Y012302D01*
X041200Y012302D01*
X040882Y012352D02*
X038319Y012352D01*
X038200Y012302D02*
X038001Y012302D01*
X038200Y012302D01*
X038417Y012193D02*
X040784Y012193D01*
X040656Y012035D02*
X038546Y012035D01*
X038601Y011876D02*
X040601Y011876D01*
X040601Y011717D02*
X038601Y011717D01*
X038627Y011559D02*
X040575Y011559D01*
X040416Y011400D02*
X038786Y011400D01*
X038944Y011242D02*
X040257Y011242D01*
X040099Y011083D02*
X039051Y011083D01*
X039051Y010925D02*
X039940Y010925D01*
X039782Y010766D02*
X039051Y010766D01*
X039051Y010608D02*
X039623Y010608D01*
X039465Y010449D02*
X039051Y010449D01*
X039051Y010291D02*
X039306Y010291D01*
X039148Y010132D02*
X039051Y010132D01*
X038651Y010132D02*
X038478Y010132D01*
X038525Y010086D02*
X038384Y010226D01*
X038200Y010302D01*
X038384Y010378D01*
X038525Y010519D01*
X038601Y010703D01*
X038601Y010902D01*
X038525Y011086D01*
X038384Y011226D01*
X038200Y011302D01*
X038001Y011302D01*
X038200Y011302D01*
X038283Y011337D01*
X038651Y010969D01*
X038651Y008535D01*
X038566Y008620D01*
X038601Y008703D01*
X038601Y008902D01*
X038525Y009086D01*
X038384Y009226D01*
X038200Y009302D01*
X038384Y009378D01*
X038525Y009519D01*
X038601Y009703D01*
X038601Y009902D01*
X038525Y010086D01*
X038571Y009974D02*
X038651Y009974D01*
X038651Y009815D02*
X038601Y009815D01*
X038581Y009656D02*
X038651Y009656D01*
X038651Y009498D02*
X038503Y009498D01*
X038651Y009339D02*
X038289Y009339D01*
X038200Y009302D02*
X038001Y009302D01*
X037818Y009226D01*
X037677Y009086D01*
X037601Y008902D01*
X037601Y008703D01*
X037677Y008519D01*
X037818Y008378D01*
X038001Y008302D01*
X037818Y008226D01*
X037677Y008086D01*
X037601Y007902D01*
X037601Y007703D01*
X037677Y007519D01*
X037818Y007378D01*
X037983Y007310D01*
X037979Y007310D01*
X037901Y007284D01*
X037828Y007247D01*
X037762Y007199D01*
X037704Y007141D01*
X037656Y007075D01*
X037619Y007002D01*
X037594Y006924D01*
X037581Y006843D01*
X037581Y006832D01*
X038071Y006832D01*
X038071Y006772D01*
X037581Y006772D01*
X037581Y006761D01*
X037594Y006681D01*
X037619Y006603D01*
X037656Y006530D01*
X037704Y006464D01*
X037762Y006406D01*
X037828Y006358D01*
X037901Y006320D01*
X037979Y006295D01*
X037983Y006295D01*
X037818Y006226D01*
X037677Y006086D01*
X037601Y005902D01*
X037601Y005703D01*
X037677Y005519D01*
X037818Y005378D01*
X038001Y005302D01*
X038068Y005302D01*
X037901Y005135D01*
X037901Y004969D01*
X037901Y003802D01*
X037551Y003802D01*
X037551Y008969D01*
X037918Y009337D01*
X038001Y009302D01*
X038200Y009302D01*
X038429Y009181D02*
X038651Y009181D01*
X038651Y009022D02*
X038551Y009022D01*
X038601Y008864D02*
X038651Y008864D01*
X038651Y008705D02*
X038601Y008705D01*
X038639Y008547D02*
X038651Y008547D01*
X038401Y008219D02*
X038283Y008337D01*
X038200Y008302D01*
X038001Y008302D01*
X038200Y008302D01*
X038384Y008226D01*
X038401Y008209D01*
X038401Y008219D01*
X038391Y008230D02*
X038376Y008230D01*
X037826Y008230D02*
X037551Y008230D01*
X037551Y008388D02*
X037808Y008388D01*
X037665Y008547D02*
X037551Y008547D01*
X037551Y008705D02*
X037601Y008705D01*
X037601Y008864D02*
X037551Y008864D01*
X037603Y009022D02*
X037651Y009022D01*
X037762Y009181D02*
X037772Y009181D01*
X037514Y009498D02*
X037301Y009498D01*
X037301Y009656D02*
X037620Y009656D01*
X037635Y009620D02*
X037301Y009285D01*
X037301Y009719D01*
X037918Y010337D01*
X038001Y010302D01*
X037818Y010226D01*
X037677Y010086D01*
X037601Y009902D01*
X037601Y009703D01*
X037635Y009620D01*
X037601Y009815D02*
X037396Y009815D01*
X037555Y009974D02*
X037631Y009974D01*
X037713Y010132D02*
X037723Y010132D01*
X037872Y010291D02*
X037973Y010291D01*
X038001Y010302D02*
X038200Y010302D01*
X038001Y010302D01*
X038229Y010291D02*
X038651Y010291D01*
X038651Y010449D02*
X038455Y010449D01*
X038561Y010608D02*
X038651Y010608D01*
X038651Y010766D02*
X038601Y010766D01*
X038591Y010925D02*
X038651Y010925D01*
X038537Y011083D02*
X038526Y011083D01*
X038378Y011242D02*
X038346Y011242D01*
X037855Y011242D02*
X036346Y011242D01*
X036200Y011302D02*
X036001Y011302D01*
X035818Y011226D01*
X035677Y011086D01*
X035601Y010902D01*
X035601Y010703D01*
X035635Y010620D01*
X035301Y010285D01*
X035301Y010719D01*
X035918Y011337D01*
X036001Y011302D01*
X036200Y011302D01*
X036406Y011400D02*
X037796Y011400D01*
X037660Y011559D02*
X036541Y011559D01*
X036601Y011717D02*
X037601Y011717D01*
X037601Y011876D02*
X036601Y011876D01*
X036546Y012035D02*
X037656Y012035D01*
X037784Y012193D02*
X036417Y012193D01*
X036319Y012352D02*
X037882Y012352D01*
X037686Y012510D02*
X036516Y012510D01*
X036587Y012669D02*
X037615Y012669D01*
X037601Y012827D02*
X036601Y012827D01*
X036566Y012986D02*
X037636Y012986D01*
X037736Y013144D02*
X036466Y013144D01*
X036202Y013303D02*
X038000Y013303D01*
X038001Y013302D02*
X038200Y013302D01*
X038384Y013378D01*
X038525Y013519D01*
X038601Y013703D01*
X038601Y013902D01*
X038525Y014086D01*
X038384Y014226D01*
X038219Y014295D01*
X038223Y014295D01*
X038300Y014320D01*
X038373Y014358D01*
X038440Y014406D01*
X038497Y014464D01*
X038546Y014530D01*
X038583Y014603D01*
X038608Y014681D01*
X038621Y014761D01*
X038621Y014772D01*
X038131Y014772D01*
X038131Y014832D01*
X038621Y014832D01*
X038621Y014843D01*
X038608Y014924D01*
X038583Y015002D01*
X038546Y015075D01*
X038497Y015141D01*
X038440Y015199D01*
X038373Y015247D01*
X038300Y015284D01*
X038223Y015310D01*
X038142Y015322D01*
X038131Y015322D01*
X038131Y014833D01*
X038071Y014833D01*
X038071Y015322D01*
X038060Y015322D01*
X037979Y015310D01*
X037901Y015284D01*
X037828Y015247D01*
X037762Y015199D01*
X037704Y015141D01*
X037656Y015075D01*
X037619Y015002D01*
X037594Y014924D01*
X037581Y014843D01*
X037581Y014832D01*
X038071Y014832D01*
X038071Y014772D01*
X037581Y014772D01*
X037581Y014761D01*
X037594Y014681D01*
X037619Y014603D01*
X037656Y014530D01*
X037704Y014464D01*
X037762Y014406D01*
X037828Y014358D01*
X037901Y014320D01*
X037979Y014295D01*
X037983Y014295D01*
X037818Y014226D01*
X037677Y014086D01*
X037601Y013902D01*
X037601Y013703D01*
X037677Y013519D01*
X037818Y013378D01*
X038001Y013302D01*
X038202Y013303D02*
X041000Y013303D01*
X041001Y013302D02*
X041200Y013302D01*
X041384Y013378D01*
X041525Y013519D01*
X041601Y013703D01*
X041601Y013902D01*
X041525Y014086D01*
X041384Y014226D01*
X041219Y014295D01*
X041223Y014295D01*
X041300Y014320D01*
X041373Y014358D01*
X041440Y014406D01*
X041497Y014464D01*
X041546Y014530D01*
X041583Y014603D01*
X041608Y014681D01*
X041621Y014761D01*
X041621Y014772D01*
X041131Y014772D01*
X041131Y014832D01*
X041621Y014832D01*
X041621Y014843D01*
X041608Y014924D01*
X041583Y015002D01*
X041546Y015075D01*
X041497Y015141D01*
X041440Y015199D01*
X041373Y015247D01*
X041300Y015284D01*
X041223Y015310D01*
X041142Y015322D01*
X041131Y015322D01*
X041131Y014833D01*
X041071Y014833D01*
X041071Y015322D01*
X041060Y015322D01*
X040979Y015310D01*
X040901Y015284D01*
X040828Y015247D01*
X040762Y015199D01*
X040704Y015141D01*
X040656Y015075D01*
X040619Y015002D01*
X040594Y014924D01*
X040581Y014843D01*
X040581Y014832D01*
X041071Y014832D01*
X041071Y014772D01*
X040581Y014772D01*
X040581Y014761D01*
X040594Y014681D01*
X040619Y014603D01*
X040656Y014530D01*
X040704Y014464D01*
X040762Y014406D01*
X040828Y014358D01*
X040901Y014320D01*
X040979Y014295D01*
X040983Y014295D01*
X040818Y014226D01*
X040677Y014086D01*
X040601Y013902D01*
X040601Y013703D01*
X040677Y013519D01*
X040818Y013378D01*
X041001Y013302D01*
X041202Y013303D02*
X043000Y013303D01*
X043001Y013302D02*
X043200Y013302D01*
X043001Y013302D01*
X043202Y013303D02*
X046000Y013303D01*
X046001Y013302D02*
X046200Y013302D01*
X046001Y013302D01*
X046202Y013303D02*
X047101Y013303D01*
X047101Y013461D02*
X046467Y013461D01*
X046566Y013620D02*
X047101Y013620D01*
X047101Y013779D02*
X046601Y013779D01*
X046586Y013937D02*
X047101Y013937D01*
X047101Y014096D02*
X046515Y014096D01*
X046316Y014254D02*
X047101Y014254D01*
X047101Y014413D02*
X046447Y014413D01*
X046567Y014571D02*
X047101Y014571D01*
X047101Y014730D02*
X046616Y014730D01*
X046614Y014888D02*
X047101Y014888D01*
X047101Y015047D02*
X046560Y015047D01*
X046431Y015205D02*
X047101Y015205D01*
X047101Y015364D02*
X032601Y015364D01*
X032601Y015523D02*
X047101Y015523D01*
X047101Y015681D02*
X032601Y015681D01*
X032601Y015840D02*
X047101Y015840D01*
X047101Y015998D02*
X032601Y015998D01*
X032601Y016157D02*
X047101Y016157D01*
X047101Y016315D02*
X032601Y016315D01*
X032601Y016474D02*
X047101Y016474D01*
X047101Y016632D02*
X032601Y016632D01*
X032601Y016791D02*
X047101Y016791D01*
X047601Y016791D02*
X057913Y016791D01*
X057913Y016802D02*
X057913Y003802D01*
X054051Y003802D01*
X054051Y011719D01*
X054051Y011885D01*
X053551Y012385D01*
X053471Y012465D01*
X053525Y012519D01*
X053601Y012703D01*
X053601Y012902D01*
X053525Y013086D01*
X053384Y013226D01*
X053200Y013302D01*
X053384Y013378D01*
X053525Y013519D01*
X053601Y013703D01*
X053601Y013902D01*
X053525Y014086D01*
X053384Y014226D01*
X053219Y014295D01*
X053223Y014295D01*
X053300Y014320D01*
X053373Y014358D01*
X053440Y014406D01*
X053497Y014464D01*
X053546Y014530D01*
X053583Y014603D01*
X053608Y014681D01*
X053621Y014761D01*
X053621Y014772D01*
X053131Y014772D01*
X053131Y014832D01*
X053621Y014832D01*
X053621Y014843D01*
X053608Y014924D01*
X053583Y015002D01*
X053546Y015075D01*
X053497Y015141D01*
X053440Y015199D01*
X053373Y015247D01*
X053300Y015284D01*
X053223Y015310D01*
X053142Y015322D01*
X053131Y015322D01*
X053131Y014833D01*
X053071Y014833D01*
X053071Y015322D01*
X053060Y015322D01*
X052979Y015310D01*
X052901Y015284D01*
X052828Y015247D01*
X052762Y015199D01*
X052704Y015141D01*
X052656Y015075D01*
X052619Y015002D01*
X052594Y014924D01*
X052581Y014843D01*
X052581Y014832D01*
X053071Y014832D01*
X053071Y014772D01*
X052581Y014772D01*
X052581Y014761D01*
X052594Y014681D01*
X052619Y014603D01*
X052656Y014530D01*
X052704Y014464D01*
X052762Y014406D01*
X052828Y014358D01*
X052901Y014320D01*
X052979Y014295D01*
X052983Y014295D01*
X052818Y014226D01*
X052677Y014086D01*
X052601Y013902D01*
X052601Y013703D01*
X052677Y013519D01*
X052818Y013378D01*
X053001Y013302D01*
X052818Y013226D01*
X052677Y013086D01*
X052601Y012902D01*
X052601Y012703D01*
X052677Y012519D01*
X052694Y012502D01*
X051508Y012502D01*
X051525Y012519D01*
X051601Y012703D01*
X051601Y012902D01*
X051525Y013086D01*
X051384Y013226D01*
X051200Y013302D01*
X051384Y013378D01*
X051525Y013519D01*
X051601Y013703D01*
X051601Y013902D01*
X051525Y014086D01*
X051384Y014226D01*
X051219Y014295D01*
X051223Y014295D01*
X051300Y014320D01*
X051373Y014358D01*
X051440Y014406D01*
X051497Y014464D01*
X051546Y014530D01*
X051583Y014603D01*
X051608Y014681D01*
X051621Y014761D01*
X051621Y014772D01*
X051131Y014772D01*
X051131Y014832D01*
X051621Y014832D01*
X051621Y014843D01*
X051608Y014924D01*
X051583Y015002D01*
X051546Y015075D01*
X051497Y015141D01*
X051440Y015199D01*
X051373Y015247D01*
X051300Y015284D01*
X051223Y015310D01*
X051142Y015322D01*
X051131Y015322D01*
X051131Y014833D01*
X051071Y014833D01*
X051071Y015322D01*
X051060Y015322D01*
X050979Y015310D01*
X050901Y015284D01*
X050828Y015247D01*
X050762Y015199D01*
X050704Y015141D01*
X050656Y015075D01*
X050619Y015002D01*
X050594Y014924D01*
X050581Y014843D01*
X050581Y014832D01*
X051071Y014832D01*
X051071Y014772D01*
X050581Y014772D01*
X050581Y014761D01*
X050594Y014681D01*
X050619Y014603D01*
X050656Y014530D01*
X050704Y014464D01*
X050762Y014406D01*
X050828Y014358D01*
X050901Y014320D01*
X050979Y014295D01*
X050983Y014295D01*
X050818Y014226D01*
X050677Y014086D01*
X050601Y013902D01*
X050601Y013703D01*
X050677Y013519D01*
X050818Y013378D01*
X051001Y013302D01*
X050818Y013226D01*
X050677Y013086D01*
X050601Y012902D01*
X050601Y012703D01*
X050677Y012519D01*
X050818Y012378D01*
X050901Y012344D01*
X050901Y012261D01*
X050818Y012226D01*
X050677Y012086D01*
X050601Y011902D01*
X050601Y011703D01*
X050677Y011519D01*
X050731Y011465D01*
X050651Y011385D01*
X049151Y009885D01*
X049151Y009719D01*
X049151Y008511D01*
X049055Y008608D01*
X048922Y008662D01*
X048779Y008662D01*
X048647Y008608D01*
X048546Y008506D01*
X048512Y008424D01*
X048471Y008465D01*
X048525Y008519D01*
X048601Y008703D01*
X048601Y008902D01*
X048525Y009086D01*
X048384Y009226D01*
X048200Y009302D01*
X048384Y009378D01*
X048525Y009519D01*
X048601Y009703D01*
X048601Y009902D01*
X048566Y009985D01*
X048801Y010219D01*
X048801Y010385D01*
X048801Y011385D01*
X048684Y011502D01*
X048518Y011502D01*
X048508Y011502D01*
X048525Y011519D01*
X048601Y011703D01*
X048601Y011902D01*
X048525Y012086D01*
X048384Y012226D01*
X048200Y012302D01*
X048384Y012378D01*
X048525Y012519D01*
X048601Y012703D01*
X048601Y012902D01*
X048525Y013086D01*
X048384Y013226D01*
X048200Y013302D01*
X048001Y013302D01*
X047818Y013226D01*
X047677Y013086D01*
X047601Y012902D01*
X047601Y012703D01*
X047677Y012519D01*
X047818Y012378D01*
X048001Y012302D01*
X047818Y012226D01*
X047677Y012086D01*
X047601Y011902D01*
X047601Y011703D01*
X047677Y011519D01*
X047731Y011465D01*
X047651Y011385D01*
X047601Y011335D01*
X047601Y014659D01*
X047619Y014603D01*
X047656Y014530D01*
X047704Y014464D01*
X047762Y014406D01*
X047828Y014358D01*
X047901Y014320D01*
X047979Y014295D01*
X047983Y014295D01*
X047818Y014226D01*
X047677Y014086D01*
X047601Y013902D01*
X047601Y013703D01*
X047677Y013519D01*
X047818Y013378D01*
X048001Y013302D01*
X048200Y013302D01*
X048384Y013378D01*
X048525Y013519D01*
X048601Y013703D01*
X048601Y013902D01*
X048525Y014086D01*
X048384Y014226D01*
X048219Y014295D01*
X048223Y014295D01*
X048300Y014320D01*
X048373Y014358D01*
X048440Y014406D01*
X048497Y014464D01*
X048546Y014530D01*
X048583Y014603D01*
X048608Y014681D01*
X048621Y014761D01*
X048621Y014772D01*
X048131Y014772D01*
X048131Y014832D01*
X048621Y014832D01*
X048621Y014843D01*
X048608Y014924D01*
X048583Y015002D01*
X048546Y015075D01*
X048497Y015141D01*
X048440Y015199D01*
X048373Y015247D01*
X048300Y015284D01*
X048223Y015310D01*
X048142Y015322D01*
X048131Y015322D01*
X048131Y014833D01*
X048071Y014833D01*
X048071Y015322D01*
X048060Y015322D01*
X047979Y015310D01*
X047901Y015284D01*
X047828Y015247D01*
X047762Y015199D01*
X047704Y015141D01*
X047656Y015075D01*
X047619Y015002D01*
X047601Y014946D01*
X047601Y016802D01*
X057913Y016802D01*
X057913Y016632D02*
X047601Y016632D01*
X047601Y016474D02*
X057913Y016474D01*
X057913Y016315D02*
X047601Y016315D01*
X047601Y016157D02*
X057913Y016157D01*
X057913Y015998D02*
X047601Y015998D01*
X047601Y015840D02*
X057913Y015840D01*
X057913Y015681D02*
X047601Y015681D01*
X047601Y015523D02*
X057913Y015523D01*
X057913Y015364D02*
X047601Y015364D01*
X047601Y015205D02*
X047771Y015205D01*
X047642Y015047D02*
X047601Y015047D01*
X048071Y015047D02*
X048131Y015047D01*
X048131Y015205D02*
X048071Y015205D01*
X048431Y015205D02*
X050771Y015205D01*
X050642Y015047D02*
X048560Y015047D01*
X048614Y014888D02*
X050588Y014888D01*
X050586Y014730D02*
X048616Y014730D01*
X048567Y014571D02*
X050635Y014571D01*
X050755Y014413D02*
X048447Y014413D01*
X048316Y014254D02*
X050885Y014254D01*
X050687Y014096D02*
X048515Y014096D01*
X048586Y013937D02*
X050615Y013937D01*
X050601Y013779D02*
X048601Y013779D01*
X048566Y013620D02*
X050635Y013620D01*
X050735Y013461D02*
X048467Y013461D01*
X048202Y013303D02*
X051000Y013303D01*
X051001Y013302D02*
X051200Y013302D01*
X051001Y013302D01*
X051202Y013303D02*
X053000Y013303D01*
X053001Y013302D02*
X053200Y013302D01*
X053001Y013302D01*
X053202Y013303D02*
X056000Y013303D01*
X056001Y013302D02*
X056200Y013302D01*
X056384Y013378D01*
X056525Y013519D01*
X056601Y013703D01*
X056601Y013902D01*
X056525Y014086D01*
X056384Y014226D01*
X056219Y014295D01*
X056223Y014295D01*
X056300Y014320D01*
X056373Y014358D01*
X056440Y014406D01*
X056497Y014464D01*
X056546Y014530D01*
X056583Y014603D01*
X056608Y014681D01*
X056621Y014761D01*
X056621Y014772D01*
X056131Y014772D01*
X056131Y014832D01*
X056621Y014832D01*
X056621Y014843D01*
X056608Y014924D01*
X056583Y015002D01*
X056546Y015075D01*
X056497Y015141D01*
X056440Y015199D01*
X056373Y015247D01*
X056300Y015284D01*
X056223Y015310D01*
X056142Y015322D01*
X056131Y015322D01*
X056131Y014833D01*
X056071Y014833D01*
X056071Y015322D01*
X056060Y015322D01*
X055979Y015310D01*
X055901Y015284D01*
X055828Y015247D01*
X055762Y015199D01*
X055704Y015141D01*
X055656Y015075D01*
X055619Y015002D01*
X055594Y014924D01*
X055581Y014843D01*
X055581Y014832D01*
X056071Y014832D01*
X056071Y014772D01*
X055581Y014772D01*
X055581Y014761D01*
X055594Y014681D01*
X055619Y014603D01*
X055656Y014530D01*
X055704Y014464D01*
X055762Y014406D01*
X055828Y014358D01*
X055901Y014320D01*
X055979Y014295D01*
X055983Y014295D01*
X055818Y014226D01*
X055677Y014086D01*
X055601Y013902D01*
X055601Y013703D01*
X055677Y013519D01*
X055818Y013378D01*
X056001Y013302D01*
X055818Y013226D01*
X055677Y013086D01*
X055601Y012902D01*
X055601Y012703D01*
X055677Y012519D01*
X055818Y012378D01*
X056001Y012302D01*
X055818Y012226D01*
X055677Y012086D01*
X055601Y011902D01*
X055601Y011703D01*
X055677Y011519D01*
X055818Y011378D01*
X056001Y011302D01*
X055818Y011226D01*
X055677Y011086D01*
X055601Y010902D01*
X055601Y010703D01*
X055677Y010519D01*
X055818Y010378D01*
X056001Y010302D01*
X055818Y010226D01*
X055677Y010086D01*
X055601Y009902D01*
X055601Y009703D01*
X055677Y009519D01*
X055818Y009378D01*
X056001Y009302D01*
X055818Y009226D01*
X055677Y009086D01*
X055601Y008902D01*
X055601Y008703D01*
X055677Y008519D01*
X055818Y008378D01*
X056001Y008302D01*
X055818Y008226D01*
X055677Y008086D01*
X055601Y007902D01*
X055601Y007703D01*
X055677Y007519D01*
X055818Y007378D01*
X056001Y007302D01*
X055818Y007226D01*
X055677Y007086D01*
X055601Y006902D01*
X055601Y006703D01*
X055677Y006519D01*
X055818Y006378D01*
X056001Y006302D01*
X056200Y006302D01*
X056384Y006378D01*
X056525Y006519D01*
X056601Y006703D01*
X056601Y006902D01*
X056566Y006985D01*
X056684Y007102D01*
X056801Y007219D01*
X056801Y012219D01*
X056801Y012385D01*
X056566Y012620D01*
X056601Y012703D01*
X056601Y012902D01*
X056525Y013086D01*
X056384Y013226D01*
X056200Y013302D01*
X056001Y013302D01*
X056202Y013303D02*
X057913Y013303D01*
X057913Y013461D02*
X056467Y013461D01*
X056566Y013620D02*
X057913Y013620D01*
X057913Y013779D02*
X056601Y013779D01*
X056586Y013937D02*
X057913Y013937D01*
X057913Y014096D02*
X056515Y014096D01*
X056316Y014254D02*
X057913Y014254D01*
X057913Y014413D02*
X056447Y014413D01*
X056567Y014571D02*
X057913Y014571D01*
X057913Y014730D02*
X056616Y014730D01*
X056614Y014888D02*
X057913Y014888D01*
X057913Y015047D02*
X056560Y015047D01*
X056431Y015205D02*
X057913Y015205D01*
X056131Y015205D02*
X056071Y015205D01*
X056071Y015047D02*
X056131Y015047D01*
X056131Y014888D02*
X056071Y014888D01*
X055642Y015047D02*
X053560Y015047D01*
X053614Y014888D02*
X055588Y014888D01*
X055586Y014730D02*
X053616Y014730D01*
X053567Y014571D02*
X055635Y014571D01*
X055755Y014413D02*
X053447Y014413D01*
X053316Y014254D02*
X055885Y014254D01*
X055687Y014096D02*
X053515Y014096D01*
X053586Y013937D02*
X055615Y013937D01*
X055601Y013779D02*
X053601Y013779D01*
X053566Y013620D02*
X055635Y013620D01*
X055735Y013461D02*
X053467Y013461D01*
X053466Y013144D02*
X055736Y013144D01*
X055636Y012986D02*
X053566Y012986D01*
X053601Y012827D02*
X055601Y012827D01*
X055615Y012669D02*
X053587Y012669D01*
X053516Y012510D02*
X055686Y012510D01*
X055882Y012352D02*
X053584Y012352D01*
X053743Y012193D02*
X055784Y012193D01*
X055656Y012035D02*
X053901Y012035D01*
X054051Y011876D02*
X055601Y011876D01*
X055601Y011717D02*
X054051Y011717D01*
X054051Y011559D02*
X055660Y011559D01*
X055796Y011400D02*
X054051Y011400D01*
X054051Y011242D02*
X055855Y011242D01*
X056001Y011302D02*
X056200Y011302D01*
X056384Y011226D01*
X056401Y011209D01*
X056401Y011395D01*
X056384Y011378D01*
X056200Y011302D01*
X056001Y011302D01*
X056346Y011242D02*
X056401Y011242D01*
X056801Y011242D02*
X057913Y011242D01*
X057913Y011400D02*
X056801Y011400D01*
X056801Y011559D02*
X057913Y011559D01*
X057913Y011717D02*
X056801Y011717D01*
X056801Y011876D02*
X057913Y011876D01*
X057913Y012035D02*
X056801Y012035D01*
X056801Y012193D02*
X057913Y012193D01*
X057913Y012352D02*
X056801Y012352D01*
X056676Y012510D02*
X057913Y012510D01*
X057913Y012669D02*
X056587Y012669D01*
X056601Y012827D02*
X057913Y012827D01*
X057913Y012986D02*
X056566Y012986D01*
X056466Y013144D02*
X057913Y013144D01*
X056401Y012219D02*
X056283Y012337D01*
X056200Y012302D01*
X056001Y012302D01*
X056200Y012302D01*
X056384Y012226D01*
X056401Y012209D01*
X056401Y012219D01*
X056801Y011083D02*
X057913Y011083D01*
X057913Y010925D02*
X056801Y010925D01*
X056801Y010766D02*
X057913Y010766D01*
X057913Y010608D02*
X056801Y010608D01*
X056801Y010449D02*
X057913Y010449D01*
X057913Y010291D02*
X056801Y010291D01*
X056801Y010132D02*
X057913Y010132D01*
X057913Y009974D02*
X056801Y009974D01*
X056801Y009815D02*
X057913Y009815D01*
X057913Y009656D02*
X056801Y009656D01*
X056801Y009498D02*
X057913Y009498D01*
X057913Y009339D02*
X056801Y009339D01*
X056801Y009181D02*
X057913Y009181D01*
X057913Y009022D02*
X056801Y009022D01*
X056801Y008864D02*
X057913Y008864D01*
X057913Y008705D02*
X056801Y008705D01*
X056801Y008547D02*
X057913Y008547D01*
X057913Y008388D02*
X056801Y008388D01*
X056801Y008230D02*
X057913Y008230D01*
X057913Y008071D02*
X056801Y008071D01*
X056801Y007912D02*
X057913Y007912D01*
X057913Y007754D02*
X056801Y007754D01*
X056801Y007595D02*
X057913Y007595D01*
X057913Y007437D02*
X056801Y007437D01*
X056801Y007278D02*
X057913Y007278D01*
X057913Y007120D02*
X056701Y007120D01*
X056576Y006961D02*
X057913Y006961D01*
X057913Y006803D02*
X056601Y006803D01*
X056576Y006644D02*
X057913Y006644D01*
X057913Y006486D02*
X056491Y006486D01*
X056507Y006302D02*
X055694Y006302D01*
X055601Y006209D01*
X055601Y005396D01*
X055694Y005302D01*
X056507Y005302D01*
X056601Y005396D01*
X056601Y006209D01*
X056507Y006302D01*
X056601Y006168D02*
X057913Y006168D01*
X057913Y006010D02*
X056601Y006010D01*
X056601Y005851D02*
X057913Y005851D01*
X057913Y005693D02*
X056601Y005693D01*
X056601Y005534D02*
X057913Y005534D01*
X057913Y005376D02*
X056580Y005376D01*
X055621Y005376D02*
X054051Y005376D01*
X054051Y005534D02*
X055601Y005534D01*
X055601Y005693D02*
X054051Y005693D01*
X054051Y005851D02*
X055601Y005851D01*
X055601Y006010D02*
X054051Y006010D01*
X054051Y006168D02*
X055601Y006168D01*
X055942Y006327D02*
X054051Y006327D01*
X054051Y006486D02*
X055710Y006486D01*
X055625Y006644D02*
X054051Y006644D01*
X054051Y006803D02*
X055601Y006803D01*
X055625Y006961D02*
X054051Y006961D01*
X054051Y007120D02*
X055711Y007120D01*
X055943Y007278D02*
X054051Y007278D01*
X054051Y007437D02*
X055759Y007437D01*
X055645Y007595D02*
X054051Y007595D01*
X054051Y007754D02*
X055601Y007754D01*
X055605Y007912D02*
X054051Y007912D01*
X054051Y008071D02*
X055671Y008071D01*
X055826Y008230D02*
X054051Y008230D01*
X054051Y008388D02*
X055808Y008388D01*
X056001Y008302D02*
X056200Y008302D01*
X056384Y008226D01*
X056401Y008209D01*
X056401Y008395D01*
X056384Y008378D01*
X056200Y008302D01*
X056001Y008302D01*
X056376Y008230D02*
X056401Y008230D01*
X056394Y008388D02*
X056401Y008388D01*
X055665Y008547D02*
X054051Y008547D01*
X054051Y008705D02*
X055601Y008705D01*
X055601Y008864D02*
X054051Y008864D01*
X054051Y009022D02*
X055651Y009022D01*
X055772Y009181D02*
X054051Y009181D01*
X054051Y009339D02*
X055912Y009339D01*
X056001Y009302D02*
X056200Y009302D01*
X056001Y009302D01*
X056200Y009302D02*
X056384Y009226D01*
X056401Y009209D01*
X056401Y009395D01*
X056384Y009378D01*
X056200Y009302D01*
X056289Y009339D02*
X056401Y009339D01*
X055698Y009498D02*
X054051Y009498D01*
X054051Y009656D02*
X055620Y009656D01*
X055601Y009815D02*
X054051Y009815D01*
X054051Y009974D02*
X055631Y009974D01*
X055723Y010132D02*
X054051Y010132D01*
X054051Y010291D02*
X055973Y010291D01*
X056001Y010302D02*
X056200Y010302D01*
X056384Y010226D01*
X056401Y010209D01*
X056401Y010395D01*
X056384Y010378D01*
X056200Y010302D01*
X056001Y010302D01*
X056229Y010291D02*
X056401Y010291D01*
X055747Y010449D02*
X054051Y010449D01*
X054051Y010608D02*
X055640Y010608D01*
X055601Y010766D02*
X054051Y010766D01*
X054051Y010925D02*
X055610Y010925D01*
X055676Y011083D02*
X054051Y011083D01*
X050666Y011400D02*
X048786Y011400D01*
X048801Y011242D02*
X050507Y011242D01*
X050349Y011083D02*
X048801Y011083D01*
X048801Y010925D02*
X050190Y010925D01*
X050032Y010766D02*
X048801Y010766D01*
X048801Y010608D02*
X049873Y010608D01*
X049715Y010449D02*
X048801Y010449D01*
X048801Y010291D02*
X049556Y010291D01*
X049398Y010132D02*
X048713Y010132D01*
X048571Y009974D02*
X049239Y009974D01*
X049151Y009815D02*
X048601Y009815D01*
X048581Y009656D02*
X049151Y009656D01*
X049151Y009498D02*
X048503Y009498D01*
X048289Y009339D02*
X049151Y009339D01*
X049151Y009181D02*
X048429Y009181D01*
X048551Y009022D02*
X049151Y009022D01*
X049151Y008864D02*
X048601Y008864D01*
X048601Y008705D02*
X049151Y008705D01*
X049151Y008547D02*
X049116Y008547D01*
X048586Y008547D02*
X048536Y008547D01*
X046901Y008547D02*
X046536Y008547D01*
X046601Y008705D02*
X046901Y008705D01*
X046901Y008864D02*
X046601Y008864D01*
X046551Y009022D02*
X046901Y009022D01*
X046901Y009181D02*
X046429Y009181D01*
X046289Y009339D02*
X046901Y009339D01*
X046901Y009498D02*
X046503Y009498D01*
X046581Y009656D02*
X046901Y009656D01*
X046901Y009815D02*
X046601Y009815D01*
X046571Y009974D02*
X046901Y009974D01*
X046901Y010132D02*
X046478Y010132D01*
X046301Y010291D02*
X046901Y010291D01*
X046901Y010449D02*
X046455Y010449D01*
X046561Y010608D02*
X046901Y010608D01*
X047032Y010766D02*
X046601Y010766D01*
X046591Y010925D02*
X047101Y010925D01*
X047101Y011083D02*
X046526Y011083D01*
X046346Y011242D02*
X047101Y011242D01*
X047101Y011400D02*
X046406Y011400D01*
X046541Y011559D02*
X047101Y011559D01*
X047101Y011717D02*
X046601Y011717D01*
X046601Y011876D02*
X047101Y011876D01*
X047101Y012035D02*
X046546Y012035D01*
X046417Y012193D02*
X047101Y012193D01*
X047101Y012352D02*
X046319Y012352D01*
X046200Y012302D02*
X046001Y012302D01*
X046200Y012302D01*
X045882Y012352D02*
X043319Y012352D01*
X043200Y012302D02*
X043001Y012302D01*
X043200Y012302D01*
X043417Y012193D02*
X045784Y012193D01*
X045656Y012035D02*
X043546Y012035D01*
X043601Y011876D02*
X045601Y011876D01*
X045601Y011717D02*
X043601Y011717D01*
X043541Y011559D02*
X045660Y011559D01*
X045796Y011400D02*
X043406Y011400D01*
X043346Y011242D02*
X045855Y011242D01*
X046001Y011302D02*
X046200Y011302D01*
X046001Y011302D01*
X045676Y011083D02*
X043526Y011083D01*
X043591Y010925D02*
X045610Y010925D01*
X045601Y010766D02*
X043601Y010766D01*
X043561Y010608D02*
X045640Y010608D01*
X047601Y011400D02*
X047666Y011400D01*
X047660Y011559D02*
X047601Y011559D01*
X048541Y011559D02*
X050660Y011559D01*
X050601Y011717D02*
X048601Y011717D01*
X048601Y011876D02*
X050601Y011876D01*
X050656Y012035D02*
X048546Y012035D01*
X048417Y012193D02*
X050784Y012193D01*
X050882Y012352D02*
X048319Y012352D01*
X048200Y012302D02*
X048001Y012302D01*
X048200Y012302D01*
X047882Y012352D02*
X047601Y012352D01*
X047601Y012510D02*
X047686Y012510D01*
X047615Y012669D02*
X047601Y012669D01*
X047101Y012669D02*
X046587Y012669D01*
X046601Y012827D02*
X047101Y012827D01*
X047101Y012986D02*
X046566Y012986D01*
X046466Y013144D02*
X047101Y013144D01*
X047601Y013144D02*
X047736Y013144D01*
X047636Y012986D02*
X047601Y012986D01*
X047601Y013303D02*
X048000Y013303D01*
X047735Y013461D02*
X047601Y013461D01*
X047601Y013620D02*
X047635Y013620D01*
X047615Y013937D02*
X047601Y013937D01*
X047601Y014096D02*
X047687Y014096D01*
X047601Y014254D02*
X047885Y014254D01*
X047755Y014413D02*
X047601Y014413D01*
X047601Y014571D02*
X047635Y014571D01*
X048071Y014888D02*
X048131Y014888D01*
X046131Y014888D02*
X046071Y014888D01*
X046071Y015047D02*
X046131Y015047D01*
X046131Y015205D02*
X046071Y015205D01*
X045771Y015205D02*
X043431Y015205D01*
X043560Y015047D02*
X045642Y015047D01*
X045588Y014888D02*
X043614Y014888D01*
X043616Y014730D02*
X045586Y014730D01*
X045635Y014571D02*
X043567Y014571D01*
X043447Y014413D02*
X045755Y014413D01*
X045885Y014254D02*
X043316Y014254D01*
X043515Y014096D02*
X045687Y014096D01*
X045615Y013937D02*
X043586Y013937D01*
X043601Y013779D02*
X045601Y013779D01*
X045635Y013620D02*
X043566Y013620D01*
X043467Y013461D02*
X045735Y013461D01*
X045736Y013144D02*
X043466Y013144D01*
X043566Y012986D02*
X045636Y012986D01*
X045601Y012827D02*
X043601Y012827D01*
X043587Y012669D02*
X045615Y012669D01*
X045686Y012510D02*
X043516Y012510D01*
X042686Y012510D02*
X041516Y012510D01*
X041587Y012669D02*
X042615Y012669D01*
X042601Y012827D02*
X041601Y012827D01*
X041566Y012986D02*
X042636Y012986D01*
X042736Y013144D02*
X041466Y013144D01*
X041467Y013461D02*
X042735Y013461D01*
X042635Y013620D02*
X041566Y013620D01*
X041601Y013779D02*
X042601Y013779D01*
X042615Y013937D02*
X041586Y013937D01*
X041515Y014096D02*
X042687Y014096D01*
X042885Y014254D02*
X041316Y014254D01*
X041447Y014413D02*
X042755Y014413D01*
X042635Y014571D02*
X041567Y014571D01*
X041616Y014730D02*
X042586Y014730D01*
X042588Y014888D02*
X041614Y014888D01*
X041560Y015047D02*
X042642Y015047D01*
X042771Y015205D02*
X041431Y015205D01*
X041131Y015205D02*
X041071Y015205D01*
X041071Y015047D02*
X041131Y015047D01*
X041131Y014888D02*
X041071Y014888D01*
X040642Y015047D02*
X038560Y015047D01*
X038614Y014888D02*
X040588Y014888D01*
X040586Y014730D02*
X038616Y014730D01*
X038567Y014571D02*
X040635Y014571D01*
X040755Y014413D02*
X038447Y014413D01*
X038316Y014254D02*
X040885Y014254D01*
X040687Y014096D02*
X038515Y014096D01*
X038586Y013937D02*
X040615Y013937D01*
X040601Y013779D02*
X038601Y013779D01*
X038566Y013620D02*
X040635Y013620D01*
X040735Y013461D02*
X038467Y013461D01*
X038466Y013144D02*
X040736Y013144D01*
X040636Y012986D02*
X038566Y012986D01*
X038601Y012827D02*
X040601Y012827D01*
X040615Y012669D02*
X038587Y012669D01*
X038516Y012510D02*
X040686Y012510D01*
X037735Y013461D02*
X036467Y013461D01*
X036566Y013620D02*
X037635Y013620D01*
X037601Y013779D02*
X036601Y013779D01*
X036586Y013937D02*
X037615Y013937D01*
X037687Y014096D02*
X036515Y014096D01*
X036316Y014254D02*
X037885Y014254D01*
X037755Y014413D02*
X036447Y014413D01*
X036567Y014571D02*
X037635Y014571D01*
X037586Y014730D02*
X036616Y014730D01*
X036614Y014888D02*
X037588Y014888D01*
X037642Y015047D02*
X036560Y015047D01*
X036431Y015205D02*
X037771Y015205D01*
X038071Y015205D02*
X038131Y015205D01*
X038131Y015047D02*
X038071Y015047D01*
X038071Y014888D02*
X038131Y014888D01*
X038431Y015205D02*
X040771Y015205D01*
X043071Y015205D02*
X043131Y015205D01*
X043131Y015047D02*
X043071Y015047D01*
X043071Y014888D02*
X043131Y014888D01*
X048466Y013144D02*
X050736Y013144D01*
X050636Y012986D02*
X048566Y012986D01*
X048601Y012827D02*
X050601Y012827D01*
X050615Y012669D02*
X048587Y012669D01*
X048516Y012510D02*
X050686Y012510D01*
X051516Y012510D02*
X052686Y012510D01*
X052615Y012669D02*
X051587Y012669D01*
X051601Y012827D02*
X052601Y012827D01*
X052636Y012986D02*
X051566Y012986D01*
X051466Y013144D02*
X052736Y013144D01*
X052735Y013461D02*
X051467Y013461D01*
X051566Y013620D02*
X052635Y013620D01*
X052601Y013779D02*
X051601Y013779D01*
X051586Y013937D02*
X052615Y013937D01*
X052687Y014096D02*
X051515Y014096D01*
X051316Y014254D02*
X052885Y014254D01*
X052755Y014413D02*
X051447Y014413D01*
X051567Y014571D02*
X052635Y014571D01*
X052586Y014730D02*
X051616Y014730D01*
X051614Y014888D02*
X052588Y014888D01*
X052642Y015047D02*
X051560Y015047D01*
X051431Y015205D02*
X052771Y015205D01*
X053071Y015205D02*
X053131Y015205D01*
X053131Y015047D02*
X053071Y015047D01*
X053071Y014888D02*
X053131Y014888D01*
X053431Y015205D02*
X055771Y015205D01*
X051131Y015205D02*
X051071Y015205D01*
X051071Y015047D02*
X051131Y015047D01*
X051131Y014888D02*
X051071Y014888D01*
X047101Y012510D02*
X046516Y012510D01*
X047601Y012193D02*
X047784Y012193D01*
X047656Y012035D02*
X047601Y012035D01*
X042676Y011083D02*
X041526Y011083D01*
X041591Y010925D02*
X042610Y010925D01*
X042601Y010766D02*
X041601Y010766D01*
X041561Y010608D02*
X042623Y010608D01*
X042465Y010449D02*
X041455Y010449D01*
X041229Y010291D02*
X042306Y010291D01*
X042151Y010132D02*
X041478Y010132D01*
X041571Y009974D02*
X042151Y009974D01*
X042151Y009815D02*
X041601Y009815D01*
X041581Y009656D02*
X042151Y009656D01*
X042151Y009498D02*
X041503Y009498D01*
X041289Y009339D02*
X042151Y009339D01*
X042151Y009181D02*
X041429Y009181D01*
X041551Y009022D02*
X042151Y009022D01*
X042151Y008864D02*
X041601Y008864D01*
X041601Y008705D02*
X042151Y008705D01*
X042151Y008547D02*
X041536Y008547D01*
X040635Y008620D02*
X040301Y008285D01*
X040301Y008719D01*
X040918Y009337D01*
X041001Y009302D01*
X040818Y009226D01*
X040677Y009086D01*
X040601Y008902D01*
X040601Y008703D01*
X040635Y008620D01*
X040601Y008705D02*
X040301Y008705D01*
X040301Y008547D02*
X040562Y008547D01*
X040404Y008388D02*
X040301Y008388D01*
X040445Y008864D02*
X040601Y008864D01*
X040603Y009022D02*
X040651Y009022D01*
X040762Y009181D02*
X040772Y009181D01*
X041001Y009302D02*
X041200Y009302D01*
X041001Y009302D01*
X040514Y009498D02*
X040079Y009498D01*
X040051Y009469D02*
X040918Y010337D01*
X041001Y010302D01*
X040818Y010226D01*
X040677Y010086D01*
X040601Y009902D01*
X040601Y009703D01*
X040635Y009620D01*
X040051Y009035D01*
X040051Y009469D01*
X040051Y009339D02*
X040355Y009339D01*
X040196Y009181D02*
X040051Y009181D01*
X040238Y009656D02*
X040620Y009656D01*
X040601Y009815D02*
X040396Y009815D01*
X040555Y009974D02*
X040631Y009974D01*
X040713Y010132D02*
X040723Y010132D01*
X040872Y010291D02*
X040973Y010291D01*
X041001Y010302D02*
X041200Y010302D01*
X041001Y010302D01*
X037623Y010608D02*
X036561Y010608D01*
X036601Y010766D02*
X037601Y010766D01*
X037610Y010925D02*
X036591Y010925D01*
X036526Y011083D02*
X037676Y011083D01*
X035855Y011242D02*
X035823Y011242D01*
X035676Y011083D02*
X035665Y011083D01*
X035610Y010925D02*
X035506Y010925D01*
X035601Y010766D02*
X035347Y010766D01*
X035301Y010608D02*
X035623Y010608D01*
X035465Y010449D02*
X035301Y010449D01*
X035301Y010291D02*
X035306Y010291D01*
X035551Y009969D02*
X035918Y010337D01*
X036001Y010302D01*
X035818Y010226D01*
X035677Y010086D01*
X035601Y009902D01*
X035601Y009703D01*
X035635Y009620D01*
X035551Y009535D01*
X035551Y009969D01*
X035555Y009974D02*
X035631Y009974D01*
X035601Y009815D02*
X035551Y009815D01*
X035551Y009656D02*
X035620Y009656D01*
X035918Y009337D02*
X036001Y009302D01*
X035818Y009226D01*
X035801Y009209D01*
X035801Y009219D01*
X035918Y009337D01*
X036001Y009302D02*
X036200Y009302D01*
X036001Y009302D01*
X036289Y009339D02*
X036901Y009339D01*
X036901Y009181D02*
X036429Y009181D01*
X036551Y009022D02*
X036901Y009022D01*
X036901Y008864D02*
X036601Y008864D01*
X036601Y008705D02*
X036901Y008705D01*
X036901Y008547D02*
X036639Y008547D01*
X036798Y008388D02*
X036901Y008388D01*
X036901Y008230D02*
X036801Y008230D01*
X036801Y008071D02*
X036901Y008071D01*
X036901Y007912D02*
X036801Y007912D01*
X036801Y007754D02*
X036901Y007754D01*
X036901Y007595D02*
X036801Y007595D01*
X036801Y007437D02*
X036901Y007437D01*
X036901Y007278D02*
X036801Y007278D01*
X036801Y007120D02*
X036901Y007120D01*
X036901Y006961D02*
X036801Y006961D01*
X036801Y006803D02*
X036901Y006803D01*
X036901Y006644D02*
X036801Y006644D01*
X036801Y006486D02*
X036901Y006486D01*
X036901Y006327D02*
X036801Y006327D01*
X036801Y006168D02*
X036901Y006168D01*
X036901Y006010D02*
X036801Y006010D01*
X036801Y005851D02*
X036901Y005851D01*
X036901Y005693D02*
X036801Y005693D01*
X036801Y005534D02*
X036901Y005534D01*
X036901Y005376D02*
X036801Y005376D01*
X036801Y005217D02*
X036901Y005217D01*
X036901Y005059D02*
X036801Y005059D01*
X036801Y004900D02*
X036901Y004900D01*
X036901Y004742D02*
X036801Y004742D01*
X036801Y004583D02*
X036901Y004583D01*
X036901Y004424D02*
X036801Y004424D01*
X036801Y004266D02*
X036901Y004266D01*
X036901Y004107D02*
X036801Y004107D01*
X036801Y003949D02*
X036901Y003949D01*
X037551Y003949D02*
X037901Y003949D01*
X037901Y004107D02*
X037551Y004107D01*
X037551Y004266D02*
X037901Y004266D01*
X037901Y004424D02*
X037551Y004424D01*
X037551Y004583D02*
X037901Y004583D01*
X037901Y004742D02*
X037551Y004742D01*
X037551Y004900D02*
X037901Y004900D01*
X037901Y005059D02*
X037551Y005059D01*
X037551Y005217D02*
X037983Y005217D01*
X037824Y005376D02*
X037551Y005376D01*
X037551Y005534D02*
X037671Y005534D01*
X037605Y005693D02*
X037551Y005693D01*
X037551Y005851D02*
X037601Y005851D01*
X037646Y006010D02*
X037551Y006010D01*
X037551Y006168D02*
X037760Y006168D01*
X037888Y006327D02*
X037551Y006327D01*
X037551Y006486D02*
X037688Y006486D01*
X037605Y006644D02*
X037551Y006644D01*
X037551Y006803D02*
X038071Y006803D01*
X037606Y006961D02*
X037551Y006961D01*
X037551Y007120D02*
X037689Y007120D01*
X037551Y007278D02*
X037889Y007278D01*
X037759Y007437D02*
X037551Y007437D01*
X037551Y007595D02*
X037645Y007595D01*
X037601Y007754D02*
X037551Y007754D01*
X037551Y007912D02*
X037605Y007912D01*
X037551Y008071D02*
X037671Y008071D01*
X034901Y008071D02*
X034301Y008071D01*
X034301Y007912D02*
X034901Y007912D01*
X034901Y007754D02*
X034301Y007754D01*
X034301Y007595D02*
X034901Y007595D01*
X034901Y007437D02*
X034301Y007437D01*
X034301Y007278D02*
X034901Y007278D01*
X034901Y007120D02*
X034301Y007120D01*
X034301Y006961D02*
X034901Y006961D01*
X034901Y006803D02*
X034301Y006803D01*
X034301Y006644D02*
X034901Y006644D01*
X034901Y006486D02*
X034301Y006486D01*
X034301Y006327D02*
X034901Y006327D01*
X034901Y006168D02*
X034301Y006168D01*
X034301Y006010D02*
X034901Y006010D01*
X034901Y005851D02*
X034301Y005851D01*
X034301Y005693D02*
X034901Y005693D01*
X034901Y005534D02*
X034301Y005534D01*
X034301Y005376D02*
X034901Y005376D01*
X034901Y005217D02*
X034301Y005217D01*
X034301Y005059D02*
X034901Y005059D01*
X034901Y004900D02*
X034301Y004900D01*
X034301Y004742D02*
X034901Y004742D01*
X034901Y004583D02*
X034301Y004583D01*
X034301Y004424D02*
X034901Y004424D01*
X034901Y004266D02*
X034301Y004266D01*
X034301Y004107D02*
X034901Y004107D01*
X034901Y003949D02*
X034301Y003949D01*
X033901Y003949D02*
X032801Y003949D01*
X032801Y003802D02*
X032801Y005395D01*
X032818Y005378D01*
X033001Y005302D01*
X033200Y005302D01*
X033384Y005378D01*
X033525Y005519D01*
X033601Y005703D01*
X033601Y005902D01*
X033525Y006086D01*
X033384Y006226D01*
X033219Y006295D01*
X033223Y006295D01*
X033300Y006320D01*
X033373Y006358D01*
X033440Y006406D01*
X033497Y006464D01*
X033546Y006530D01*
X033583Y006603D01*
X033608Y006681D01*
X033621Y006761D01*
X033621Y006772D01*
X033131Y006772D01*
X033131Y006832D01*
X033621Y006832D01*
X033621Y006843D01*
X033608Y006924D01*
X033583Y007002D01*
X033546Y007075D01*
X033497Y007141D01*
X033440Y007199D01*
X033373Y007247D01*
X033300Y007284D01*
X033223Y007310D01*
X033219Y007310D01*
X033384Y007378D01*
X033525Y007519D01*
X033601Y007703D01*
X033601Y007902D01*
X033525Y008086D01*
X033384Y008226D01*
X033200Y008302D01*
X033384Y008378D01*
X033525Y008519D01*
X033601Y008703D01*
X033601Y008902D01*
X033525Y009086D01*
X033384Y009226D01*
X033200Y009302D01*
X033384Y009378D01*
X033525Y009519D01*
X033601Y009703D01*
X033601Y009902D01*
X033525Y010086D01*
X033384Y010226D01*
X033200Y010302D01*
X033001Y010302D01*
X033200Y010302D01*
X033283Y010337D01*
X033901Y009719D01*
X033901Y003802D01*
X032801Y003802D01*
X032801Y004107D02*
X033901Y004107D01*
X033901Y004266D02*
X032801Y004266D01*
X032801Y004424D02*
X033901Y004424D01*
X033901Y004583D02*
X032801Y004583D01*
X032801Y004742D02*
X033901Y004742D01*
X033901Y004900D02*
X032801Y004900D01*
X032801Y005059D02*
X033901Y005059D01*
X033901Y005217D02*
X032801Y005217D01*
X032801Y005376D02*
X032824Y005376D01*
X033377Y005376D02*
X033901Y005376D01*
X033901Y005534D02*
X033531Y005534D01*
X033597Y005693D02*
X033901Y005693D01*
X033901Y005851D02*
X033601Y005851D01*
X033556Y006010D02*
X033901Y006010D01*
X033901Y006168D02*
X033442Y006168D01*
X033313Y006327D02*
X033901Y006327D01*
X033901Y006486D02*
X033513Y006486D01*
X033596Y006644D02*
X033901Y006644D01*
X033901Y006803D02*
X033131Y006803D01*
X033596Y006961D02*
X033901Y006961D01*
X033901Y007120D02*
X033513Y007120D01*
X033312Y007278D02*
X033901Y007278D01*
X033901Y007437D02*
X033442Y007437D01*
X033556Y007595D02*
X033901Y007595D01*
X033901Y007754D02*
X033601Y007754D01*
X033596Y007912D02*
X033901Y007912D01*
X033901Y008071D02*
X033531Y008071D01*
X033376Y008230D02*
X033901Y008230D01*
X033901Y008388D02*
X033394Y008388D01*
X033200Y008302D02*
X033001Y008302D01*
X032818Y008226D01*
X032801Y008209D01*
X032801Y008219D01*
X032918Y008337D01*
X033001Y008302D01*
X033200Y008302D01*
X032826Y008230D02*
X032811Y008230D01*
X033536Y008547D02*
X033901Y008547D01*
X033901Y008705D02*
X033601Y008705D01*
X033601Y008864D02*
X033901Y008864D01*
X033901Y009022D02*
X033551Y009022D01*
X033429Y009181D02*
X033901Y009181D01*
X033901Y009339D02*
X033289Y009339D01*
X033200Y009302D02*
X033001Y009302D01*
X033200Y009302D01*
X032912Y009339D02*
X032601Y009339D01*
X032601Y009181D02*
X032772Y009181D01*
X032651Y009022D02*
X032601Y009022D01*
X032601Y009498D02*
X032698Y009498D01*
X032620Y009656D02*
X032601Y009656D01*
X032601Y009974D02*
X032631Y009974D01*
X032601Y010132D02*
X032723Y010132D01*
X032601Y010291D02*
X032973Y010291D01*
X033229Y010291D02*
X033330Y010291D01*
X033478Y010132D02*
X033488Y010132D01*
X033571Y009974D02*
X033647Y009974D01*
X033601Y009815D02*
X033805Y009815D01*
X033901Y009656D02*
X033581Y009656D01*
X033503Y009498D02*
X033901Y009498D01*
X034301Y009498D02*
X034901Y009498D01*
X034901Y009656D02*
X034301Y009656D01*
X034301Y009815D02*
X034901Y009815D01*
X034901Y009974D02*
X034212Y009974D01*
X034054Y010132D02*
X034901Y010132D01*
X034901Y010291D02*
X033895Y010291D01*
X033737Y010449D02*
X034901Y010449D01*
X034901Y010608D02*
X033578Y010608D01*
X033601Y010766D02*
X034901Y010766D01*
X034940Y010925D02*
X033591Y010925D01*
X033526Y011083D02*
X035099Y011083D01*
X035257Y011242D02*
X033346Y011242D01*
X033200Y011302D02*
X033001Y011302D01*
X033200Y011302D01*
X033406Y011400D02*
X035416Y011400D01*
X035575Y011559D02*
X033541Y011559D01*
X033601Y011717D02*
X035601Y011717D01*
X035601Y011876D02*
X033601Y011876D01*
X033546Y012035D02*
X035656Y012035D01*
X035784Y012193D02*
X033417Y012193D01*
X033319Y012352D02*
X035882Y012352D01*
X036001Y012302D02*
X036200Y012302D01*
X036001Y012302D01*
X035686Y012510D02*
X033516Y012510D01*
X033587Y012669D02*
X035615Y012669D01*
X035601Y012827D02*
X033601Y012827D01*
X033566Y012986D02*
X035636Y012986D01*
X035736Y013144D02*
X033466Y013144D01*
X033202Y013303D02*
X036000Y013303D01*
X036001Y013302D02*
X036200Y013302D01*
X036001Y013302D01*
X035735Y013461D02*
X033467Y013461D01*
X033566Y013620D02*
X035635Y013620D01*
X035601Y013779D02*
X033601Y013779D01*
X033586Y013937D02*
X035615Y013937D01*
X035687Y014096D02*
X033515Y014096D01*
X033316Y014254D02*
X035885Y014254D01*
X035755Y014413D02*
X033447Y014413D01*
X033567Y014571D02*
X035635Y014571D01*
X035586Y014730D02*
X033616Y014730D01*
X033614Y014888D02*
X035588Y014888D01*
X035642Y015047D02*
X033560Y015047D01*
X033431Y015205D02*
X035771Y015205D01*
X036071Y015205D02*
X036131Y015205D01*
X036131Y015047D02*
X036071Y015047D01*
X036071Y014888D02*
X036131Y014888D01*
X033131Y014888D02*
X033071Y014888D01*
X033071Y015047D02*
X033131Y015047D01*
X033131Y015205D02*
X033071Y015205D01*
X032771Y015205D02*
X032601Y015205D01*
X032601Y015047D02*
X032642Y015047D01*
X032635Y014571D02*
X032601Y014571D01*
X032601Y014413D02*
X032755Y014413D01*
X032885Y014254D02*
X032601Y014254D01*
X032601Y014096D02*
X032687Y014096D01*
X032615Y013937D02*
X032601Y013937D01*
X032601Y013620D02*
X032635Y013620D01*
X032601Y013461D02*
X032735Y013461D01*
X032601Y013303D02*
X033000Y013303D01*
X032736Y013144D02*
X032601Y013144D01*
X032601Y012986D02*
X032636Y012986D01*
X032615Y012669D02*
X032601Y012669D01*
X032601Y012510D02*
X032686Y012510D01*
X032601Y012352D02*
X032882Y012352D01*
X033001Y012302D02*
X033200Y012302D01*
X033001Y012302D01*
X032784Y012193D02*
X032601Y012193D01*
X032601Y012035D02*
X032656Y012035D01*
X032660Y011559D02*
X032601Y011559D01*
X032601Y011400D02*
X032796Y011400D01*
X032855Y011242D02*
X032601Y011242D01*
X032601Y011083D02*
X032676Y011083D01*
X032610Y010925D02*
X032601Y010925D01*
X032601Y010608D02*
X032640Y010608D01*
X032601Y010449D02*
X032747Y010449D01*
X035713Y010132D02*
X035723Y010132D01*
X035872Y010291D02*
X035973Y010291D01*
X036001Y010302D02*
X036200Y010302D01*
X036001Y010302D01*
X036229Y010291D02*
X037306Y010291D01*
X037465Y010449D02*
X036455Y010449D01*
X036478Y010132D02*
X037148Y010132D01*
X036989Y009974D02*
X036571Y009974D01*
X036601Y009815D02*
X036901Y009815D01*
X036901Y009656D02*
X036581Y009656D01*
X036503Y009498D02*
X036901Y009498D01*
X037301Y009339D02*
X037355Y009339D01*
X034901Y009339D02*
X034301Y009339D01*
X034301Y009181D02*
X034901Y009181D01*
X034901Y009022D02*
X034301Y009022D01*
X034301Y008864D02*
X034901Y008864D01*
X034901Y008705D02*
X034301Y008705D01*
X034301Y008547D02*
X034901Y008547D01*
X034901Y008388D02*
X034301Y008388D01*
X034301Y008230D02*
X034901Y008230D01*
X026401Y008230D02*
X025801Y008230D01*
X025801Y008388D02*
X026401Y008388D01*
X026401Y008547D02*
X025801Y008547D01*
X025801Y008705D02*
X026401Y008705D01*
X026401Y008864D02*
X025801Y008864D01*
X025801Y009022D02*
X026401Y009022D01*
X026401Y009181D02*
X025801Y009181D01*
X025801Y009339D02*
X026401Y009339D01*
X026401Y009498D02*
X025801Y009498D01*
X025801Y009656D02*
X026401Y009656D01*
X026401Y009815D02*
X025801Y009815D01*
X025801Y009974D02*
X026401Y009974D01*
X026401Y010132D02*
X025801Y010132D01*
X025801Y010219D02*
X025801Y010385D01*
X025566Y010620D01*
X025601Y010703D01*
X025601Y010902D01*
X025525Y011086D01*
X025384Y011226D01*
X025200Y011302D01*
X025283Y011337D01*
X026401Y010219D01*
X026401Y003802D01*
X025801Y003802D01*
X025801Y010219D01*
X025801Y010291D02*
X026330Y010291D01*
X026171Y010449D02*
X025737Y010449D01*
X025578Y010608D02*
X026013Y010608D01*
X025854Y010766D02*
X025601Y010766D01*
X025591Y010925D02*
X025696Y010925D01*
X025537Y011083D02*
X025526Y011083D01*
X025378Y011242D02*
X025346Y011242D01*
X025200Y011302D02*
X025001Y011302D01*
X024818Y011226D01*
X024677Y011086D01*
X024601Y010902D01*
X024601Y010703D01*
X024677Y010519D01*
X024818Y010378D01*
X025001Y010302D01*
X024818Y010226D01*
X024677Y010086D01*
X024601Y009902D01*
X024601Y009703D01*
X024677Y009519D01*
X024818Y009378D01*
X025001Y009302D01*
X024818Y009226D01*
X024677Y009086D01*
X024601Y008902D01*
X024601Y008703D01*
X024677Y008519D01*
X024818Y008378D01*
X025001Y008302D01*
X024818Y008226D01*
X024677Y008086D01*
X024642Y008002D01*
X023559Y008002D01*
X023525Y008086D01*
X023384Y008226D01*
X023200Y008302D01*
X023384Y008378D01*
X023525Y008519D01*
X023601Y008703D01*
X023601Y008902D01*
X023525Y009086D01*
X023384Y009226D01*
X023200Y009302D01*
X023384Y009378D01*
X023525Y009519D01*
X023601Y009703D01*
X023601Y009902D01*
X023525Y010086D01*
X023384Y010226D01*
X023200Y010302D01*
X023384Y010378D01*
X023525Y010519D01*
X023601Y010703D01*
X023601Y010902D01*
X023525Y011086D01*
X023384Y011226D01*
X023200Y011302D01*
X023384Y011378D01*
X023525Y011519D01*
X023601Y011703D01*
X023601Y011902D01*
X023525Y012086D01*
X023508Y012102D01*
X024694Y012102D01*
X024677Y012086D01*
X024601Y011902D01*
X024601Y011703D01*
X024677Y011519D01*
X024818Y011378D01*
X025001Y011302D01*
X025200Y011302D01*
X024855Y011242D02*
X023346Y011242D01*
X023200Y011302D02*
X023001Y011302D01*
X022818Y011226D01*
X022677Y011086D01*
X022601Y010902D01*
X022601Y010703D01*
X022635Y010620D01*
X021901Y009885D01*
X021901Y009719D01*
X021901Y003802D01*
X021801Y003802D01*
X021801Y008219D01*
X021801Y008385D01*
X020566Y009620D01*
X020601Y009703D01*
X020601Y009902D01*
X020525Y010086D01*
X020508Y010102D01*
X020518Y010102D01*
X020684Y010102D01*
X020801Y010219D01*
X020801Y011219D01*
X020801Y011385D01*
X020566Y011620D01*
X020601Y011703D01*
X020601Y011902D01*
X020525Y012086D01*
X020384Y012226D01*
X020200Y012302D01*
X020384Y012378D01*
X020525Y012519D01*
X020601Y012703D01*
X020601Y012902D01*
X020525Y013086D01*
X020384Y013226D01*
X020200Y013302D01*
X020384Y013378D01*
X020525Y013519D01*
X020601Y013703D01*
X020601Y013902D01*
X020525Y014086D01*
X020384Y014226D01*
X020219Y014295D01*
X020223Y014295D01*
X020300Y014320D01*
X020373Y014358D01*
X020440Y014406D01*
X020497Y014464D01*
X020546Y014530D01*
X020583Y014603D01*
X020608Y014681D01*
X020621Y014761D01*
X020621Y014772D01*
X020131Y014772D01*
X020131Y014832D01*
X020621Y014832D01*
X020621Y014843D01*
X020608Y014924D01*
X020583Y015002D01*
X020546Y015075D01*
X020497Y015141D01*
X020440Y015199D01*
X020373Y015247D01*
X020300Y015284D01*
X020223Y015310D01*
X020142Y015322D01*
X020131Y015322D01*
X020131Y014833D01*
X020071Y014833D01*
X020071Y015322D01*
X020060Y015322D01*
X019979Y015310D01*
X019901Y015284D01*
X019828Y015247D01*
X019762Y015199D01*
X019704Y015141D01*
X019656Y015075D01*
X019619Y015002D01*
X019594Y014924D01*
X019581Y014843D01*
X019581Y014832D01*
X020071Y014832D01*
X020071Y014772D01*
X019581Y014772D01*
X019581Y014761D01*
X019594Y014681D01*
X019619Y014603D01*
X019656Y014530D01*
X019704Y014464D01*
X019762Y014406D01*
X019828Y014358D01*
X019901Y014320D01*
X019979Y014295D01*
X019983Y014295D01*
X019818Y014226D01*
X019677Y014086D01*
X019601Y013902D01*
X019601Y013703D01*
X019677Y013519D01*
X019818Y013378D01*
X020001Y013302D01*
X019818Y013226D01*
X019677Y013086D01*
X019601Y012902D01*
X019601Y012703D01*
X019677Y012519D01*
X019818Y012378D01*
X020001Y012302D01*
X019818Y012226D01*
X019677Y012086D01*
X019601Y011902D01*
X019601Y011703D01*
X019677Y011519D01*
X019818Y011378D01*
X020001Y011302D01*
X019818Y011226D01*
X019677Y011086D01*
X019601Y010902D01*
X019601Y010703D01*
X019635Y010620D01*
X019151Y010135D01*
X019151Y009969D01*
X019151Y008219D01*
X019268Y008102D01*
X019434Y008102D01*
X019694Y008102D01*
X019677Y008086D01*
X019642Y008002D01*
X018559Y008002D01*
X018525Y008086D01*
X018384Y008226D01*
X018200Y008302D01*
X018384Y008378D01*
X018525Y008519D01*
X018601Y008703D01*
X018601Y008902D01*
X018525Y009086D01*
X018384Y009226D01*
X018200Y009302D01*
X018384Y009378D01*
X018525Y009519D01*
X018601Y009703D01*
X018601Y009902D01*
X018525Y010086D01*
X018384Y010226D01*
X018200Y010302D01*
X018384Y010378D01*
X018525Y010519D01*
X018601Y010703D01*
X018601Y010902D01*
X018525Y011086D01*
X018384Y011226D01*
X018200Y011302D01*
X018384Y011378D01*
X018525Y011519D01*
X018601Y011703D01*
X018601Y011902D01*
X018525Y012086D01*
X018384Y012226D01*
X018200Y012302D01*
X018384Y012378D01*
X018525Y012519D01*
X018601Y012703D01*
X018601Y012902D01*
X018525Y013086D01*
X018384Y013226D01*
X018200Y013302D01*
X018001Y013302D01*
X017818Y013226D01*
X017677Y013086D01*
X017601Y012902D01*
X017601Y012703D01*
X017677Y012519D01*
X017818Y012378D01*
X018001Y012302D01*
X017818Y012226D01*
X017677Y012086D01*
X017601Y011902D01*
X017601Y011703D01*
X017635Y011620D01*
X017151Y011135D01*
X017151Y010969D01*
X017151Y005219D01*
X017268Y005102D01*
X017401Y004969D01*
X017401Y003802D01*
X017051Y003802D01*
X017051Y009969D01*
X017051Y010135D01*
X015566Y011620D01*
X015601Y011703D01*
X015601Y011902D01*
X015525Y012086D01*
X015384Y012226D01*
X015200Y012302D01*
X015384Y012378D01*
X015525Y012519D01*
X015601Y012703D01*
X015601Y012902D01*
X015525Y013086D01*
X015384Y013226D01*
X015200Y013302D01*
X015001Y013302D01*
X014818Y013226D01*
X014677Y013086D01*
X014601Y012902D01*
X014601Y012703D01*
X014677Y012519D01*
X014818Y012378D01*
X015001Y012302D01*
X014818Y012226D01*
X014677Y012086D01*
X014601Y011902D01*
X014601Y011703D01*
X014677Y011519D01*
X014818Y011378D01*
X015001Y011302D01*
X014818Y011226D01*
X014677Y011086D01*
X014601Y010902D01*
X014601Y010703D01*
X014677Y010519D01*
X014694Y010502D01*
X014684Y010502D01*
X014601Y010502D01*
X014601Y014659D01*
X014619Y014603D01*
X014656Y014530D01*
X014704Y014464D01*
X014762Y014406D01*
X014828Y014358D01*
X014901Y014320D01*
X014979Y014295D01*
X014983Y014295D01*
X014818Y014226D01*
X014677Y014086D01*
X014601Y013902D01*
X014601Y013703D01*
X014677Y013519D01*
X014818Y013378D01*
X015001Y013302D01*
X015200Y013302D01*
X015384Y013378D01*
X015525Y013519D01*
X015601Y013703D01*
X015601Y013902D01*
X015525Y014086D01*
X015384Y014226D01*
X015219Y014295D01*
X015223Y014295D01*
X015300Y014320D01*
X015373Y014358D01*
X015440Y014406D01*
X015497Y014464D01*
X015546Y014530D01*
X015583Y014603D01*
X015608Y014681D01*
X015621Y014761D01*
X015621Y014772D01*
X015131Y014772D01*
X015131Y014832D01*
X015621Y014832D01*
X015621Y014843D01*
X015608Y014924D01*
X015583Y015002D01*
X015546Y015075D01*
X015497Y015141D01*
X015440Y015199D01*
X015373Y015247D01*
X015300Y015284D01*
X015223Y015310D01*
X015142Y015322D01*
X015131Y015322D01*
X015131Y014833D01*
X015071Y014833D01*
X015071Y015322D01*
X015060Y015322D01*
X014979Y015310D01*
X014901Y015284D01*
X014828Y015247D01*
X014762Y015199D01*
X014704Y015141D01*
X014656Y015075D01*
X014619Y015002D01*
X014601Y014946D01*
X014601Y016802D01*
X029101Y016802D01*
X029101Y011835D01*
X028551Y012385D01*
X028471Y012465D01*
X028525Y012519D01*
X028601Y012703D01*
X028601Y012902D01*
X028525Y013086D01*
X028384Y013226D01*
X028200Y013302D01*
X028384Y013378D01*
X028525Y013519D01*
X028601Y013703D01*
X028601Y013902D01*
X028525Y014086D01*
X028384Y014226D01*
X028219Y014295D01*
X028223Y014295D01*
X028300Y014320D01*
X028373Y014358D01*
X028440Y014406D01*
X028497Y014464D01*
X028546Y014530D01*
X028583Y014603D01*
X028608Y014681D01*
X028621Y014761D01*
X028621Y014772D01*
X028131Y014772D01*
X028131Y014832D01*
X028621Y014832D01*
X028621Y014843D01*
X028608Y014924D01*
X028583Y015002D01*
X028546Y015075D01*
X028497Y015141D01*
X028440Y015199D01*
X028373Y015247D01*
X028300Y015284D01*
X028223Y015310D01*
X028142Y015322D01*
X028131Y015322D01*
X028131Y014833D01*
X028071Y014833D01*
X028071Y015322D01*
X028060Y015322D01*
X027979Y015310D01*
X027901Y015284D01*
X027828Y015247D01*
X027762Y015199D01*
X027704Y015141D01*
X027656Y015075D01*
X027619Y015002D01*
X027594Y014924D01*
X027581Y014843D01*
X027581Y014832D01*
X028071Y014832D01*
X028071Y014772D01*
X027581Y014772D01*
X027581Y014761D01*
X027594Y014681D01*
X027619Y014603D01*
X027656Y014530D01*
X027704Y014464D01*
X027762Y014406D01*
X027828Y014358D01*
X027901Y014320D01*
X027979Y014295D01*
X027983Y014295D01*
X027818Y014226D01*
X027677Y014086D01*
X027601Y013902D01*
X027601Y013703D01*
X027677Y013519D01*
X027818Y013378D01*
X028001Y013302D01*
X027818Y013226D01*
X027677Y013086D01*
X027601Y012902D01*
X027601Y012703D01*
X027677Y012519D01*
X027694Y012502D01*
X025508Y012502D01*
X025525Y012519D01*
X025601Y012703D01*
X025601Y012902D01*
X025525Y013086D01*
X025384Y013226D01*
X025200Y013302D01*
X025384Y013378D01*
X025525Y013519D01*
X025601Y013703D01*
X025601Y013902D01*
X025525Y014086D01*
X025384Y014226D01*
X025219Y014295D01*
X025223Y014295D01*
X025300Y014320D01*
X025373Y014358D01*
X025440Y014406D01*
X025497Y014464D01*
X025546Y014530D01*
X025583Y014603D01*
X025608Y014681D01*
X025621Y014761D01*
X025621Y014772D01*
X025131Y014772D01*
X025131Y014832D01*
X025621Y014832D01*
X025621Y014843D01*
X025608Y014924D01*
X025583Y015002D01*
X025546Y015075D01*
X025497Y015141D01*
X025440Y015199D01*
X025373Y015247D01*
X025300Y015284D01*
X025223Y015310D01*
X025142Y015322D01*
X025131Y015322D01*
X025131Y014833D01*
X025071Y014833D01*
X025071Y015322D01*
X025060Y015322D01*
X024979Y015310D01*
X024901Y015284D01*
X024828Y015247D01*
X024762Y015199D01*
X024704Y015141D01*
X024656Y015075D01*
X024619Y015002D01*
X024594Y014924D01*
X024581Y014843D01*
X024581Y014832D01*
X025071Y014832D01*
X025071Y014772D01*
X024581Y014772D01*
X024581Y014761D01*
X024594Y014681D01*
X024619Y014603D01*
X024656Y014530D01*
X024704Y014464D01*
X024762Y014406D01*
X024828Y014358D01*
X024901Y014320D01*
X024979Y014295D01*
X024983Y014295D01*
X024818Y014226D01*
X024677Y014086D01*
X024601Y013902D01*
X024601Y013703D01*
X024677Y013519D01*
X024818Y013378D01*
X025001Y013302D01*
X024818Y013226D01*
X024677Y013086D01*
X024601Y012902D01*
X024601Y012703D01*
X024677Y012519D01*
X024694Y012502D01*
X023508Y012502D01*
X023525Y012519D01*
X023601Y012703D01*
X023601Y012902D01*
X023525Y013086D01*
X023384Y013226D01*
X023200Y013302D01*
X023384Y013378D01*
X023525Y013519D01*
X023601Y013703D01*
X023601Y013902D01*
X023525Y014086D01*
X023384Y014226D01*
X023219Y014295D01*
X023223Y014295D01*
X023300Y014320D01*
X023373Y014358D01*
X023440Y014406D01*
X023497Y014464D01*
X023546Y014530D01*
X023583Y014603D01*
X023608Y014681D01*
X023621Y014761D01*
X023621Y014772D01*
X023131Y014772D01*
X023131Y014832D01*
X023621Y014832D01*
X023621Y014843D01*
X023608Y014924D01*
X023583Y015002D01*
X023546Y015075D01*
X023497Y015141D01*
X023440Y015199D01*
X023373Y015247D01*
X023300Y015284D01*
X023223Y015310D01*
X023142Y015322D01*
X023131Y015322D01*
X023131Y014833D01*
X023071Y014833D01*
X023071Y015322D01*
X023060Y015322D01*
X022979Y015310D01*
X022901Y015284D01*
X022828Y015247D01*
X022762Y015199D01*
X022704Y015141D01*
X022656Y015075D01*
X022619Y015002D01*
X022594Y014924D01*
X022581Y014843D01*
X022581Y014832D01*
X023071Y014832D01*
X023071Y014772D01*
X022581Y014772D01*
X022581Y014761D01*
X022594Y014681D01*
X022619Y014603D01*
X022656Y014530D01*
X022704Y014464D01*
X022762Y014406D01*
X022828Y014358D01*
X022901Y014320D01*
X022979Y014295D01*
X022983Y014295D01*
X022818Y014226D01*
X022677Y014086D01*
X022601Y013902D01*
X022601Y013703D01*
X022677Y013519D01*
X022818Y013378D01*
X023001Y013302D01*
X022818Y013226D01*
X022677Y013086D01*
X022601Y012902D01*
X022601Y012703D01*
X022677Y012519D01*
X022818Y012378D01*
X022901Y012344D01*
X022901Y012261D01*
X022818Y012226D01*
X022677Y012086D01*
X022601Y011902D01*
X022601Y011703D01*
X022677Y011519D01*
X022818Y011378D01*
X023001Y011302D01*
X023200Y011302D01*
X023406Y011400D02*
X024796Y011400D01*
X024660Y011559D02*
X023541Y011559D01*
X023601Y011717D02*
X024601Y011717D01*
X024601Y011876D02*
X023601Y011876D01*
X023546Y012035D02*
X024656Y012035D01*
X024686Y012510D02*
X023516Y012510D01*
X023587Y012669D02*
X024615Y012669D01*
X024601Y012827D02*
X023601Y012827D01*
X023566Y012986D02*
X024636Y012986D01*
X024736Y013144D02*
X023466Y013144D01*
X023202Y013303D02*
X025000Y013303D01*
X025001Y013302D02*
X025200Y013302D01*
X025001Y013302D01*
X025202Y013303D02*
X028000Y013303D01*
X028001Y013302D02*
X028200Y013302D01*
X028001Y013302D01*
X028202Y013303D02*
X029101Y013303D01*
X029101Y013461D02*
X028467Y013461D01*
X028566Y013620D02*
X029101Y013620D01*
X029101Y013779D02*
X028601Y013779D01*
X028586Y013937D02*
X029101Y013937D01*
X029101Y014096D02*
X028515Y014096D01*
X028316Y014254D02*
X029101Y014254D01*
X029101Y014413D02*
X028447Y014413D01*
X028567Y014571D02*
X029101Y014571D01*
X029101Y014730D02*
X028616Y014730D01*
X028614Y014888D02*
X029101Y014888D01*
X029101Y015047D02*
X028560Y015047D01*
X028431Y015205D02*
X029101Y015205D01*
X029101Y015364D02*
X014601Y015364D01*
X014601Y015523D02*
X029101Y015523D01*
X029101Y015681D02*
X014601Y015681D01*
X014601Y015840D02*
X029101Y015840D01*
X029101Y015998D02*
X014601Y015998D01*
X014601Y016157D02*
X029101Y016157D01*
X029101Y016315D02*
X014601Y016315D01*
X014601Y016474D02*
X029101Y016474D01*
X029101Y016632D02*
X014601Y016632D01*
X014601Y016791D02*
X029101Y016791D01*
X028131Y015205D02*
X028071Y015205D01*
X028071Y015047D02*
X028131Y015047D01*
X028131Y014888D02*
X028071Y014888D01*
X027642Y015047D02*
X025560Y015047D01*
X025614Y014888D02*
X027588Y014888D01*
X027586Y014730D02*
X025616Y014730D01*
X025567Y014571D02*
X027635Y014571D01*
X027755Y014413D02*
X025447Y014413D01*
X025316Y014254D02*
X027885Y014254D01*
X027687Y014096D02*
X025515Y014096D01*
X025586Y013937D02*
X027615Y013937D01*
X027601Y013779D02*
X025601Y013779D01*
X025566Y013620D02*
X027635Y013620D01*
X027735Y013461D02*
X025467Y013461D01*
X025466Y013144D02*
X027736Y013144D01*
X027636Y012986D02*
X025566Y012986D01*
X025601Y012827D02*
X027601Y012827D01*
X027615Y012669D02*
X025587Y012669D01*
X025516Y012510D02*
X027686Y012510D01*
X028516Y012510D02*
X029101Y012510D01*
X029101Y012352D02*
X028584Y012352D01*
X028551Y012385D02*
X028551Y012385D01*
X028743Y012193D02*
X029101Y012193D01*
X029101Y012035D02*
X028901Y012035D01*
X029060Y011876D02*
X029101Y011876D01*
X029101Y012669D02*
X028587Y012669D01*
X028601Y012827D02*
X029101Y012827D01*
X029101Y012986D02*
X028566Y012986D01*
X028466Y013144D02*
X029101Y013144D01*
X024885Y014254D02*
X023316Y014254D01*
X023447Y014413D02*
X024755Y014413D01*
X024635Y014571D02*
X023567Y014571D01*
X023616Y014730D02*
X024586Y014730D01*
X024588Y014888D02*
X023614Y014888D01*
X023560Y015047D02*
X024642Y015047D01*
X024771Y015205D02*
X023431Y015205D01*
X023131Y015205D02*
X023071Y015205D01*
X023071Y015047D02*
X023131Y015047D01*
X023131Y014888D02*
X023071Y014888D01*
X022642Y015047D02*
X020560Y015047D01*
X020614Y014888D02*
X022588Y014888D01*
X022586Y014730D02*
X020616Y014730D01*
X020567Y014571D02*
X022635Y014571D01*
X022755Y014413D02*
X020447Y014413D01*
X020316Y014254D02*
X022885Y014254D01*
X022687Y014096D02*
X020515Y014096D01*
X020586Y013937D02*
X022615Y013937D01*
X022601Y013779D02*
X020601Y013779D01*
X020566Y013620D02*
X022635Y013620D01*
X022735Y013461D02*
X020467Y013461D01*
X020202Y013303D02*
X023000Y013303D01*
X023001Y013302D02*
X023200Y013302D01*
X023001Y013302D01*
X022736Y013144D02*
X020466Y013144D01*
X020566Y012986D02*
X022636Y012986D01*
X022601Y012827D02*
X020601Y012827D01*
X020587Y012669D02*
X022615Y012669D01*
X022686Y012510D02*
X020516Y012510D01*
X020319Y012352D02*
X022882Y012352D01*
X022784Y012193D02*
X020417Y012193D01*
X020546Y012035D02*
X022656Y012035D01*
X022601Y011876D02*
X020601Y011876D01*
X020601Y011717D02*
X022601Y011717D01*
X022660Y011559D02*
X020627Y011559D01*
X020786Y011400D02*
X022796Y011400D01*
X022855Y011242D02*
X020801Y011242D01*
X020801Y011083D02*
X022676Y011083D01*
X022610Y010925D02*
X020801Y010925D01*
X020801Y010766D02*
X022601Y010766D01*
X022623Y010608D02*
X020801Y010608D01*
X020801Y010449D02*
X022465Y010449D01*
X022306Y010291D02*
X020801Y010291D01*
X020713Y010132D02*
X022148Y010132D01*
X021989Y009974D02*
X020571Y009974D01*
X020601Y009815D02*
X021901Y009815D01*
X021901Y009656D02*
X020581Y009656D01*
X020688Y009498D02*
X021901Y009498D01*
X021901Y009339D02*
X020847Y009339D01*
X021005Y009181D02*
X021901Y009181D01*
X021901Y009022D02*
X021164Y009022D01*
X021322Y008864D02*
X021901Y008864D01*
X021901Y008705D02*
X021481Y008705D01*
X021639Y008547D02*
X021901Y008547D01*
X021901Y008388D02*
X021798Y008388D01*
X021801Y008230D02*
X021901Y008230D01*
X021901Y008071D02*
X021801Y008071D01*
X021801Y007912D02*
X021901Y007912D01*
X021901Y007754D02*
X021801Y007754D01*
X021801Y007595D02*
X021901Y007595D01*
X021901Y007437D02*
X021801Y007437D01*
X021801Y007278D02*
X021901Y007278D01*
X021901Y007120D02*
X021801Y007120D01*
X021801Y006961D02*
X021901Y006961D01*
X021901Y006803D02*
X021801Y006803D01*
X021801Y006644D02*
X021901Y006644D01*
X021901Y006486D02*
X021801Y006486D01*
X021801Y006327D02*
X021901Y006327D01*
X021901Y006168D02*
X021801Y006168D01*
X021801Y006010D02*
X021901Y006010D01*
X021901Y005851D02*
X021801Y005851D01*
X021801Y005693D02*
X021901Y005693D01*
X021901Y005534D02*
X021801Y005534D01*
X021801Y005376D02*
X021901Y005376D01*
X021901Y005217D02*
X021801Y005217D01*
X021801Y005059D02*
X021901Y005059D01*
X021901Y004900D02*
X021801Y004900D01*
X021801Y004742D02*
X021901Y004742D01*
X021901Y004583D02*
X021801Y004583D01*
X021801Y004424D02*
X021901Y004424D01*
X021901Y004266D02*
X021801Y004266D01*
X021801Y004107D02*
X021901Y004107D01*
X021901Y003949D02*
X021801Y003949D01*
X025801Y003949D02*
X026401Y003949D01*
X026401Y004107D02*
X025801Y004107D01*
X025801Y004266D02*
X026401Y004266D01*
X026401Y004424D02*
X025801Y004424D01*
X025801Y004583D02*
X026401Y004583D01*
X026401Y004742D02*
X025801Y004742D01*
X025801Y004900D02*
X026401Y004900D01*
X026401Y005059D02*
X025801Y005059D01*
X025801Y005217D02*
X026401Y005217D01*
X026401Y005376D02*
X025801Y005376D01*
X025801Y005534D02*
X026401Y005534D01*
X026401Y005693D02*
X025801Y005693D01*
X025801Y005851D02*
X026401Y005851D01*
X026401Y006010D02*
X025801Y006010D01*
X025801Y006168D02*
X026401Y006168D01*
X026401Y006327D02*
X025801Y006327D01*
X025801Y006486D02*
X026401Y006486D01*
X026401Y006644D02*
X025801Y006644D01*
X025801Y006803D02*
X026401Y006803D01*
X026401Y006961D02*
X025801Y006961D01*
X025801Y007120D02*
X026401Y007120D01*
X026401Y007278D02*
X025801Y007278D01*
X025801Y007437D02*
X026401Y007437D01*
X026401Y007595D02*
X025801Y007595D01*
X025801Y007754D02*
X026401Y007754D01*
X026401Y007912D02*
X025801Y007912D01*
X025801Y008071D02*
X026401Y008071D01*
X025401Y008209D02*
X025401Y008395D01*
X025384Y008378D01*
X025200Y008302D01*
X025001Y008302D01*
X025200Y008302D01*
X025384Y008226D01*
X025401Y008209D01*
X025401Y008230D02*
X025376Y008230D01*
X025394Y008388D02*
X025401Y008388D01*
X024808Y008388D02*
X023394Y008388D01*
X023376Y008230D02*
X024826Y008230D01*
X024671Y008071D02*
X023531Y008071D01*
X023001Y008302D02*
X022818Y008226D01*
X022801Y008209D01*
X022801Y008219D01*
X022918Y008337D01*
X023001Y008302D01*
X023200Y008302D01*
X023001Y008302D01*
X022826Y008230D02*
X022811Y008230D01*
X022551Y008535D02*
X022551Y008969D01*
X022918Y009337D01*
X023001Y009302D01*
X022818Y009226D01*
X022677Y009086D01*
X022601Y008902D01*
X022601Y008703D01*
X022635Y008620D01*
X022551Y008535D01*
X022551Y008547D02*
X022562Y008547D01*
X022551Y008705D02*
X022601Y008705D01*
X022601Y008864D02*
X022551Y008864D01*
X022603Y009022D02*
X022651Y009022D01*
X022762Y009181D02*
X022772Y009181D01*
X023001Y009302D02*
X023200Y009302D01*
X023001Y009302D01*
X023289Y009339D02*
X024912Y009339D01*
X025001Y009302D02*
X025200Y009302D01*
X025001Y009302D01*
X025200Y009302D02*
X025384Y009378D01*
X025401Y009395D01*
X025401Y009209D01*
X025384Y009226D01*
X025200Y009302D01*
X025289Y009339D02*
X025401Y009339D01*
X024772Y009181D02*
X023429Y009181D01*
X023551Y009022D02*
X024651Y009022D01*
X024601Y008864D02*
X023601Y008864D01*
X023601Y008705D02*
X024601Y008705D01*
X024665Y008547D02*
X023536Y008547D01*
X022635Y009620D02*
X022301Y009285D01*
X022301Y009719D01*
X022918Y010337D01*
X023001Y010302D01*
X022818Y010226D01*
X022677Y010086D01*
X022601Y009902D01*
X022601Y009703D01*
X022635Y009620D01*
X022620Y009656D02*
X022301Y009656D01*
X022301Y009498D02*
X022514Y009498D01*
X022355Y009339D02*
X022301Y009339D01*
X022396Y009815D02*
X022601Y009815D01*
X022631Y009974D02*
X022555Y009974D01*
X022713Y010132D02*
X022723Y010132D01*
X022872Y010291D02*
X022973Y010291D01*
X023001Y010302D02*
X023200Y010302D01*
X023001Y010302D01*
X023229Y010291D02*
X024973Y010291D01*
X025001Y010302D02*
X025200Y010302D01*
X025384Y010226D01*
X025401Y010209D01*
X025401Y010219D01*
X025283Y010337D01*
X025200Y010302D01*
X025001Y010302D01*
X025229Y010291D02*
X025330Y010291D01*
X024747Y010449D02*
X023455Y010449D01*
X023561Y010608D02*
X024640Y010608D01*
X024601Y010766D02*
X023601Y010766D01*
X023591Y010925D02*
X024610Y010925D01*
X024676Y011083D02*
X023526Y011083D01*
X020401Y011209D02*
X020384Y011226D01*
X020200Y011302D01*
X020001Y011302D01*
X020200Y011302D01*
X020283Y011337D01*
X020401Y011219D01*
X020401Y011209D01*
X020378Y011242D02*
X020346Y011242D01*
X019855Y011242D02*
X018346Y011242D01*
X018200Y011302D02*
X018001Y011302D01*
X017818Y011226D01*
X017677Y011086D01*
X017601Y010902D01*
X017601Y010703D01*
X017635Y010620D01*
X017551Y010535D01*
X017551Y010969D01*
X017918Y011337D01*
X018001Y011302D01*
X018200Y011302D01*
X018406Y011400D02*
X019796Y011400D01*
X019660Y011559D02*
X018541Y011559D01*
X018601Y011717D02*
X019601Y011717D01*
X019601Y011876D02*
X018601Y011876D01*
X018546Y012035D02*
X019656Y012035D01*
X019784Y012193D02*
X018417Y012193D01*
X018319Y012352D02*
X019882Y012352D01*
X020001Y012302D02*
X020200Y012302D01*
X020001Y012302D01*
X019686Y012510D02*
X018516Y012510D01*
X018587Y012669D02*
X019615Y012669D01*
X019601Y012827D02*
X018601Y012827D01*
X018566Y012986D02*
X019636Y012986D01*
X019736Y013144D02*
X018466Y013144D01*
X018384Y013378D02*
X018525Y013519D01*
X018601Y013703D01*
X018601Y013902D01*
X018525Y014086D01*
X018384Y014226D01*
X018219Y014295D01*
X018223Y014295D01*
X018300Y014320D01*
X018373Y014358D01*
X018440Y014406D01*
X018497Y014464D01*
X018546Y014530D01*
X018583Y014603D01*
X018608Y014681D01*
X018621Y014761D01*
X018621Y014772D01*
X018131Y014772D01*
X018131Y014832D01*
X018621Y014832D01*
X018621Y014843D01*
X018608Y014924D01*
X018583Y015002D01*
X018546Y015075D01*
X018497Y015141D01*
X018440Y015199D01*
X018373Y015247D01*
X018300Y015284D01*
X018223Y015310D01*
X018142Y015322D01*
X018131Y015322D01*
X018131Y014833D01*
X018071Y014833D01*
X018071Y015322D01*
X018060Y015322D01*
X017979Y015310D01*
X017901Y015284D01*
X017828Y015247D01*
X017762Y015199D01*
X017704Y015141D01*
X017656Y015075D01*
X017619Y015002D01*
X017594Y014924D01*
X017581Y014843D01*
X017581Y014832D01*
X018071Y014832D01*
X018071Y014772D01*
X017581Y014772D01*
X017581Y014761D01*
X017594Y014681D01*
X017619Y014603D01*
X017656Y014530D01*
X017704Y014464D01*
X017762Y014406D01*
X017828Y014358D01*
X017901Y014320D01*
X017979Y014295D01*
X017983Y014295D01*
X017818Y014226D01*
X017677Y014086D01*
X017601Y013902D01*
X017601Y013703D01*
X017677Y013519D01*
X017818Y013378D01*
X018001Y013302D01*
X018200Y013302D01*
X018384Y013378D01*
X018467Y013461D02*
X019735Y013461D01*
X019635Y013620D02*
X018566Y013620D01*
X018601Y013779D02*
X019601Y013779D01*
X019615Y013937D02*
X018586Y013937D01*
X018515Y014096D02*
X019687Y014096D01*
X019885Y014254D02*
X018316Y014254D01*
X018447Y014413D02*
X019755Y014413D01*
X019635Y014571D02*
X018567Y014571D01*
X018616Y014730D02*
X019586Y014730D01*
X019588Y014888D02*
X018614Y014888D01*
X018560Y015047D02*
X019642Y015047D01*
X019771Y015205D02*
X018431Y015205D01*
X018131Y015205D02*
X018071Y015205D01*
X018071Y015047D02*
X018131Y015047D01*
X018131Y014888D02*
X018071Y014888D01*
X017642Y015047D02*
X015560Y015047D01*
X015614Y014888D02*
X017588Y014888D01*
X017586Y014730D02*
X015616Y014730D01*
X015567Y014571D02*
X017635Y014571D01*
X017755Y014413D02*
X015447Y014413D01*
X015316Y014254D02*
X017885Y014254D01*
X017687Y014096D02*
X015515Y014096D01*
X015586Y013937D02*
X017615Y013937D01*
X017601Y013779D02*
X015601Y013779D01*
X015566Y013620D02*
X017635Y013620D01*
X017735Y013461D02*
X015467Y013461D01*
X015202Y013303D02*
X018000Y013303D01*
X018202Y013303D02*
X020000Y013303D01*
X020001Y013302D02*
X020200Y013302D01*
X020001Y013302D01*
X017736Y013144D02*
X015466Y013144D01*
X015566Y012986D02*
X017636Y012986D01*
X017601Y012827D02*
X015601Y012827D01*
X015587Y012669D02*
X017615Y012669D01*
X017686Y012510D02*
X015516Y012510D01*
X015319Y012352D02*
X017882Y012352D01*
X018001Y012302D02*
X018200Y012302D01*
X018001Y012302D01*
X017784Y012193D02*
X015417Y012193D01*
X015546Y012035D02*
X017656Y012035D01*
X017601Y011876D02*
X015601Y011876D01*
X015601Y011717D02*
X017601Y011717D01*
X017575Y011559D02*
X015627Y011559D01*
X015786Y011400D02*
X017416Y011400D01*
X017257Y011242D02*
X015944Y011242D01*
X016103Y011083D02*
X017151Y011083D01*
X017151Y010925D02*
X016261Y010925D01*
X016420Y010766D02*
X017151Y010766D01*
X017151Y010608D02*
X016578Y010608D01*
X016737Y010449D02*
X017151Y010449D01*
X017151Y010291D02*
X016895Y010291D01*
X017051Y010132D02*
X017151Y010132D01*
X017151Y009974D02*
X017051Y009974D01*
X017051Y009815D02*
X017151Y009815D01*
X017151Y009656D02*
X017051Y009656D01*
X017051Y009498D02*
X017151Y009498D01*
X017151Y009339D02*
X017051Y009339D01*
X017051Y009181D02*
X017151Y009181D01*
X017151Y009022D02*
X017051Y009022D01*
X017051Y008864D02*
X017151Y008864D01*
X017151Y008705D02*
X017051Y008705D01*
X017051Y008547D02*
X017151Y008547D01*
X017151Y008388D02*
X017051Y008388D01*
X017051Y008230D02*
X017151Y008230D01*
X017151Y008071D02*
X017051Y008071D01*
X017051Y007912D02*
X017151Y007912D01*
X017151Y007754D02*
X017051Y007754D01*
X017051Y007595D02*
X017151Y007595D01*
X017151Y007437D02*
X017051Y007437D01*
X017051Y007278D02*
X017151Y007278D01*
X017151Y007120D02*
X017051Y007120D01*
X017051Y006961D02*
X017151Y006961D01*
X017151Y006803D02*
X017051Y006803D01*
X017051Y006644D02*
X017151Y006644D01*
X017151Y006486D02*
X017051Y006486D01*
X017051Y006327D02*
X017151Y006327D01*
X017151Y006168D02*
X017051Y006168D01*
X017051Y006010D02*
X017151Y006010D01*
X017151Y005851D02*
X017051Y005851D01*
X017051Y005693D02*
X017151Y005693D01*
X017151Y005534D02*
X017051Y005534D01*
X017051Y005376D02*
X017151Y005376D01*
X017153Y005217D02*
X017051Y005217D01*
X017051Y005059D02*
X017312Y005059D01*
X017401Y004900D02*
X017051Y004900D01*
X017051Y004742D02*
X017401Y004742D01*
X017401Y004583D02*
X017051Y004583D01*
X017051Y004424D02*
X017401Y004424D01*
X017401Y004266D02*
X017051Y004266D01*
X017051Y004107D02*
X017401Y004107D01*
X017401Y003949D02*
X017051Y003949D01*
X015651Y004785D02*
X015134Y005302D01*
X015200Y005302D01*
X015384Y005378D01*
X015525Y005519D01*
X015601Y005703D01*
X015601Y005902D01*
X015525Y006086D01*
X015384Y006226D01*
X015219Y006295D01*
X015223Y006295D01*
X015300Y006320D01*
X015373Y006358D01*
X015440Y006406D01*
X015497Y006464D01*
X015546Y006530D01*
X015583Y006603D01*
X015608Y006681D01*
X015621Y006761D01*
X015621Y006772D01*
X015131Y006772D01*
X015131Y006832D01*
X015621Y006832D01*
X015621Y006843D01*
X015608Y006924D01*
X015583Y007002D01*
X015546Y007075D01*
X015497Y007141D01*
X015440Y007199D01*
X015373Y007247D01*
X015300Y007284D01*
X015223Y007310D01*
X015219Y007310D01*
X015384Y007378D01*
X015525Y007519D01*
X015601Y007703D01*
X015601Y007902D01*
X015525Y008086D01*
X015384Y008226D01*
X015200Y008302D01*
X015384Y008378D01*
X015525Y008519D01*
X015601Y008703D01*
X015601Y008902D01*
X015525Y009086D01*
X015384Y009226D01*
X015200Y009302D01*
X015283Y009337D01*
X015651Y008969D01*
X015651Y004785D01*
X015651Y004900D02*
X015536Y004900D01*
X015651Y005059D02*
X015377Y005059D01*
X015219Y005217D02*
X015651Y005217D01*
X015651Y005376D02*
X015377Y005376D01*
X015531Y005534D02*
X015651Y005534D01*
X015651Y005693D02*
X015597Y005693D01*
X015601Y005851D02*
X015651Y005851D01*
X015651Y006010D02*
X015556Y006010D01*
X015651Y006168D02*
X015442Y006168D01*
X015313Y006327D02*
X015651Y006327D01*
X015651Y006486D02*
X015513Y006486D01*
X015596Y006644D02*
X015651Y006644D01*
X015651Y006803D02*
X015131Y006803D01*
X015596Y006961D02*
X015651Y006961D01*
X015651Y007120D02*
X015513Y007120D01*
X015651Y007278D02*
X015312Y007278D01*
X015442Y007437D02*
X015651Y007437D01*
X015651Y007595D02*
X015556Y007595D01*
X015601Y007754D02*
X015651Y007754D01*
X015651Y007912D02*
X015596Y007912D01*
X015651Y008071D02*
X015531Y008071D01*
X015651Y008230D02*
X015376Y008230D01*
X015394Y008388D02*
X015651Y008388D01*
X015651Y008547D02*
X015536Y008547D01*
X015601Y008705D02*
X015651Y008705D01*
X015651Y008864D02*
X015601Y008864D01*
X015598Y009022D02*
X015551Y009022D01*
X015439Y009181D02*
X015429Y009181D01*
X015200Y009302D02*
X015001Y009302D01*
X014918Y009268D01*
X014801Y009385D01*
X014801Y009395D01*
X014818Y009378D01*
X015001Y009302D01*
X015200Y009302D01*
X014912Y009339D02*
X014847Y009339D01*
X014601Y009020D02*
X014635Y008985D01*
X014601Y008902D01*
X014601Y008703D01*
X014677Y008519D01*
X014818Y008378D01*
X015001Y008302D01*
X014818Y008226D01*
X014677Y008086D01*
X014601Y007902D01*
X014601Y007703D01*
X014677Y007519D01*
X014818Y007378D01*
X014983Y007310D01*
X014979Y007310D01*
X014901Y007284D01*
X014828Y007247D01*
X014762Y007199D01*
X014704Y007141D01*
X014656Y007075D01*
X014619Y007002D01*
X014601Y006946D01*
X014601Y009020D01*
X014601Y008547D02*
X014665Y008547D01*
X014601Y008388D02*
X014808Y008388D01*
X014826Y008230D02*
X014601Y008230D01*
X014601Y008071D02*
X014671Y008071D01*
X014605Y007912D02*
X014601Y007912D01*
X014601Y007595D02*
X014645Y007595D01*
X014601Y007437D02*
X014759Y007437D01*
X014889Y007278D02*
X014601Y007278D01*
X014601Y007120D02*
X014689Y007120D01*
X014606Y006961D02*
X014601Y006961D01*
X018531Y008071D02*
X019671Y008071D01*
X019151Y008230D02*
X018376Y008230D01*
X018394Y008388D02*
X019151Y008388D01*
X019151Y008547D02*
X018536Y008547D01*
X018601Y008705D02*
X019151Y008705D01*
X019151Y008864D02*
X018601Y008864D01*
X018551Y009022D02*
X019151Y009022D01*
X019151Y009181D02*
X018429Y009181D01*
X018289Y009339D02*
X019151Y009339D01*
X019151Y009498D02*
X018503Y009498D01*
X018581Y009656D02*
X019151Y009656D01*
X019151Y009815D02*
X018601Y009815D01*
X018571Y009974D02*
X019151Y009974D01*
X019151Y010132D02*
X018478Y010132D01*
X018229Y010291D02*
X019306Y010291D01*
X019465Y010449D02*
X018455Y010449D01*
X018561Y010608D02*
X019623Y010608D01*
X019601Y010766D02*
X018601Y010766D01*
X018591Y010925D02*
X019610Y010925D01*
X019676Y011083D02*
X018526Y011083D01*
X017855Y011242D02*
X017823Y011242D01*
X017676Y011083D02*
X017665Y011083D01*
X017610Y010925D02*
X017551Y010925D01*
X017551Y010766D02*
X017601Y010766D01*
X017623Y010608D02*
X017551Y010608D01*
X017872Y010291D02*
X017973Y010291D01*
X018001Y010302D02*
X018200Y010302D01*
X018001Y010302D01*
X017818Y010226D01*
X017801Y010209D01*
X017801Y010219D01*
X017918Y010337D01*
X018001Y010302D01*
X016651Y009969D02*
X016651Y009285D01*
X015551Y010385D01*
X015471Y010465D01*
X015525Y010519D01*
X015601Y010703D01*
X015601Y010902D01*
X015525Y011086D01*
X015384Y011226D01*
X015200Y011302D01*
X015001Y011302D01*
X015200Y011302D01*
X015283Y011337D01*
X016651Y009969D01*
X016647Y009974D02*
X015962Y009974D01*
X015804Y010132D02*
X016488Y010132D01*
X016330Y010291D02*
X015645Y010291D01*
X015487Y010449D02*
X016171Y010449D01*
X016013Y010608D02*
X015561Y010608D01*
X015601Y010766D02*
X015854Y010766D01*
X015696Y010925D02*
X015591Y010925D01*
X015537Y011083D02*
X015526Y011083D01*
X015378Y011242D02*
X015346Y011242D01*
X014855Y011242D02*
X014601Y011242D01*
X014601Y011400D02*
X014796Y011400D01*
X014660Y011559D02*
X014601Y011559D01*
X014601Y011083D02*
X014676Y011083D01*
X014610Y010925D02*
X014601Y010925D01*
X014601Y010608D02*
X014640Y010608D01*
X016121Y009815D02*
X016651Y009815D01*
X016651Y009656D02*
X016280Y009656D01*
X016438Y009498D02*
X016651Y009498D01*
X016651Y009339D02*
X016597Y009339D01*
X017801Y009339D02*
X017912Y009339D01*
X018001Y009302D02*
X017818Y009378D01*
X017801Y009395D01*
X017801Y009209D01*
X017818Y009226D01*
X018001Y009302D01*
X018200Y009302D01*
X018001Y009302D01*
X017801Y008395D02*
X017818Y008378D01*
X018001Y008302D01*
X017818Y008226D01*
X017801Y008209D01*
X017801Y008395D01*
X017801Y008388D02*
X017808Y008388D01*
X017801Y008230D02*
X017826Y008230D01*
X018001Y008302D02*
X018200Y008302D01*
X018001Y008302D01*
X015200Y008302D02*
X015001Y008302D01*
X015200Y008302D01*
X023503Y009498D02*
X024698Y009498D01*
X024620Y009656D02*
X023581Y009656D01*
X023601Y009815D02*
X024601Y009815D01*
X024631Y009974D02*
X023571Y009974D01*
X023478Y010132D02*
X024723Y010132D01*
X015200Y012302D02*
X015001Y012302D01*
X015200Y012302D01*
X014882Y012352D02*
X014601Y012352D01*
X014601Y012510D02*
X014686Y012510D01*
X014615Y012669D02*
X014601Y012669D01*
X014601Y012986D02*
X014636Y012986D01*
X014601Y013144D02*
X014736Y013144D01*
X014601Y013303D02*
X015000Y013303D01*
X014735Y013461D02*
X014601Y013461D01*
X014601Y013620D02*
X014635Y013620D01*
X014615Y013937D02*
X014601Y013937D01*
X014601Y014096D02*
X014687Y014096D01*
X014601Y014254D02*
X014885Y014254D01*
X014755Y014413D02*
X014601Y014413D01*
X014601Y014571D02*
X014635Y014571D01*
X015071Y014888D02*
X015131Y014888D01*
X015131Y015047D02*
X015071Y015047D01*
X015071Y015205D02*
X015131Y015205D01*
X015431Y015205D02*
X017771Y015205D01*
X020071Y015205D02*
X020131Y015205D01*
X020131Y015047D02*
X020071Y015047D01*
X020071Y014888D02*
X020131Y014888D01*
X020431Y015205D02*
X022771Y015205D01*
X025071Y015205D02*
X025131Y015205D01*
X025131Y015047D02*
X025071Y015047D01*
X025071Y014888D02*
X025131Y014888D01*
X025431Y015205D02*
X027771Y015205D01*
X024687Y014096D02*
X023515Y014096D01*
X023586Y013937D02*
X024615Y013937D01*
X024601Y013779D02*
X023601Y013779D01*
X023566Y013620D02*
X024635Y013620D01*
X024735Y013461D02*
X023467Y013461D01*
X014784Y012193D02*
X014601Y012193D01*
X014601Y012035D02*
X014656Y012035D01*
X014601Y015047D02*
X014642Y015047D01*
X014601Y015205D02*
X014771Y015205D01*
X045301Y008719D02*
X045301Y008285D01*
X045635Y008620D01*
X045601Y008703D01*
X045601Y008902D01*
X045677Y009086D01*
X045818Y009226D01*
X046001Y009302D01*
X046200Y009302D01*
X046001Y009302D01*
X045918Y009337D01*
X045301Y008719D01*
X045301Y008705D02*
X045601Y008705D01*
X045601Y008864D02*
X045445Y008864D01*
X045603Y009022D02*
X045651Y009022D01*
X045762Y009181D02*
X045772Y009181D01*
X045562Y008547D02*
X045301Y008547D01*
X045301Y008388D02*
X045404Y008388D01*
X047801Y009209D02*
X047801Y009395D01*
X047818Y009378D01*
X048001Y009302D01*
X047818Y009226D01*
X047801Y009209D01*
X047801Y009339D02*
X047912Y009339D01*
X048001Y009302D02*
X048200Y009302D01*
X048001Y009302D01*
X056001Y007302D02*
X056200Y007302D01*
X056283Y007268D01*
X056401Y007385D01*
X056401Y007395D01*
X056384Y007378D01*
X056200Y007302D01*
X056001Y007302D01*
X056258Y007278D02*
X056294Y007278D01*
X056260Y006327D02*
X057913Y006327D01*
X057913Y005217D02*
X054051Y005217D01*
X054051Y005059D02*
X057913Y005059D01*
X057913Y004900D02*
X054051Y004900D01*
X054051Y004742D02*
X057913Y004742D01*
X057913Y004583D02*
X054051Y004583D01*
X054051Y004424D02*
X057913Y004424D01*
X057913Y004266D02*
X054051Y004266D01*
X054051Y004107D02*
X057913Y004107D01*
X057913Y003949D02*
X054051Y003949D01*
X039651Y003949D02*
X039301Y003949D01*
X039301Y004107D02*
X039651Y004107D01*
X039651Y004266D02*
X039301Y004266D01*
X039301Y004424D02*
X039651Y004424D01*
X039651Y004583D02*
X039301Y004583D01*
M02*
