%
M48
M72
T01C0.0200
T02C0.0394
T03C0.0400
T04C0.0440
%
T01
X918Y268
X668Y768
X543Y1018
X1193Y1343
X1418Y1318
X1493Y1193
X1468Y1143
X1718Y1168
X1943Y1193
X1993Y1168
X2918Y1193
X2993Y1068
X2368Y768
X3118Y668
X3518Y418
X4268Y568
X4293Y643
X4518Y718
X4343Y768
X4718Y618
X4668Y368
X4743Y1143
X4468Y1168
X4293Y1318
X4093Y1218
X4018Y1243
X2368Y418
T02
X338Y218
X338Y318
X338Y418
X338Y518
X338Y618
X338Y718
X338Y818
X338Y918
T03
X968Y318
X1068Y318
X1168Y318
X1268Y318
X1368Y318
X1468Y318
X1568Y318
X1668Y318
X1768Y318
X1868Y318
X1968Y318
X2068Y318
X2168Y318
X2268Y318
X2368Y318
X2468Y318
X2568Y318
X2668Y318
X2768Y318
X2868Y318
X2868Y218
X2768Y218
X2668Y218
X2568Y218
X2468Y218
X2368Y218
X2268Y218
X2168Y218
X2068Y218
X1968Y218
X1868Y218
X1768Y218
X1668Y218
X1568Y218
X1468Y218
X1368Y218
X1268Y218
X1168Y218
X1068Y218
X968Y218
X3218Y218
X3318Y218
X3418Y218
X3518Y218
X3618Y218
X3718Y218
X3818Y218
X3918Y218
X4018Y218
X4118Y218
X4218Y218
X4318Y218
X4418Y218
X4518Y218
X4618Y218
X4718Y218
X4818Y218
X4918Y218
X5018Y218
X5118Y218
X5118Y318
X5018Y318
X4918Y318
X4818Y318
X4718Y318
X4618Y318
X4518Y318
X4418Y318
X4318Y318
X4218Y318
X4118Y318
X4018Y318
X3918Y318
X3818Y318
X3718Y318
X3618Y318
X3518Y318
X3418Y318
X3318Y318
X3218Y318
T04
X3118Y868
X3368Y868
X3368Y968
X3118Y968
X3118Y1068
X3368Y1068
X3368Y1168
X3118Y1168
X3118Y1268
X3368Y1268
X3368Y1368
X3118Y1368
X3118Y1468
X3118Y1568
X3368Y1568
X3368Y1468
X3668Y1468
X3668Y1568
X3868Y1568
X3868Y1468
X3868Y1368
X3668Y1368
X3668Y1268
X3868Y1268
X3868Y1168
X3668Y1168
X3668Y1068
X3868Y1068
X3868Y968
X3668Y968
X3668Y868
X3868Y868
X4168Y868
X4368Y868
X4368Y968
X4168Y968
X4168Y1068
X4368Y1068
X4368Y1168
X4168Y1168
X4168Y1268
X4368Y1268
X4368Y1368
X4168Y1368
X4168Y1468
X4168Y1568
X4368Y1568
X4368Y1468
X4668Y1468
X4668Y1568
X4868Y1568
X4868Y1468
X4868Y1368
X4668Y1368
X4668Y1268
X4868Y1268
X4868Y1168
X4668Y1168
X4668Y1068
X4868Y1068
X4868Y968
X4668Y968
X4668Y868
X4868Y868
X5168Y868
X5168Y968
X5168Y1068
X5168Y1168
X5168Y1268
X5168Y1368
X5168Y1468
X5168Y1568
X5168Y1668
X5168Y1768
X4868Y1768
X4668Y1768
X4668Y1668
X4868Y1668
X4368Y1668
X4168Y1668
X4168Y1768
X4368Y1768
X3868Y1768
X3668Y1768
X3668Y1668
X3868Y1668
X3368Y1668
X3118Y1668
X3118Y1768
X3368Y1768
X2818Y1768
X2618Y1768
X2618Y1668
X2818Y1668
X2818Y1568
X2818Y1468
X2618Y1468
X2618Y1568
X2318Y1568
X2318Y1468
X2118Y1468
X2118Y1568
X2118Y1668
X2318Y1668
X2318Y1768
X2118Y1768
X1818Y1768
X1618Y1768
X1618Y1668
X1818Y1668
X1818Y1568
X1618Y1568
X1618Y1468
X1818Y1468
X1818Y1368
X1618Y1368
X1618Y1268
X1818Y1268
X1818Y1168
X1618Y1168
X1618Y1068
X1818Y1068
X1818Y968
X1618Y968
X1618Y868
X1818Y868
X2118Y868
X2318Y868
X2318Y968
X2118Y968
X2118Y1068
X2318Y1068
X2318Y1168
X2118Y1168
X2118Y1268
X2318Y1268
X2318Y1368
X2118Y1368
X2618Y1368
X2818Y1368
X2818Y1268
X2618Y1268
X2618Y1168
X2818Y1168
X2818Y1068
X2618Y1068
X2618Y968
X2818Y968
X2818Y868
X2618Y868
X1318Y868
X1318Y968
X1318Y1068
X1318Y1168
X1318Y1268
X1318Y1368
X1318Y1468
X1318Y1568
X1318Y1668
X1318Y1768
X1068Y1768
X1068Y1668
X1068Y1568
X1068Y1468
X1068Y1368
X1068Y1268
X1068Y1168
X1068Y1068
X1068Y968
X1068Y868
X768Y868
X768Y968
X768Y1068
X768Y1168
X768Y1268
X768Y1368
X768Y1468
X768Y1568
X768Y1668
X768Y1768
M30
