G75*
G70*
%OFA0B0*%
%FSLAX24Y24*%
%IPPOS*%
%LPD*%
%AMOC8*
5,1,8,0,0,1.08239X$1,22.5*
%
%ADD10R,0.0680X0.0680*%
%ADD11C,0.0680*%
%ADD12OC8,0.0640*%
%ADD13C,0.0634*%
%ADD14C,0.0080*%
%ADD15C,0.0400*%
%ADD16C,0.0160*%
D10*
X007681Y017681D03*
X013181Y017681D03*
X018181Y017681D03*
X023181Y017681D03*
X028181Y017681D03*
X033681Y017681D03*
X038681Y017681D03*
X043681Y017681D03*
X048681Y017681D03*
D11*
X046681Y017681D03*
X046681Y016681D03*
X048681Y016681D03*
X048681Y015681D03*
X048681Y014681D03*
X046681Y014681D03*
X046681Y015681D03*
X043681Y015681D03*
X043681Y014681D03*
X041681Y014681D03*
X041681Y015681D03*
X041681Y016681D03*
X043681Y016681D03*
X041681Y017681D03*
X038681Y016681D03*
X036681Y016681D03*
X036681Y015681D03*
X036681Y014681D03*
X038681Y014681D03*
X038681Y015681D03*
X038681Y013681D03*
X036681Y013681D03*
X036681Y012681D03*
X038681Y012681D03*
X038681Y011681D03*
X036681Y011681D03*
X036681Y010681D03*
X038681Y010681D03*
X038681Y009681D03*
X036681Y009681D03*
X036681Y008681D03*
X038681Y008681D03*
X041681Y008681D03*
X043681Y008681D03*
X043681Y009681D03*
X041681Y009681D03*
X041681Y010681D03*
X043681Y010681D03*
X043681Y011681D03*
X041681Y011681D03*
X041681Y012681D03*
X043681Y012681D03*
X043681Y013681D03*
X041681Y013681D03*
X046681Y013681D03*
X048681Y013681D03*
X048681Y012681D03*
X046681Y012681D03*
X046681Y011681D03*
X048681Y011681D03*
X048681Y010681D03*
X046681Y010681D03*
X046681Y009681D03*
X048681Y009681D03*
X048681Y008681D03*
X046681Y008681D03*
X051681Y008681D03*
X051681Y009681D03*
X051681Y010681D03*
X051681Y011681D03*
X051681Y012681D03*
X051681Y013681D03*
X051681Y014681D03*
X051681Y015681D03*
X051681Y016681D03*
X051681Y017681D03*
X036681Y017681D03*
X033681Y016681D03*
X031181Y016681D03*
X031181Y015681D03*
X031181Y014681D03*
X033681Y014681D03*
X033681Y015681D03*
X033681Y013681D03*
X031181Y013681D03*
X031181Y012681D03*
X033681Y012681D03*
X033681Y011681D03*
X031181Y011681D03*
X031181Y010681D03*
X033681Y010681D03*
X033681Y009681D03*
X031181Y009681D03*
X031181Y008681D03*
X033681Y008681D03*
X028181Y008681D03*
X026181Y008681D03*
X026181Y009681D03*
X028181Y009681D03*
X028181Y010681D03*
X026181Y010681D03*
X026181Y011681D03*
X028181Y011681D03*
X028181Y012681D03*
X026181Y012681D03*
X026181Y013681D03*
X028181Y013681D03*
X028181Y014681D03*
X028181Y015681D03*
X026181Y015681D03*
X026181Y014681D03*
X023181Y014681D03*
X023181Y015681D03*
X021181Y015681D03*
X021181Y014681D03*
X021181Y013681D03*
X023181Y013681D03*
X023181Y012681D03*
X021181Y012681D03*
X021181Y011681D03*
X023181Y011681D03*
X023181Y010681D03*
X021181Y010681D03*
X021181Y009681D03*
X023181Y009681D03*
X023181Y008681D03*
X021181Y008681D03*
X018181Y008681D03*
X016181Y008681D03*
X016181Y009681D03*
X018181Y009681D03*
X018181Y010681D03*
X016181Y010681D03*
X016181Y011681D03*
X018181Y011681D03*
X018181Y012681D03*
X016181Y012681D03*
X016181Y013681D03*
X018181Y013681D03*
X018181Y014681D03*
X016181Y014681D03*
X016181Y015681D03*
X018181Y015681D03*
X018181Y016681D03*
X016181Y016681D03*
X016181Y017681D03*
X013181Y016681D03*
X013181Y015681D03*
X013181Y014681D03*
X013181Y013681D03*
X013181Y012681D03*
X013181Y011681D03*
X013181Y010681D03*
X013181Y009681D03*
X013181Y008681D03*
X010681Y008681D03*
X010681Y009681D03*
X010681Y010681D03*
X010681Y011681D03*
X010681Y012681D03*
X010681Y013681D03*
X010681Y014681D03*
X010681Y015681D03*
X010681Y016681D03*
X010681Y017681D03*
X007681Y016681D03*
X007681Y015681D03*
X007681Y014681D03*
X007681Y013681D03*
X007681Y012681D03*
X007681Y011681D03*
X007681Y010681D03*
X007681Y009681D03*
X007681Y008681D03*
X021181Y016681D03*
X023181Y016681D03*
X021181Y017681D03*
X026181Y017681D03*
X026181Y016681D03*
X028181Y016681D03*
X031181Y017681D03*
D12*
X032181Y003181D03*
X033181Y003181D03*
X034181Y003181D03*
X035181Y003181D03*
X036181Y003181D03*
X037181Y003181D03*
X038181Y003181D03*
X039181Y003181D03*
X040181Y003181D03*
X041181Y003181D03*
X042181Y003181D03*
X043181Y003181D03*
X044181Y003181D03*
X045181Y003181D03*
X046181Y003181D03*
X047181Y003181D03*
X048181Y003181D03*
X049181Y003181D03*
X050181Y003181D03*
X051181Y003181D03*
X051181Y002181D03*
X050181Y002181D03*
X049181Y002181D03*
X048181Y002181D03*
X047181Y002181D03*
X046181Y002181D03*
X045181Y002181D03*
X044181Y002181D03*
X043181Y002181D03*
X042181Y002181D03*
X041181Y002181D03*
X040181Y002181D03*
X039181Y002181D03*
X038181Y002181D03*
X037181Y002181D03*
X036181Y002181D03*
X035181Y002181D03*
X034181Y002181D03*
X033181Y002181D03*
X032181Y002181D03*
X028681Y002181D03*
X027681Y002181D03*
X026681Y002181D03*
X025681Y002181D03*
X024681Y002181D03*
X023681Y002181D03*
X022681Y002181D03*
X021681Y002181D03*
X020681Y002181D03*
X019681Y002181D03*
X018681Y002181D03*
X017681Y002181D03*
X016681Y002181D03*
X015681Y002181D03*
X014681Y002181D03*
X013681Y002181D03*
X012681Y002181D03*
X011681Y002181D03*
X010681Y002181D03*
X009681Y002181D03*
X009681Y003181D03*
X010681Y003181D03*
X011681Y003181D03*
X012681Y003181D03*
X013681Y003181D03*
X014681Y003181D03*
X015681Y003181D03*
X016681Y003181D03*
X017681Y003181D03*
X018681Y003181D03*
X019681Y003181D03*
X020681Y003181D03*
X021681Y003181D03*
X022681Y003181D03*
X023681Y003181D03*
X024681Y003181D03*
X025681Y003181D03*
X026681Y003181D03*
X027681Y003181D03*
X028681Y003181D03*
D13*
X003698Y003181D02*
X003065Y003181D01*
X003065Y002181D02*
X003698Y002181D01*
X003698Y004181D02*
X003065Y004181D01*
X003065Y005181D02*
X003698Y005181D01*
X003698Y006181D02*
X003065Y006181D01*
X003065Y007181D02*
X003698Y007181D01*
X003698Y008181D02*
X003065Y008181D01*
X003065Y009181D02*
X003698Y009181D01*
D14*
X003381Y009181D02*
X010181Y009181D01*
X015681Y009181D01*
X020681Y009181D01*
X025681Y009181D01*
X030681Y009181D01*
X036181Y009181D01*
X041181Y009181D01*
X046181Y009181D01*
X051181Y009181D01*
X051681Y009681D01*
X051181Y010181D02*
X046181Y010181D01*
X041181Y010181D01*
X036181Y010181D01*
X030681Y010181D01*
X025681Y010181D01*
X020681Y010181D01*
X015681Y010181D01*
X010181Y010181D01*
X010681Y010681D01*
X010181Y010181D02*
X005431Y010181D01*
X007681Y010681D02*
X008181Y011181D01*
X012681Y011181D01*
X013181Y010681D01*
X014431Y011681D02*
X014681Y011431D01*
X014431Y011681D02*
X013181Y011681D01*
X014931Y011931D02*
X015681Y012681D01*
X016181Y012681D01*
X014181Y013181D02*
X013681Y012681D01*
X013181Y012681D01*
X011931Y013431D02*
X013181Y014681D01*
X013181Y015681D02*
X010681Y015681D01*
X013181Y016681D02*
X013681Y017181D01*
X008181Y017181D01*
X007681Y016681D01*
X007681Y014681D02*
X002181Y014681D01*
X002181Y008431D01*
X002931Y007681D01*
X004181Y007681D01*
X004181Y007181D01*
X009181Y002181D01*
X009681Y002181D01*
X010181Y002681D02*
X010681Y002181D01*
X010181Y002681D02*
X009181Y002681D01*
X010681Y003181D02*
X007181Y006681D01*
X005931Y006681D01*
X003931Y008681D01*
X002931Y008681D01*
X002431Y009181D01*
X002431Y011681D01*
X007681Y011681D01*
X010181Y009181D02*
X010681Y009681D01*
X010681Y008681D02*
X007681Y008681D01*
X006681Y007681D01*
X010681Y008681D02*
X011181Y008181D01*
X015681Y008181D01*
X048181Y008181D01*
X048681Y008681D01*
X051681Y008681D01*
X052181Y008431D02*
X052181Y013681D01*
X051681Y013681D01*
X051181Y013931D02*
X051181Y012681D01*
X051681Y012681D01*
X051681Y011681D02*
X050931Y011681D01*
X050931Y014681D01*
X051431Y015181D01*
X052681Y015181D01*
X052681Y002681D01*
X051431Y001431D01*
X046181Y001431D01*
X046181Y002181D01*
X047181Y002181D02*
X047681Y002681D01*
X047681Y007931D01*
X051681Y007931D01*
X052181Y008431D01*
X051181Y010181D02*
X051681Y010681D01*
X048681Y010681D02*
X048431Y010931D01*
X047181Y010931D01*
X046931Y011181D01*
X043181Y011181D01*
X038181Y011181D01*
X038681Y010681D01*
X038181Y011181D02*
X034181Y011181D01*
X034181Y016681D01*
X033681Y016681D01*
X033181Y017181D01*
X038181Y017181D01*
X043181Y017181D01*
X048181Y017181D01*
X048681Y016681D01*
X046681Y016681D02*
X046181Y016181D01*
X041181Y016181D01*
X037181Y016181D01*
X036681Y016681D01*
X038181Y017181D02*
X038681Y016681D01*
X041181Y016181D02*
X041681Y016681D01*
X043181Y017181D02*
X043681Y016681D01*
X051181Y013931D02*
X051431Y014181D01*
X052431Y014181D01*
X052431Y002681D01*
X051431Y001681D01*
X046681Y001681D01*
X046681Y002681D01*
X046181Y003181D01*
X045681Y003681D02*
X045181Y003181D01*
X044181Y003181D02*
X047181Y006181D01*
X045181Y007181D02*
X043181Y007181D01*
X039181Y003181D01*
X039681Y003431D02*
X042681Y006431D01*
X042931Y006431D01*
X042681Y005681D02*
X040181Y003181D01*
X039681Y003431D02*
X039681Y002681D01*
X039181Y002181D01*
X038681Y001931D02*
X038681Y004931D01*
X040681Y004931D01*
X043431Y007681D01*
X043681Y008681D02*
X041681Y008681D01*
X038681Y008681D01*
X036681Y008681D01*
X036181Y009181D02*
X036681Y009681D01*
X036181Y010181D02*
X036681Y010681D01*
X034181Y011181D02*
X033681Y010681D01*
X031181Y010681D02*
X030681Y010181D01*
X031181Y009681D02*
X030681Y009181D01*
X031181Y008681D02*
X028181Y008681D01*
X026181Y008681D01*
X023181Y008681D01*
X021181Y008681D01*
X018181Y008681D01*
X016181Y008681D02*
X015681Y008181D01*
X015681Y009181D02*
X016181Y009681D01*
X015681Y010181D02*
X016181Y010681D01*
X018181Y010681D02*
X018681Y011181D01*
X022681Y011181D01*
X027681Y011181D01*
X027681Y017181D01*
X033181Y017181D01*
X028181Y016681D02*
X027681Y017181D01*
X022681Y017181D01*
X017681Y017181D01*
X018181Y016681D01*
X017681Y017181D02*
X013681Y017181D01*
X016181Y015681D02*
X018181Y015681D01*
X019681Y015181D02*
X021181Y013681D01*
X021181Y012681D02*
X020181Y012681D01*
X019431Y011931D01*
X019931Y011681D02*
X021181Y011681D01*
X022681Y011181D02*
X023181Y010681D01*
X021181Y010681D02*
X020681Y010181D01*
X021181Y009681D02*
X020681Y009181D01*
X023681Y007681D02*
X025181Y007681D01*
X025181Y002931D01*
X025431Y002681D01*
X028181Y002681D01*
X028681Y002181D01*
X027681Y003181D02*
X031181Y006681D01*
X034181Y003181D02*
X035181Y004181D01*
X038681Y001931D02*
X038931Y001681D01*
X040681Y001681D01*
X041181Y002181D01*
X045681Y003681D02*
X046681Y003681D01*
X046681Y008681D02*
X043681Y008681D01*
X041681Y009681D02*
X041181Y009181D01*
X041181Y010181D02*
X041681Y010681D01*
X043181Y011181D02*
X043681Y010681D01*
X043681Y011681D02*
X043181Y012181D01*
X040931Y012181D01*
X040431Y012681D02*
X040181Y012431D01*
X040431Y012681D02*
X041681Y012681D01*
X042931Y013181D02*
X046181Y013181D01*
X046681Y012681D01*
X047431Y011431D02*
X048681Y012681D01*
X046681Y011681D02*
X044681Y011681D01*
X046181Y010181D02*
X046681Y010681D01*
X046681Y009681D02*
X046181Y009181D01*
X031181Y011681D02*
X030931Y011681D01*
X029931Y010681D01*
X028181Y010681D02*
X027681Y011181D01*
X026181Y010681D02*
X025681Y010181D01*
X026181Y009681D02*
X025681Y009181D01*
X029181Y011931D02*
X029181Y014681D01*
X031181Y014681D01*
X026181Y016681D02*
X025681Y016181D01*
X021681Y016181D01*
X021181Y016681D01*
X022681Y017181D02*
X023181Y016681D01*
X019681Y015181D02*
X001681Y015181D01*
X001681Y002931D01*
X002931Y001681D01*
X020181Y001681D01*
X020681Y002181D01*
X023681Y004181D02*
X024681Y003181D01*
X017181Y011681D02*
X016181Y011681D01*
D15*
X017181Y011681D03*
X019431Y011931D03*
X019931Y011681D03*
X014931Y011931D03*
X014681Y011431D03*
X014181Y013181D03*
X011931Y013431D03*
X005431Y010181D03*
X006681Y007681D03*
X009181Y002681D03*
X023681Y004181D03*
X031181Y006681D03*
X035181Y004181D03*
X042681Y005681D03*
X042931Y006431D03*
X045181Y007181D03*
X043431Y007681D03*
X047181Y006181D03*
X046681Y003681D03*
X029931Y010681D03*
X029181Y011931D03*
X040181Y012431D03*
X040931Y012181D03*
X042931Y013181D03*
X044681Y011681D03*
X047431Y011431D03*
X023681Y007681D03*
D16*
X000361Y000361D02*
X000361Y019997D01*
X053181Y019997D01*
X053181Y000361D01*
X000361Y000361D01*
X000361Y000499D02*
X053181Y000499D01*
X053181Y000657D02*
X000361Y000657D01*
X000361Y000816D02*
X053181Y000816D01*
X053181Y000974D02*
X000361Y000974D01*
X000361Y001133D02*
X053181Y001133D01*
X053181Y001291D02*
X051574Y001291D01*
X051514Y001231D02*
X052764Y002481D01*
X052881Y002599D01*
X052881Y015099D01*
X052881Y015264D01*
X052764Y015381D01*
X052088Y015381D01*
X052105Y015398D01*
X052181Y015582D01*
X052181Y015781D01*
X052105Y015965D01*
X051965Y016105D01*
X051781Y016181D01*
X051582Y016181D01*
X051398Y016105D01*
X051258Y015965D01*
X051181Y015781D01*
X051181Y015582D01*
X051258Y015398D01*
X051311Y015344D01*
X050849Y014881D01*
X050731Y014764D01*
X050731Y011764D01*
X050731Y011599D01*
X050849Y011481D01*
X051223Y011481D01*
X051258Y011398D01*
X051398Y011258D01*
X051582Y011181D01*
X051398Y011105D01*
X051258Y010965D01*
X051181Y010781D01*
X051181Y010582D01*
X051216Y010499D01*
X051099Y010381D01*
X049088Y010381D01*
X049105Y010398D01*
X049181Y010582D01*
X049181Y010781D01*
X049105Y010965D01*
X048965Y011105D01*
X048781Y011181D01*
X048582Y011181D01*
X048461Y011131D01*
X047640Y011131D01*
X047737Y011227D01*
X047791Y011360D01*
X047791Y011503D01*
X047790Y011507D01*
X048499Y012216D01*
X048582Y012181D01*
X048398Y012105D01*
X048258Y011965D01*
X048181Y011781D01*
X048181Y011582D01*
X048258Y011398D01*
X048398Y011258D01*
X048582Y011181D01*
X048781Y011181D01*
X048965Y011258D01*
X049105Y011398D01*
X049181Y011582D01*
X049181Y011781D01*
X049105Y011965D01*
X048965Y012105D01*
X048781Y012181D01*
X048582Y012181D01*
X048781Y012181D01*
X048965Y012258D01*
X049105Y012398D01*
X049181Y012582D01*
X049181Y012781D01*
X049105Y012965D01*
X048965Y013105D01*
X048781Y013181D01*
X048582Y013181D01*
X048398Y013105D01*
X048258Y012965D01*
X048181Y012781D01*
X048181Y012582D01*
X048216Y012499D01*
X047507Y011790D01*
X047503Y011791D01*
X047360Y011791D01*
X047227Y011737D01*
X047181Y011690D01*
X047181Y011781D01*
X047105Y011965D01*
X046965Y012105D01*
X046781Y012181D01*
X046582Y012181D01*
X046398Y012105D01*
X046258Y011965D01*
X046223Y011881D01*
X044988Y011881D01*
X044987Y011885D01*
X044885Y011987D01*
X044753Y012041D01*
X044610Y012041D01*
X044477Y011987D01*
X044376Y011885D01*
X044321Y011753D01*
X044321Y011610D01*
X044376Y011477D01*
X044472Y011381D01*
X044088Y011381D01*
X044105Y011398D01*
X044181Y011582D01*
X044181Y011781D01*
X044105Y011965D01*
X043965Y012105D01*
X043781Y012181D01*
X043582Y012181D01*
X043499Y012147D01*
X043264Y012381D01*
X043099Y012381D01*
X042088Y012381D01*
X042105Y012398D01*
X042181Y012582D01*
X042181Y012781D01*
X042105Y012965D01*
X041965Y013105D01*
X041781Y013181D01*
X041582Y013181D01*
X041398Y013105D01*
X041258Y012965D01*
X041223Y012881D01*
X040349Y012881D01*
X040257Y012790D01*
X040253Y012791D01*
X040110Y012791D01*
X039977Y012737D01*
X039876Y012635D01*
X039821Y012503D01*
X039821Y012360D01*
X039876Y012227D01*
X039977Y012126D01*
X040110Y012071D01*
X040253Y012071D01*
X040385Y012126D01*
X040487Y012227D01*
X040541Y012360D01*
X040541Y012481D01*
X040722Y012481D01*
X040626Y012385D01*
X040571Y012253D01*
X040571Y012110D01*
X040626Y011977D01*
X040727Y011876D01*
X040860Y011821D01*
X041003Y011821D01*
X041135Y011876D01*
X041237Y011977D01*
X041238Y011981D01*
X041274Y011981D01*
X041258Y011965D01*
X041181Y011781D01*
X041181Y011582D01*
X041258Y011398D01*
X041274Y011381D01*
X039088Y011381D01*
X039105Y011398D01*
X039181Y011582D01*
X039181Y011781D01*
X039105Y011965D01*
X038965Y012105D01*
X038781Y012181D01*
X038582Y012181D01*
X038398Y012105D01*
X038258Y011965D01*
X038181Y011781D01*
X038181Y011582D01*
X038258Y011398D01*
X038274Y011381D01*
X038099Y011381D01*
X037088Y011381D01*
X037105Y011398D01*
X037181Y011582D01*
X037181Y011781D01*
X037105Y011965D01*
X036965Y012105D01*
X036781Y012181D01*
X036582Y012181D01*
X036398Y012105D01*
X036258Y011965D01*
X036181Y011781D01*
X036181Y011582D01*
X036258Y011398D01*
X036274Y011381D01*
X034381Y011381D01*
X034381Y016599D01*
X034381Y016764D01*
X034264Y016881D01*
X034140Y016881D01*
X034105Y016965D01*
X034088Y016981D01*
X036274Y016981D01*
X036258Y016965D01*
X036181Y016781D01*
X036181Y016582D01*
X036258Y016398D01*
X036398Y016258D01*
X036582Y016181D01*
X036398Y016105D01*
X036258Y015965D01*
X036181Y015781D01*
X036181Y015582D01*
X036258Y015398D01*
X036398Y015258D01*
X036582Y015181D01*
X036398Y015105D01*
X036258Y014965D01*
X036181Y014781D01*
X036181Y014582D01*
X036258Y014398D01*
X036398Y014258D01*
X036582Y014181D01*
X036398Y014105D01*
X036258Y013965D01*
X036181Y013781D01*
X036181Y013582D01*
X036258Y013398D01*
X036398Y013258D01*
X036582Y013181D01*
X036398Y013105D01*
X036258Y012965D01*
X036181Y012781D01*
X036181Y012582D01*
X036258Y012398D01*
X036398Y012258D01*
X036582Y012181D01*
X036781Y012181D01*
X036965Y012258D01*
X037105Y012398D01*
X037181Y012582D01*
X037181Y012781D01*
X037105Y012965D01*
X036965Y013105D01*
X036781Y013181D01*
X036582Y013181D01*
X036781Y013181D01*
X036965Y013258D01*
X037105Y013398D01*
X037181Y013582D01*
X037181Y013781D01*
X037105Y013965D01*
X036965Y014105D01*
X036781Y014181D01*
X036582Y014181D01*
X036781Y014181D01*
X036965Y014258D01*
X037105Y014398D01*
X037181Y014582D01*
X037181Y014781D01*
X037105Y014965D01*
X036965Y015105D01*
X036781Y015181D01*
X036582Y015181D01*
X036781Y015181D01*
X036965Y015258D01*
X037105Y015398D01*
X037181Y015582D01*
X037181Y015781D01*
X037105Y015965D01*
X036965Y016105D01*
X036781Y016181D01*
X036582Y016181D01*
X036781Y016181D01*
X036864Y016216D01*
X037099Y015981D01*
X037264Y015981D01*
X038274Y015981D01*
X038258Y015965D01*
X038181Y015781D01*
X038181Y015582D01*
X038258Y015398D01*
X038398Y015258D01*
X038582Y015181D01*
X038398Y015105D01*
X038258Y014965D01*
X038181Y014781D01*
X038181Y014582D01*
X038258Y014398D01*
X038398Y014258D01*
X038582Y014181D01*
X038398Y014105D01*
X038258Y013965D01*
X038181Y013781D01*
X038181Y013582D01*
X038258Y013398D01*
X038398Y013258D01*
X038582Y013181D01*
X038398Y013105D01*
X038258Y012965D01*
X038181Y012781D01*
X038181Y012582D01*
X038258Y012398D01*
X038398Y012258D01*
X038582Y012181D01*
X038781Y012181D01*
X038965Y012258D01*
X039105Y012398D01*
X039181Y012582D01*
X039181Y012781D01*
X039105Y012965D01*
X038965Y013105D01*
X038781Y013181D01*
X038582Y013181D01*
X038781Y013181D01*
X038965Y013258D01*
X039105Y013398D01*
X039181Y013582D01*
X039181Y013781D01*
X039105Y013965D01*
X038965Y014105D01*
X038781Y014181D01*
X038582Y014181D01*
X038781Y014181D01*
X038965Y014258D01*
X039105Y014398D01*
X039181Y014582D01*
X039181Y014781D01*
X039105Y014965D01*
X038965Y015105D01*
X038781Y015181D01*
X038582Y015181D01*
X038781Y015181D01*
X038965Y015258D01*
X039105Y015398D01*
X039181Y015582D01*
X039181Y015781D01*
X039105Y015965D01*
X039088Y015981D01*
X041099Y015981D01*
X041274Y015981D01*
X041258Y015965D01*
X041181Y015781D01*
X041181Y015582D01*
X041258Y015398D01*
X041398Y015258D01*
X041582Y015181D01*
X041398Y015105D01*
X041258Y014965D01*
X041181Y014781D01*
X041181Y014582D01*
X041258Y014398D01*
X041398Y014258D01*
X041582Y014181D01*
X041398Y014105D01*
X041258Y013965D01*
X041181Y013781D01*
X041181Y013582D01*
X041258Y013398D01*
X041398Y013258D01*
X041582Y013181D01*
X041781Y013181D01*
X041965Y013258D01*
X042105Y013398D01*
X042181Y013582D01*
X042181Y013781D01*
X042105Y013965D01*
X041965Y014105D01*
X041781Y014181D01*
X041582Y014181D01*
X041781Y014181D01*
X041965Y014258D01*
X042105Y014398D01*
X042181Y014582D01*
X042181Y014781D01*
X042105Y014965D01*
X041965Y015105D01*
X041781Y015181D01*
X041582Y015181D01*
X041781Y015181D01*
X041965Y015258D01*
X042105Y015398D01*
X042181Y015582D01*
X042181Y015781D01*
X042105Y015965D01*
X042088Y015981D01*
X043274Y015981D01*
X043258Y015965D01*
X043181Y015781D01*
X043181Y015582D01*
X043258Y015398D01*
X043398Y015258D01*
X043582Y015181D01*
X043398Y015105D01*
X043258Y014965D01*
X043181Y014781D01*
X043181Y014582D01*
X043258Y014398D01*
X043398Y014258D01*
X043582Y014181D01*
X043398Y014105D01*
X043258Y013965D01*
X043181Y013781D01*
X043181Y013582D01*
X043258Y013398D01*
X043274Y013381D01*
X043238Y013381D01*
X043237Y013385D01*
X043135Y013487D01*
X043003Y013541D01*
X042860Y013541D01*
X042727Y013487D01*
X042626Y013385D01*
X042571Y013253D01*
X042571Y013110D01*
X042626Y012977D01*
X042727Y012876D01*
X042860Y012821D01*
X043003Y012821D01*
X043135Y012876D01*
X043237Y012977D01*
X043238Y012981D01*
X043274Y012981D01*
X043258Y012965D01*
X043181Y012781D01*
X043181Y012582D01*
X043258Y012398D01*
X043398Y012258D01*
X043582Y012181D01*
X043781Y012181D01*
X043965Y012258D01*
X044105Y012398D01*
X044181Y012582D01*
X044181Y012781D01*
X044105Y012965D01*
X044088Y012981D01*
X046099Y012981D01*
X046216Y012864D01*
X046181Y012781D01*
X046181Y012582D01*
X046258Y012398D01*
X046398Y012258D01*
X046582Y012181D01*
X046781Y012181D01*
X046965Y012258D01*
X047105Y012398D01*
X047181Y012582D01*
X047181Y012781D01*
X047105Y012965D01*
X046965Y013105D01*
X046781Y013181D01*
X046582Y013181D01*
X046499Y013147D01*
X046264Y013381D01*
X046099Y013381D01*
X044088Y013381D01*
X044105Y013398D01*
X044181Y013582D01*
X044181Y013781D01*
X044105Y013965D01*
X043965Y014105D01*
X043781Y014181D01*
X043582Y014181D01*
X043781Y014181D01*
X043965Y014258D01*
X044105Y014398D01*
X044181Y014582D01*
X044181Y014781D01*
X044105Y014965D01*
X043965Y015105D01*
X043781Y015181D01*
X043582Y015181D01*
X043781Y015181D01*
X043965Y015258D01*
X044105Y015398D01*
X044181Y015582D01*
X044181Y015781D01*
X044105Y015965D01*
X044088Y015981D01*
X046264Y015981D01*
X046381Y016099D01*
X046499Y016216D01*
X046582Y016181D01*
X046398Y016105D01*
X046258Y015965D01*
X046181Y015781D01*
X046181Y015582D01*
X046258Y015398D01*
X046398Y015258D01*
X046582Y015181D01*
X046398Y015105D01*
X046258Y014965D01*
X046181Y014781D01*
X046181Y014582D01*
X046258Y014398D01*
X046398Y014258D01*
X046582Y014181D01*
X046398Y014105D01*
X046258Y013965D01*
X046181Y013781D01*
X046181Y013582D01*
X046258Y013398D01*
X046398Y013258D01*
X046582Y013181D01*
X046781Y013181D01*
X046965Y013258D01*
X047105Y013398D01*
X047181Y013582D01*
X047181Y013781D01*
X047105Y013965D01*
X046965Y014105D01*
X046781Y014181D01*
X046582Y014181D01*
X046781Y014181D01*
X046965Y014258D01*
X047105Y014398D01*
X047181Y014582D01*
X047181Y014781D01*
X047105Y014965D01*
X046965Y015105D01*
X046781Y015181D01*
X046582Y015181D01*
X046781Y015181D01*
X046965Y015258D01*
X047105Y015398D01*
X047181Y015582D01*
X047181Y015781D01*
X047105Y015965D01*
X046965Y016105D01*
X046781Y016181D01*
X046582Y016181D01*
X046781Y016181D01*
X046965Y016258D01*
X047105Y016398D01*
X047181Y016582D01*
X047181Y016781D01*
X047105Y016965D01*
X047088Y016981D01*
X048099Y016981D01*
X048216Y016864D01*
X048181Y016781D01*
X048181Y016582D01*
X048258Y016398D01*
X048398Y016258D01*
X048582Y016181D01*
X048398Y016105D01*
X048258Y015965D01*
X048181Y015781D01*
X048181Y015582D01*
X048258Y015398D01*
X048398Y015258D01*
X048582Y015181D01*
X048398Y015105D01*
X048258Y014965D01*
X048181Y014781D01*
X048181Y014582D01*
X048258Y014398D01*
X048398Y014258D01*
X048582Y014181D01*
X048398Y014105D01*
X048258Y013965D01*
X048181Y013781D01*
X048181Y013582D01*
X048258Y013398D01*
X048398Y013258D01*
X048582Y013181D01*
X048781Y013181D01*
X048965Y013258D01*
X049105Y013398D01*
X049181Y013582D01*
X049181Y013781D01*
X049105Y013965D01*
X048965Y014105D01*
X048781Y014181D01*
X048582Y014181D01*
X048781Y014181D01*
X048965Y014258D01*
X049105Y014398D01*
X049181Y014582D01*
X049181Y014781D01*
X049105Y014965D01*
X048965Y015105D01*
X048781Y015181D01*
X048582Y015181D01*
X048781Y015181D01*
X048965Y015258D01*
X049105Y015398D01*
X049181Y015582D01*
X049181Y015781D01*
X049105Y015965D01*
X048965Y016105D01*
X048781Y016181D01*
X048582Y016181D01*
X048781Y016181D01*
X048965Y016258D01*
X049105Y016398D01*
X049181Y016582D01*
X049181Y016781D01*
X049105Y016965D01*
X048965Y017105D01*
X048781Y017181D01*
X048582Y017181D01*
X048499Y017147D01*
X048464Y017181D01*
X049088Y017181D01*
X049181Y017275D01*
X049181Y018088D01*
X049088Y018181D01*
X048275Y018181D01*
X048181Y018088D01*
X048181Y017381D01*
X047088Y017381D01*
X047105Y017398D01*
X047181Y017582D01*
X047181Y017781D01*
X047105Y017965D01*
X046965Y018105D01*
X046781Y018181D01*
X046582Y018181D01*
X046398Y018105D01*
X046258Y017965D01*
X046181Y017781D01*
X046181Y017582D01*
X046258Y017398D01*
X046274Y017381D01*
X044181Y017381D01*
X044181Y018088D01*
X044088Y018181D01*
X043275Y018181D01*
X043181Y018088D01*
X043181Y017381D01*
X043099Y017381D01*
X042088Y017381D01*
X042105Y017398D01*
X042181Y017582D01*
X042181Y017781D01*
X042105Y017965D01*
X041965Y018105D01*
X041781Y018181D01*
X041582Y018181D01*
X041398Y018105D01*
X041258Y017965D01*
X041181Y017781D01*
X041181Y017582D01*
X041258Y017398D01*
X041274Y017381D01*
X039181Y017381D01*
X039181Y018088D01*
X039088Y018181D01*
X038275Y018181D01*
X038181Y018088D01*
X038181Y017381D01*
X038099Y017381D01*
X037088Y017381D01*
X037105Y017398D01*
X037181Y017582D01*
X037181Y017781D01*
X037105Y017965D01*
X036965Y018105D01*
X036781Y018181D01*
X036582Y018181D01*
X036398Y018105D01*
X036258Y017965D01*
X036181Y017781D01*
X036181Y017582D01*
X036258Y017398D01*
X036274Y017381D01*
X034181Y017381D01*
X034181Y018088D01*
X034088Y018181D01*
X033275Y018181D01*
X033181Y018088D01*
X033181Y017381D01*
X033099Y017381D01*
X031588Y017381D01*
X031605Y017398D01*
X031681Y017582D01*
X031681Y017781D01*
X031605Y017965D01*
X031465Y018105D01*
X031281Y018181D01*
X031082Y018181D01*
X030898Y018105D01*
X030758Y017965D01*
X030681Y017781D01*
X030681Y017582D01*
X030758Y017398D01*
X030774Y017381D01*
X028681Y017381D01*
X028681Y018088D01*
X028588Y018181D01*
X027775Y018181D01*
X027681Y018088D01*
X027681Y017381D01*
X027599Y017381D01*
X026588Y017381D01*
X026605Y017398D01*
X026681Y017582D01*
X026681Y017781D01*
X026605Y017965D01*
X026465Y018105D01*
X026281Y018181D01*
X026082Y018181D01*
X025898Y018105D01*
X025758Y017965D01*
X025681Y017781D01*
X025681Y017582D01*
X025758Y017398D01*
X025774Y017381D01*
X023681Y017381D01*
X023681Y018088D01*
X023588Y018181D01*
X022775Y018181D01*
X022681Y018088D01*
X022681Y017381D01*
X022599Y017381D01*
X021588Y017381D01*
X021605Y017398D01*
X021681Y017582D01*
X021681Y017781D01*
X021605Y017965D01*
X021465Y018105D01*
X021281Y018181D01*
X021082Y018181D01*
X020898Y018105D01*
X020758Y017965D01*
X020681Y017781D01*
X020681Y017582D01*
X020758Y017398D01*
X020774Y017381D01*
X018681Y017381D01*
X018681Y018088D01*
X018588Y018181D01*
X017775Y018181D01*
X017681Y018088D01*
X017681Y017381D01*
X017599Y017381D01*
X016588Y017381D01*
X016605Y017398D01*
X016681Y017582D01*
X016681Y017781D01*
X016605Y017965D01*
X016465Y018105D01*
X016281Y018181D01*
X016082Y018181D01*
X015898Y018105D01*
X015758Y017965D01*
X015681Y017781D01*
X015681Y017582D01*
X015758Y017398D01*
X015774Y017381D01*
X013764Y017381D01*
X013681Y017381D01*
X013681Y018088D01*
X013588Y018181D01*
X012775Y018181D01*
X012681Y018088D01*
X012681Y017381D01*
X011088Y017381D01*
X011105Y017398D01*
X011181Y017582D01*
X011181Y017781D01*
X011105Y017965D01*
X010965Y018105D01*
X010781Y018181D01*
X010582Y018181D01*
X010398Y018105D01*
X010258Y017965D01*
X010181Y017781D01*
X010181Y017582D01*
X010258Y017398D01*
X010274Y017381D01*
X008181Y017381D01*
X008181Y018088D01*
X008088Y018181D01*
X007275Y018181D01*
X007181Y018088D01*
X007181Y017275D01*
X007275Y017181D01*
X007899Y017181D01*
X007864Y017147D01*
X007781Y017181D01*
X007582Y017181D01*
X007398Y017105D01*
X007258Y016965D01*
X007181Y016781D01*
X007181Y016582D01*
X007258Y016398D01*
X007398Y016258D01*
X007582Y016181D01*
X007398Y016105D01*
X007258Y015965D01*
X007181Y015781D01*
X007181Y015582D01*
X007258Y015398D01*
X007274Y015381D01*
X001599Y015381D01*
X001481Y015264D01*
X001481Y015099D01*
X001481Y002849D01*
X001599Y002731D01*
X002849Y001481D01*
X003014Y001481D01*
X020264Y001481D01*
X020381Y001599D01*
X020484Y001701D01*
X020880Y001701D01*
X021161Y001983D01*
X021161Y002380D01*
X020880Y002661D01*
X020483Y002661D01*
X020201Y002380D01*
X020201Y001984D01*
X020099Y001881D01*
X020060Y001881D01*
X020161Y001983D01*
X020161Y002380D01*
X019880Y002661D01*
X019483Y002661D01*
X019201Y002380D01*
X019201Y001983D01*
X019303Y001881D01*
X019060Y001881D01*
X019161Y001983D01*
X019161Y002380D01*
X018880Y002661D01*
X018483Y002661D01*
X018201Y002380D01*
X018201Y001983D01*
X018303Y001881D01*
X018060Y001881D01*
X018161Y001983D01*
X018161Y002380D01*
X017880Y002661D01*
X017483Y002661D01*
X017201Y002380D01*
X017201Y001983D01*
X017303Y001881D01*
X017060Y001881D01*
X017161Y001983D01*
X017161Y002380D01*
X016880Y002661D01*
X016483Y002661D01*
X016201Y002380D01*
X016201Y001983D01*
X016303Y001881D01*
X016060Y001881D01*
X016161Y001983D01*
X016161Y002380D01*
X015880Y002661D01*
X015483Y002661D01*
X015201Y002380D01*
X015201Y001983D01*
X015303Y001881D01*
X015060Y001881D01*
X015161Y001983D01*
X015161Y002380D01*
X014880Y002661D01*
X014483Y002661D01*
X014201Y002380D01*
X014201Y001983D01*
X014303Y001881D01*
X014060Y001881D01*
X014161Y001983D01*
X014161Y002380D01*
X013880Y002661D01*
X013483Y002661D01*
X013201Y002380D01*
X013201Y001983D01*
X013303Y001881D01*
X013060Y001881D01*
X013161Y001983D01*
X013161Y002380D01*
X012880Y002661D01*
X012483Y002661D01*
X012201Y002380D01*
X012201Y001983D01*
X012303Y001881D01*
X012060Y001881D01*
X012161Y001983D01*
X012161Y002380D01*
X011880Y002661D01*
X011483Y002661D01*
X011201Y002380D01*
X011201Y001983D01*
X011303Y001881D01*
X011060Y001881D01*
X011161Y001983D01*
X011161Y002380D01*
X010880Y002661D01*
X010484Y002661D01*
X010381Y002764D01*
X010264Y002881D01*
X010060Y002881D01*
X010161Y002983D01*
X010161Y003380D01*
X009880Y003661D01*
X009483Y003661D01*
X009201Y003380D01*
X009201Y003041D01*
X009110Y003041D01*
X008977Y002987D01*
X008876Y002885D01*
X008842Y002803D01*
X004381Y007264D01*
X004381Y007599D01*
X004381Y007764D01*
X004264Y007881D01*
X004073Y007881D01*
X004102Y007911D01*
X004175Y008087D01*
X004175Y008155D01*
X005849Y006481D01*
X006014Y006481D01*
X007099Y006481D01*
X010201Y003379D01*
X010201Y002983D01*
X010483Y002701D01*
X010880Y002701D01*
X011161Y002983D01*
X011161Y003380D01*
X010880Y003661D01*
X010484Y003661D01*
X007381Y006764D01*
X007264Y006881D01*
X006014Y006881D01*
X004131Y008764D01*
X004043Y008852D01*
X004102Y008911D01*
X004132Y008981D01*
X007274Y008981D01*
X007258Y008965D01*
X007181Y008781D01*
X007181Y008582D01*
X007216Y008499D01*
X006757Y008040D01*
X006753Y008041D01*
X006610Y008041D01*
X006477Y007987D01*
X006376Y007885D01*
X006321Y007753D01*
X006321Y007610D01*
X006376Y007477D01*
X006477Y007376D01*
X006610Y007321D01*
X006753Y007321D01*
X006885Y007376D01*
X006987Y007477D01*
X007041Y007610D01*
X007041Y007753D01*
X007040Y007757D01*
X007499Y008216D01*
X007582Y008181D01*
X007781Y008181D01*
X007965Y008258D01*
X008105Y008398D01*
X008140Y008481D01*
X010223Y008481D01*
X010258Y008398D01*
X010398Y008258D01*
X010582Y008181D01*
X010781Y008181D01*
X010864Y008216D01*
X011099Y007981D01*
X011264Y007981D01*
X015764Y007981D01*
X023472Y007981D01*
X023376Y007885D01*
X023321Y007753D01*
X023321Y007610D01*
X023376Y007477D01*
X023477Y007376D01*
X023610Y007321D01*
X023753Y007321D01*
X023885Y007376D01*
X023987Y007477D01*
X023988Y007481D01*
X024981Y007481D01*
X024981Y003560D01*
X024880Y003661D01*
X024484Y003661D01*
X024040Y004106D01*
X024041Y004110D01*
X024041Y004253D01*
X023987Y004385D01*
X023885Y004487D01*
X023753Y004541D01*
X023610Y004541D01*
X023477Y004487D01*
X023376Y004385D01*
X023321Y004253D01*
X023321Y004110D01*
X023376Y003977D01*
X023477Y003876D01*
X023610Y003821D01*
X023753Y003821D01*
X023757Y003823D01*
X024201Y003379D01*
X024201Y002983D01*
X024483Y002701D01*
X024880Y002701D01*
X025004Y002826D01*
X025099Y002731D01*
X025326Y002504D01*
X025201Y002380D01*
X025201Y001983D01*
X025483Y001701D01*
X025880Y001701D01*
X026161Y001983D01*
X026161Y002380D01*
X026060Y002481D01*
X026303Y002481D01*
X026201Y002380D01*
X026201Y001983D01*
X026483Y001701D01*
X026880Y001701D01*
X027161Y001983D01*
X027161Y002380D01*
X027060Y002481D01*
X027303Y002481D01*
X027201Y002380D01*
X027201Y001983D01*
X027483Y001701D01*
X027880Y001701D01*
X028161Y001983D01*
X028161Y002380D01*
X028060Y002481D01*
X028099Y002481D01*
X028201Y002379D01*
X028201Y001983D01*
X028483Y001701D01*
X028880Y001701D01*
X029161Y001983D01*
X029161Y002380D01*
X028880Y002661D01*
X028484Y002661D01*
X028381Y002764D01*
X028264Y002881D01*
X028060Y002881D01*
X028161Y002983D01*
X028161Y003379D01*
X031106Y006323D01*
X031110Y006321D01*
X031253Y006321D01*
X031385Y006376D01*
X031487Y006477D01*
X031541Y006610D01*
X031541Y006753D01*
X031487Y006885D01*
X031385Y006987D01*
X031253Y007041D01*
X031110Y007041D01*
X030977Y006987D01*
X030876Y006885D01*
X030821Y006753D01*
X030821Y006610D01*
X030823Y006606D01*
X027879Y003661D01*
X027483Y003661D01*
X027201Y003380D01*
X027201Y002983D01*
X027303Y002881D01*
X027060Y002881D01*
X027161Y002983D01*
X027161Y003380D01*
X026880Y003661D01*
X026483Y003661D01*
X026201Y003380D01*
X026201Y002983D01*
X026303Y002881D01*
X026060Y002881D01*
X026161Y002983D01*
X026161Y003380D01*
X025880Y003661D01*
X025483Y003661D01*
X025381Y003560D01*
X025381Y007599D01*
X025381Y007764D01*
X025264Y007881D01*
X023988Y007881D01*
X023987Y007885D01*
X023890Y007981D01*
X043222Y007981D01*
X043126Y007885D01*
X043071Y007753D01*
X043071Y007610D01*
X043073Y007606D01*
X040599Y005131D01*
X038599Y005131D01*
X038481Y005014D01*
X038481Y004849D01*
X038481Y003560D01*
X038380Y003661D01*
X037983Y003661D01*
X037701Y003380D01*
X037701Y002983D01*
X037983Y002701D01*
X038380Y002701D01*
X038481Y002803D01*
X038481Y002560D01*
X038380Y002661D01*
X037983Y002661D01*
X037701Y002380D01*
X037701Y001983D01*
X037983Y001701D01*
X038380Y001701D01*
X038504Y001826D01*
X038599Y001731D01*
X038849Y001481D01*
X039014Y001481D01*
X040764Y001481D01*
X040881Y001599D01*
X040984Y001701D01*
X041380Y001701D01*
X041661Y001983D01*
X041661Y002380D01*
X041380Y002661D01*
X040983Y002661D01*
X040701Y002380D01*
X040701Y001984D01*
X040599Y001881D01*
X040560Y001881D01*
X040661Y001983D01*
X040661Y002380D01*
X040380Y002661D01*
X039983Y002661D01*
X039701Y002380D01*
X039701Y001983D01*
X039803Y001881D01*
X039560Y001881D01*
X039661Y001983D01*
X039661Y002379D01*
X039764Y002481D01*
X039881Y002599D01*
X039881Y002803D01*
X039983Y002701D01*
X040380Y002701D01*
X040661Y002983D01*
X040661Y003379D01*
X042606Y005323D01*
X042610Y005321D01*
X042753Y005321D01*
X042885Y005376D01*
X042987Y005477D01*
X043041Y005610D01*
X043041Y005753D01*
X042987Y005885D01*
X042885Y005987D01*
X042753Y006041D01*
X042610Y006041D01*
X042549Y006016D01*
X042693Y006160D01*
X042727Y006126D01*
X042860Y006071D01*
X043003Y006071D01*
X043135Y006126D01*
X043237Y006227D01*
X043291Y006360D01*
X043291Y006503D01*
X043237Y006635D01*
X043135Y006737D01*
X043053Y006771D01*
X043264Y006981D01*
X044875Y006981D01*
X044876Y006977D01*
X044977Y006876D01*
X045110Y006821D01*
X045253Y006821D01*
X045385Y006876D01*
X045487Y006977D01*
X045541Y007110D01*
X045541Y007253D01*
X045487Y007385D01*
X045385Y007487D01*
X045253Y007541D01*
X045110Y007541D01*
X044977Y007487D01*
X044876Y007385D01*
X044875Y007381D01*
X043640Y007381D01*
X043737Y007477D01*
X043791Y007610D01*
X043791Y007753D01*
X043737Y007885D01*
X043640Y007981D01*
X047481Y007981D01*
X047481Y007849D01*
X047481Y006390D01*
X047385Y006487D01*
X047253Y006541D01*
X047110Y006541D01*
X046977Y006487D01*
X046876Y006385D01*
X046821Y006253D01*
X046821Y006110D01*
X046823Y006106D01*
X044379Y003661D01*
X043983Y003661D01*
X043701Y003380D01*
X043701Y002983D01*
X043983Y002701D01*
X044380Y002701D01*
X044661Y002983D01*
X044661Y003379D01*
X047106Y005823D01*
X047110Y005821D01*
X047253Y005821D01*
X047385Y005876D01*
X047481Y005972D01*
X047481Y003560D01*
X047380Y003661D01*
X047041Y003661D01*
X047041Y003753D01*
X046987Y003885D01*
X046885Y003987D01*
X046753Y004041D01*
X046610Y004041D01*
X046477Y003987D01*
X046477Y003986D02*
X045269Y003986D01*
X045111Y003828D02*
X045545Y003828D01*
X045599Y003881D02*
X045481Y003764D01*
X045379Y003661D01*
X044983Y003661D01*
X044701Y003380D01*
X044701Y002983D01*
X044983Y002701D01*
X045380Y002701D01*
X045661Y002983D01*
X045661Y003379D01*
X045764Y003481D01*
X045803Y003481D01*
X045701Y003380D01*
X045701Y002983D01*
X045983Y002701D01*
X046379Y002701D01*
X046481Y002599D01*
X046481Y002560D01*
X046380Y002661D01*
X045983Y002661D01*
X045701Y002380D01*
X045701Y001983D01*
X045981Y001703D01*
X045981Y001349D01*
X046099Y001231D01*
X046264Y001231D01*
X051349Y001231D01*
X051514Y001231D01*
X051733Y001450D02*
X053181Y001450D01*
X053181Y001608D02*
X051891Y001608D01*
X052050Y001767D02*
X053181Y001767D01*
X053181Y001925D02*
X052208Y001925D01*
X052367Y002084D02*
X053181Y002084D01*
X053181Y002242D02*
X052525Y002242D01*
X052684Y002401D02*
X053181Y002401D01*
X053181Y002560D02*
X052842Y002560D01*
X052764Y002481D02*
X052764Y002481D01*
X052881Y002718D02*
X053181Y002718D01*
X053181Y002877D02*
X052881Y002877D01*
X052881Y003035D02*
X053181Y003035D01*
X053181Y003194D02*
X052881Y003194D01*
X052881Y003352D02*
X053181Y003352D01*
X053181Y003511D02*
X052881Y003511D01*
X052881Y003669D02*
X053181Y003669D01*
X053181Y003828D02*
X052881Y003828D01*
X052881Y003986D02*
X053181Y003986D01*
X053181Y004145D02*
X052881Y004145D01*
X052881Y004304D02*
X053181Y004304D01*
X053181Y004462D02*
X052881Y004462D01*
X052881Y004621D02*
X053181Y004621D01*
X053181Y004779D02*
X052881Y004779D01*
X052881Y004938D02*
X053181Y004938D01*
X053181Y005096D02*
X052881Y005096D01*
X052881Y005255D02*
X053181Y005255D01*
X053181Y005413D02*
X052881Y005413D01*
X052881Y005572D02*
X053181Y005572D01*
X053181Y005730D02*
X052881Y005730D01*
X052881Y005889D02*
X053181Y005889D01*
X053181Y006048D02*
X052881Y006048D01*
X052881Y006206D02*
X053181Y006206D01*
X053181Y006365D02*
X052881Y006365D01*
X052881Y006523D02*
X053181Y006523D01*
X053181Y006682D02*
X052881Y006682D01*
X052881Y006840D02*
X053181Y006840D01*
X053181Y006999D02*
X052881Y006999D01*
X052881Y007157D02*
X053181Y007157D01*
X053181Y007316D02*
X052881Y007316D01*
X052881Y007474D02*
X053181Y007474D01*
X053181Y007633D02*
X052881Y007633D01*
X052881Y007791D02*
X053181Y007791D01*
X053181Y007950D02*
X052881Y007950D01*
X052881Y008109D02*
X053181Y008109D01*
X053181Y008267D02*
X052881Y008267D01*
X052881Y008426D02*
X053181Y008426D01*
X053181Y008584D02*
X052881Y008584D01*
X052881Y008743D02*
X053181Y008743D01*
X053181Y008901D02*
X052881Y008901D01*
X052881Y009060D02*
X053181Y009060D01*
X053181Y009218D02*
X052881Y009218D01*
X052881Y009377D02*
X053181Y009377D01*
X053181Y009535D02*
X052881Y009535D01*
X052881Y009694D02*
X053181Y009694D01*
X053181Y009853D02*
X052881Y009853D01*
X052881Y010011D02*
X053181Y010011D01*
X053181Y010170D02*
X052881Y010170D01*
X052881Y010328D02*
X053181Y010328D01*
X053181Y010487D02*
X052881Y010487D01*
X052881Y010645D02*
X053181Y010645D01*
X053181Y010804D02*
X052881Y010804D01*
X052881Y010962D02*
X053181Y010962D01*
X053181Y011121D02*
X052881Y011121D01*
X052881Y011279D02*
X053181Y011279D01*
X053181Y011438D02*
X052881Y011438D01*
X052881Y011597D02*
X053181Y011597D01*
X053181Y011755D02*
X052881Y011755D01*
X052881Y011914D02*
X053181Y011914D01*
X053181Y012072D02*
X052881Y012072D01*
X052881Y012231D02*
X053181Y012231D01*
X053181Y012389D02*
X052881Y012389D01*
X052881Y012548D02*
X053181Y012548D01*
X053181Y012706D02*
X052881Y012706D01*
X052881Y012865D02*
X053181Y012865D01*
X053181Y013023D02*
X052881Y013023D01*
X052881Y013182D02*
X053181Y013182D01*
X053181Y013341D02*
X052881Y013341D01*
X052881Y013499D02*
X053181Y013499D01*
X053181Y013658D02*
X052881Y013658D01*
X052881Y013816D02*
X053181Y013816D01*
X053181Y013975D02*
X052881Y013975D01*
X052881Y014133D02*
X053181Y014133D01*
X053181Y014292D02*
X052881Y014292D01*
X052881Y014450D02*
X053181Y014450D01*
X053181Y014609D02*
X052881Y014609D01*
X052881Y014767D02*
X053181Y014767D01*
X053181Y014926D02*
X052881Y014926D01*
X052881Y015084D02*
X053181Y015084D01*
X053181Y015243D02*
X052881Y015243D01*
X053181Y015402D02*
X052107Y015402D01*
X052172Y015560D02*
X053181Y015560D01*
X053181Y015719D02*
X052181Y015719D01*
X052141Y015877D02*
X053181Y015877D01*
X053181Y016036D02*
X052034Y016036D01*
X051965Y016258D02*
X052105Y016398D01*
X052181Y016582D01*
X052181Y016781D01*
X052105Y016965D01*
X051965Y017105D01*
X051781Y017181D01*
X051582Y017181D01*
X051398Y017105D01*
X051258Y016965D01*
X051181Y016781D01*
X051181Y016582D01*
X051258Y016398D01*
X051398Y016258D01*
X051582Y016181D01*
X051781Y016181D01*
X051965Y016258D01*
X052060Y016353D02*
X053181Y016353D01*
X053181Y016511D02*
X052152Y016511D01*
X052181Y016670D02*
X053181Y016670D01*
X053181Y016828D02*
X052162Y016828D01*
X052083Y016987D02*
X053181Y016987D01*
X053181Y017146D02*
X051867Y017146D01*
X051781Y017181D02*
X051965Y017258D01*
X052105Y017398D01*
X052181Y017582D01*
X052181Y017781D01*
X052105Y017965D01*
X051965Y018105D01*
X051781Y018181D01*
X051582Y018181D01*
X051398Y018105D01*
X051258Y017965D01*
X051181Y017781D01*
X051181Y017582D01*
X051258Y017398D01*
X051398Y017258D01*
X051582Y017181D01*
X051781Y017181D01*
X052011Y017304D02*
X053181Y017304D01*
X053181Y017463D02*
X052132Y017463D01*
X052181Y017621D02*
X053181Y017621D01*
X053181Y017780D02*
X052181Y017780D01*
X052116Y017938D02*
X053181Y017938D01*
X053181Y018097D02*
X051973Y018097D01*
X051390Y018097D02*
X049172Y018097D01*
X049181Y017938D02*
X051247Y017938D01*
X051181Y017780D02*
X049181Y017780D01*
X049181Y017621D02*
X051181Y017621D01*
X051231Y017463D02*
X049181Y017463D01*
X049181Y017304D02*
X051352Y017304D01*
X051495Y017146D02*
X048867Y017146D01*
X049083Y016987D02*
X051280Y016987D01*
X051201Y016828D02*
X049162Y016828D01*
X049181Y016670D02*
X051181Y016670D01*
X051211Y016511D02*
X049152Y016511D01*
X049060Y016353D02*
X051303Y016353D01*
X051551Y016194D02*
X048812Y016194D01*
X048551Y016194D02*
X046812Y016194D01*
X046551Y016194D02*
X046477Y016194D01*
X046329Y016036D02*
X046319Y016036D01*
X046221Y015877D02*
X044141Y015877D01*
X044181Y015719D02*
X046181Y015719D01*
X046190Y015560D02*
X044172Y015560D01*
X044107Y015402D02*
X046256Y015402D01*
X046433Y015243D02*
X043930Y015243D01*
X043985Y015084D02*
X046377Y015084D01*
X046242Y014926D02*
X044121Y014926D01*
X044181Y014767D02*
X046181Y014767D01*
X046181Y014609D02*
X044181Y014609D01*
X044127Y014450D02*
X046236Y014450D01*
X046364Y014292D02*
X043999Y014292D01*
X043897Y014133D02*
X046466Y014133D01*
X046268Y013975D02*
X044095Y013975D01*
X044167Y013816D02*
X046196Y013816D01*
X046181Y013658D02*
X044181Y013658D01*
X044147Y013499D02*
X046216Y013499D01*
X046305Y013341D02*
X046315Y013341D01*
X046464Y013182D02*
X046581Y013182D01*
X046782Y013182D02*
X048581Y013182D01*
X048782Y013182D02*
X050731Y013182D01*
X050731Y013341D02*
X049048Y013341D01*
X049147Y013499D02*
X050731Y013499D01*
X050731Y013658D02*
X049181Y013658D01*
X049167Y013816D02*
X050731Y013816D01*
X050731Y013975D02*
X049095Y013975D01*
X048897Y014133D02*
X050731Y014133D01*
X050731Y014292D02*
X048999Y014292D01*
X049127Y014450D02*
X050731Y014450D01*
X050731Y014609D02*
X049181Y014609D01*
X049181Y014767D02*
X050735Y014767D01*
X050893Y014926D02*
X049121Y014926D01*
X048985Y015084D02*
X051052Y015084D01*
X051210Y015243D02*
X048930Y015243D01*
X049107Y015402D02*
X051256Y015402D01*
X051190Y015560D02*
X049172Y015560D01*
X049181Y015719D02*
X051181Y015719D01*
X051221Y015877D02*
X049141Y015877D01*
X049034Y016036D02*
X051329Y016036D01*
X051812Y016194D02*
X053181Y016194D01*
X052481Y014981D02*
X052481Y014381D01*
X052088Y014381D01*
X052105Y014398D01*
X052181Y014582D01*
X052181Y014781D01*
X052105Y014965D01*
X052088Y014981D01*
X052481Y014981D01*
X052481Y014926D02*
X052121Y014926D01*
X052181Y014767D02*
X052481Y014767D01*
X052481Y014609D02*
X052181Y014609D01*
X052127Y014450D02*
X052481Y014450D01*
X052231Y013981D02*
X052231Y013881D01*
X052140Y013881D01*
X052105Y013965D01*
X052088Y013981D01*
X052231Y013981D01*
X052231Y013975D02*
X052095Y013975D01*
X051311Y014344D02*
X051131Y014164D01*
X051131Y014599D01*
X051181Y014649D01*
X051181Y014582D01*
X051258Y014398D01*
X051311Y014344D01*
X051259Y014292D02*
X051131Y014292D01*
X051131Y014450D02*
X051236Y014450D01*
X051181Y014609D02*
X051142Y014609D01*
X048466Y014133D02*
X046897Y014133D01*
X046999Y014292D02*
X048364Y014292D01*
X048236Y014450D02*
X047127Y014450D01*
X047181Y014609D02*
X048181Y014609D01*
X048181Y014767D02*
X047181Y014767D01*
X047121Y014926D02*
X048242Y014926D01*
X048377Y015084D02*
X046985Y015084D01*
X046930Y015243D02*
X048433Y015243D01*
X048256Y015402D02*
X047107Y015402D01*
X047172Y015560D02*
X048190Y015560D01*
X048181Y015719D02*
X047181Y015719D01*
X047141Y015877D02*
X048221Y015877D01*
X048329Y016036D02*
X047034Y016036D01*
X047060Y016353D02*
X048303Y016353D01*
X048211Y016511D02*
X047152Y016511D01*
X047181Y016670D02*
X048181Y016670D01*
X048201Y016828D02*
X047162Y016828D01*
X046274Y016981D02*
X046258Y016965D01*
X046181Y016781D01*
X046181Y016582D01*
X046216Y016499D01*
X046099Y016381D01*
X044088Y016381D01*
X044105Y016398D01*
X044181Y016582D01*
X044181Y016781D01*
X044105Y016965D01*
X044088Y016981D01*
X046274Y016981D01*
X046201Y016828D02*
X044162Y016828D01*
X044181Y016670D02*
X046181Y016670D01*
X046211Y016511D02*
X044152Y016511D01*
X043274Y016381D02*
X042088Y016381D01*
X042105Y016398D01*
X042181Y016582D01*
X042181Y016781D01*
X042105Y016965D01*
X042088Y016981D01*
X043099Y016981D01*
X043216Y016864D01*
X043181Y016781D01*
X043181Y016582D01*
X043258Y016398D01*
X043274Y016381D01*
X043211Y016511D02*
X042152Y016511D01*
X042181Y016670D02*
X043181Y016670D01*
X043201Y016828D02*
X042162Y016828D01*
X041274Y016981D02*
X041258Y016965D01*
X041181Y016781D01*
X041181Y016582D01*
X041216Y016499D01*
X041099Y016381D01*
X039088Y016381D01*
X039105Y016398D01*
X039181Y016582D01*
X039181Y016781D01*
X039105Y016965D01*
X039088Y016981D01*
X041274Y016981D01*
X041201Y016828D02*
X039162Y016828D01*
X039181Y016670D02*
X041181Y016670D01*
X041211Y016511D02*
X039152Y016511D01*
X038274Y016381D02*
X037264Y016381D01*
X037147Y016499D01*
X037181Y016582D01*
X037181Y016781D01*
X037105Y016965D01*
X037088Y016981D01*
X038099Y016981D01*
X038216Y016864D01*
X038181Y016781D01*
X038181Y016582D01*
X038258Y016398D01*
X038274Y016381D01*
X038211Y016511D02*
X037152Y016511D01*
X037181Y016670D02*
X038181Y016670D01*
X038201Y016828D02*
X037162Y016828D01*
X036201Y016828D02*
X034317Y016828D01*
X034381Y016670D02*
X036181Y016670D01*
X036211Y016511D02*
X034381Y016511D01*
X034381Y016353D02*
X036303Y016353D01*
X036551Y016194D02*
X034381Y016194D01*
X034381Y016036D02*
X036329Y016036D01*
X036221Y015877D02*
X034381Y015877D01*
X034381Y015719D02*
X036181Y015719D01*
X036190Y015560D02*
X034381Y015560D01*
X034381Y015402D02*
X036256Y015402D01*
X036433Y015243D02*
X034381Y015243D01*
X034381Y015084D02*
X036377Y015084D01*
X036242Y014926D02*
X034381Y014926D01*
X034381Y014767D02*
X036181Y014767D01*
X036181Y014609D02*
X034381Y014609D01*
X034381Y014450D02*
X036236Y014450D01*
X036364Y014292D02*
X034381Y014292D01*
X034381Y014133D02*
X036466Y014133D01*
X036268Y013975D02*
X034381Y013975D01*
X034381Y013816D02*
X036196Y013816D01*
X036181Y013658D02*
X034381Y013658D01*
X034381Y013499D02*
X036216Y013499D01*
X036315Y013341D02*
X034381Y013341D01*
X034381Y013182D02*
X036581Y013182D01*
X036782Y013182D02*
X038581Y013182D01*
X038782Y013182D02*
X041581Y013182D01*
X041782Y013182D02*
X042571Y013182D01*
X042607Y013023D02*
X042046Y013023D01*
X042147Y012865D02*
X042755Y012865D01*
X043108Y012865D02*
X043216Y012865D01*
X043181Y012706D02*
X042181Y012706D01*
X042167Y012548D02*
X043196Y012548D01*
X043266Y012389D02*
X042096Y012389D01*
X042088Y011981D02*
X043099Y011981D01*
X043216Y011864D01*
X043181Y011781D01*
X043181Y011582D01*
X043258Y011398D01*
X043274Y011381D01*
X043099Y011381D01*
X042088Y011381D01*
X042105Y011398D01*
X042181Y011582D01*
X042181Y011781D01*
X042105Y011965D01*
X042088Y011981D01*
X042126Y011914D02*
X043166Y011914D01*
X043181Y011755D02*
X042181Y011755D01*
X042181Y011597D02*
X043181Y011597D01*
X043241Y011438D02*
X042122Y011438D01*
X041241Y011438D02*
X039122Y011438D01*
X039181Y011597D02*
X041181Y011597D01*
X041181Y011755D02*
X039181Y011755D01*
X039126Y011914D02*
X040690Y011914D01*
X040587Y012072D02*
X040255Y012072D01*
X040108Y012072D02*
X038998Y012072D01*
X038900Y012231D02*
X039875Y012231D01*
X039821Y012389D02*
X039096Y012389D01*
X039167Y012548D02*
X039840Y012548D01*
X039947Y012706D02*
X039181Y012706D01*
X039147Y012865D02*
X040332Y012865D01*
X041140Y012481D02*
X041223Y012481D01*
X041258Y012398D01*
X041274Y012381D01*
X041238Y012381D01*
X041237Y012385D01*
X041140Y012481D01*
X041233Y012389D02*
X041266Y012389D01*
X040630Y012389D02*
X040541Y012389D01*
X040571Y012231D02*
X040488Y012231D01*
X041173Y011914D02*
X041236Y011914D01*
X043415Y012231D02*
X043463Y012231D01*
X043900Y012231D02*
X046463Y012231D01*
X046365Y012072D02*
X043998Y012072D01*
X044126Y011914D02*
X044405Y011914D01*
X044322Y011755D02*
X044181Y011755D01*
X044181Y011597D02*
X044327Y011597D01*
X044416Y011438D02*
X044122Y011438D01*
X044890Y011381D02*
X044987Y011477D01*
X044988Y011481D01*
X046223Y011481D01*
X046258Y011398D01*
X046274Y011381D01*
X044890Y011381D01*
X044947Y011438D02*
X046241Y011438D01*
X047051Y011344D02*
X047097Y011299D01*
X047071Y011360D01*
X047071Y011364D01*
X047051Y011344D01*
X047181Y011755D02*
X047272Y011755D01*
X047126Y011914D02*
X047631Y011914D01*
X047789Y012072D02*
X046998Y012072D01*
X046900Y012231D02*
X047948Y012231D01*
X048106Y012389D02*
X047096Y012389D01*
X047167Y012548D02*
X048196Y012548D01*
X048181Y012706D02*
X047181Y012706D01*
X047147Y012865D02*
X048216Y012865D01*
X048316Y013023D02*
X047046Y013023D01*
X046215Y012865D02*
X044147Y012865D01*
X044181Y012706D02*
X046181Y012706D01*
X046196Y012548D02*
X044167Y012548D01*
X044096Y012389D02*
X046266Y012389D01*
X046236Y011914D02*
X044958Y011914D01*
X044088Y010981D02*
X046274Y010981D01*
X046258Y010965D01*
X046181Y010781D01*
X046181Y010582D01*
X046216Y010499D01*
X046099Y010381D01*
X044088Y010381D01*
X044105Y010398D01*
X044181Y010582D01*
X044181Y010781D01*
X044105Y010965D01*
X044088Y010981D01*
X044106Y010962D02*
X046257Y010962D01*
X046191Y010804D02*
X044172Y010804D01*
X044181Y010645D02*
X046181Y010645D01*
X046204Y010487D02*
X044142Y010487D01*
X044088Y009981D02*
X046264Y009981D01*
X046274Y009981D01*
X046258Y009965D01*
X046181Y009781D01*
X046181Y009582D01*
X046216Y009499D01*
X046099Y009381D01*
X044088Y009381D01*
X044105Y009398D01*
X044181Y009582D01*
X044181Y009781D01*
X044105Y009965D01*
X044088Y009981D01*
X044152Y009853D02*
X046211Y009853D01*
X046181Y009694D02*
X044181Y009694D01*
X044162Y009535D02*
X046201Y009535D01*
X047088Y009381D02*
X047105Y009398D01*
X047181Y009582D01*
X047181Y009781D01*
X047105Y009965D01*
X047088Y009981D01*
X048274Y009981D01*
X048258Y009965D01*
X048181Y009781D01*
X048181Y009582D01*
X048258Y009398D01*
X048274Y009381D01*
X047088Y009381D01*
X047162Y009535D02*
X048201Y009535D01*
X048181Y009694D02*
X047181Y009694D01*
X047152Y009853D02*
X048211Y009853D01*
X048274Y010381D02*
X047088Y010381D01*
X047105Y010398D01*
X047181Y010582D01*
X047181Y010731D01*
X047264Y010731D01*
X048181Y010731D01*
X048181Y010582D01*
X048258Y010398D01*
X048274Y010381D01*
X048221Y010487D02*
X047142Y010487D01*
X047181Y010645D02*
X048181Y010645D01*
X048927Y011121D02*
X051436Y011121D01*
X051582Y011181D02*
X051781Y011181D01*
X051965Y011105D01*
X051981Y011088D01*
X051981Y011274D01*
X051965Y011258D01*
X051781Y011181D01*
X051582Y011181D01*
X051376Y011279D02*
X048987Y011279D01*
X049122Y011438D02*
X051241Y011438D01*
X050733Y011597D02*
X049181Y011597D01*
X049181Y011755D02*
X050731Y011755D01*
X050731Y011914D02*
X049126Y011914D01*
X048998Y012072D02*
X050731Y012072D01*
X050731Y012231D02*
X048900Y012231D01*
X049096Y012389D02*
X050731Y012389D01*
X050731Y012548D02*
X049167Y012548D01*
X049181Y012706D02*
X050731Y012706D01*
X050731Y012865D02*
X049147Y012865D01*
X049046Y013023D02*
X050731Y013023D01*
X051381Y013088D02*
X051381Y013274D01*
X051398Y013258D01*
X051582Y013181D01*
X051398Y013105D01*
X051381Y013088D01*
X051381Y013182D02*
X051581Y013182D01*
X051582Y013181D02*
X051781Y013181D01*
X051582Y013181D01*
X051781Y013181D02*
X051965Y013258D01*
X051981Y013274D01*
X051981Y013088D01*
X051965Y013105D01*
X051781Y013181D01*
X051782Y013182D02*
X051981Y013182D01*
X051223Y012481D02*
X051258Y012398D01*
X051398Y012258D01*
X051582Y012181D01*
X051398Y012105D01*
X051258Y011965D01*
X051223Y011881D01*
X051131Y011881D01*
X051131Y012481D01*
X051223Y012481D01*
X051266Y012389D02*
X051131Y012389D01*
X051131Y012231D02*
X051463Y012231D01*
X051582Y012181D02*
X051781Y012181D01*
X051582Y012181D01*
X051781Y012181D02*
X051965Y012258D01*
X051981Y012274D01*
X051981Y012088D01*
X051965Y012105D01*
X051781Y012181D01*
X051900Y012231D02*
X051981Y012231D01*
X051365Y012072D02*
X051131Y012072D01*
X051131Y011914D02*
X051236Y011914D01*
X051927Y011121D02*
X051981Y011121D01*
X051257Y010962D02*
X049106Y010962D01*
X049172Y010804D02*
X051191Y010804D01*
X051181Y010645D02*
X049181Y010645D01*
X049142Y010487D02*
X051204Y010487D01*
X051499Y010216D02*
X051582Y010181D01*
X051398Y010105D01*
X051258Y009965D01*
X051181Y009781D01*
X051181Y009582D01*
X051216Y009499D01*
X051099Y009381D01*
X049088Y009381D01*
X049105Y009398D01*
X049181Y009582D01*
X049181Y009781D01*
X049105Y009965D01*
X049088Y009981D01*
X051099Y009981D01*
X051264Y009981D01*
X051499Y010216D01*
X051452Y010170D02*
X051554Y010170D01*
X051582Y010181D02*
X051781Y010181D01*
X051965Y010105D01*
X051981Y010088D01*
X051981Y010274D01*
X051965Y010258D01*
X051781Y010181D01*
X051582Y010181D01*
X051809Y010170D02*
X051981Y010170D01*
X051304Y010011D02*
X051294Y010011D01*
X051211Y009853D02*
X049152Y009853D01*
X049181Y009694D02*
X051181Y009694D01*
X051201Y009535D02*
X049162Y009535D01*
X049088Y008981D02*
X051264Y008981D01*
X051381Y009099D01*
X051499Y009216D01*
X051582Y009181D01*
X051398Y009105D01*
X051258Y008965D01*
X051223Y008881D01*
X049140Y008881D01*
X049105Y008965D01*
X049088Y008981D01*
X049131Y008901D02*
X051231Y008901D01*
X051343Y009060D02*
X051353Y009060D01*
X051582Y009181D02*
X051781Y009181D01*
X051965Y009105D01*
X051981Y009088D01*
X051981Y009274D01*
X051965Y009258D01*
X051781Y009181D01*
X051582Y009181D01*
X051870Y009218D02*
X051981Y009218D01*
X051223Y008481D02*
X051258Y008398D01*
X051398Y008258D01*
X051582Y008181D01*
X051649Y008181D01*
X051599Y008131D01*
X048414Y008131D01*
X048499Y008216D01*
X048582Y008181D01*
X048781Y008181D01*
X048965Y008258D01*
X049105Y008398D01*
X049140Y008481D01*
X051223Y008481D01*
X051246Y008426D02*
X049117Y008426D01*
X048974Y008267D02*
X051389Y008267D01*
X051983Y007950D02*
X052231Y007950D01*
X052231Y007791D02*
X051824Y007791D01*
X051764Y007731D02*
X052231Y008199D01*
X052231Y002764D01*
X051661Y002194D01*
X051661Y002380D01*
X051380Y002661D01*
X050983Y002661D01*
X050701Y002380D01*
X050701Y001983D01*
X050803Y001881D01*
X050560Y001881D01*
X050661Y001983D01*
X050661Y002380D01*
X050380Y002661D01*
X049983Y002661D01*
X049701Y002380D01*
X049701Y001983D01*
X049803Y001881D01*
X049560Y001881D01*
X049661Y001983D01*
X049661Y002380D01*
X049380Y002661D01*
X048983Y002661D01*
X048701Y002380D01*
X048701Y001983D01*
X048803Y001881D01*
X048560Y001881D01*
X048661Y001983D01*
X048661Y002380D01*
X048380Y002661D01*
X047983Y002661D01*
X047701Y002380D01*
X047701Y001983D01*
X047803Y001881D01*
X047560Y001881D01*
X047661Y001983D01*
X047661Y002379D01*
X047764Y002481D01*
X047881Y002599D01*
X047881Y002803D01*
X047983Y002701D01*
X048380Y002701D01*
X048661Y002983D01*
X048661Y003380D01*
X048380Y003661D01*
X047983Y003661D01*
X047881Y003560D01*
X047881Y007731D01*
X051599Y007731D01*
X051764Y007731D01*
X052231Y007633D02*
X047881Y007633D01*
X047881Y007474D02*
X052231Y007474D01*
X052231Y007316D02*
X047881Y007316D01*
X047881Y007157D02*
X052231Y007157D01*
X052231Y006999D02*
X047881Y006999D01*
X047881Y006840D02*
X052231Y006840D01*
X052231Y006682D02*
X047881Y006682D01*
X047881Y006523D02*
X052231Y006523D01*
X052231Y006365D02*
X047881Y006365D01*
X047881Y006206D02*
X052231Y006206D01*
X052231Y006048D02*
X047881Y006048D01*
X047881Y005889D02*
X052231Y005889D01*
X052231Y005730D02*
X047881Y005730D01*
X047881Y005572D02*
X052231Y005572D01*
X052231Y005413D02*
X047881Y005413D01*
X047881Y005255D02*
X052231Y005255D01*
X052231Y005096D02*
X047881Y005096D01*
X047881Y004938D02*
X052231Y004938D01*
X052231Y004779D02*
X047881Y004779D01*
X047881Y004621D02*
X052231Y004621D01*
X052231Y004462D02*
X047881Y004462D01*
X047881Y004304D02*
X052231Y004304D01*
X052231Y004145D02*
X047881Y004145D01*
X047881Y003986D02*
X052231Y003986D01*
X052231Y003828D02*
X047881Y003828D01*
X047881Y003669D02*
X052231Y003669D01*
X052231Y003511D02*
X051531Y003511D01*
X051661Y003380D02*
X051380Y003661D01*
X050983Y003661D01*
X050701Y003380D01*
X050701Y002983D01*
X050983Y002701D01*
X051380Y002701D01*
X051661Y002983D01*
X051661Y003380D01*
X051661Y003352D02*
X052231Y003352D01*
X052231Y003194D02*
X051661Y003194D01*
X051661Y003035D02*
X052231Y003035D01*
X052231Y002877D02*
X051555Y002877D01*
X051397Y002718D02*
X052185Y002718D01*
X052027Y002560D02*
X051482Y002560D01*
X051641Y002401D02*
X051868Y002401D01*
X051710Y002242D02*
X051661Y002242D01*
X050881Y002560D02*
X050482Y002560D01*
X050380Y002701D02*
X050661Y002983D01*
X050661Y003380D01*
X050380Y003661D01*
X049983Y003661D01*
X049701Y003380D01*
X049701Y002983D01*
X049983Y002701D01*
X050380Y002701D01*
X050397Y002718D02*
X050966Y002718D01*
X050807Y002877D02*
X050555Y002877D01*
X050661Y003035D02*
X050701Y003035D01*
X050701Y003194D02*
X050661Y003194D01*
X050661Y003352D02*
X050701Y003352D01*
X050832Y003511D02*
X050531Y003511D01*
X049832Y003511D02*
X049531Y003511D01*
X049661Y003380D02*
X049380Y003661D01*
X048983Y003661D01*
X048701Y003380D01*
X048701Y002983D01*
X048983Y002701D01*
X049380Y002701D01*
X049661Y002983D01*
X049661Y003380D01*
X049661Y003352D02*
X049701Y003352D01*
X049701Y003194D02*
X049661Y003194D01*
X049661Y003035D02*
X049701Y003035D01*
X049807Y002877D02*
X049555Y002877D01*
X049397Y002718D02*
X049966Y002718D01*
X049881Y002560D02*
X049482Y002560D01*
X049641Y002401D02*
X049722Y002401D01*
X049701Y002242D02*
X049661Y002242D01*
X049661Y002084D02*
X049701Y002084D01*
X049759Y001925D02*
X049604Y001925D01*
X048759Y001925D02*
X048604Y001925D01*
X048661Y002084D02*
X048701Y002084D01*
X048701Y002242D02*
X048661Y002242D01*
X048641Y002401D02*
X048722Y002401D01*
X048881Y002560D02*
X048482Y002560D01*
X048397Y002718D02*
X048966Y002718D01*
X048807Y002877D02*
X048555Y002877D01*
X048661Y003035D02*
X048701Y003035D01*
X048701Y003194D02*
X048661Y003194D01*
X048661Y003352D02*
X048701Y003352D01*
X048832Y003511D02*
X048531Y003511D01*
X047481Y003669D02*
X047041Y003669D01*
X047010Y003828D02*
X047481Y003828D01*
X047481Y003986D02*
X046885Y003986D01*
X046477Y003987D02*
X046376Y003885D01*
X046375Y003881D01*
X045599Y003881D01*
X045387Y003669D02*
X044952Y003669D01*
X044832Y003511D02*
X044794Y003511D01*
X044701Y003352D02*
X044661Y003352D01*
X044661Y003194D02*
X044701Y003194D01*
X044701Y003035D02*
X044661Y003035D01*
X044555Y002877D02*
X044807Y002877D01*
X044966Y002718D02*
X044397Y002718D01*
X044380Y002661D02*
X043983Y002661D01*
X043701Y002380D01*
X043701Y001983D01*
X043983Y001701D01*
X044380Y001701D01*
X044661Y001983D01*
X044661Y002380D01*
X044380Y002661D01*
X044482Y002560D02*
X044881Y002560D01*
X044983Y002661D02*
X044701Y002380D01*
X044701Y001983D01*
X044983Y001701D01*
X045380Y001701D01*
X045661Y001983D01*
X045661Y002380D01*
X045380Y002661D01*
X044983Y002661D01*
X045397Y002718D02*
X045966Y002718D01*
X045881Y002560D02*
X045482Y002560D01*
X045641Y002401D02*
X045722Y002401D01*
X045701Y002242D02*
X045661Y002242D01*
X045661Y002084D02*
X045701Y002084D01*
X045759Y001925D02*
X045604Y001925D01*
X045446Y001767D02*
X045917Y001767D01*
X045981Y001608D02*
X040891Y001608D01*
X041446Y001767D02*
X041917Y001767D01*
X041983Y001701D02*
X042380Y001701D01*
X042661Y001983D01*
X042661Y002380D01*
X042380Y002661D01*
X041983Y002661D01*
X041701Y002380D01*
X041701Y001983D01*
X041983Y001701D01*
X041759Y001925D02*
X041604Y001925D01*
X041661Y002084D02*
X041701Y002084D01*
X041701Y002242D02*
X041661Y002242D01*
X041641Y002401D02*
X041722Y002401D01*
X041881Y002560D02*
X041482Y002560D01*
X041380Y002701D02*
X040983Y002701D01*
X040701Y002983D01*
X040701Y003380D01*
X040983Y003661D01*
X041380Y003661D01*
X041661Y003380D01*
X041661Y002983D01*
X041380Y002701D01*
X041397Y002718D02*
X041966Y002718D01*
X041983Y002701D02*
X042380Y002701D01*
X042661Y002983D01*
X042661Y003380D01*
X042380Y003661D01*
X041983Y003661D01*
X041701Y003380D01*
X041701Y002983D01*
X041983Y002701D01*
X041807Y002877D02*
X041555Y002877D01*
X041661Y003035D02*
X041701Y003035D01*
X041701Y003194D02*
X041661Y003194D01*
X041661Y003352D02*
X041701Y003352D01*
X041832Y003511D02*
X041531Y003511D01*
X041111Y003828D02*
X044545Y003828D01*
X044704Y003986D02*
X041269Y003986D01*
X041428Y004145D02*
X044862Y004145D01*
X045021Y004304D02*
X041586Y004304D01*
X041745Y004462D02*
X045179Y004462D01*
X045338Y004621D02*
X041903Y004621D01*
X042062Y004779D02*
X045496Y004779D01*
X045655Y004938D02*
X042221Y004938D01*
X042379Y005096D02*
X045813Y005096D01*
X045972Y005255D02*
X042538Y005255D01*
X042922Y005413D02*
X046131Y005413D01*
X046289Y005572D02*
X043026Y005572D01*
X043041Y005730D02*
X046448Y005730D01*
X046606Y005889D02*
X042983Y005889D01*
X042580Y006048D02*
X046765Y006048D01*
X046821Y006206D02*
X043215Y006206D01*
X043291Y006365D02*
X046868Y006365D01*
X047066Y006523D02*
X043283Y006523D01*
X043190Y006682D02*
X047481Y006682D01*
X047481Y006840D02*
X045298Y006840D01*
X045064Y006840D02*
X043123Y006840D01*
X042466Y006999D02*
X031356Y006999D01*
X031505Y006840D02*
X042307Y006840D01*
X042149Y006682D02*
X031541Y006682D01*
X031505Y006523D02*
X041990Y006523D01*
X041832Y006365D02*
X031357Y006365D01*
X030989Y006206D02*
X041673Y006206D01*
X041515Y006048D02*
X030830Y006048D01*
X030672Y005889D02*
X041356Y005889D01*
X041198Y005730D02*
X030513Y005730D01*
X030355Y005572D02*
X041039Y005572D01*
X040881Y005413D02*
X030196Y005413D01*
X030038Y005255D02*
X040722Y005255D01*
X040449Y004731D02*
X039379Y003661D01*
X038983Y003661D01*
X038881Y003560D01*
X038881Y004731D01*
X040449Y004731D01*
X040338Y004621D02*
X038881Y004621D01*
X038881Y004462D02*
X040179Y004462D01*
X040021Y004304D02*
X038881Y004304D01*
X038881Y004145D02*
X039862Y004145D01*
X039704Y003986D02*
X038881Y003986D01*
X038881Y003828D02*
X039545Y003828D01*
X039387Y003669D02*
X038881Y003669D01*
X038481Y003669D02*
X034952Y003669D01*
X034983Y003661D02*
X034701Y003380D01*
X034701Y002983D01*
X034983Y002701D01*
X035380Y002701D01*
X035661Y002983D01*
X035661Y003380D01*
X035380Y003661D01*
X034983Y003661D01*
X035106Y003823D02*
X034661Y003379D01*
X034661Y002983D01*
X034380Y002701D01*
X033983Y002701D01*
X033701Y002983D01*
X033701Y003380D01*
X033983Y003661D01*
X034379Y003661D01*
X034823Y004106D01*
X034821Y004110D01*
X034821Y004253D01*
X034876Y004385D01*
X034977Y004487D01*
X035110Y004541D01*
X035253Y004541D01*
X035385Y004487D01*
X035487Y004385D01*
X035541Y004253D01*
X035541Y004110D01*
X035487Y003977D01*
X035385Y003876D01*
X035253Y003821D01*
X035110Y003821D01*
X035106Y003823D01*
X035269Y003828D02*
X038481Y003828D01*
X038481Y003986D02*
X035490Y003986D01*
X035541Y004145D02*
X038481Y004145D01*
X038481Y004304D02*
X035520Y004304D01*
X035410Y004462D02*
X038481Y004462D01*
X038481Y004621D02*
X029403Y004621D01*
X029245Y004462D02*
X034953Y004462D01*
X034842Y004304D02*
X029086Y004304D01*
X028928Y004145D02*
X034821Y004145D01*
X034704Y003986D02*
X028769Y003986D01*
X028611Y003828D02*
X034545Y003828D01*
X034387Y003669D02*
X028452Y003669D01*
X028483Y003661D02*
X028201Y003380D01*
X028201Y002983D01*
X028483Y002701D01*
X028880Y002701D01*
X029161Y002983D01*
X029161Y003380D01*
X028880Y003661D01*
X028483Y003661D01*
X028332Y003511D02*
X028294Y003511D01*
X028201Y003352D02*
X028161Y003352D01*
X028161Y003194D02*
X028201Y003194D01*
X028201Y003035D02*
X028161Y003035D01*
X028269Y002877D02*
X028307Y002877D01*
X028428Y002718D02*
X028466Y002718D01*
X028897Y002718D02*
X031966Y002718D01*
X031983Y002701D02*
X032380Y002701D01*
X032661Y002983D01*
X032661Y003380D01*
X032380Y003661D01*
X031983Y003661D01*
X031701Y003380D01*
X031701Y002983D01*
X031983Y002701D01*
X031983Y002661D02*
X031701Y002380D01*
X031701Y001983D01*
X031983Y001701D01*
X032380Y001701D01*
X032661Y001983D01*
X032661Y002380D01*
X032380Y002661D01*
X031983Y002661D01*
X031881Y002560D02*
X028982Y002560D01*
X029141Y002401D02*
X031722Y002401D01*
X031701Y002242D02*
X029161Y002242D01*
X029161Y002084D02*
X031701Y002084D01*
X031759Y001925D02*
X029104Y001925D01*
X028946Y001767D02*
X031917Y001767D01*
X032446Y001767D02*
X032917Y001767D01*
X032983Y001701D02*
X033380Y001701D01*
X033661Y001983D01*
X033661Y002380D01*
X033380Y002661D01*
X032983Y002661D01*
X032701Y002380D01*
X032701Y001983D01*
X032983Y001701D01*
X032759Y001925D02*
X032604Y001925D01*
X032661Y002084D02*
X032701Y002084D01*
X032701Y002242D02*
X032661Y002242D01*
X032641Y002401D02*
X032722Y002401D01*
X032881Y002560D02*
X032482Y002560D01*
X032397Y002718D02*
X032966Y002718D01*
X032983Y002701D02*
X033380Y002701D01*
X033661Y002983D01*
X033661Y003380D01*
X033380Y003661D01*
X032983Y003661D01*
X032701Y003380D01*
X032701Y002983D01*
X032983Y002701D01*
X032807Y002877D02*
X032555Y002877D01*
X032661Y003035D02*
X032701Y003035D01*
X032701Y003194D02*
X032661Y003194D01*
X032661Y003352D02*
X032701Y003352D01*
X032832Y003511D02*
X032531Y003511D01*
X031832Y003511D02*
X029031Y003511D01*
X029161Y003352D02*
X031701Y003352D01*
X031701Y003194D02*
X029161Y003194D01*
X029161Y003035D02*
X031701Y003035D01*
X031807Y002877D02*
X029055Y002877D01*
X028179Y002401D02*
X028141Y002401D01*
X028161Y002242D02*
X028201Y002242D01*
X028201Y002084D02*
X028161Y002084D01*
X028104Y001925D02*
X028259Y001925D01*
X028417Y001767D02*
X027946Y001767D01*
X027417Y001767D02*
X026946Y001767D01*
X027104Y001925D02*
X027259Y001925D01*
X027201Y002084D02*
X027161Y002084D01*
X027161Y002242D02*
X027201Y002242D01*
X027222Y002401D02*
X027141Y002401D01*
X026222Y002401D02*
X026141Y002401D01*
X026161Y002242D02*
X026201Y002242D01*
X026201Y002084D02*
X026161Y002084D01*
X026104Y001925D02*
X026259Y001925D01*
X026417Y001767D02*
X025946Y001767D01*
X025417Y001767D02*
X024946Y001767D01*
X024880Y001701D02*
X025161Y001983D01*
X025161Y002380D01*
X024880Y002661D01*
X024483Y002661D01*
X024201Y002380D01*
X024201Y001983D01*
X024483Y001701D01*
X024880Y001701D01*
X025104Y001925D02*
X025259Y001925D01*
X025201Y002084D02*
X025161Y002084D01*
X025161Y002242D02*
X025201Y002242D01*
X025222Y002401D02*
X025141Y002401D01*
X025270Y002560D02*
X024982Y002560D01*
X024897Y002718D02*
X025112Y002718D01*
X024466Y002718D02*
X023897Y002718D01*
X023880Y002701D02*
X024161Y002983D01*
X024161Y003380D01*
X023880Y003661D01*
X023483Y003661D01*
X023201Y003380D01*
X023201Y002983D01*
X023483Y002701D01*
X023880Y002701D01*
X023880Y002661D02*
X023483Y002661D01*
X023201Y002380D01*
X023201Y001983D01*
X023483Y001701D01*
X023880Y001701D01*
X024161Y001983D01*
X024161Y002380D01*
X023880Y002661D01*
X023982Y002560D02*
X024381Y002560D01*
X024222Y002401D02*
X024141Y002401D01*
X024161Y002242D02*
X024201Y002242D01*
X024201Y002084D02*
X024161Y002084D01*
X024104Y001925D02*
X024259Y001925D01*
X024417Y001767D02*
X023946Y001767D01*
X023417Y001767D02*
X022946Y001767D01*
X022880Y001701D02*
X023161Y001983D01*
X023161Y002380D01*
X022880Y002661D01*
X022483Y002661D01*
X022201Y002380D01*
X022201Y001983D01*
X022483Y001701D01*
X022880Y001701D01*
X023104Y001925D02*
X023259Y001925D01*
X023201Y002084D02*
X023161Y002084D01*
X023161Y002242D02*
X023201Y002242D01*
X023222Y002401D02*
X023141Y002401D01*
X022982Y002560D02*
X023381Y002560D01*
X023466Y002718D02*
X022897Y002718D01*
X022880Y002701D02*
X023161Y002983D01*
X023161Y003380D01*
X022880Y003661D01*
X022483Y003661D01*
X022201Y003380D01*
X022201Y002983D01*
X022483Y002701D01*
X022880Y002701D01*
X023055Y002877D02*
X023307Y002877D01*
X023201Y003035D02*
X023161Y003035D01*
X023161Y003194D02*
X023201Y003194D01*
X023201Y003352D02*
X023161Y003352D01*
X023031Y003511D02*
X023332Y003511D01*
X023594Y003828D02*
X010318Y003828D01*
X010476Y003669D02*
X023911Y003669D01*
X024031Y003511D02*
X024069Y003511D01*
X024161Y003352D02*
X024201Y003352D01*
X024201Y003194D02*
X024161Y003194D01*
X024161Y003035D02*
X024201Y003035D01*
X024307Y002877D02*
X024055Y002877D01*
X022466Y002718D02*
X021897Y002718D01*
X021880Y002701D02*
X022161Y002983D01*
X022161Y003380D01*
X021880Y003661D01*
X021483Y003661D01*
X021201Y003380D01*
X021201Y002983D01*
X021483Y002701D01*
X021880Y002701D01*
X021880Y002661D02*
X021483Y002661D01*
X021201Y002380D01*
X021201Y001983D01*
X021483Y001701D01*
X021880Y001701D01*
X022161Y001983D01*
X022161Y002380D01*
X021880Y002661D01*
X021982Y002560D02*
X022381Y002560D01*
X022222Y002401D02*
X022141Y002401D01*
X022161Y002242D02*
X022201Y002242D01*
X022201Y002084D02*
X022161Y002084D01*
X022104Y001925D02*
X022259Y001925D01*
X022417Y001767D02*
X021946Y001767D01*
X021417Y001767D02*
X020946Y001767D01*
X021104Y001925D02*
X021259Y001925D01*
X021201Y002084D02*
X021161Y002084D01*
X021161Y002242D02*
X021201Y002242D01*
X021222Y002401D02*
X021141Y002401D01*
X020982Y002560D02*
X021381Y002560D01*
X021466Y002718D02*
X020897Y002718D01*
X020880Y002701D02*
X021161Y002983D01*
X021161Y003380D01*
X020880Y003661D01*
X020483Y003661D01*
X020201Y003380D01*
X020201Y002983D01*
X020483Y002701D01*
X020880Y002701D01*
X021055Y002877D02*
X021307Y002877D01*
X021201Y003035D02*
X021161Y003035D01*
X021161Y003194D02*
X021201Y003194D01*
X021201Y003352D02*
X021161Y003352D01*
X021031Y003511D02*
X021332Y003511D01*
X022031Y003511D02*
X022332Y003511D01*
X022201Y003352D02*
X022161Y003352D01*
X022161Y003194D02*
X022201Y003194D01*
X022201Y003035D02*
X022161Y003035D01*
X022055Y002877D02*
X022307Y002877D01*
X020466Y002718D02*
X019897Y002718D01*
X019880Y002701D02*
X020161Y002983D01*
X020161Y003380D01*
X019880Y003661D01*
X019483Y003661D01*
X019201Y003380D01*
X019201Y002983D01*
X019483Y002701D01*
X019880Y002701D01*
X019982Y002560D02*
X020381Y002560D01*
X020222Y002401D02*
X020141Y002401D01*
X020161Y002242D02*
X020201Y002242D01*
X020201Y002084D02*
X020161Y002084D01*
X020143Y001925D02*
X020104Y001925D01*
X020391Y001608D02*
X038722Y001608D01*
X038563Y001767D02*
X038446Y001767D01*
X037917Y001767D02*
X037446Y001767D01*
X037380Y001701D02*
X037661Y001983D01*
X037661Y002380D01*
X037380Y002661D01*
X036983Y002661D01*
X036701Y002380D01*
X036701Y001983D01*
X036983Y001701D01*
X037380Y001701D01*
X037604Y001925D02*
X037759Y001925D01*
X037701Y002084D02*
X037661Y002084D01*
X037661Y002242D02*
X037701Y002242D01*
X037722Y002401D02*
X037641Y002401D01*
X037482Y002560D02*
X037881Y002560D01*
X037966Y002718D02*
X037397Y002718D01*
X037380Y002701D02*
X037661Y002983D01*
X037661Y003380D01*
X037380Y003661D01*
X036983Y003661D01*
X036701Y003380D01*
X036701Y002983D01*
X036983Y002701D01*
X037380Y002701D01*
X037555Y002877D02*
X037807Y002877D01*
X037701Y003035D02*
X037661Y003035D01*
X037661Y003194D02*
X037701Y003194D01*
X037701Y003352D02*
X037661Y003352D01*
X037531Y003511D02*
X037832Y003511D01*
X036832Y003511D02*
X036531Y003511D01*
X036661Y003380D02*
X036380Y003661D01*
X035983Y003661D01*
X035701Y003380D01*
X035701Y002983D01*
X035983Y002701D01*
X036380Y002701D01*
X036661Y002983D01*
X036661Y003380D01*
X036661Y003352D02*
X036701Y003352D01*
X036701Y003194D02*
X036661Y003194D01*
X036661Y003035D02*
X036701Y003035D01*
X036807Y002877D02*
X036555Y002877D01*
X036397Y002718D02*
X036966Y002718D01*
X036881Y002560D02*
X036482Y002560D01*
X036380Y002661D02*
X035983Y002661D01*
X035701Y002380D01*
X035701Y001983D01*
X035983Y001701D01*
X036380Y001701D01*
X036661Y001983D01*
X036661Y002380D01*
X036380Y002661D01*
X035966Y002718D02*
X035397Y002718D01*
X035380Y002661D02*
X034983Y002661D01*
X034701Y002380D01*
X034701Y001983D01*
X034983Y001701D01*
X035380Y001701D01*
X035661Y001983D01*
X035661Y002380D01*
X035380Y002661D01*
X035482Y002560D02*
X035881Y002560D01*
X035722Y002401D02*
X035641Y002401D01*
X035661Y002242D02*
X035701Y002242D01*
X035701Y002084D02*
X035661Y002084D01*
X035604Y001925D02*
X035759Y001925D01*
X035917Y001767D02*
X035446Y001767D01*
X034917Y001767D02*
X034446Y001767D01*
X034380Y001701D02*
X034661Y001983D01*
X034661Y002380D01*
X034380Y002661D01*
X033983Y002661D01*
X033701Y002380D01*
X033701Y001983D01*
X033983Y001701D01*
X034380Y001701D01*
X034604Y001925D02*
X034759Y001925D01*
X034701Y002084D02*
X034661Y002084D01*
X034661Y002242D02*
X034701Y002242D01*
X034722Y002401D02*
X034641Y002401D01*
X034482Y002560D02*
X034881Y002560D01*
X034966Y002718D02*
X034397Y002718D01*
X034555Y002877D02*
X034807Y002877D01*
X034701Y003035D02*
X034661Y003035D01*
X034661Y003194D02*
X034701Y003194D01*
X034701Y003352D02*
X034661Y003352D01*
X034794Y003511D02*
X034832Y003511D01*
X033832Y003511D02*
X033531Y003511D01*
X033661Y003352D02*
X033701Y003352D01*
X033701Y003194D02*
X033661Y003194D01*
X033661Y003035D02*
X033701Y003035D01*
X033807Y002877D02*
X033555Y002877D01*
X033397Y002718D02*
X033966Y002718D01*
X033881Y002560D02*
X033482Y002560D01*
X033641Y002401D02*
X033722Y002401D01*
X033701Y002242D02*
X033661Y002242D01*
X033661Y002084D02*
X033701Y002084D01*
X033759Y001925D02*
X033604Y001925D01*
X033446Y001767D02*
X033917Y001767D01*
X036446Y001767D02*
X036917Y001767D01*
X036759Y001925D02*
X036604Y001925D01*
X036661Y002084D02*
X036701Y002084D01*
X036701Y002242D02*
X036661Y002242D01*
X036641Y002401D02*
X036722Y002401D01*
X035807Y002877D02*
X035555Y002877D01*
X035661Y003035D02*
X035701Y003035D01*
X035701Y003194D02*
X035661Y003194D01*
X035661Y003352D02*
X035701Y003352D01*
X035832Y003511D02*
X035531Y003511D01*
X038397Y002718D02*
X038481Y002718D01*
X038881Y002718D02*
X038966Y002718D01*
X038983Y002701D02*
X038881Y002803D01*
X038881Y002560D01*
X038983Y002661D01*
X039379Y002661D01*
X039481Y002764D01*
X039481Y002803D01*
X039380Y002701D01*
X038983Y002701D01*
X039397Y002718D02*
X039435Y002718D01*
X039842Y002560D02*
X039881Y002560D01*
X039881Y002718D02*
X039966Y002718D01*
X040397Y002718D02*
X040966Y002718D01*
X040881Y002560D02*
X040482Y002560D01*
X040641Y002401D02*
X040722Y002401D01*
X040701Y002242D02*
X040661Y002242D01*
X040661Y002084D02*
X040701Y002084D01*
X040643Y001925D02*
X040604Y001925D01*
X039759Y001925D02*
X039604Y001925D01*
X039661Y002084D02*
X039701Y002084D01*
X039701Y002242D02*
X039661Y002242D01*
X039684Y002401D02*
X039722Y002401D01*
X040555Y002877D02*
X040807Y002877D01*
X040701Y003035D02*
X040661Y003035D01*
X040661Y003194D02*
X040701Y003194D01*
X040701Y003352D02*
X040661Y003352D01*
X040794Y003511D02*
X040832Y003511D01*
X040952Y003669D02*
X044387Y003669D01*
X043832Y003511D02*
X043531Y003511D01*
X043661Y003380D02*
X043380Y003661D01*
X042983Y003661D01*
X042701Y003380D01*
X042701Y002983D01*
X042983Y002701D01*
X043380Y002701D01*
X043661Y002983D01*
X043661Y003380D01*
X043661Y003352D02*
X043701Y003352D01*
X043701Y003194D02*
X043661Y003194D01*
X043661Y003035D02*
X043701Y003035D01*
X043807Y002877D02*
X043555Y002877D01*
X043397Y002718D02*
X043966Y002718D01*
X043881Y002560D02*
X043482Y002560D01*
X043380Y002661D02*
X042983Y002661D01*
X042701Y002380D01*
X042701Y001983D01*
X042983Y001701D01*
X043380Y001701D01*
X043661Y001983D01*
X043661Y002380D01*
X043380Y002661D01*
X042966Y002718D02*
X042397Y002718D01*
X042482Y002560D02*
X042881Y002560D01*
X042722Y002401D02*
X042641Y002401D01*
X042661Y002242D02*
X042701Y002242D01*
X042701Y002084D02*
X042661Y002084D01*
X042604Y001925D02*
X042759Y001925D01*
X042917Y001767D02*
X042446Y001767D01*
X043446Y001767D02*
X043917Y001767D01*
X043759Y001925D02*
X043604Y001925D01*
X043661Y002084D02*
X043701Y002084D01*
X043701Y002242D02*
X043661Y002242D01*
X043641Y002401D02*
X043722Y002401D01*
X044641Y002401D02*
X044722Y002401D01*
X044701Y002242D02*
X044661Y002242D01*
X044661Y002084D02*
X044701Y002084D01*
X044759Y001925D02*
X044604Y001925D01*
X044446Y001767D02*
X044917Y001767D01*
X045981Y001450D02*
X000361Y001450D01*
X000361Y001608D02*
X002722Y001608D01*
X002563Y001767D02*
X000361Y001767D01*
X000361Y001925D02*
X002405Y001925D01*
X002246Y002084D02*
X000361Y002084D01*
X000361Y002242D02*
X002087Y002242D01*
X001929Y002401D02*
X000361Y002401D01*
X000361Y002560D02*
X001770Y002560D01*
X001612Y002718D02*
X000361Y002718D01*
X000361Y002877D02*
X001481Y002877D01*
X001481Y003035D02*
X000361Y003035D01*
X000361Y003194D02*
X001481Y003194D01*
X001481Y003352D02*
X000361Y003352D01*
X000361Y003511D02*
X001481Y003511D01*
X001481Y003669D02*
X000361Y003669D01*
X000361Y003828D02*
X001481Y003828D01*
X001481Y003986D02*
X000361Y003986D01*
X000361Y004145D02*
X001481Y004145D01*
X001481Y004304D02*
X000361Y004304D01*
X000361Y004462D02*
X001481Y004462D01*
X001481Y004621D02*
X000361Y004621D01*
X000361Y004779D02*
X001481Y004779D01*
X001481Y004938D02*
X000361Y004938D01*
X000361Y005096D02*
X001481Y005096D01*
X001481Y005255D02*
X000361Y005255D01*
X000361Y005413D02*
X001481Y005413D01*
X001481Y005572D02*
X000361Y005572D01*
X000361Y005730D02*
X001481Y005730D01*
X001481Y005889D02*
X000361Y005889D01*
X000361Y006048D02*
X001481Y006048D01*
X001481Y006206D02*
X000361Y006206D01*
X000361Y006365D02*
X001481Y006365D01*
X001481Y006523D02*
X000361Y006523D01*
X000361Y006682D02*
X001481Y006682D01*
X001481Y006840D02*
X000361Y006840D01*
X000361Y006999D02*
X001481Y006999D01*
X001481Y007157D02*
X000361Y007157D01*
X000361Y007316D02*
X001481Y007316D01*
X001481Y007474D02*
X000361Y007474D01*
X000361Y007633D02*
X001481Y007633D01*
X001481Y007791D02*
X000361Y007791D01*
X000361Y007950D02*
X001481Y007950D01*
X001481Y008109D02*
X000361Y008109D01*
X000361Y008267D02*
X001481Y008267D01*
X001481Y008426D02*
X000361Y008426D01*
X000361Y008584D02*
X001481Y008584D01*
X001481Y008743D02*
X000361Y008743D01*
X000361Y008901D02*
X001481Y008901D01*
X001481Y009060D02*
X000361Y009060D01*
X000361Y009218D02*
X001481Y009218D01*
X001481Y009377D02*
X000361Y009377D01*
X000361Y009535D02*
X001481Y009535D01*
X001481Y009694D02*
X000361Y009694D01*
X000361Y009853D02*
X001481Y009853D01*
X001481Y010011D02*
X000361Y010011D01*
X000361Y010170D02*
X001481Y010170D01*
X001481Y010328D02*
X000361Y010328D01*
X000361Y010487D02*
X001481Y010487D01*
X001481Y010645D02*
X000361Y010645D01*
X000361Y010804D02*
X001481Y010804D01*
X001481Y010962D02*
X000361Y010962D01*
X000361Y011121D02*
X001481Y011121D01*
X001481Y011279D02*
X000361Y011279D01*
X000361Y011438D02*
X001481Y011438D01*
X001481Y011597D02*
X000361Y011597D01*
X000361Y011755D02*
X001481Y011755D01*
X001481Y011914D02*
X000361Y011914D01*
X000361Y012072D02*
X001481Y012072D01*
X001481Y012231D02*
X000361Y012231D01*
X000361Y012389D02*
X001481Y012389D01*
X001481Y012548D02*
X000361Y012548D01*
X000361Y012706D02*
X001481Y012706D01*
X001481Y012865D02*
X000361Y012865D01*
X000361Y013023D02*
X001481Y013023D01*
X001481Y013182D02*
X000361Y013182D01*
X000361Y013341D02*
X001481Y013341D01*
X001481Y013499D02*
X000361Y013499D01*
X000361Y013658D02*
X001481Y013658D01*
X001481Y013816D02*
X000361Y013816D01*
X000361Y013975D02*
X001481Y013975D01*
X001481Y014133D02*
X000361Y014133D01*
X000361Y014292D02*
X001481Y014292D01*
X001481Y014450D02*
X000361Y014450D01*
X000361Y014609D02*
X001481Y014609D01*
X001481Y014767D02*
X000361Y014767D01*
X000361Y014926D02*
X001481Y014926D01*
X001481Y015084D02*
X000361Y015084D01*
X000361Y015243D02*
X001481Y015243D01*
X001881Y014981D02*
X007274Y014981D01*
X007258Y014965D01*
X007223Y014881D01*
X002099Y014881D01*
X001981Y014764D01*
X001981Y014599D01*
X001981Y008349D01*
X002099Y008231D01*
X002769Y007561D01*
X002660Y007451D01*
X002588Y007276D01*
X002588Y007087D01*
X002660Y006911D01*
X002794Y006777D01*
X002970Y006705D01*
X003793Y006705D01*
X003968Y006777D01*
X004102Y006911D01*
X004122Y006958D01*
X009099Y001981D01*
X009203Y001981D01*
X009303Y001881D01*
X004073Y001881D01*
X004102Y001911D01*
X004175Y002087D01*
X004175Y002276D01*
X004102Y002451D01*
X003968Y002586D01*
X003793Y002658D01*
X002970Y002658D01*
X002794Y002586D01*
X002660Y002451D01*
X002597Y002299D01*
X001881Y003014D01*
X001881Y014981D01*
X001881Y014926D02*
X007242Y014926D01*
X007223Y014481D02*
X007258Y014398D01*
X007398Y014258D01*
X007582Y014181D01*
X007398Y014105D01*
X007258Y013965D01*
X007181Y013781D01*
X007181Y013582D01*
X007258Y013398D01*
X007398Y013258D01*
X007582Y013181D01*
X007398Y013105D01*
X007258Y012965D01*
X007181Y012781D01*
X007181Y012582D01*
X007258Y012398D01*
X007398Y012258D01*
X007582Y012181D01*
X007398Y012105D01*
X007258Y011965D01*
X007223Y011881D01*
X002381Y011881D01*
X002381Y014481D01*
X007223Y014481D01*
X007236Y014450D02*
X002381Y014450D01*
X002381Y014292D02*
X007364Y014292D01*
X007466Y014133D02*
X002381Y014133D01*
X002381Y013975D02*
X007268Y013975D01*
X007196Y013816D02*
X002381Y013816D01*
X002381Y013658D02*
X007181Y013658D01*
X007216Y013499D02*
X002381Y013499D01*
X002381Y013341D02*
X007315Y013341D01*
X007581Y013182D02*
X002381Y013182D01*
X002381Y013023D02*
X007316Y013023D01*
X007216Y012865D02*
X002381Y012865D01*
X002381Y012706D02*
X007181Y012706D01*
X007196Y012548D02*
X002381Y012548D01*
X002381Y012389D02*
X007266Y012389D01*
X007463Y012231D02*
X002381Y012231D01*
X002381Y012072D02*
X007365Y012072D01*
X007236Y011914D02*
X002381Y011914D01*
X001981Y011914D02*
X001881Y011914D01*
X001881Y012072D02*
X001981Y012072D01*
X001981Y012231D02*
X001881Y012231D01*
X001881Y012389D02*
X001981Y012389D01*
X001981Y012548D02*
X001881Y012548D01*
X001881Y012706D02*
X001981Y012706D01*
X001981Y012865D02*
X001881Y012865D01*
X001881Y013023D02*
X001981Y013023D01*
X001981Y013182D02*
X001881Y013182D01*
X001881Y013341D02*
X001981Y013341D01*
X001981Y013499D02*
X001881Y013499D01*
X001881Y013658D02*
X001981Y013658D01*
X001981Y013816D02*
X001881Y013816D01*
X001881Y013975D02*
X001981Y013975D01*
X001981Y014133D02*
X001881Y014133D01*
X001881Y014292D02*
X001981Y014292D01*
X001981Y014450D02*
X001881Y014450D01*
X001881Y014609D02*
X001981Y014609D01*
X001985Y014767D02*
X001881Y014767D01*
X000361Y015402D02*
X007256Y015402D01*
X007190Y015560D02*
X000361Y015560D01*
X000361Y015719D02*
X007181Y015719D01*
X007221Y015877D02*
X000361Y015877D01*
X000361Y016036D02*
X007329Y016036D01*
X007551Y016194D02*
X000361Y016194D01*
X000361Y016353D02*
X007303Y016353D01*
X007211Y016511D02*
X000361Y016511D01*
X000361Y016670D02*
X007181Y016670D01*
X007201Y016828D02*
X000361Y016828D01*
X000361Y016987D02*
X007280Y016987D01*
X007495Y017146D02*
X000361Y017146D01*
X000361Y017304D02*
X007181Y017304D01*
X007181Y017463D02*
X000361Y017463D01*
X000361Y017621D02*
X007181Y017621D01*
X007181Y017780D02*
X000361Y017780D01*
X000361Y017938D02*
X007181Y017938D01*
X007191Y018097D02*
X000361Y018097D01*
X000361Y018255D02*
X053181Y018255D01*
X053181Y018414D02*
X000361Y018414D01*
X000361Y018572D02*
X053181Y018572D01*
X053181Y018731D02*
X000361Y018731D01*
X000361Y018890D02*
X053181Y018890D01*
X053181Y019048D02*
X000361Y019048D01*
X000361Y019207D02*
X053181Y019207D01*
X053181Y019365D02*
X000361Y019365D01*
X000361Y019524D02*
X053181Y019524D01*
X053181Y019682D02*
X000361Y019682D01*
X000361Y019841D02*
X053181Y019841D01*
X048191Y018097D02*
X046973Y018097D01*
X047116Y017938D02*
X048181Y017938D01*
X048181Y017780D02*
X047181Y017780D01*
X047181Y017621D02*
X048181Y017621D01*
X048181Y017463D02*
X047132Y017463D01*
X046231Y017463D02*
X044181Y017463D01*
X044181Y017621D02*
X046181Y017621D01*
X046181Y017780D02*
X044181Y017780D01*
X044181Y017938D02*
X046247Y017938D01*
X046390Y018097D02*
X044172Y018097D01*
X043191Y018097D02*
X041973Y018097D01*
X042116Y017938D02*
X043181Y017938D01*
X043181Y017780D02*
X042181Y017780D01*
X042181Y017621D02*
X043181Y017621D01*
X043181Y017463D02*
X042132Y017463D01*
X041231Y017463D02*
X039181Y017463D01*
X039181Y017621D02*
X041181Y017621D01*
X041181Y017780D02*
X039181Y017780D01*
X039181Y017938D02*
X041247Y017938D01*
X041390Y018097D02*
X039172Y018097D01*
X038191Y018097D02*
X036973Y018097D01*
X037116Y017938D02*
X038181Y017938D01*
X038181Y017780D02*
X037181Y017780D01*
X037181Y017621D02*
X038181Y017621D01*
X038181Y017463D02*
X037132Y017463D01*
X036231Y017463D02*
X034181Y017463D01*
X034181Y017621D02*
X036181Y017621D01*
X036181Y017780D02*
X034181Y017780D01*
X034181Y017938D02*
X036247Y017938D01*
X036390Y018097D02*
X034172Y018097D01*
X033191Y018097D02*
X031473Y018097D01*
X031616Y017938D02*
X033181Y017938D01*
X033181Y017780D02*
X031681Y017780D01*
X031681Y017621D02*
X033181Y017621D01*
X033181Y017463D02*
X031632Y017463D01*
X030731Y017463D02*
X028681Y017463D01*
X028681Y017621D02*
X030681Y017621D01*
X030681Y017780D02*
X028681Y017780D01*
X028681Y017938D02*
X030747Y017938D01*
X030890Y018097D02*
X028672Y018097D01*
X027691Y018097D02*
X026473Y018097D01*
X026616Y017938D02*
X027681Y017938D01*
X027681Y017780D02*
X026681Y017780D01*
X026681Y017621D02*
X027681Y017621D01*
X027681Y017463D02*
X026632Y017463D01*
X026588Y016981D02*
X027481Y016981D01*
X027481Y011381D01*
X026588Y011381D01*
X026605Y011398D01*
X026681Y011582D01*
X026681Y011781D01*
X026605Y011965D01*
X026465Y012105D01*
X026281Y012181D01*
X026082Y012181D01*
X025898Y012105D01*
X025758Y011965D01*
X025681Y011781D01*
X025681Y011582D01*
X025758Y011398D01*
X025774Y011381D01*
X023588Y011381D01*
X023605Y011398D01*
X023681Y011582D01*
X023681Y011781D01*
X023605Y011965D01*
X023465Y012105D01*
X023281Y012181D01*
X023082Y012181D01*
X022898Y012105D01*
X022758Y011965D01*
X022681Y011781D01*
X022681Y011582D01*
X022758Y011398D01*
X022774Y011381D01*
X022764Y011381D01*
X022599Y011381D01*
X021588Y011381D01*
X021605Y011398D01*
X021681Y011582D01*
X021681Y011781D01*
X021605Y011965D01*
X021465Y012105D01*
X021281Y012181D01*
X021082Y012181D01*
X020898Y012105D01*
X020758Y011965D01*
X020723Y011881D01*
X020238Y011881D01*
X020237Y011885D01*
X020135Y011987D01*
X020003Y012041D01*
X019860Y012041D01*
X019799Y012016D01*
X020264Y012481D01*
X020723Y012481D01*
X020758Y012398D01*
X020898Y012258D01*
X021082Y012181D01*
X021281Y012181D01*
X021465Y012258D01*
X021605Y012398D01*
X021681Y012582D01*
X021681Y012781D01*
X021605Y012965D01*
X021465Y013105D01*
X021281Y013181D01*
X021082Y013181D01*
X020898Y013105D01*
X020758Y012965D01*
X020723Y012881D01*
X020099Y012881D01*
X019981Y012764D01*
X019507Y012290D01*
X019503Y012291D01*
X019360Y012291D01*
X019227Y012237D01*
X019126Y012135D01*
X019071Y012003D01*
X019071Y011860D01*
X019126Y011727D01*
X019227Y011626D01*
X019360Y011571D01*
X019503Y011571D01*
X019575Y011601D01*
X019626Y011477D01*
X019722Y011381D01*
X018599Y011381D01*
X018481Y011264D01*
X018364Y011147D01*
X018281Y011181D01*
X018082Y011181D01*
X017898Y011105D01*
X017758Y010965D01*
X017681Y010781D01*
X017681Y010582D01*
X017758Y010398D01*
X017774Y010381D01*
X016588Y010381D01*
X016605Y010398D01*
X016681Y010582D01*
X016681Y010781D01*
X016605Y010965D01*
X016465Y011105D01*
X016281Y011181D01*
X016082Y011181D01*
X015898Y011105D01*
X015758Y010965D01*
X015681Y010781D01*
X015681Y010582D01*
X015716Y010499D01*
X015599Y010381D01*
X013588Y010381D01*
X013605Y010398D01*
X013681Y010582D01*
X013681Y010781D01*
X013605Y010965D01*
X013465Y011105D01*
X013281Y011181D01*
X013082Y011181D01*
X012999Y011147D01*
X012881Y011264D01*
X012764Y011381D01*
X011088Y011381D01*
X011105Y011398D01*
X011181Y011582D01*
X011181Y011781D01*
X011105Y011965D01*
X010965Y012105D01*
X010781Y012181D01*
X010582Y012181D01*
X010398Y012105D01*
X010258Y011965D01*
X010181Y011781D01*
X010181Y011582D01*
X010258Y011398D01*
X010274Y011381D01*
X008264Y011381D01*
X008099Y011381D01*
X007864Y011147D01*
X007781Y011181D01*
X007582Y011181D01*
X007398Y011105D01*
X007258Y010965D01*
X007181Y010781D01*
X007181Y010582D01*
X007258Y010398D01*
X007274Y010381D01*
X005738Y010381D01*
X005737Y010385D01*
X005635Y010487D01*
X007221Y010487D01*
X007181Y010645D02*
X002631Y010645D01*
X002631Y010487D02*
X005228Y010487D01*
X005227Y010487D02*
X005126Y010385D01*
X005071Y010253D01*
X005071Y010110D01*
X005126Y009977D01*
X005227Y009876D01*
X005360Y009821D01*
X005503Y009821D01*
X005635Y009876D01*
X005737Y009977D01*
X005738Y009981D01*
X007274Y009981D01*
X007258Y009965D01*
X007181Y009781D01*
X007181Y009582D01*
X007258Y009398D01*
X007274Y009381D01*
X004132Y009381D01*
X004102Y009451D01*
X003968Y009586D01*
X003793Y009658D01*
X002970Y009658D01*
X002794Y009586D01*
X002660Y009451D01*
X002631Y009382D01*
X002631Y011481D01*
X007223Y011481D01*
X007258Y011398D01*
X007398Y011258D01*
X007582Y011181D01*
X007781Y011181D01*
X007965Y011258D01*
X008105Y011398D01*
X008181Y011582D01*
X008181Y011781D01*
X008105Y011965D01*
X007965Y012105D01*
X007781Y012181D01*
X007582Y012181D01*
X007781Y012181D01*
X007965Y012258D01*
X008105Y012398D01*
X008181Y012582D01*
X008181Y012781D01*
X008105Y012965D01*
X007965Y013105D01*
X007781Y013181D01*
X007582Y013181D01*
X007781Y013181D01*
X007965Y013258D01*
X008105Y013398D01*
X008181Y013582D01*
X008181Y013781D01*
X008105Y013965D01*
X007965Y014105D01*
X007781Y014181D01*
X007582Y014181D01*
X007781Y014181D01*
X007965Y014258D01*
X008105Y014398D01*
X008181Y014582D01*
X008181Y014781D01*
X008105Y014965D01*
X008088Y014981D01*
X010274Y014981D01*
X010258Y014965D01*
X010181Y014781D01*
X010181Y014582D01*
X010258Y014398D01*
X010398Y014258D01*
X010582Y014181D01*
X010398Y014105D01*
X010258Y013965D01*
X010181Y013781D01*
X010181Y013582D01*
X010258Y013398D01*
X010398Y013258D01*
X010582Y013181D01*
X010398Y013105D01*
X010258Y012965D01*
X010181Y012781D01*
X010181Y012582D01*
X010258Y012398D01*
X010398Y012258D01*
X010582Y012181D01*
X010781Y012181D01*
X010965Y012258D01*
X011105Y012398D01*
X011181Y012582D01*
X011181Y012781D01*
X011105Y012965D01*
X010965Y013105D01*
X010781Y013181D01*
X010582Y013181D01*
X010781Y013181D01*
X010965Y013258D01*
X011105Y013398D01*
X011181Y013582D01*
X011181Y013781D01*
X011105Y013965D01*
X010965Y014105D01*
X010781Y014181D01*
X010582Y014181D01*
X010781Y014181D01*
X010965Y014258D01*
X011105Y014398D01*
X011181Y014582D01*
X011181Y014781D01*
X011105Y014965D01*
X011088Y014981D01*
X012774Y014981D01*
X012758Y014965D01*
X012681Y014781D01*
X012681Y014582D01*
X012716Y014499D01*
X012007Y013790D01*
X012003Y013791D01*
X011860Y013791D01*
X011727Y013737D01*
X011626Y013635D01*
X011571Y013503D01*
X011571Y013360D01*
X011626Y013227D01*
X011727Y013126D01*
X011860Y013071D01*
X012003Y013071D01*
X012135Y013126D01*
X012237Y013227D01*
X012291Y013360D01*
X012291Y013503D01*
X012290Y013507D01*
X012999Y014216D01*
X013082Y014181D01*
X012898Y014105D01*
X012758Y013965D01*
X012681Y013781D01*
X012681Y013582D01*
X012758Y013398D01*
X012898Y013258D01*
X013082Y013181D01*
X012898Y013105D01*
X012758Y012965D01*
X012681Y012781D01*
X012681Y012582D01*
X012758Y012398D01*
X012898Y012258D01*
X013082Y012181D01*
X012898Y012105D01*
X012758Y011965D01*
X012681Y011781D01*
X012681Y011582D01*
X012758Y011398D01*
X012898Y011258D01*
X013082Y011181D01*
X013281Y011181D01*
X013465Y011258D01*
X013605Y011398D01*
X013640Y011481D01*
X014321Y011481D01*
X014321Y011360D01*
X014376Y011227D01*
X014477Y011126D01*
X014610Y011071D01*
X014753Y011071D01*
X014885Y011126D01*
X014987Y011227D01*
X015041Y011360D01*
X015041Y011503D01*
X015012Y011575D01*
X015135Y011626D01*
X015237Y011727D01*
X015291Y011860D01*
X015291Y012003D01*
X015290Y012007D01*
X015735Y012452D01*
X015758Y012398D01*
X015898Y012258D01*
X016082Y012181D01*
X015898Y012105D01*
X015758Y011965D01*
X015681Y011781D01*
X015681Y011582D01*
X015758Y011398D01*
X015898Y011258D01*
X016082Y011181D01*
X016281Y011181D01*
X016465Y011258D01*
X016605Y011398D01*
X016640Y011481D01*
X016875Y011481D01*
X016876Y011477D01*
X016977Y011376D01*
X017110Y011321D01*
X017253Y011321D01*
X017385Y011376D01*
X017487Y011477D01*
X017541Y011610D01*
X017541Y011753D01*
X017487Y011885D01*
X017385Y011987D01*
X017253Y012041D01*
X017110Y012041D01*
X016977Y011987D01*
X016876Y011885D01*
X016875Y011881D01*
X016640Y011881D01*
X016605Y011965D01*
X016465Y012105D01*
X016281Y012181D01*
X016082Y012181D01*
X016281Y012181D01*
X016465Y012258D01*
X016605Y012398D01*
X016681Y012582D01*
X016681Y012781D01*
X016605Y012965D01*
X016465Y013105D01*
X016281Y013181D01*
X016082Y013181D01*
X015898Y013105D01*
X015758Y012965D01*
X015723Y012881D01*
X015599Y012881D01*
X015481Y012764D01*
X015007Y012290D01*
X015003Y012291D01*
X014860Y012291D01*
X014727Y012237D01*
X014626Y012135D01*
X014571Y012003D01*
X014571Y011860D01*
X014597Y011799D01*
X014514Y011881D01*
X014349Y011881D01*
X013640Y011881D01*
X013605Y011965D01*
X013465Y012105D01*
X013281Y012181D01*
X013082Y012181D01*
X013281Y012181D01*
X013465Y012258D01*
X013605Y012398D01*
X013640Y012481D01*
X013764Y012481D01*
X013881Y012599D01*
X014106Y012823D01*
X014110Y012821D01*
X014253Y012821D01*
X014385Y012876D01*
X014487Y012977D01*
X014541Y013110D01*
X014541Y013253D01*
X014487Y013385D01*
X014385Y013487D01*
X014253Y013541D01*
X014110Y013541D01*
X013977Y013487D01*
X013876Y013385D01*
X013821Y013253D01*
X013821Y013110D01*
X013823Y013106D01*
X013628Y012910D01*
X013605Y012965D01*
X013465Y013105D01*
X013281Y013181D01*
X013082Y013181D01*
X013281Y013181D01*
X013465Y013258D01*
X013605Y013398D01*
X013681Y013582D01*
X013681Y013781D01*
X013605Y013965D01*
X013465Y014105D01*
X013281Y014181D01*
X013082Y014181D01*
X013281Y014181D01*
X013465Y014258D01*
X013605Y014398D01*
X013681Y014582D01*
X013681Y014781D01*
X013605Y014965D01*
X013588Y014981D01*
X015774Y014981D01*
X015758Y014965D01*
X015681Y014781D01*
X015681Y014582D01*
X015758Y014398D01*
X015898Y014258D01*
X016082Y014181D01*
X015898Y014105D01*
X015758Y013965D01*
X015681Y013781D01*
X015681Y013582D01*
X015758Y013398D01*
X015898Y013258D01*
X016082Y013181D01*
X016281Y013181D01*
X016465Y013258D01*
X016605Y013398D01*
X016681Y013582D01*
X016681Y013781D01*
X016605Y013965D01*
X016465Y014105D01*
X016281Y014181D01*
X016082Y014181D01*
X016281Y014181D01*
X016465Y014258D01*
X016605Y014398D01*
X016681Y014582D01*
X016681Y014781D01*
X016605Y014965D01*
X016588Y014981D01*
X017774Y014981D01*
X017758Y014965D01*
X017681Y014781D01*
X017681Y014582D01*
X017758Y014398D01*
X017898Y014258D01*
X018082Y014181D01*
X017898Y014105D01*
X017758Y013965D01*
X017681Y013781D01*
X017681Y013582D01*
X017758Y013398D01*
X017898Y013258D01*
X018082Y013181D01*
X017898Y013105D01*
X017758Y012965D01*
X017681Y012781D01*
X017681Y012582D01*
X017758Y012398D01*
X017898Y012258D01*
X018082Y012181D01*
X017898Y012105D01*
X017758Y011965D01*
X017681Y011781D01*
X017681Y011582D01*
X017758Y011398D01*
X017898Y011258D01*
X018082Y011181D01*
X018281Y011181D01*
X018465Y011258D01*
X018605Y011398D01*
X018681Y011582D01*
X018681Y011781D01*
X018605Y011965D01*
X018465Y012105D01*
X018281Y012181D01*
X018082Y012181D01*
X018281Y012181D01*
X018465Y012258D01*
X018605Y012398D01*
X018681Y012582D01*
X018681Y012781D01*
X018605Y012965D01*
X018465Y013105D01*
X018281Y013181D01*
X018082Y013181D01*
X018281Y013181D01*
X018465Y013258D01*
X018605Y013398D01*
X018681Y013582D01*
X018681Y013781D01*
X018605Y013965D01*
X018465Y014105D01*
X018281Y014181D01*
X018082Y014181D01*
X018281Y014181D01*
X018465Y014258D01*
X018605Y014398D01*
X018681Y014582D01*
X018681Y014781D01*
X018605Y014965D01*
X018588Y014981D01*
X019599Y014981D01*
X020716Y013864D01*
X020681Y013781D01*
X020681Y013582D01*
X020758Y013398D01*
X020898Y013258D01*
X021082Y013181D01*
X021281Y013181D01*
X021465Y013258D01*
X021605Y013398D01*
X021681Y013582D01*
X021681Y013781D01*
X021605Y013965D01*
X021465Y014105D01*
X021281Y014181D01*
X021082Y014181D01*
X020999Y014147D01*
X019764Y015381D01*
X019599Y015381D01*
X018588Y015381D01*
X018605Y015398D01*
X018681Y015582D01*
X018681Y015781D01*
X018605Y015965D01*
X018465Y016105D01*
X018281Y016181D01*
X018082Y016181D01*
X017898Y016105D01*
X017758Y015965D01*
X017723Y015881D01*
X016640Y015881D01*
X016605Y015965D01*
X016465Y016105D01*
X016281Y016181D01*
X016082Y016181D01*
X015898Y016105D01*
X015758Y015965D01*
X015681Y015781D01*
X015681Y015582D01*
X015758Y015398D01*
X015774Y015381D01*
X013588Y015381D01*
X013605Y015398D01*
X013681Y015582D01*
X013681Y015781D01*
X013605Y015965D01*
X013465Y016105D01*
X013281Y016181D01*
X013082Y016181D01*
X012898Y016105D01*
X012758Y015965D01*
X012723Y015881D01*
X011140Y015881D01*
X011105Y015965D01*
X010965Y016105D01*
X010781Y016181D01*
X010582Y016181D01*
X010398Y016105D01*
X010258Y015965D01*
X010181Y015781D01*
X010181Y015582D01*
X010258Y015398D01*
X010274Y015381D01*
X008088Y015381D01*
X008105Y015398D01*
X008181Y015582D01*
X008181Y015781D01*
X008105Y015965D01*
X007965Y016105D01*
X007781Y016181D01*
X007582Y016181D01*
X007781Y016181D01*
X007965Y016258D01*
X008105Y016398D01*
X008181Y016582D01*
X008181Y016781D01*
X008147Y016864D01*
X008264Y016981D01*
X010274Y016981D01*
X010258Y016965D01*
X010181Y016781D01*
X010181Y016582D01*
X010258Y016398D01*
X010398Y016258D01*
X010582Y016181D01*
X010781Y016181D01*
X010965Y016258D01*
X011105Y016398D01*
X011181Y016582D01*
X011181Y016781D01*
X011105Y016965D01*
X011088Y016981D01*
X012774Y016981D01*
X012758Y016965D01*
X012681Y016781D01*
X012681Y016582D01*
X012758Y016398D01*
X012898Y016258D01*
X013082Y016181D01*
X013281Y016181D01*
X013465Y016258D01*
X013605Y016398D01*
X013681Y016582D01*
X013681Y016781D01*
X013647Y016864D01*
X013764Y016981D01*
X015774Y016981D01*
X015758Y016965D01*
X015681Y016781D01*
X015681Y016582D01*
X015758Y016398D01*
X015898Y016258D01*
X016082Y016181D01*
X016281Y016181D01*
X016465Y016258D01*
X016605Y016398D01*
X016681Y016582D01*
X016681Y016781D01*
X016605Y016965D01*
X016588Y016981D01*
X017599Y016981D01*
X017716Y016864D01*
X017681Y016781D01*
X017681Y016582D01*
X017758Y016398D01*
X017898Y016258D01*
X018082Y016181D01*
X018281Y016181D01*
X018465Y016258D01*
X018605Y016398D01*
X018681Y016582D01*
X018681Y016781D01*
X018605Y016965D01*
X018588Y016981D01*
X020774Y016981D01*
X020758Y016965D01*
X020681Y016781D01*
X020681Y016582D01*
X020758Y016398D01*
X020898Y016258D01*
X021082Y016181D01*
X020898Y016105D01*
X020758Y015965D01*
X020681Y015781D01*
X020681Y015582D01*
X020758Y015398D01*
X020898Y015258D01*
X021082Y015181D01*
X020898Y015105D01*
X020758Y014965D01*
X020681Y014781D01*
X020681Y014582D01*
X020758Y014398D01*
X020898Y014258D01*
X021082Y014181D01*
X021281Y014181D01*
X021465Y014258D01*
X021605Y014398D01*
X021681Y014582D01*
X021681Y014781D01*
X021605Y014965D01*
X021465Y015105D01*
X021281Y015181D01*
X021082Y015181D01*
X021281Y015181D01*
X021465Y015258D01*
X021605Y015398D01*
X021681Y015582D01*
X021681Y015781D01*
X021605Y015965D01*
X021465Y016105D01*
X021281Y016181D01*
X021082Y016181D01*
X021281Y016181D01*
X021364Y016216D01*
X021481Y016099D01*
X021599Y015981D01*
X022774Y015981D01*
X022758Y015965D01*
X022681Y015781D01*
X022681Y015582D01*
X022758Y015398D01*
X022898Y015258D01*
X023082Y015181D01*
X022898Y015105D01*
X022758Y014965D01*
X022681Y014781D01*
X022681Y014582D01*
X022758Y014398D01*
X022898Y014258D01*
X023082Y014181D01*
X022898Y014105D01*
X022758Y013965D01*
X022681Y013781D01*
X022681Y013582D01*
X022758Y013398D01*
X022898Y013258D01*
X023082Y013181D01*
X022898Y013105D01*
X022758Y012965D01*
X022681Y012781D01*
X022681Y012582D01*
X022758Y012398D01*
X022898Y012258D01*
X023082Y012181D01*
X023281Y012181D01*
X023465Y012258D01*
X023605Y012398D01*
X023681Y012582D01*
X023681Y012781D01*
X023605Y012965D01*
X023465Y013105D01*
X023281Y013181D01*
X023082Y013181D01*
X023281Y013181D01*
X023465Y013258D01*
X023605Y013398D01*
X023681Y013582D01*
X023681Y013781D01*
X023605Y013965D01*
X023465Y014105D01*
X023281Y014181D01*
X023082Y014181D01*
X023281Y014181D01*
X023465Y014258D01*
X023605Y014398D01*
X023681Y014582D01*
X023681Y014781D01*
X023605Y014965D01*
X023465Y015105D01*
X023281Y015181D01*
X023082Y015181D01*
X023281Y015181D01*
X023465Y015258D01*
X023605Y015398D01*
X023681Y015582D01*
X023681Y015781D01*
X023605Y015965D01*
X023588Y015981D01*
X025599Y015981D01*
X025764Y015981D01*
X025999Y016216D01*
X026082Y016181D01*
X025898Y016105D01*
X025758Y015965D01*
X025681Y015781D01*
X025681Y015582D01*
X025758Y015398D01*
X025898Y015258D01*
X026082Y015181D01*
X025898Y015105D01*
X025758Y014965D01*
X025681Y014781D01*
X025681Y014582D01*
X025758Y014398D01*
X025898Y014258D01*
X026082Y014181D01*
X025898Y014105D01*
X025758Y013965D01*
X025681Y013781D01*
X025681Y013582D01*
X025758Y013398D01*
X025898Y013258D01*
X026082Y013181D01*
X025898Y013105D01*
X025758Y012965D01*
X025681Y012781D01*
X025681Y012582D01*
X025758Y012398D01*
X025898Y012258D01*
X026082Y012181D01*
X026281Y012181D01*
X026465Y012258D01*
X026605Y012398D01*
X026681Y012582D01*
X026681Y012781D01*
X026605Y012965D01*
X026465Y013105D01*
X026281Y013181D01*
X026082Y013181D01*
X026281Y013181D01*
X026465Y013258D01*
X026605Y013398D01*
X026681Y013582D01*
X026681Y013781D01*
X026605Y013965D01*
X026465Y014105D01*
X026281Y014181D01*
X026082Y014181D01*
X026281Y014181D01*
X026465Y014258D01*
X026605Y014398D01*
X026681Y014582D01*
X026681Y014781D01*
X026605Y014965D01*
X026465Y015105D01*
X026281Y015181D01*
X026082Y015181D01*
X026281Y015181D01*
X026465Y015258D01*
X026605Y015398D01*
X026681Y015582D01*
X026681Y015781D01*
X026605Y015965D01*
X026465Y016105D01*
X026281Y016181D01*
X026082Y016181D01*
X026281Y016181D01*
X026465Y016258D01*
X026605Y016398D01*
X026681Y016582D01*
X026681Y016781D01*
X026605Y016965D01*
X026588Y016981D01*
X026662Y016828D02*
X027481Y016828D01*
X027481Y016670D02*
X026681Y016670D01*
X026652Y016511D02*
X027481Y016511D01*
X027481Y016353D02*
X026560Y016353D01*
X026312Y016194D02*
X027481Y016194D01*
X027481Y016036D02*
X026534Y016036D01*
X026641Y015877D02*
X027481Y015877D01*
X027481Y015719D02*
X026681Y015719D01*
X026672Y015560D02*
X027481Y015560D01*
X027481Y015402D02*
X026607Y015402D01*
X026430Y015243D02*
X027481Y015243D01*
X027481Y015084D02*
X026485Y015084D01*
X026621Y014926D02*
X027481Y014926D01*
X027481Y014767D02*
X026681Y014767D01*
X026681Y014609D02*
X027481Y014609D01*
X027481Y014450D02*
X026627Y014450D01*
X026499Y014292D02*
X027481Y014292D01*
X027481Y014133D02*
X026397Y014133D01*
X026595Y013975D02*
X027481Y013975D01*
X027481Y013816D02*
X026667Y013816D01*
X026681Y013658D02*
X027481Y013658D01*
X027481Y013499D02*
X026647Y013499D01*
X026548Y013341D02*
X027481Y013341D01*
X027481Y013182D02*
X026282Y013182D01*
X026081Y013182D02*
X023282Y013182D01*
X023081Y013182D02*
X021282Y013182D01*
X021081Y013182D02*
X018282Y013182D01*
X018081Y013182D02*
X016282Y013182D01*
X016081Y013182D02*
X014541Y013182D01*
X014506Y013023D02*
X015816Y013023D01*
X015582Y012865D02*
X014358Y012865D01*
X013989Y012706D02*
X015424Y012706D01*
X015265Y012548D02*
X013831Y012548D01*
X013596Y012389D02*
X015106Y012389D01*
X015355Y012072D02*
X015865Y012072D01*
X015963Y012231D02*
X015514Y012231D01*
X015672Y012389D02*
X015766Y012389D01*
X016400Y012231D02*
X017963Y012231D01*
X017865Y012072D02*
X016498Y012072D01*
X016626Y011914D02*
X016905Y011914D01*
X017458Y011914D02*
X017736Y011914D01*
X017681Y011755D02*
X017541Y011755D01*
X017536Y011597D02*
X017681Y011597D01*
X017741Y011438D02*
X017447Y011438D01*
X017876Y011279D02*
X016487Y011279D01*
X016427Y011121D02*
X017936Y011121D01*
X017757Y010962D02*
X016606Y010962D01*
X016672Y010804D02*
X017691Y010804D01*
X017681Y010645D02*
X016681Y010645D01*
X016642Y010487D02*
X017721Y010487D01*
X018588Y010381D02*
X018605Y010398D01*
X018681Y010582D01*
X018681Y010781D01*
X018647Y010864D01*
X018764Y010981D01*
X020774Y010981D01*
X020758Y010965D01*
X020681Y010781D01*
X020681Y010582D01*
X020716Y010499D01*
X020599Y010381D01*
X018588Y010381D01*
X018642Y010487D02*
X020704Y010487D01*
X020681Y010645D02*
X018681Y010645D01*
X018672Y010804D02*
X020691Y010804D01*
X020757Y010962D02*
X018745Y010962D01*
X018497Y011279D02*
X018487Y011279D01*
X018622Y011438D02*
X019666Y011438D01*
X019577Y011597D02*
X019564Y011597D01*
X019299Y011597D02*
X018681Y011597D01*
X018681Y011755D02*
X019115Y011755D01*
X019071Y011914D02*
X018626Y011914D01*
X018498Y012072D02*
X019100Y012072D01*
X019222Y012231D02*
X018400Y012231D01*
X018596Y012389D02*
X019606Y012389D01*
X019765Y012548D02*
X018667Y012548D01*
X018681Y012706D02*
X019924Y012706D01*
X020082Y012865D02*
X018647Y012865D01*
X018546Y013023D02*
X020816Y013023D01*
X020815Y013341D02*
X018548Y013341D01*
X018647Y013499D02*
X020716Y013499D01*
X020681Y013658D02*
X018681Y013658D01*
X018667Y013816D02*
X020696Y013816D01*
X020605Y013975D02*
X018595Y013975D01*
X018397Y014133D02*
X020447Y014133D01*
X020288Y014292D02*
X018499Y014292D01*
X018627Y014450D02*
X020130Y014450D01*
X019971Y014609D02*
X018681Y014609D01*
X018681Y014767D02*
X019813Y014767D01*
X019654Y014926D02*
X018621Y014926D01*
X017742Y014926D02*
X016621Y014926D01*
X016681Y014767D02*
X017681Y014767D01*
X017681Y014609D02*
X016681Y014609D01*
X016627Y014450D02*
X017736Y014450D01*
X017864Y014292D02*
X016499Y014292D01*
X016397Y014133D02*
X017966Y014133D01*
X017768Y013975D02*
X016595Y013975D01*
X016667Y013816D02*
X017696Y013816D01*
X017681Y013658D02*
X016681Y013658D01*
X016647Y013499D02*
X017716Y013499D01*
X017815Y013341D02*
X016548Y013341D01*
X015815Y013341D02*
X014505Y013341D01*
X014355Y013499D02*
X015716Y013499D01*
X015681Y013658D02*
X013681Y013658D01*
X013667Y013816D02*
X015696Y013816D01*
X015768Y013975D02*
X013595Y013975D01*
X013397Y014133D02*
X015966Y014133D01*
X015864Y014292D02*
X013499Y014292D01*
X013627Y014450D02*
X015736Y014450D01*
X015681Y014609D02*
X013681Y014609D01*
X013681Y014767D02*
X015681Y014767D01*
X015742Y014926D02*
X013621Y014926D01*
X013607Y015402D02*
X015756Y015402D01*
X015690Y015560D02*
X013672Y015560D01*
X013681Y015719D02*
X015681Y015719D01*
X015721Y015877D02*
X013641Y015877D01*
X013534Y016036D02*
X015829Y016036D01*
X016051Y016194D02*
X013312Y016194D01*
X013051Y016194D02*
X010812Y016194D01*
X010551Y016194D02*
X007812Y016194D01*
X008034Y016036D02*
X010329Y016036D01*
X010221Y015877D02*
X008141Y015877D01*
X008181Y015719D02*
X010181Y015719D01*
X010190Y015560D02*
X008172Y015560D01*
X008107Y015402D02*
X010256Y015402D01*
X011088Y015381D02*
X011105Y015398D01*
X011140Y015481D01*
X012723Y015481D01*
X012758Y015398D01*
X012774Y015381D01*
X011088Y015381D01*
X011107Y015402D02*
X012756Y015402D01*
X012742Y014926D02*
X011121Y014926D01*
X011181Y014767D02*
X012681Y014767D01*
X012681Y014609D02*
X011181Y014609D01*
X011127Y014450D02*
X012668Y014450D01*
X012509Y014292D02*
X010999Y014292D01*
X010897Y014133D02*
X012350Y014133D01*
X012192Y013975D02*
X011095Y013975D01*
X011167Y013816D02*
X012033Y013816D01*
X012291Y013499D02*
X012716Y013499D01*
X012681Y013658D02*
X012440Y013658D01*
X012599Y013816D02*
X012696Y013816D01*
X012757Y013975D02*
X012768Y013975D01*
X012916Y014133D02*
X012966Y014133D01*
X013647Y013499D02*
X014008Y013499D01*
X013858Y013341D02*
X013548Y013341D01*
X013282Y013182D02*
X013821Y013182D01*
X013741Y013023D02*
X013546Y013023D01*
X013081Y013182D02*
X012191Y013182D01*
X012283Y013341D02*
X012815Y013341D01*
X012816Y013023D02*
X011046Y013023D01*
X011147Y012865D02*
X012716Y012865D01*
X012681Y012706D02*
X011181Y012706D01*
X011167Y012548D02*
X012696Y012548D01*
X012766Y012389D02*
X011096Y012389D01*
X010900Y012231D02*
X012963Y012231D01*
X012865Y012072D02*
X010998Y012072D01*
X011126Y011914D02*
X012736Y011914D01*
X012681Y011755D02*
X011181Y011755D01*
X011181Y011597D02*
X012681Y011597D01*
X012741Y011438D02*
X011122Y011438D01*
X010241Y011438D02*
X008122Y011438D01*
X008181Y011597D02*
X010181Y011597D01*
X010181Y011755D02*
X008181Y011755D01*
X008126Y011914D02*
X010236Y011914D01*
X010365Y012072D02*
X007998Y012072D01*
X007900Y012231D02*
X010463Y012231D01*
X010266Y012389D02*
X008096Y012389D01*
X008167Y012548D02*
X010196Y012548D01*
X010181Y012706D02*
X008181Y012706D01*
X008147Y012865D02*
X010216Y012865D01*
X010316Y013023D02*
X008046Y013023D01*
X007782Y013182D02*
X010581Y013182D01*
X010782Y013182D02*
X011672Y013182D01*
X011579Y013341D02*
X011048Y013341D01*
X011147Y013499D02*
X011571Y013499D01*
X011649Y013658D02*
X011181Y013658D01*
X010268Y013975D02*
X008095Y013975D01*
X008167Y013816D02*
X010196Y013816D01*
X010181Y013658D02*
X008181Y013658D01*
X008147Y013499D02*
X010216Y013499D01*
X010315Y013341D02*
X008048Y013341D01*
X007897Y014133D02*
X010466Y014133D01*
X010364Y014292D02*
X007999Y014292D01*
X008127Y014450D02*
X010236Y014450D01*
X010181Y014609D02*
X008181Y014609D01*
X008181Y014767D02*
X010181Y014767D01*
X010242Y014926D02*
X008121Y014926D01*
X011034Y016036D02*
X012829Y016036D01*
X012803Y016353D02*
X011060Y016353D01*
X011152Y016511D02*
X012711Y016511D01*
X012681Y016670D02*
X011181Y016670D01*
X011162Y016828D02*
X012701Y016828D01*
X013662Y016828D02*
X015701Y016828D01*
X015681Y016670D02*
X013681Y016670D01*
X013652Y016511D02*
X015711Y016511D01*
X015803Y016353D02*
X013560Y016353D01*
X013764Y016981D02*
X013764Y016981D01*
X013681Y017463D02*
X015731Y017463D01*
X015681Y017621D02*
X013681Y017621D01*
X013681Y017780D02*
X015681Y017780D01*
X015747Y017938D02*
X013681Y017938D01*
X013672Y018097D02*
X015890Y018097D01*
X016473Y018097D02*
X017691Y018097D01*
X017681Y017938D02*
X016616Y017938D01*
X016681Y017780D02*
X017681Y017780D01*
X017681Y017621D02*
X016681Y017621D01*
X016632Y017463D02*
X017681Y017463D01*
X017599Y016981D02*
X017599Y016981D01*
X017701Y016828D02*
X016662Y016828D01*
X016681Y016670D02*
X017681Y016670D01*
X017711Y016511D02*
X016652Y016511D01*
X016560Y016353D02*
X017803Y016353D01*
X018051Y016194D02*
X016312Y016194D01*
X016534Y016036D02*
X017829Y016036D01*
X018312Y016194D02*
X021051Y016194D01*
X021312Y016194D02*
X021386Y016194D01*
X021534Y016036D02*
X021544Y016036D01*
X021641Y015877D02*
X022721Y015877D01*
X022681Y015719D02*
X021681Y015719D01*
X021672Y015560D02*
X022690Y015560D01*
X022756Y015402D02*
X021607Y015402D01*
X021430Y015243D02*
X022933Y015243D01*
X022877Y015084D02*
X021485Y015084D01*
X021621Y014926D02*
X022742Y014926D01*
X022681Y014767D02*
X021681Y014767D01*
X021681Y014609D02*
X022681Y014609D01*
X022736Y014450D02*
X021627Y014450D01*
X021499Y014292D02*
X022864Y014292D01*
X022966Y014133D02*
X021397Y014133D01*
X021595Y013975D02*
X022768Y013975D01*
X022696Y013816D02*
X021667Y013816D01*
X021681Y013658D02*
X022681Y013658D01*
X022716Y013499D02*
X021647Y013499D01*
X021548Y013341D02*
X022815Y013341D01*
X023548Y013341D02*
X025815Y013341D01*
X025716Y013499D02*
X023647Y013499D01*
X023681Y013658D02*
X025681Y013658D01*
X025696Y013816D02*
X023667Y013816D01*
X023595Y013975D02*
X025768Y013975D01*
X025966Y014133D02*
X023397Y014133D01*
X023499Y014292D02*
X025864Y014292D01*
X025736Y014450D02*
X023627Y014450D01*
X023681Y014609D02*
X025681Y014609D01*
X025681Y014767D02*
X023681Y014767D01*
X023621Y014926D02*
X025742Y014926D01*
X025877Y015084D02*
X023485Y015084D01*
X023430Y015243D02*
X025933Y015243D01*
X025756Y015402D02*
X023607Y015402D01*
X023672Y015560D02*
X025690Y015560D01*
X025681Y015719D02*
X023681Y015719D01*
X023641Y015877D02*
X025721Y015877D01*
X025819Y016036D02*
X025829Y016036D01*
X025977Y016194D02*
X026051Y016194D01*
X025716Y016499D02*
X025599Y016381D01*
X023588Y016381D01*
X023605Y016398D01*
X023681Y016582D01*
X023681Y016781D01*
X023605Y016965D01*
X023588Y016981D01*
X025774Y016981D01*
X025758Y016965D01*
X025681Y016781D01*
X025681Y016582D01*
X025716Y016499D01*
X025711Y016511D02*
X023652Y016511D01*
X023681Y016670D02*
X025681Y016670D01*
X025701Y016828D02*
X023662Y016828D01*
X022716Y016864D02*
X022681Y016781D01*
X022681Y016582D01*
X022758Y016398D01*
X022774Y016381D01*
X021764Y016381D01*
X021647Y016499D01*
X021681Y016582D01*
X021681Y016781D01*
X021605Y016965D01*
X021588Y016981D01*
X022599Y016981D01*
X022716Y016864D01*
X022701Y016828D02*
X021662Y016828D01*
X021681Y016670D02*
X022681Y016670D01*
X022711Y016511D02*
X021652Y016511D01*
X020803Y016353D02*
X018560Y016353D01*
X018652Y016511D02*
X020711Y016511D01*
X020681Y016670D02*
X018681Y016670D01*
X018662Y016828D02*
X020701Y016828D01*
X020731Y017463D02*
X018681Y017463D01*
X018681Y017621D02*
X020681Y017621D01*
X020681Y017780D02*
X018681Y017780D01*
X018681Y017938D02*
X020747Y017938D01*
X020890Y018097D02*
X018672Y018097D01*
X021473Y018097D02*
X022691Y018097D01*
X022681Y017938D02*
X021616Y017938D01*
X021681Y017780D02*
X022681Y017780D01*
X022681Y017621D02*
X021681Y017621D01*
X021632Y017463D02*
X022681Y017463D01*
X022599Y016981D02*
X022599Y016981D01*
X023681Y017463D02*
X025731Y017463D01*
X025681Y017621D02*
X023681Y017621D01*
X023681Y017780D02*
X025681Y017780D01*
X025747Y017938D02*
X023681Y017938D01*
X023672Y018097D02*
X025890Y018097D01*
X028588Y016981D02*
X030774Y016981D01*
X030758Y016965D01*
X030681Y016781D01*
X030681Y016582D01*
X030758Y016398D01*
X030898Y016258D01*
X031082Y016181D01*
X030898Y016105D01*
X030758Y015965D01*
X030681Y015781D01*
X030681Y015582D01*
X030758Y015398D01*
X030898Y015258D01*
X031082Y015181D01*
X030898Y015105D01*
X030758Y014965D01*
X030723Y014881D01*
X029099Y014881D01*
X028981Y014764D01*
X028981Y014599D01*
X028981Y012238D01*
X028977Y012237D01*
X028876Y012135D01*
X028821Y012003D01*
X028821Y011860D01*
X028876Y011727D01*
X028977Y011626D01*
X029110Y011571D01*
X029253Y011571D01*
X029385Y011626D01*
X029487Y011727D01*
X029541Y011860D01*
X029541Y012003D01*
X029487Y012135D01*
X029385Y012237D01*
X029381Y012238D01*
X029381Y014481D01*
X030723Y014481D01*
X030758Y014398D01*
X030898Y014258D01*
X031082Y014181D01*
X030898Y014105D01*
X030758Y013965D01*
X030681Y013781D01*
X030681Y013582D01*
X030758Y013398D01*
X030898Y013258D01*
X031082Y013181D01*
X030898Y013105D01*
X030758Y012965D01*
X030681Y012781D01*
X030681Y012582D01*
X030758Y012398D01*
X030898Y012258D01*
X031082Y012181D01*
X030898Y012105D01*
X030758Y011965D01*
X030681Y011781D01*
X030681Y011714D01*
X030007Y011040D01*
X030003Y011041D01*
X029860Y011041D01*
X029727Y010987D01*
X029626Y010885D01*
X029571Y010753D01*
X029571Y010610D01*
X029626Y010477D01*
X029722Y010381D01*
X028588Y010381D01*
X028605Y010398D01*
X028681Y010582D01*
X028681Y010781D01*
X028605Y010965D01*
X028465Y011105D01*
X028281Y011181D01*
X028082Y011181D01*
X027999Y011147D01*
X027881Y011264D01*
X027881Y011274D01*
X027898Y011258D01*
X028082Y011181D01*
X028281Y011181D01*
X028465Y011258D01*
X028605Y011398D01*
X028681Y011582D01*
X028681Y011781D01*
X028605Y011965D01*
X028465Y012105D01*
X028281Y012181D01*
X028082Y012181D01*
X027898Y012105D01*
X027881Y012088D01*
X027881Y012274D01*
X027898Y012258D01*
X028082Y012181D01*
X028281Y012181D01*
X028465Y012258D01*
X028605Y012398D01*
X028681Y012582D01*
X028681Y012781D01*
X028605Y012965D01*
X028465Y013105D01*
X028281Y013181D01*
X028082Y013181D01*
X027898Y013105D01*
X027881Y013088D01*
X027881Y013274D01*
X027898Y013258D01*
X028082Y013181D01*
X028281Y013181D01*
X028465Y013258D01*
X028605Y013398D01*
X028681Y013582D01*
X028681Y013781D01*
X028605Y013965D01*
X028465Y014105D01*
X028281Y014181D01*
X028082Y014181D01*
X027898Y014105D01*
X027881Y014088D01*
X027881Y014274D01*
X027898Y014258D01*
X028082Y014181D01*
X028281Y014181D01*
X028465Y014258D01*
X028605Y014398D01*
X028681Y014582D01*
X028681Y014781D01*
X028605Y014965D01*
X028465Y015105D01*
X028281Y015181D01*
X028082Y015181D01*
X027898Y015105D01*
X027881Y015088D01*
X027881Y015274D01*
X027898Y015258D01*
X028082Y015181D01*
X028281Y015181D01*
X028465Y015258D01*
X028605Y015398D01*
X028681Y015582D01*
X028681Y015781D01*
X028605Y015965D01*
X028465Y016105D01*
X028281Y016181D01*
X028082Y016181D01*
X027898Y016105D01*
X027881Y016088D01*
X027881Y016274D01*
X027898Y016258D01*
X028082Y016181D01*
X028281Y016181D01*
X028465Y016258D01*
X028605Y016398D01*
X028681Y016582D01*
X028681Y016781D01*
X028605Y016965D01*
X028588Y016981D01*
X028662Y016828D02*
X030701Y016828D01*
X030681Y016670D02*
X028681Y016670D01*
X028652Y016511D02*
X030711Y016511D01*
X030803Y016353D02*
X028560Y016353D01*
X028312Y016194D02*
X031051Y016194D01*
X031082Y016181D02*
X031281Y016181D01*
X031082Y016181D01*
X031281Y016181D02*
X031465Y016105D01*
X031605Y015965D01*
X031681Y015781D01*
X031681Y015582D01*
X031605Y015398D01*
X031465Y015258D01*
X031281Y015181D01*
X031082Y015181D01*
X031281Y015181D01*
X031465Y015105D01*
X031605Y014965D01*
X031681Y014781D01*
X031681Y014582D01*
X031605Y014398D01*
X031465Y014258D01*
X031281Y014181D01*
X031082Y014181D01*
X031281Y014181D01*
X031465Y014105D01*
X031605Y013965D01*
X031681Y013781D01*
X031681Y013582D01*
X031605Y013398D01*
X031465Y013258D01*
X031281Y013181D01*
X031082Y013181D01*
X031281Y013181D01*
X031465Y013105D01*
X031605Y012965D01*
X031681Y012781D01*
X031681Y012582D01*
X031605Y012398D01*
X031465Y012258D01*
X031281Y012181D01*
X031082Y012181D01*
X031281Y012181D01*
X031465Y012105D01*
X031605Y011965D01*
X031681Y011781D01*
X031681Y011582D01*
X031605Y011398D01*
X031465Y011258D01*
X031281Y011181D01*
X031082Y011181D01*
X030898Y011105D01*
X030758Y010965D01*
X030681Y010781D01*
X030681Y010582D01*
X030716Y010499D01*
X030599Y010381D01*
X030140Y010381D01*
X030237Y010477D01*
X030291Y010610D01*
X030291Y010753D01*
X030290Y010757D01*
X030844Y011311D01*
X030898Y011258D01*
X031082Y011181D01*
X031281Y011181D01*
X031465Y011105D01*
X031605Y010965D01*
X031681Y010781D01*
X031681Y010582D01*
X031605Y010398D01*
X031588Y010381D01*
X033274Y010381D01*
X033258Y010398D01*
X033181Y010582D01*
X033181Y010781D01*
X033258Y010965D01*
X033398Y011105D01*
X033582Y011181D01*
X033781Y011181D01*
X033864Y011147D01*
X033981Y011264D01*
X033981Y011274D01*
X033965Y011258D01*
X033781Y011181D01*
X033582Y011181D01*
X033398Y011258D01*
X033258Y011398D01*
X033181Y011582D01*
X033181Y011781D01*
X033258Y011965D01*
X033398Y012105D01*
X033582Y012181D01*
X033781Y012181D01*
X033965Y012105D01*
X033981Y012088D01*
X033981Y012274D01*
X033965Y012258D01*
X033781Y012181D01*
X033582Y012181D01*
X033398Y012258D01*
X033258Y012398D01*
X033181Y012582D01*
X033181Y012781D01*
X033258Y012965D01*
X033398Y013105D01*
X033582Y013181D01*
X033781Y013181D01*
X033965Y013105D01*
X033981Y013088D01*
X033981Y013274D01*
X033965Y013258D01*
X033781Y013181D01*
X033582Y013181D01*
X033398Y013258D01*
X033258Y013398D01*
X033181Y013582D01*
X033181Y013781D01*
X033258Y013965D01*
X033398Y014105D01*
X033582Y014181D01*
X033781Y014181D01*
X033965Y014105D01*
X033981Y014088D01*
X033981Y014274D01*
X033965Y014258D01*
X033781Y014181D01*
X033582Y014181D01*
X033398Y014258D01*
X033258Y014398D01*
X033181Y014582D01*
X033181Y014781D01*
X033258Y014965D01*
X033398Y015105D01*
X033582Y015181D01*
X033781Y015181D01*
X033965Y015105D01*
X033981Y015088D01*
X033981Y015274D01*
X033965Y015258D01*
X033781Y015181D01*
X033582Y015181D01*
X033398Y015258D01*
X033258Y015398D01*
X033181Y015582D01*
X033181Y015781D01*
X033258Y015965D01*
X033398Y016105D01*
X033582Y016181D01*
X033781Y016181D01*
X033965Y016105D01*
X033981Y016088D01*
X033981Y016274D01*
X033965Y016258D01*
X033781Y016181D01*
X033582Y016181D01*
X033398Y016258D01*
X033258Y016398D01*
X033181Y016582D01*
X033181Y016781D01*
X033216Y016864D01*
X033099Y016981D01*
X031588Y016981D01*
X031605Y016965D01*
X031681Y016781D01*
X031681Y016582D01*
X031605Y016398D01*
X031465Y016258D01*
X031281Y016181D01*
X031312Y016194D02*
X033551Y016194D01*
X033812Y016194D02*
X033981Y016194D01*
X033329Y016036D02*
X031534Y016036D01*
X031641Y015877D02*
X033221Y015877D01*
X033181Y015719D02*
X031681Y015719D01*
X031672Y015560D02*
X033190Y015560D01*
X033256Y015402D02*
X031607Y015402D01*
X031430Y015243D02*
X033433Y015243D01*
X033377Y015084D02*
X031485Y015084D01*
X031621Y014926D02*
X033242Y014926D01*
X033181Y014767D02*
X031681Y014767D01*
X031681Y014609D02*
X033181Y014609D01*
X033236Y014450D02*
X031627Y014450D01*
X031499Y014292D02*
X033364Y014292D01*
X033466Y014133D02*
X031397Y014133D01*
X031595Y013975D02*
X033268Y013975D01*
X033196Y013816D02*
X031667Y013816D01*
X031681Y013658D02*
X033181Y013658D01*
X033216Y013499D02*
X031647Y013499D01*
X031548Y013341D02*
X033315Y013341D01*
X033581Y013182D02*
X031282Y013182D01*
X031081Y013182D02*
X029381Y013182D01*
X029381Y013341D02*
X030815Y013341D01*
X030716Y013499D02*
X029381Y013499D01*
X029381Y013658D02*
X030681Y013658D01*
X030696Y013816D02*
X029381Y013816D01*
X029381Y013975D02*
X030768Y013975D01*
X030966Y014133D02*
X029381Y014133D01*
X029381Y014292D02*
X030864Y014292D01*
X030736Y014450D02*
X029381Y014450D01*
X028981Y014450D02*
X028627Y014450D01*
X028681Y014609D02*
X028981Y014609D01*
X028985Y014767D02*
X028681Y014767D01*
X028621Y014926D02*
X030742Y014926D01*
X030877Y015084D02*
X028485Y015084D01*
X028430Y015243D02*
X030933Y015243D01*
X030756Y015402D02*
X028607Y015402D01*
X028672Y015560D02*
X030690Y015560D01*
X030681Y015719D02*
X028681Y015719D01*
X028641Y015877D02*
X030721Y015877D01*
X030829Y016036D02*
X028534Y016036D01*
X028051Y016194D02*
X027881Y016194D01*
X027881Y015243D02*
X027933Y015243D01*
X028499Y014292D02*
X028981Y014292D01*
X028981Y014133D02*
X028397Y014133D01*
X028595Y013975D02*
X028981Y013975D01*
X028981Y013816D02*
X028667Y013816D01*
X028681Y013658D02*
X028981Y013658D01*
X028981Y013499D02*
X028647Y013499D01*
X028548Y013341D02*
X028981Y013341D01*
X028981Y013182D02*
X028282Y013182D01*
X028081Y013182D02*
X027881Y013182D01*
X027481Y013023D02*
X026546Y013023D01*
X026647Y012865D02*
X027481Y012865D01*
X027481Y012706D02*
X026681Y012706D01*
X026667Y012548D02*
X027481Y012548D01*
X027481Y012389D02*
X026596Y012389D01*
X026400Y012231D02*
X027481Y012231D01*
X027481Y012072D02*
X026498Y012072D01*
X026626Y011914D02*
X027481Y011914D01*
X027481Y011755D02*
X026681Y011755D01*
X026681Y011597D02*
X027481Y011597D01*
X027481Y011438D02*
X026622Y011438D01*
X025741Y011438D02*
X023622Y011438D01*
X023681Y011597D02*
X025681Y011597D01*
X025681Y011755D02*
X023681Y011755D01*
X023626Y011914D02*
X025736Y011914D01*
X025865Y012072D02*
X023498Y012072D01*
X023400Y012231D02*
X025963Y012231D01*
X025766Y012389D02*
X023596Y012389D01*
X023667Y012548D02*
X025696Y012548D01*
X025681Y012706D02*
X023681Y012706D01*
X023647Y012865D02*
X025716Y012865D01*
X025816Y013023D02*
X023546Y013023D01*
X022816Y013023D02*
X021546Y013023D01*
X021647Y012865D02*
X022716Y012865D01*
X022681Y012706D02*
X021681Y012706D01*
X021667Y012548D02*
X022696Y012548D01*
X022766Y012389D02*
X021596Y012389D01*
X021400Y012231D02*
X022963Y012231D01*
X022865Y012072D02*
X021498Y012072D01*
X021626Y011914D02*
X022736Y011914D01*
X022681Y011755D02*
X021681Y011755D01*
X021681Y011597D02*
X022681Y011597D01*
X022741Y011438D02*
X021622Y011438D01*
X020774Y011381D02*
X020140Y011381D01*
X020237Y011477D01*
X020238Y011481D01*
X020723Y011481D01*
X020758Y011398D01*
X020774Y011381D01*
X020741Y011438D02*
X020197Y011438D01*
X020208Y011914D02*
X020736Y011914D01*
X020865Y012072D02*
X019855Y012072D01*
X020014Y012231D02*
X020963Y012231D01*
X020766Y012389D02*
X020172Y012389D01*
X017766Y012389D02*
X016596Y012389D01*
X016667Y012548D02*
X017696Y012548D01*
X017681Y012706D02*
X016681Y012706D01*
X016647Y012865D02*
X017716Y012865D01*
X017816Y013023D02*
X016546Y013023D01*
X014722Y012231D02*
X013400Y012231D01*
X013498Y012072D02*
X014600Y012072D01*
X014571Y011914D02*
X013626Y011914D01*
X013622Y011438D02*
X014321Y011438D01*
X014355Y011279D02*
X013487Y011279D01*
X013427Y011121D02*
X014490Y011121D01*
X014872Y011121D02*
X015936Y011121D01*
X015876Y011279D02*
X015008Y011279D01*
X015041Y011438D02*
X015741Y011438D01*
X015681Y011597D02*
X015064Y011597D01*
X015248Y011755D02*
X015681Y011755D01*
X015736Y011914D02*
X015291Y011914D01*
X016622Y011438D02*
X016916Y011438D01*
X015757Y010962D02*
X013606Y010962D01*
X013672Y010804D02*
X015691Y010804D01*
X015681Y010645D02*
X013681Y010645D01*
X013642Y010487D02*
X015704Y010487D01*
X015774Y009981D02*
X015758Y009965D01*
X015681Y009781D01*
X015681Y009582D01*
X015716Y009499D01*
X015599Y009381D01*
X015599Y009381D01*
X013588Y009381D01*
X013605Y009398D01*
X013681Y009582D01*
X013681Y009781D01*
X013605Y009965D01*
X013588Y009981D01*
X015599Y009981D01*
X015774Y009981D01*
X015711Y009853D02*
X013652Y009853D01*
X013681Y009694D02*
X015681Y009694D01*
X015701Y009535D02*
X013662Y009535D01*
X013588Y008981D02*
X015599Y008981D01*
X015774Y008981D01*
X015758Y008965D01*
X015681Y008781D01*
X015681Y008582D01*
X015716Y008499D01*
X015599Y008381D01*
X013588Y008381D01*
X013605Y008398D01*
X013681Y008582D01*
X013681Y008781D01*
X013605Y008965D01*
X013588Y008981D01*
X013632Y008901D02*
X015731Y008901D01*
X015681Y008743D02*
X013681Y008743D01*
X013681Y008584D02*
X015681Y008584D01*
X015643Y008426D02*
X013617Y008426D01*
X012774Y008381D02*
X011264Y008381D01*
X011147Y008499D01*
X011181Y008582D01*
X011181Y008781D01*
X011105Y008965D01*
X011088Y008981D01*
X012774Y008981D01*
X012758Y008965D01*
X012681Y008781D01*
X012681Y008582D01*
X012758Y008398D01*
X012774Y008381D01*
X012746Y008426D02*
X011220Y008426D01*
X011181Y008584D02*
X012681Y008584D01*
X012681Y008743D02*
X011181Y008743D01*
X011132Y008901D02*
X012731Y008901D01*
X012774Y009381D02*
X011088Y009381D01*
X011105Y009398D01*
X011181Y009582D01*
X011181Y009781D01*
X011105Y009965D01*
X011088Y009981D01*
X012774Y009981D01*
X012758Y009965D01*
X012681Y009781D01*
X012681Y009582D01*
X012758Y009398D01*
X012774Y009381D01*
X012701Y009535D02*
X011162Y009535D01*
X011181Y009694D02*
X012681Y009694D01*
X012711Y009853D02*
X011152Y009853D01*
X010274Y009981D02*
X010258Y009965D01*
X010181Y009781D01*
X010181Y009582D01*
X010216Y009499D01*
X010099Y009381D01*
X010099Y009381D01*
X008088Y009381D01*
X008105Y009398D01*
X008181Y009582D01*
X008181Y009781D01*
X008105Y009965D01*
X008088Y009981D01*
X010099Y009981D01*
X010274Y009981D01*
X010211Y009853D02*
X008152Y009853D01*
X008181Y009694D02*
X010181Y009694D01*
X010201Y009535D02*
X008162Y009535D01*
X008088Y008981D02*
X010099Y008981D01*
X010274Y008981D01*
X010258Y008965D01*
X010223Y008881D01*
X008140Y008881D01*
X008105Y008965D01*
X008088Y008981D01*
X008131Y008901D02*
X010231Y008901D01*
X010246Y008426D02*
X008117Y008426D01*
X007974Y008267D02*
X010389Y008267D01*
X010971Y008109D02*
X007391Y008109D01*
X007233Y007950D02*
X023441Y007950D01*
X023337Y007791D02*
X007074Y007791D01*
X007041Y007633D02*
X023321Y007633D01*
X023379Y007474D02*
X006984Y007474D01*
X006379Y007474D02*
X005421Y007474D01*
X005580Y007316D02*
X024981Y007316D01*
X024981Y007474D02*
X023984Y007474D01*
X024981Y007157D02*
X005738Y007157D01*
X005897Y006999D02*
X024981Y006999D01*
X024981Y006840D02*
X007305Y006840D01*
X007464Y006682D02*
X024981Y006682D01*
X024981Y006523D02*
X007622Y006523D01*
X007781Y006365D02*
X024981Y006365D01*
X024981Y006206D02*
X007940Y006206D01*
X008098Y006048D02*
X024981Y006048D01*
X024981Y005889D02*
X008257Y005889D01*
X008415Y005730D02*
X024981Y005730D01*
X024981Y005572D02*
X008574Y005572D01*
X008732Y005413D02*
X024981Y005413D01*
X024981Y005255D02*
X008891Y005255D01*
X009049Y005096D02*
X024981Y005096D01*
X024981Y004938D02*
X009208Y004938D01*
X009366Y004779D02*
X024981Y004779D01*
X024981Y004621D02*
X009525Y004621D01*
X009684Y004462D02*
X023453Y004462D01*
X023342Y004304D02*
X009842Y004304D01*
X010001Y004145D02*
X023321Y004145D01*
X023372Y003986D02*
X010159Y003986D01*
X009911Y003669D02*
X007976Y003669D01*
X008135Y003511D02*
X009332Y003511D01*
X009201Y003352D02*
X008293Y003352D01*
X008452Y003194D02*
X009201Y003194D01*
X009095Y003035D02*
X008610Y003035D01*
X008769Y002877D02*
X008873Y002877D01*
X008362Y002718D02*
X003826Y002718D01*
X003793Y002705D02*
X003968Y002777D01*
X004102Y002911D01*
X004175Y003087D01*
X004175Y003276D01*
X004102Y003451D01*
X003968Y003586D01*
X003793Y003658D01*
X002970Y003658D01*
X002794Y003586D01*
X002660Y003451D01*
X002588Y003276D01*
X002588Y003087D01*
X002660Y002911D01*
X002794Y002777D01*
X002970Y002705D01*
X003793Y002705D01*
X003994Y002560D02*
X008520Y002560D01*
X008679Y002401D02*
X004123Y002401D01*
X004175Y002242D02*
X008837Y002242D01*
X008996Y002084D02*
X004174Y002084D01*
X004108Y001925D02*
X009259Y001925D01*
X010060Y001881D02*
X010161Y001983D01*
X010161Y002380D01*
X010060Y002481D01*
X010099Y002481D01*
X010201Y002379D01*
X010201Y001983D01*
X010303Y001881D01*
X010060Y001881D01*
X010104Y001925D02*
X010259Y001925D01*
X010201Y002084D02*
X010161Y002084D01*
X010161Y002242D02*
X010201Y002242D01*
X010179Y002401D02*
X010141Y002401D01*
X010428Y002718D02*
X010466Y002718D01*
X010307Y002877D02*
X010269Y002877D01*
X010201Y003035D02*
X010161Y003035D01*
X010161Y003194D02*
X010201Y003194D01*
X010201Y003352D02*
X010161Y003352D01*
X010069Y003511D02*
X010031Y003511D01*
X009752Y003828D02*
X007818Y003828D01*
X007659Y003986D02*
X009594Y003986D01*
X009435Y004145D02*
X007501Y004145D01*
X007342Y004304D02*
X009276Y004304D01*
X009118Y004462D02*
X007184Y004462D01*
X007025Y004621D02*
X008959Y004621D01*
X008801Y004779D02*
X006866Y004779D01*
X006708Y004938D02*
X008642Y004938D01*
X008484Y005096D02*
X006549Y005096D01*
X006391Y005255D02*
X008325Y005255D01*
X008167Y005413D02*
X006232Y005413D01*
X006074Y005572D02*
X008008Y005572D01*
X007850Y005730D02*
X005915Y005730D01*
X005757Y005889D02*
X007691Y005889D01*
X007532Y006048D02*
X005598Y006048D01*
X005440Y006206D02*
X007374Y006206D01*
X007215Y006365D02*
X005281Y006365D01*
X005122Y006523D02*
X005807Y006523D01*
X005648Y006682D02*
X004964Y006682D01*
X004805Y006840D02*
X005490Y006840D01*
X005331Y006999D02*
X004647Y006999D01*
X004488Y007157D02*
X005173Y007157D01*
X005014Y007316D02*
X004381Y007316D01*
X004381Y007474D02*
X004856Y007474D01*
X004697Y007633D02*
X004381Y007633D01*
X004354Y007791D02*
X004538Y007791D01*
X004380Y007950D02*
X004119Y007950D01*
X004175Y008109D02*
X004221Y008109D01*
X004629Y008267D02*
X006984Y008267D01*
X006826Y008109D02*
X004787Y008109D01*
X004946Y007950D02*
X006441Y007950D01*
X006337Y007791D02*
X005104Y007791D01*
X005263Y007633D02*
X006321Y007633D01*
X007143Y008426D02*
X004470Y008426D01*
X004311Y008584D02*
X007181Y008584D01*
X007181Y008743D02*
X004153Y008743D01*
X004092Y008901D02*
X007231Y008901D01*
X007201Y009535D02*
X004019Y009535D01*
X002744Y009535D02*
X002631Y009535D01*
X002631Y009694D02*
X007181Y009694D01*
X007211Y009853D02*
X005578Y009853D01*
X005285Y009853D02*
X002631Y009853D01*
X002631Y010011D02*
X005112Y010011D01*
X005071Y010170D02*
X002631Y010170D01*
X002631Y010328D02*
X005103Y010328D01*
X005227Y010487D02*
X005360Y010541D01*
X005503Y010541D01*
X005635Y010487D01*
X007191Y010804D02*
X002631Y010804D01*
X002631Y010962D02*
X007257Y010962D01*
X007436Y011121D02*
X002631Y011121D01*
X002631Y011279D02*
X007376Y011279D01*
X007241Y011438D02*
X002631Y011438D01*
X001981Y011438D02*
X001881Y011438D01*
X001881Y011597D02*
X001981Y011597D01*
X001981Y011755D02*
X001881Y011755D01*
X001881Y011279D02*
X001981Y011279D01*
X001981Y011121D02*
X001881Y011121D01*
X001881Y010962D02*
X001981Y010962D01*
X001981Y010804D02*
X001881Y010804D01*
X001881Y010645D02*
X001981Y010645D01*
X001981Y010487D02*
X001881Y010487D01*
X001881Y010328D02*
X001981Y010328D01*
X001981Y010170D02*
X001881Y010170D01*
X001881Y010011D02*
X001981Y010011D01*
X001981Y009853D02*
X001881Y009853D01*
X001881Y009694D02*
X001981Y009694D01*
X001981Y009535D02*
X001881Y009535D01*
X001881Y009377D02*
X001981Y009377D01*
X001981Y009218D02*
X001881Y009218D01*
X001881Y009060D02*
X001981Y009060D01*
X001981Y008901D02*
X001881Y008901D01*
X001881Y008743D02*
X001981Y008743D01*
X001981Y008584D02*
X001881Y008584D01*
X001881Y008426D02*
X001981Y008426D01*
X002063Y008267D02*
X001881Y008267D01*
X001881Y008109D02*
X002221Y008109D01*
X002380Y007950D02*
X001881Y007950D01*
X001881Y007791D02*
X002538Y007791D01*
X002697Y007633D02*
X001881Y007633D01*
X001881Y007474D02*
X002683Y007474D01*
X002604Y007316D02*
X001881Y007316D01*
X001881Y007157D02*
X002588Y007157D01*
X002624Y006999D02*
X001881Y006999D01*
X001881Y006840D02*
X002731Y006840D01*
X002794Y006586D02*
X002660Y006451D01*
X002588Y006276D01*
X002588Y006087D01*
X002660Y005911D01*
X002794Y005777D01*
X002970Y005705D01*
X003793Y005705D01*
X003968Y005777D01*
X004102Y005911D01*
X004175Y006087D01*
X004175Y006276D01*
X004102Y006451D01*
X003968Y006586D01*
X003793Y006658D01*
X002970Y006658D01*
X002794Y006586D01*
X002732Y006523D02*
X001881Y006523D01*
X001881Y006365D02*
X002624Y006365D01*
X002588Y006206D02*
X001881Y006206D01*
X001881Y006048D02*
X002604Y006048D01*
X002683Y005889D02*
X001881Y005889D01*
X001881Y005730D02*
X002907Y005730D01*
X002970Y005658D02*
X002794Y005586D01*
X002660Y005451D01*
X002588Y005276D01*
X002588Y005087D01*
X002660Y004911D01*
X002794Y004777D01*
X002970Y004705D01*
X003793Y004705D01*
X003968Y004777D01*
X004102Y004911D01*
X004175Y005087D01*
X004175Y005276D01*
X004102Y005451D01*
X003968Y005586D01*
X003793Y005658D01*
X002970Y005658D01*
X002781Y005572D02*
X001881Y005572D01*
X001881Y005413D02*
X002645Y005413D01*
X002588Y005255D02*
X001881Y005255D01*
X001881Y005096D02*
X002588Y005096D01*
X002649Y004938D02*
X001881Y004938D01*
X001881Y004779D02*
X002792Y004779D01*
X002879Y004621D02*
X001881Y004621D01*
X001881Y004462D02*
X002671Y004462D01*
X002660Y004451D02*
X002588Y004276D01*
X002588Y004087D01*
X002660Y003911D01*
X002794Y003777D01*
X002970Y003705D01*
X003793Y003705D01*
X003968Y003777D01*
X004102Y003911D01*
X004175Y004087D01*
X004175Y004276D01*
X004102Y004451D01*
X003968Y004586D01*
X003793Y004658D01*
X002970Y004658D01*
X002794Y004586D01*
X002660Y004451D01*
X002599Y004304D02*
X001881Y004304D01*
X001881Y004145D02*
X002588Y004145D01*
X002629Y003986D02*
X001881Y003986D01*
X001881Y003828D02*
X002744Y003828D01*
X002720Y003511D02*
X001881Y003511D01*
X001881Y003669D02*
X007411Y003669D01*
X007569Y003511D02*
X004043Y003511D01*
X004144Y003352D02*
X007728Y003352D01*
X007886Y003194D02*
X004175Y003194D01*
X004154Y003035D02*
X008045Y003035D01*
X008203Y002877D02*
X004068Y002877D01*
X002937Y002718D02*
X002178Y002718D01*
X002336Y002560D02*
X002768Y002560D01*
X002639Y002401D02*
X002495Y002401D01*
X002695Y002877D02*
X002019Y002877D01*
X001881Y003035D02*
X002609Y003035D01*
X002588Y003194D02*
X001881Y003194D01*
X001881Y003352D02*
X002619Y003352D01*
X004019Y003828D02*
X007252Y003828D01*
X007094Y003986D02*
X004134Y003986D01*
X004175Y004145D02*
X006935Y004145D01*
X006776Y004304D02*
X004164Y004304D01*
X004092Y004462D02*
X006618Y004462D01*
X006459Y004621D02*
X003884Y004621D01*
X003970Y004779D02*
X006301Y004779D01*
X006142Y004938D02*
X004113Y004938D01*
X004175Y005096D02*
X005984Y005096D01*
X005825Y005255D02*
X004175Y005255D01*
X004118Y005413D02*
X005667Y005413D01*
X005508Y005572D02*
X003982Y005572D01*
X003856Y005730D02*
X005350Y005730D01*
X005191Y005889D02*
X004080Y005889D01*
X004159Y006048D02*
X005032Y006048D01*
X004874Y006206D02*
X004175Y006206D01*
X004139Y006365D02*
X004715Y006365D01*
X004557Y006523D02*
X004031Y006523D01*
X004031Y006840D02*
X004240Y006840D01*
X004398Y006682D02*
X001881Y006682D01*
X002597Y008299D02*
X002381Y008514D01*
X002381Y008949D01*
X002769Y008561D01*
X002660Y008451D01*
X002597Y008299D01*
X002650Y008426D02*
X002470Y008426D01*
X002381Y008584D02*
X002746Y008584D01*
X002587Y008743D02*
X002381Y008743D01*
X002381Y008901D02*
X002429Y008901D01*
X008088Y010381D02*
X008105Y010398D01*
X008181Y010582D01*
X008181Y010781D01*
X008147Y010864D01*
X008264Y010981D01*
X010274Y010981D01*
X010258Y010965D01*
X010181Y010781D01*
X010181Y010582D01*
X010216Y010499D01*
X010099Y010381D01*
X008088Y010381D01*
X008142Y010487D02*
X010204Y010487D01*
X010181Y010645D02*
X008181Y010645D01*
X008172Y010804D02*
X010191Y010804D01*
X010257Y010962D02*
X008245Y010962D01*
X007997Y011279D02*
X007987Y011279D01*
X011088Y010981D02*
X012599Y010981D01*
X012716Y010864D01*
X012681Y010781D01*
X012681Y010582D01*
X012758Y010398D01*
X012774Y010381D01*
X011088Y010381D01*
X011105Y010398D01*
X011181Y010582D01*
X011181Y010781D01*
X011105Y010965D01*
X011088Y010981D01*
X011106Y010962D02*
X012618Y010962D01*
X012691Y010804D02*
X011172Y010804D01*
X011181Y010645D02*
X012681Y010645D01*
X012721Y010487D02*
X011142Y010487D01*
X012866Y011279D02*
X012876Y011279D01*
X016588Y009981D02*
X016605Y009965D01*
X016681Y009781D01*
X016681Y009582D01*
X016605Y009398D01*
X016588Y009381D01*
X017774Y009381D01*
X017758Y009398D01*
X017681Y009582D01*
X017681Y009781D01*
X017758Y009965D01*
X017774Y009981D01*
X016588Y009981D01*
X016652Y009853D02*
X017711Y009853D01*
X017681Y009694D02*
X016681Y009694D01*
X016662Y009535D02*
X017701Y009535D01*
X017774Y008981D02*
X016588Y008981D01*
X016605Y008965D01*
X016681Y008781D01*
X016681Y008582D01*
X016605Y008398D01*
X016588Y008381D01*
X017774Y008381D01*
X017758Y008398D01*
X017681Y008582D01*
X017681Y008781D01*
X017758Y008965D01*
X017774Y008981D01*
X017731Y008901D02*
X016632Y008901D01*
X016681Y008743D02*
X017681Y008743D01*
X017681Y008584D02*
X016681Y008584D01*
X016617Y008426D02*
X017746Y008426D01*
X018588Y008381D02*
X018605Y008398D01*
X018640Y008481D01*
X020723Y008481D01*
X020758Y008398D01*
X020774Y008381D01*
X018588Y008381D01*
X018617Y008426D02*
X020746Y008426D01*
X020723Y008881D02*
X018640Y008881D01*
X018605Y008965D01*
X018588Y008981D01*
X020599Y008981D01*
X020774Y008981D01*
X020758Y008965D01*
X020723Y008881D01*
X020731Y008901D02*
X018631Y008901D01*
X018588Y009381D02*
X018605Y009398D01*
X018681Y009582D01*
X018681Y009781D01*
X018605Y009965D01*
X018588Y009981D01*
X020599Y009981D01*
X020774Y009981D01*
X020758Y009965D01*
X020681Y009781D01*
X020681Y009582D01*
X020716Y009499D01*
X020599Y009381D01*
X020599Y009381D01*
X018588Y009381D01*
X018662Y009535D02*
X020701Y009535D01*
X020681Y009694D02*
X018681Y009694D01*
X018652Y009853D02*
X020711Y009853D01*
X021588Y009981D02*
X021605Y009965D01*
X021681Y009781D01*
X021681Y009582D01*
X021605Y009398D01*
X021588Y009381D01*
X022774Y009381D01*
X022758Y009398D01*
X022681Y009582D01*
X022681Y009781D01*
X022758Y009965D01*
X022774Y009981D01*
X021588Y009981D01*
X021652Y009853D02*
X022711Y009853D01*
X022681Y009694D02*
X021681Y009694D01*
X021662Y009535D02*
X022701Y009535D01*
X023588Y009381D02*
X023605Y009398D01*
X023681Y009582D01*
X023681Y009781D01*
X023605Y009965D01*
X023588Y009981D01*
X025599Y009981D01*
X025774Y009981D01*
X025758Y009965D01*
X025681Y009781D01*
X025681Y009582D01*
X025716Y009499D01*
X025599Y009381D01*
X023588Y009381D01*
X023662Y009535D02*
X025701Y009535D01*
X025681Y009694D02*
X023681Y009694D01*
X023652Y009853D02*
X025711Y009853D01*
X025599Y010381D02*
X023588Y010381D01*
X023605Y010398D01*
X023681Y010582D01*
X023681Y010781D01*
X023605Y010965D01*
X023588Y010981D01*
X025774Y010981D01*
X025758Y010965D01*
X025681Y010781D01*
X025681Y010582D01*
X025716Y010499D01*
X025599Y010381D01*
X025704Y010487D02*
X023642Y010487D01*
X023681Y010645D02*
X025681Y010645D01*
X025691Y010804D02*
X023672Y010804D01*
X023606Y010962D02*
X025757Y010962D01*
X026588Y010981D02*
X027599Y010981D01*
X027716Y010864D01*
X027681Y010781D01*
X027681Y010582D01*
X027758Y010398D01*
X027774Y010381D01*
X026588Y010381D01*
X026605Y010398D01*
X026681Y010582D01*
X026681Y010781D01*
X026605Y010965D01*
X026588Y010981D01*
X026606Y010962D02*
X027618Y010962D01*
X027691Y010804D02*
X026672Y010804D01*
X026681Y010645D02*
X027681Y010645D01*
X027721Y010487D02*
X026642Y010487D01*
X026588Y009981D02*
X027774Y009981D01*
X027758Y009965D01*
X027681Y009781D01*
X027681Y009582D01*
X027758Y009398D01*
X027774Y009381D01*
X026588Y009381D01*
X026605Y009398D01*
X026681Y009582D01*
X026681Y009781D01*
X026605Y009965D01*
X026588Y009981D01*
X026652Y009853D02*
X027711Y009853D01*
X027681Y009694D02*
X026681Y009694D01*
X026662Y009535D02*
X027701Y009535D01*
X027774Y008981D02*
X026588Y008981D01*
X026605Y008965D01*
X026640Y008881D01*
X027723Y008881D01*
X027758Y008965D01*
X027774Y008981D01*
X027731Y008901D02*
X026631Y008901D01*
X025774Y008981D02*
X025758Y008965D01*
X025723Y008881D01*
X023640Y008881D01*
X023605Y008965D01*
X023588Y008981D01*
X025599Y008981D01*
X025774Y008981D01*
X025731Y008901D02*
X023631Y008901D01*
X023640Y008481D02*
X023605Y008398D01*
X023588Y008381D01*
X025774Y008381D01*
X025758Y008398D01*
X025723Y008481D01*
X023640Y008481D01*
X023617Y008426D02*
X025746Y008426D01*
X026588Y008381D02*
X026605Y008398D01*
X026640Y008481D01*
X027723Y008481D01*
X027758Y008398D01*
X027774Y008381D01*
X026588Y008381D01*
X026617Y008426D02*
X027746Y008426D01*
X028588Y008381D02*
X028605Y008398D01*
X028640Y008481D01*
X030723Y008481D01*
X030758Y008398D01*
X030774Y008381D01*
X028588Y008381D01*
X028617Y008426D02*
X030746Y008426D01*
X031588Y008381D02*
X031605Y008398D01*
X031681Y008582D01*
X031681Y008781D01*
X031605Y008965D01*
X031588Y008981D01*
X033274Y008981D01*
X033258Y008965D01*
X033181Y008781D01*
X033181Y008582D01*
X033258Y008398D01*
X033274Y008381D01*
X031588Y008381D01*
X031617Y008426D02*
X033246Y008426D01*
X033181Y008584D02*
X031681Y008584D01*
X031681Y008743D02*
X033181Y008743D01*
X033231Y008901D02*
X031632Y008901D01*
X030774Y008981D02*
X030758Y008965D01*
X030723Y008881D01*
X028640Y008881D01*
X028605Y008965D01*
X028588Y008981D01*
X030599Y008981D01*
X030774Y008981D01*
X030731Y008901D02*
X028631Y008901D01*
X028588Y009381D02*
X028605Y009398D01*
X028681Y009582D01*
X028681Y009781D01*
X028605Y009965D01*
X028588Y009981D01*
X030599Y009981D01*
X030774Y009981D01*
X030758Y009965D01*
X030681Y009781D01*
X030681Y009582D01*
X030716Y009499D01*
X030599Y009381D01*
X028588Y009381D01*
X028662Y009535D02*
X030701Y009535D01*
X030681Y009694D02*
X028681Y009694D01*
X028652Y009853D02*
X030711Y009853D01*
X031588Y009981D02*
X033274Y009981D01*
X033258Y009965D01*
X033181Y009781D01*
X033181Y009582D01*
X033258Y009398D01*
X033274Y009381D01*
X031588Y009381D01*
X031605Y009398D01*
X031681Y009582D01*
X031681Y009781D01*
X031605Y009965D01*
X031588Y009981D01*
X031652Y009853D02*
X033211Y009853D01*
X033181Y009694D02*
X031681Y009694D01*
X031662Y009535D02*
X033201Y009535D01*
X034088Y009381D02*
X034105Y009398D01*
X034181Y009582D01*
X034181Y009781D01*
X034105Y009965D01*
X034088Y009981D01*
X036099Y009981D01*
X036274Y009981D01*
X036258Y009965D01*
X036181Y009781D01*
X036181Y009582D01*
X036216Y009499D01*
X036099Y009381D01*
X034088Y009381D01*
X034162Y009535D02*
X036201Y009535D01*
X036181Y009694D02*
X034181Y009694D01*
X034152Y009853D02*
X036211Y009853D01*
X036099Y010381D02*
X034088Y010381D01*
X034105Y010398D01*
X034181Y010582D01*
X034181Y010781D01*
X034147Y010864D01*
X034264Y010981D01*
X036274Y010981D01*
X036258Y010965D01*
X036181Y010781D01*
X036181Y010582D01*
X036216Y010499D01*
X036099Y010381D01*
X036204Y010487D02*
X034142Y010487D01*
X034181Y010645D02*
X036181Y010645D01*
X036191Y010804D02*
X034172Y010804D01*
X034245Y010962D02*
X036257Y010962D01*
X037088Y010981D02*
X038099Y010981D01*
X038216Y010864D01*
X038181Y010781D01*
X038181Y010582D01*
X038258Y010398D01*
X038274Y010381D01*
X037088Y010381D01*
X037105Y010398D01*
X037181Y010582D01*
X037181Y010781D01*
X037105Y010965D01*
X037088Y010981D01*
X037106Y010962D02*
X038118Y010962D01*
X038191Y010804D02*
X037172Y010804D01*
X037181Y010645D02*
X038181Y010645D01*
X038221Y010487D02*
X037142Y010487D01*
X037088Y009981D02*
X038274Y009981D01*
X038258Y009965D01*
X038181Y009781D01*
X038181Y009582D01*
X038258Y009398D01*
X038274Y009381D01*
X037088Y009381D01*
X037105Y009398D01*
X037181Y009582D01*
X037181Y009781D01*
X037105Y009965D01*
X037088Y009981D01*
X037152Y009853D02*
X038211Y009853D01*
X038181Y009694D02*
X037181Y009694D01*
X037162Y009535D02*
X038201Y009535D01*
X039088Y009381D02*
X039105Y009398D01*
X039181Y009582D01*
X039181Y009781D01*
X039105Y009965D01*
X039088Y009981D01*
X041099Y009981D01*
X041274Y009981D01*
X041258Y009965D01*
X041181Y009781D01*
X041181Y009582D01*
X041216Y009499D01*
X041099Y009381D01*
X039088Y009381D01*
X039162Y009535D02*
X041201Y009535D01*
X041181Y009694D02*
X039181Y009694D01*
X039152Y009853D02*
X041211Y009853D01*
X041099Y010381D02*
X039088Y010381D01*
X039105Y010398D01*
X039181Y010582D01*
X039181Y010781D01*
X039105Y010965D01*
X039088Y010981D01*
X041274Y010981D01*
X041258Y010965D01*
X041181Y010781D01*
X041181Y010582D01*
X041216Y010499D01*
X041099Y010381D01*
X041204Y010487D02*
X039142Y010487D01*
X039181Y010645D02*
X041181Y010645D01*
X041191Y010804D02*
X039172Y010804D01*
X039106Y010962D02*
X041257Y010962D01*
X042088Y010981D02*
X043099Y010981D01*
X043216Y010864D01*
X043181Y010781D01*
X043181Y010582D01*
X043258Y010398D01*
X043274Y010381D01*
X042088Y010381D01*
X042105Y010398D01*
X042181Y010582D01*
X042181Y010781D01*
X042105Y010965D01*
X042088Y010981D01*
X042106Y010962D02*
X043118Y010962D01*
X043191Y010804D02*
X042172Y010804D01*
X042181Y010645D02*
X043181Y010645D01*
X043221Y010487D02*
X042142Y010487D01*
X042088Y009981D02*
X043274Y009981D01*
X043258Y009965D01*
X043181Y009781D01*
X043181Y009582D01*
X043258Y009398D01*
X043274Y009381D01*
X042088Y009381D01*
X042105Y009398D01*
X042181Y009582D01*
X042181Y009781D01*
X042105Y009965D01*
X042088Y009981D01*
X042152Y009853D02*
X043211Y009853D01*
X043181Y009694D02*
X042181Y009694D01*
X042162Y009535D02*
X043201Y009535D01*
X043274Y008981D02*
X042088Y008981D01*
X042105Y008965D01*
X042140Y008881D01*
X043223Y008881D01*
X043258Y008965D01*
X043274Y008981D01*
X043231Y008901D02*
X042131Y008901D01*
X042140Y008481D02*
X043223Y008481D01*
X043258Y008398D01*
X043274Y008381D01*
X042088Y008381D01*
X042105Y008398D01*
X042140Y008481D01*
X042117Y008426D02*
X043246Y008426D01*
X043191Y007950D02*
X023922Y007950D01*
X022774Y008381D02*
X021588Y008381D01*
X021605Y008398D01*
X021640Y008481D01*
X022723Y008481D01*
X022758Y008398D01*
X022774Y008381D01*
X022746Y008426D02*
X021617Y008426D01*
X021640Y008881D02*
X021605Y008965D01*
X021588Y008981D01*
X022774Y008981D01*
X022758Y008965D01*
X022723Y008881D01*
X021640Y008881D01*
X021631Y008901D02*
X022731Y008901D01*
X025354Y007791D02*
X043087Y007791D01*
X043071Y007633D02*
X025381Y007633D01*
X025381Y007474D02*
X042942Y007474D01*
X042783Y007316D02*
X025381Y007316D01*
X025381Y007157D02*
X042625Y007157D01*
X043733Y007474D02*
X044965Y007474D01*
X045397Y007474D02*
X047481Y007474D01*
X047481Y007316D02*
X045515Y007316D01*
X045541Y007157D02*
X047481Y007157D01*
X047481Y006999D02*
X045495Y006999D01*
X043791Y007633D02*
X047481Y007633D01*
X047481Y007791D02*
X043775Y007791D01*
X043672Y007950D02*
X047481Y007950D01*
X047088Y008381D02*
X047105Y008398D01*
X047181Y008582D01*
X047181Y008781D01*
X047105Y008965D01*
X047088Y008981D01*
X048274Y008981D01*
X048258Y008965D01*
X048181Y008781D01*
X048181Y008582D01*
X048216Y008499D01*
X048099Y008381D01*
X047088Y008381D01*
X047117Y008426D02*
X048143Y008426D01*
X048181Y008584D02*
X047181Y008584D01*
X047181Y008743D02*
X048181Y008743D01*
X048231Y008901D02*
X047132Y008901D01*
X046274Y008981D02*
X046258Y008965D01*
X046223Y008881D01*
X044140Y008881D01*
X044105Y008965D01*
X044088Y008981D01*
X046099Y008981D01*
X046274Y008981D01*
X046231Y008901D02*
X044131Y008901D01*
X044140Y008481D02*
X046223Y008481D01*
X046258Y008398D01*
X046274Y008381D01*
X044088Y008381D01*
X044105Y008398D01*
X044140Y008481D01*
X044117Y008426D02*
X046246Y008426D01*
X047297Y006523D02*
X047481Y006523D01*
X047481Y005889D02*
X047398Y005889D01*
X047481Y005730D02*
X047013Y005730D01*
X046855Y005572D02*
X047481Y005572D01*
X047481Y005413D02*
X046696Y005413D01*
X046538Y005255D02*
X047481Y005255D01*
X047481Y005096D02*
X046379Y005096D01*
X046221Y004938D02*
X047481Y004938D01*
X047481Y004779D02*
X046062Y004779D01*
X045903Y004621D02*
X047481Y004621D01*
X047481Y004462D02*
X045745Y004462D01*
X045586Y004304D02*
X047481Y004304D01*
X047481Y004145D02*
X045428Y004145D01*
X045661Y003352D02*
X045701Y003352D01*
X045701Y003194D02*
X045661Y003194D01*
X045661Y003035D02*
X045701Y003035D01*
X045807Y002877D02*
X045555Y002877D01*
X046661Y002984D02*
X046661Y003321D01*
X046701Y003321D01*
X046701Y002983D01*
X046983Y002701D01*
X047380Y002701D01*
X047481Y002803D01*
X047481Y002764D01*
X047379Y002661D01*
X046983Y002661D01*
X046881Y002560D01*
X046881Y002764D01*
X046764Y002881D01*
X046661Y002984D01*
X046661Y003035D02*
X046701Y003035D01*
X046701Y003194D02*
X046661Y003194D01*
X046769Y002877D02*
X046807Y002877D01*
X046881Y002718D02*
X046966Y002718D01*
X047397Y002718D02*
X047435Y002718D01*
X047842Y002560D02*
X047881Y002560D01*
X047881Y002718D02*
X047966Y002718D01*
X047722Y002401D02*
X047684Y002401D01*
X047701Y002242D02*
X047661Y002242D01*
X047661Y002084D02*
X047701Y002084D01*
X047759Y001925D02*
X047604Y001925D01*
X046481Y001803D02*
X046481Y001764D01*
X046481Y001631D01*
X046381Y001631D01*
X046381Y001703D01*
X046481Y001803D01*
X046481Y001767D02*
X046446Y001767D01*
X046039Y001291D02*
X000361Y001291D01*
X010897Y002718D02*
X011466Y002718D01*
X011483Y002701D02*
X011880Y002701D01*
X012161Y002983D01*
X012161Y003380D01*
X011880Y003661D01*
X011483Y003661D01*
X011201Y003380D01*
X011201Y002983D01*
X011483Y002701D01*
X011381Y002560D02*
X010982Y002560D01*
X011141Y002401D02*
X011222Y002401D01*
X011201Y002242D02*
X011161Y002242D01*
X011161Y002084D02*
X011201Y002084D01*
X011259Y001925D02*
X011104Y001925D01*
X012104Y001925D02*
X012259Y001925D01*
X012201Y002084D02*
X012161Y002084D01*
X012161Y002242D02*
X012201Y002242D01*
X012222Y002401D02*
X012141Y002401D01*
X011982Y002560D02*
X012381Y002560D01*
X012483Y002701D02*
X012880Y002701D01*
X013161Y002983D01*
X013161Y003380D01*
X012880Y003661D01*
X012483Y003661D01*
X012201Y003380D01*
X012201Y002983D01*
X012483Y002701D01*
X012466Y002718D02*
X011897Y002718D01*
X012055Y002877D02*
X012307Y002877D01*
X012201Y003035D02*
X012161Y003035D01*
X012161Y003194D02*
X012201Y003194D01*
X012201Y003352D02*
X012161Y003352D01*
X012031Y003511D02*
X012332Y003511D01*
X011332Y003511D02*
X011031Y003511D01*
X011161Y003352D02*
X011201Y003352D01*
X011201Y003194D02*
X011161Y003194D01*
X011161Y003035D02*
X011201Y003035D01*
X011307Y002877D02*
X011055Y002877D01*
X012897Y002718D02*
X013466Y002718D01*
X013483Y002701D02*
X013880Y002701D01*
X014161Y002983D01*
X014161Y003380D01*
X013880Y003661D01*
X013483Y003661D01*
X013201Y003380D01*
X013201Y002983D01*
X013483Y002701D01*
X013381Y002560D02*
X012982Y002560D01*
X013141Y002401D02*
X013222Y002401D01*
X013201Y002242D02*
X013161Y002242D01*
X013161Y002084D02*
X013201Y002084D01*
X013259Y001925D02*
X013104Y001925D01*
X014104Y001925D02*
X014259Y001925D01*
X014201Y002084D02*
X014161Y002084D01*
X014161Y002242D02*
X014201Y002242D01*
X014222Y002401D02*
X014141Y002401D01*
X013982Y002560D02*
X014381Y002560D01*
X014483Y002701D02*
X014880Y002701D01*
X015161Y002983D01*
X015161Y003380D01*
X014880Y003661D01*
X014483Y003661D01*
X014201Y003380D01*
X014201Y002983D01*
X014483Y002701D01*
X014466Y002718D02*
X013897Y002718D01*
X014055Y002877D02*
X014307Y002877D01*
X014201Y003035D02*
X014161Y003035D01*
X014161Y003194D02*
X014201Y003194D01*
X014201Y003352D02*
X014161Y003352D01*
X014031Y003511D02*
X014332Y003511D01*
X015031Y003511D02*
X015332Y003511D01*
X015201Y003380D02*
X015483Y003661D01*
X015880Y003661D01*
X016161Y003380D01*
X016161Y002983D01*
X015880Y002701D01*
X015483Y002701D01*
X015201Y002983D01*
X015201Y003380D01*
X015201Y003352D02*
X015161Y003352D01*
X015161Y003194D02*
X015201Y003194D01*
X015201Y003035D02*
X015161Y003035D01*
X015055Y002877D02*
X015307Y002877D01*
X015466Y002718D02*
X014897Y002718D01*
X014982Y002560D02*
X015381Y002560D01*
X015222Y002401D02*
X015141Y002401D01*
X015161Y002242D02*
X015201Y002242D01*
X015201Y002084D02*
X015161Y002084D01*
X015104Y001925D02*
X015259Y001925D01*
X016104Y001925D02*
X016259Y001925D01*
X016201Y002084D02*
X016161Y002084D01*
X016161Y002242D02*
X016201Y002242D01*
X016222Y002401D02*
X016141Y002401D01*
X015982Y002560D02*
X016381Y002560D01*
X016483Y002701D02*
X016880Y002701D01*
X017161Y002983D01*
X017161Y003380D01*
X016880Y003661D01*
X016483Y003661D01*
X016201Y003380D01*
X016201Y002983D01*
X016483Y002701D01*
X016466Y002718D02*
X015897Y002718D01*
X016055Y002877D02*
X016307Y002877D01*
X016201Y003035D02*
X016161Y003035D01*
X016161Y003194D02*
X016201Y003194D01*
X016201Y003352D02*
X016161Y003352D01*
X016031Y003511D02*
X016332Y003511D01*
X017031Y003511D02*
X017332Y003511D01*
X017201Y003380D02*
X017483Y003661D01*
X017880Y003661D01*
X018161Y003380D01*
X018161Y002983D01*
X017880Y002701D01*
X017483Y002701D01*
X017201Y002983D01*
X017201Y003380D01*
X017201Y003352D02*
X017161Y003352D01*
X017161Y003194D02*
X017201Y003194D01*
X017201Y003035D02*
X017161Y003035D01*
X017055Y002877D02*
X017307Y002877D01*
X017466Y002718D02*
X016897Y002718D01*
X016982Y002560D02*
X017381Y002560D01*
X017222Y002401D02*
X017141Y002401D01*
X017161Y002242D02*
X017201Y002242D01*
X017201Y002084D02*
X017161Y002084D01*
X017104Y001925D02*
X017259Y001925D01*
X018104Y001925D02*
X018259Y001925D01*
X018201Y002084D02*
X018161Y002084D01*
X018161Y002242D02*
X018201Y002242D01*
X018222Y002401D02*
X018141Y002401D01*
X017982Y002560D02*
X018381Y002560D01*
X018483Y002701D02*
X018880Y002701D01*
X019161Y002983D01*
X019161Y003380D01*
X018880Y003661D01*
X018483Y003661D01*
X018201Y003380D01*
X018201Y002983D01*
X018483Y002701D01*
X018466Y002718D02*
X017897Y002718D01*
X018055Y002877D02*
X018307Y002877D01*
X018201Y003035D02*
X018161Y003035D01*
X018161Y003194D02*
X018201Y003194D01*
X018201Y003352D02*
X018161Y003352D01*
X018031Y003511D02*
X018332Y003511D01*
X019031Y003511D02*
X019332Y003511D01*
X019201Y003352D02*
X019161Y003352D01*
X019161Y003194D02*
X019201Y003194D01*
X019201Y003035D02*
X019161Y003035D01*
X019055Y002877D02*
X019307Y002877D01*
X019466Y002718D02*
X018897Y002718D01*
X018982Y002560D02*
X019381Y002560D01*
X019222Y002401D02*
X019141Y002401D01*
X019161Y002242D02*
X019201Y002242D01*
X019201Y002084D02*
X019161Y002084D01*
X019104Y001925D02*
X019259Y001925D01*
X020055Y002877D02*
X020307Y002877D01*
X020201Y003035D02*
X020161Y003035D01*
X020161Y003194D02*
X020201Y003194D01*
X020201Y003352D02*
X020161Y003352D01*
X020031Y003511D02*
X020332Y003511D01*
X023910Y004462D02*
X024981Y004462D01*
X024981Y004304D02*
X024020Y004304D01*
X024041Y004145D02*
X024981Y004145D01*
X024981Y003986D02*
X024159Y003986D01*
X024318Y003828D02*
X024981Y003828D01*
X024981Y003669D02*
X024476Y003669D01*
X025381Y003669D02*
X027887Y003669D01*
X028045Y003828D02*
X025381Y003828D01*
X025381Y003986D02*
X028204Y003986D01*
X028362Y004145D02*
X025381Y004145D01*
X025381Y004304D02*
X028521Y004304D01*
X028679Y004462D02*
X025381Y004462D01*
X025381Y004621D02*
X028838Y004621D01*
X028996Y004779D02*
X025381Y004779D01*
X025381Y004938D02*
X029155Y004938D01*
X029313Y005096D02*
X025381Y005096D01*
X025381Y005255D02*
X029472Y005255D01*
X029631Y005413D02*
X025381Y005413D01*
X025381Y005572D02*
X029789Y005572D01*
X029948Y005730D02*
X025381Y005730D01*
X025381Y005889D02*
X030106Y005889D01*
X030265Y006048D02*
X025381Y006048D01*
X025381Y006206D02*
X030423Y006206D01*
X030582Y006365D02*
X025381Y006365D01*
X025381Y006523D02*
X030740Y006523D01*
X030821Y006682D02*
X025381Y006682D01*
X025381Y006840D02*
X030858Y006840D01*
X031007Y006999D02*
X025381Y006999D01*
X029879Y005096D02*
X038563Y005096D01*
X038481Y004938D02*
X029721Y004938D01*
X029562Y004779D02*
X038481Y004779D01*
X040519Y003986D02*
X040704Y003986D01*
X040678Y004145D02*
X040862Y004145D01*
X040836Y004304D02*
X041021Y004304D01*
X040995Y004462D02*
X041179Y004462D01*
X041153Y004621D02*
X041338Y004621D01*
X041312Y004779D02*
X041496Y004779D01*
X041471Y004938D02*
X041655Y004938D01*
X041629Y005096D02*
X041813Y005096D01*
X041788Y005255D02*
X041972Y005255D01*
X041946Y005413D02*
X042131Y005413D01*
X042105Y005572D02*
X042289Y005572D01*
X042323Y005606D02*
X040379Y003661D01*
X040194Y003661D01*
X042347Y005814D01*
X042321Y005753D01*
X042321Y005610D01*
X042323Y005606D01*
X042321Y005730D02*
X042263Y005730D01*
X040545Y003828D02*
X040361Y003828D01*
X040387Y003669D02*
X040202Y003669D01*
X042531Y003511D02*
X042832Y003511D01*
X042701Y003352D02*
X042661Y003352D01*
X042661Y003194D02*
X042701Y003194D01*
X042701Y003035D02*
X042661Y003035D01*
X042555Y002877D02*
X042807Y002877D01*
X050641Y002401D02*
X050722Y002401D01*
X050701Y002242D02*
X050661Y002242D01*
X050661Y002084D02*
X050701Y002084D01*
X050759Y001925D02*
X050604Y001925D01*
X052141Y008109D02*
X052231Y008109D01*
X048376Y011279D02*
X047758Y011279D01*
X047791Y011438D02*
X048241Y011438D01*
X048181Y011597D02*
X047879Y011597D01*
X048038Y011755D02*
X048181Y011755D01*
X048196Y011914D02*
X048236Y011914D01*
X048355Y012072D02*
X048365Y012072D01*
X048315Y013341D02*
X047048Y013341D01*
X047147Y013499D02*
X048216Y013499D01*
X048181Y013658D02*
X047181Y013658D01*
X047167Y013816D02*
X048196Y013816D01*
X048268Y013975D02*
X047095Y013975D01*
X043466Y014133D02*
X041897Y014133D01*
X041999Y014292D02*
X043364Y014292D01*
X043236Y014450D02*
X042127Y014450D01*
X042181Y014609D02*
X043181Y014609D01*
X043181Y014767D02*
X042181Y014767D01*
X042121Y014926D02*
X043242Y014926D01*
X043377Y015084D02*
X041985Y015084D01*
X041930Y015243D02*
X043433Y015243D01*
X043256Y015402D02*
X042107Y015402D01*
X042172Y015560D02*
X043190Y015560D01*
X043181Y015719D02*
X042181Y015719D01*
X042141Y015877D02*
X043221Y015877D01*
X041433Y015243D02*
X038930Y015243D01*
X038985Y015084D02*
X041377Y015084D01*
X041242Y014926D02*
X039121Y014926D01*
X039181Y014767D02*
X041181Y014767D01*
X041181Y014609D02*
X039181Y014609D01*
X039127Y014450D02*
X041236Y014450D01*
X041364Y014292D02*
X038999Y014292D01*
X038897Y014133D02*
X041466Y014133D01*
X041268Y013975D02*
X039095Y013975D01*
X039167Y013816D02*
X041196Y013816D01*
X041181Y013658D02*
X039181Y013658D01*
X039147Y013499D02*
X041216Y013499D01*
X041315Y013341D02*
X039048Y013341D01*
X038315Y013341D02*
X037048Y013341D01*
X037147Y013499D02*
X038216Y013499D01*
X038181Y013658D02*
X037181Y013658D01*
X037167Y013816D02*
X038196Y013816D01*
X038268Y013975D02*
X037095Y013975D01*
X036897Y014133D02*
X038466Y014133D01*
X038364Y014292D02*
X036999Y014292D01*
X037127Y014450D02*
X038236Y014450D01*
X038181Y014609D02*
X037181Y014609D01*
X037181Y014767D02*
X038181Y014767D01*
X038242Y014926D02*
X037121Y014926D01*
X036985Y015084D02*
X038377Y015084D01*
X038433Y015243D02*
X036930Y015243D01*
X037107Y015402D02*
X038256Y015402D01*
X038190Y015560D02*
X037172Y015560D01*
X037181Y015719D02*
X038181Y015719D01*
X038221Y015877D02*
X037141Y015877D01*
X037044Y016036D02*
X037034Y016036D01*
X036886Y016194D02*
X036812Y016194D01*
X039141Y015877D02*
X041221Y015877D01*
X041181Y015719D02*
X039181Y015719D01*
X039172Y015560D02*
X041190Y015560D01*
X041256Y015402D02*
X039107Y015402D01*
X042095Y013975D02*
X043268Y013975D01*
X043196Y013816D02*
X042167Y013816D01*
X042181Y013658D02*
X043181Y013658D01*
X043216Y013499D02*
X043105Y013499D01*
X042758Y013499D02*
X042147Y013499D01*
X042048Y013341D02*
X042608Y013341D01*
X041316Y013023D02*
X039046Y013023D01*
X038316Y013023D02*
X037046Y013023D01*
X037147Y012865D02*
X038216Y012865D01*
X038181Y012706D02*
X037181Y012706D01*
X037167Y012548D02*
X038196Y012548D01*
X038266Y012389D02*
X037096Y012389D01*
X036900Y012231D02*
X038463Y012231D01*
X038365Y012072D02*
X036998Y012072D01*
X037126Y011914D02*
X038236Y011914D01*
X038181Y011755D02*
X037181Y011755D01*
X037181Y011597D02*
X038181Y011597D01*
X038241Y011438D02*
X037122Y011438D01*
X036241Y011438D02*
X034381Y011438D01*
X034381Y011597D02*
X036181Y011597D01*
X036181Y011755D02*
X034381Y011755D01*
X034381Y011914D02*
X036236Y011914D01*
X036365Y012072D02*
X034381Y012072D01*
X034381Y012231D02*
X036463Y012231D01*
X036266Y012389D02*
X034381Y012389D01*
X034381Y012548D02*
X036196Y012548D01*
X036181Y012706D02*
X034381Y012706D01*
X034381Y012865D02*
X036216Y012865D01*
X036316Y013023D02*
X034381Y013023D01*
X033981Y013182D02*
X033782Y013182D01*
X033316Y013023D02*
X031546Y013023D01*
X031647Y012865D02*
X033216Y012865D01*
X033181Y012706D02*
X031681Y012706D01*
X031667Y012548D02*
X033196Y012548D01*
X033266Y012389D02*
X031596Y012389D01*
X031400Y012231D02*
X033463Y012231D01*
X033365Y012072D02*
X031498Y012072D01*
X031626Y011914D02*
X033236Y011914D01*
X033181Y011755D02*
X031681Y011755D01*
X031681Y011597D02*
X033181Y011597D01*
X033241Y011438D02*
X031622Y011438D01*
X031487Y011279D02*
X033376Y011279D01*
X033436Y011121D02*
X031427Y011121D01*
X031606Y010962D02*
X033257Y010962D01*
X033191Y010804D02*
X031672Y010804D01*
X031681Y010645D02*
X033181Y010645D01*
X033221Y010487D02*
X031642Y010487D01*
X030704Y010487D02*
X030240Y010487D01*
X030291Y010645D02*
X030681Y010645D01*
X030691Y010804D02*
X030337Y010804D01*
X030495Y010962D02*
X030757Y010962D01*
X030654Y011121D02*
X030936Y011121D01*
X030876Y011279D02*
X030812Y011279D01*
X030564Y011597D02*
X029314Y011597D01*
X029498Y011755D02*
X030681Y011755D01*
X030736Y011914D02*
X029541Y011914D01*
X029513Y012072D02*
X030865Y012072D01*
X030963Y012231D02*
X029391Y012231D01*
X029381Y012389D02*
X030766Y012389D01*
X030696Y012548D02*
X029381Y012548D01*
X029381Y012706D02*
X030681Y012706D01*
X030716Y012865D02*
X029381Y012865D01*
X029381Y013023D02*
X030816Y013023D01*
X028981Y013023D02*
X028546Y013023D01*
X028647Y012865D02*
X028981Y012865D01*
X028981Y012706D02*
X028681Y012706D01*
X028667Y012548D02*
X028981Y012548D01*
X028981Y012389D02*
X028596Y012389D01*
X028400Y012231D02*
X028972Y012231D01*
X028850Y012072D02*
X028498Y012072D01*
X028626Y011914D02*
X028821Y011914D01*
X028865Y011755D02*
X028681Y011755D01*
X028681Y011597D02*
X029049Y011597D01*
X028622Y011438D02*
X030405Y011438D01*
X030247Y011279D02*
X028487Y011279D01*
X028427Y011121D02*
X030088Y011121D01*
X029703Y010962D02*
X028606Y010962D01*
X028672Y010804D02*
X029592Y010804D01*
X029571Y010645D02*
X028681Y010645D01*
X028642Y010487D02*
X029622Y010487D01*
X034088Y008981D02*
X036099Y008981D01*
X036274Y008981D01*
X036258Y008965D01*
X036181Y008781D01*
X036181Y008582D01*
X036258Y008398D01*
X036274Y008381D01*
X034088Y008381D01*
X034105Y008398D01*
X034181Y008582D01*
X034181Y008781D01*
X034105Y008965D01*
X034088Y008981D01*
X034132Y008901D02*
X036231Y008901D01*
X036181Y008743D02*
X034181Y008743D01*
X034181Y008584D02*
X036181Y008584D01*
X036246Y008426D02*
X034117Y008426D01*
X037088Y008381D02*
X037105Y008398D01*
X037140Y008481D01*
X038223Y008481D01*
X038258Y008398D01*
X038274Y008381D01*
X037088Y008381D01*
X037117Y008426D02*
X038246Y008426D01*
X039088Y008381D02*
X039105Y008398D01*
X039140Y008481D01*
X041223Y008481D01*
X041258Y008398D01*
X041274Y008381D01*
X039088Y008381D01*
X039117Y008426D02*
X041246Y008426D01*
X041223Y008881D02*
X039140Y008881D01*
X039105Y008965D01*
X039088Y008981D01*
X041099Y008981D01*
X041274Y008981D01*
X041258Y008965D01*
X041223Y008881D01*
X041231Y008901D02*
X039131Y008901D01*
X038274Y008981D02*
X038258Y008965D01*
X038223Y008881D01*
X037140Y008881D01*
X037105Y008965D01*
X037088Y008981D01*
X038274Y008981D01*
X038231Y008901D02*
X037131Y008901D01*
X033981Y012231D02*
X033900Y012231D01*
X033897Y014133D02*
X033981Y014133D01*
X033981Y015243D02*
X033930Y015243D01*
X033303Y016353D02*
X031560Y016353D01*
X031652Y016511D02*
X033211Y016511D01*
X033181Y016670D02*
X031681Y016670D01*
X031662Y016828D02*
X033201Y016828D01*
X027966Y014133D02*
X027881Y014133D01*
X027881Y012231D02*
X027963Y012231D01*
X022716Y010864D02*
X022681Y010781D01*
X022681Y010582D01*
X022758Y010398D01*
X022774Y010381D01*
X021588Y010381D01*
X021605Y010398D01*
X021681Y010582D01*
X021681Y010781D01*
X021605Y010965D01*
X021588Y010981D01*
X022599Y010981D01*
X022716Y010864D01*
X022691Y010804D02*
X021672Y010804D01*
X021681Y010645D02*
X022681Y010645D01*
X022721Y010487D02*
X021642Y010487D01*
X021606Y010962D02*
X022618Y010962D01*
X020864Y014292D02*
X020854Y014292D01*
X020736Y014450D02*
X020695Y014450D01*
X020681Y014609D02*
X020537Y014609D01*
X020681Y014767D02*
X020378Y014767D01*
X020220Y014926D02*
X020742Y014926D01*
X020877Y015084D02*
X020061Y015084D01*
X019903Y015243D02*
X020933Y015243D01*
X020756Y015402D02*
X018607Y015402D01*
X018672Y015560D02*
X020690Y015560D01*
X020681Y015719D02*
X018681Y015719D01*
X018641Y015877D02*
X020721Y015877D01*
X020829Y016036D02*
X018534Y016036D01*
X017723Y015481D02*
X017758Y015398D01*
X017774Y015381D01*
X016588Y015381D01*
X016605Y015398D01*
X016640Y015481D01*
X017723Y015481D01*
X017756Y015402D02*
X016607Y015402D01*
X012681Y017463D02*
X011132Y017463D01*
X011181Y017621D02*
X012681Y017621D01*
X012681Y017780D02*
X011181Y017780D01*
X011116Y017938D02*
X012681Y017938D01*
X012691Y018097D02*
X010973Y018097D01*
X010390Y018097D02*
X008172Y018097D01*
X008181Y017938D02*
X010247Y017938D01*
X010181Y017780D02*
X008181Y017780D01*
X008181Y017621D02*
X010181Y017621D01*
X010231Y017463D02*
X008181Y017463D01*
X008162Y016828D02*
X010201Y016828D01*
X010181Y016670D02*
X008181Y016670D01*
X008152Y016511D02*
X010211Y016511D01*
X010303Y016353D02*
X008060Y016353D01*
X013031Y003511D02*
X013332Y003511D01*
X013201Y003352D02*
X013161Y003352D01*
X013161Y003194D02*
X013201Y003194D01*
X013201Y003035D02*
X013161Y003035D01*
X013055Y002877D02*
X013307Y002877D01*
X026031Y003511D02*
X026332Y003511D01*
X026201Y003352D02*
X026161Y003352D01*
X026161Y003194D02*
X026201Y003194D01*
X026201Y003035D02*
X026161Y003035D01*
X027161Y003035D02*
X027201Y003035D01*
X027201Y003194D02*
X027161Y003194D01*
X027161Y003352D02*
X027201Y003352D01*
X027332Y003511D02*
X027031Y003511D01*
M02*
