G75*
G70*
%OFA0B0*%
%FSLAX24Y24*%
%IPPOS*%
%LPD*%
%AMOC8*
5,1,8,0,0,1.08239X$1,22.5*
%
%ADD10C,0.0000*%
%ADD11R,0.0680X0.0680*%
%ADD12C,0.0680*%
%ADD13OC8,0.0640*%
%ADD14C,0.0634*%
%ADD15C,0.0080*%
%ADD16C,0.0400*%
D10*
X000181Y000181D02*
X000181Y020177D01*
X053551Y020177D01*
X053551Y000181D01*
X000181Y000181D01*
D11*
X007681Y017681D03*
X013181Y017681D03*
X018181Y017681D03*
X023181Y017681D03*
X028181Y017681D03*
X033681Y017681D03*
X038681Y017681D03*
X043681Y017681D03*
X048681Y017681D03*
D12*
X046681Y017681D03*
X046681Y016681D03*
X048681Y016681D03*
X048681Y015681D03*
X048681Y014681D03*
X046681Y014681D03*
X046681Y015681D03*
X043681Y015681D03*
X043681Y014681D03*
X041681Y014681D03*
X041681Y015681D03*
X041681Y016681D03*
X043681Y016681D03*
X041681Y017681D03*
X038681Y016681D03*
X036681Y016681D03*
X036681Y015681D03*
X036681Y014681D03*
X038681Y014681D03*
X038681Y015681D03*
X038681Y013681D03*
X036681Y013681D03*
X036681Y012681D03*
X038681Y012681D03*
X038681Y011681D03*
X036681Y011681D03*
X036681Y010681D03*
X038681Y010681D03*
X038681Y009681D03*
X036681Y009681D03*
X036681Y008681D03*
X038681Y008681D03*
X041681Y008681D03*
X043681Y008681D03*
X043681Y009681D03*
X041681Y009681D03*
X041681Y010681D03*
X043681Y010681D03*
X043681Y011681D03*
X041681Y011681D03*
X041681Y012681D03*
X043681Y012681D03*
X043681Y013681D03*
X041681Y013681D03*
X046681Y013681D03*
X048681Y013681D03*
X048681Y012681D03*
X046681Y012681D03*
X046681Y011681D03*
X048681Y011681D03*
X048681Y010681D03*
X046681Y010681D03*
X046681Y009681D03*
X048681Y009681D03*
X048681Y008681D03*
X046681Y008681D03*
X051681Y008681D03*
X051681Y009681D03*
X051681Y010681D03*
X051681Y011681D03*
X051681Y012681D03*
X051681Y013681D03*
X051681Y014681D03*
X051681Y015681D03*
X051681Y016681D03*
X051681Y017681D03*
X036681Y017681D03*
X033681Y016681D03*
X031181Y016681D03*
X031181Y015681D03*
X031181Y014681D03*
X033681Y014681D03*
X033681Y015681D03*
X033681Y013681D03*
X031181Y013681D03*
X031181Y012681D03*
X033681Y012681D03*
X033681Y011681D03*
X031181Y011681D03*
X031181Y010681D03*
X033681Y010681D03*
X033681Y009681D03*
X031181Y009681D03*
X031181Y008681D03*
X033681Y008681D03*
X028181Y008681D03*
X026181Y008681D03*
X026181Y009681D03*
X028181Y009681D03*
X028181Y010681D03*
X026181Y010681D03*
X026181Y011681D03*
X028181Y011681D03*
X028181Y012681D03*
X026181Y012681D03*
X026181Y013681D03*
X028181Y013681D03*
X028181Y014681D03*
X028181Y015681D03*
X026181Y015681D03*
X026181Y014681D03*
X023181Y014681D03*
X023181Y015681D03*
X021181Y015681D03*
X021181Y014681D03*
X021181Y013681D03*
X023181Y013681D03*
X023181Y012681D03*
X021181Y012681D03*
X021181Y011681D03*
X023181Y011681D03*
X023181Y010681D03*
X021181Y010681D03*
X021181Y009681D03*
X023181Y009681D03*
X023181Y008681D03*
X021181Y008681D03*
X018181Y008681D03*
X016181Y008681D03*
X016181Y009681D03*
X018181Y009681D03*
X018181Y010681D03*
X016181Y010681D03*
X016181Y011681D03*
X018181Y011681D03*
X018181Y012681D03*
X016181Y012681D03*
X016181Y013681D03*
X018181Y013681D03*
X018181Y014681D03*
X016181Y014681D03*
X016181Y015681D03*
X018181Y015681D03*
X018181Y016681D03*
X016181Y016681D03*
X016181Y017681D03*
X013181Y016681D03*
X013181Y015681D03*
X013181Y014681D03*
X013181Y013681D03*
X013181Y012681D03*
X013181Y011681D03*
X013181Y010681D03*
X013181Y009681D03*
X013181Y008681D03*
X010681Y008681D03*
X010681Y009681D03*
X010681Y010681D03*
X010681Y011681D03*
X010681Y012681D03*
X010681Y013681D03*
X010681Y014681D03*
X010681Y015681D03*
X010681Y016681D03*
X010681Y017681D03*
X007681Y016681D03*
X007681Y015681D03*
X007681Y014681D03*
X007681Y013681D03*
X007681Y012681D03*
X007681Y011681D03*
X007681Y010681D03*
X007681Y009681D03*
X007681Y008681D03*
X021181Y016681D03*
X023181Y016681D03*
X021181Y017681D03*
X026181Y017681D03*
X026181Y016681D03*
X028181Y016681D03*
X031181Y017681D03*
D13*
X032181Y003181D03*
X033181Y003181D03*
X034181Y003181D03*
X035181Y003181D03*
X036181Y003181D03*
X037181Y003181D03*
X038181Y003181D03*
X039181Y003181D03*
X040181Y003181D03*
X041181Y003181D03*
X042181Y003181D03*
X043181Y003181D03*
X044181Y003181D03*
X045181Y003181D03*
X046181Y003181D03*
X047181Y003181D03*
X048181Y003181D03*
X049181Y003181D03*
X050181Y003181D03*
X051181Y003181D03*
X051181Y002181D03*
X050181Y002181D03*
X049181Y002181D03*
X048181Y002181D03*
X047181Y002181D03*
X046181Y002181D03*
X045181Y002181D03*
X044181Y002181D03*
X043181Y002181D03*
X042181Y002181D03*
X041181Y002181D03*
X040181Y002181D03*
X039181Y002181D03*
X038181Y002181D03*
X037181Y002181D03*
X036181Y002181D03*
X035181Y002181D03*
X034181Y002181D03*
X033181Y002181D03*
X032181Y002181D03*
X028681Y002181D03*
X027681Y002181D03*
X026681Y002181D03*
X025681Y002181D03*
X024681Y002181D03*
X023681Y002181D03*
X022681Y002181D03*
X021681Y002181D03*
X020681Y002181D03*
X019681Y002181D03*
X018681Y002181D03*
X017681Y002181D03*
X016681Y002181D03*
X015681Y002181D03*
X014681Y002181D03*
X013681Y002181D03*
X012681Y002181D03*
X011681Y002181D03*
X010681Y002181D03*
X009681Y002181D03*
X009681Y003181D03*
X010681Y003181D03*
X011681Y003181D03*
X012681Y003181D03*
X013681Y003181D03*
X014681Y003181D03*
X015681Y003181D03*
X016681Y003181D03*
X017681Y003181D03*
X018681Y003181D03*
X019681Y003181D03*
X020681Y003181D03*
X021681Y003181D03*
X022681Y003181D03*
X023681Y003181D03*
X024681Y003181D03*
X025681Y003181D03*
X026681Y003181D03*
X027681Y003181D03*
X028681Y003181D03*
D14*
X003698Y003181D02*
X003065Y003181D01*
X003065Y002181D02*
X003698Y002181D01*
X003698Y004181D02*
X003065Y004181D01*
X003065Y005181D02*
X003698Y005181D01*
X003698Y006181D02*
X003065Y006181D01*
X003065Y007181D02*
X003698Y007181D01*
X003698Y008181D02*
X003065Y008181D01*
X003065Y009181D02*
X003698Y009181D01*
D15*
X003431Y008181D02*
X005431Y010181D01*
X006931Y010681D02*
X006931Y016681D01*
X007431Y017181D01*
X008181Y017181D01*
X008181Y016181D01*
X007681Y015681D01*
X007181Y016181D02*
X007181Y010181D01*
X007681Y010681D01*
X006931Y010681D02*
X003431Y007181D01*
X003381Y007181D01*
X003381Y008181D02*
X003431Y008181D01*
X006681Y007681D02*
X006681Y006431D01*
X003431Y003181D01*
X003381Y003181D01*
X002431Y003431D02*
X002431Y002181D01*
X003431Y001181D01*
X018181Y001181D01*
X018181Y008681D01*
X016681Y008431D02*
X016681Y010931D01*
X016431Y011181D01*
X015681Y011181D01*
X015681Y013181D01*
X016181Y013681D01*
X016681Y014181D02*
X016181Y014681D01*
X017681Y015181D02*
X018181Y014681D01*
X017681Y015181D02*
X017681Y017181D01*
X012931Y017181D01*
X012681Y016931D01*
X012681Y008431D01*
X013181Y007931D01*
X013181Y002681D01*
X013931Y002681D01*
X014181Y002431D01*
X014181Y001431D01*
X016931Y001431D01*
X017681Y002181D01*
X017181Y001931D02*
X017181Y011681D01*
X016931Y011431D02*
X016681Y011681D01*
X016681Y014181D01*
X017681Y013181D02*
X018181Y013681D01*
X017681Y013181D02*
X017681Y003181D01*
X016931Y003431D02*
X016931Y011431D01*
X018181Y011681D02*
X018681Y011181D01*
X018681Y003181D01*
X019181Y002681D02*
X019181Y011681D01*
X018181Y012681D01*
X019431Y011931D02*
X019431Y003431D01*
X019681Y003181D01*
X019181Y002681D02*
X018681Y002181D01*
X019681Y002181D02*
X020181Y002681D01*
X020181Y011431D01*
X019931Y011681D01*
X022681Y011181D02*
X023181Y011681D01*
X023681Y012181D02*
X023181Y012681D01*
X022431Y012931D02*
X023181Y013681D01*
X022181Y013681D02*
X023181Y014681D01*
X024181Y014431D02*
X025931Y016181D01*
X030681Y016181D01*
X030681Y014181D01*
X031181Y013681D01*
X032181Y013181D02*
X033681Y014681D01*
X033681Y015681D02*
X031181Y015681D01*
X028431Y015181D02*
X026681Y015181D01*
X026681Y014181D01*
X026181Y013681D01*
X025931Y013181D02*
X026681Y013181D01*
X026681Y012181D01*
X026181Y011681D01*
X026681Y011931D02*
X027431Y012681D01*
X027431Y012931D01*
X028181Y013681D01*
X028681Y013181D02*
X028681Y014181D01*
X028181Y014681D01*
X028431Y015181D02*
X030681Y012931D01*
X030681Y001431D01*
X025431Y001431D01*
X024681Y002181D01*
X024181Y002431D02*
X024431Y002681D01*
X025181Y002681D01*
X025181Y011681D01*
X026181Y012681D01*
X025931Y013181D02*
X024931Y012181D01*
X024931Y008181D01*
X024181Y007431D01*
X024181Y002681D01*
X023681Y002181D01*
X023431Y001681D02*
X023181Y001931D01*
X023181Y002681D01*
X023681Y003181D01*
X023181Y002931D02*
X023181Y007931D01*
X023681Y008431D01*
X023681Y012181D01*
X022431Y012931D02*
X022431Y003931D01*
X021681Y003181D01*
X020931Y003431D02*
X020931Y007681D01*
X021681Y008431D01*
X021681Y014181D01*
X021181Y014681D01*
X021181Y015681D02*
X023181Y015681D01*
X021181Y016681D02*
X020681Y016181D01*
X020681Y009181D01*
X021181Y008681D01*
X021181Y007681D02*
X022181Y008681D01*
X022181Y013681D01*
X024181Y014431D02*
X024181Y008181D01*
X023681Y007681D01*
X023931Y007431D02*
X024681Y008181D01*
X024681Y013181D01*
X026181Y014681D01*
X026181Y015681D02*
X028181Y015681D01*
X032431Y012431D02*
X033681Y013681D01*
X032181Y013181D02*
X032181Y008681D01*
X031681Y008181D01*
X031681Y002681D01*
X032181Y002181D01*
X032681Y002681D02*
X033181Y002181D01*
X033681Y001681D02*
X033681Y007931D01*
X034431Y008681D01*
X034431Y011431D01*
X036681Y013681D01*
X037431Y013431D02*
X038681Y014681D01*
X039181Y014931D02*
X038931Y015181D01*
X036681Y015181D01*
X036681Y014681D01*
X036681Y015681D02*
X038681Y015681D01*
X039181Y014931D02*
X039181Y008431D01*
X037681Y006931D01*
X037681Y001681D01*
X035931Y001681D01*
X035681Y001931D01*
X035681Y002431D01*
X035431Y002681D01*
X035431Y002931D01*
X035181Y003181D01*
X034681Y002681D02*
X034681Y011431D01*
X036431Y013181D01*
X037181Y013181D01*
X037181Y012181D01*
X036681Y011681D01*
X036681Y012681D02*
X035431Y011431D01*
X035431Y004431D01*
X035181Y004181D01*
X037181Y003181D02*
X037431Y003431D01*
X037431Y009431D01*
X038181Y010181D01*
X038181Y011181D01*
X038681Y011681D01*
X037931Y011931D02*
X038681Y012681D01*
X037681Y012681D02*
X038681Y013681D01*
X037431Y013431D02*
X037431Y011181D01*
X036431Y011181D01*
X035681Y010431D01*
X035681Y002681D01*
X036181Y002181D01*
X036681Y002681D02*
X037181Y002181D01*
X038181Y002181D02*
X038681Y002681D01*
X041681Y002681D01*
X041681Y007931D01*
X041181Y008431D01*
X041181Y011181D01*
X041681Y011681D01*
X042181Y012181D02*
X042931Y012931D01*
X042931Y013181D01*
X042931Y012681D02*
X043431Y013181D01*
X042931Y013681D01*
X041681Y013681D01*
X041681Y014181D02*
X041681Y014681D01*
X041681Y014181D02*
X043931Y014181D01*
X045181Y012931D01*
X045181Y007181D01*
X045681Y006931D02*
X047431Y008681D01*
X047431Y011431D01*
X048181Y011181D02*
X048681Y011681D01*
X048181Y011181D02*
X048181Y005181D01*
X046681Y003681D01*
X045681Y002681D02*
X045681Y006931D01*
X044181Y007181D02*
X044181Y013181D01*
X043681Y013681D01*
X043681Y012681D02*
X043181Y012181D01*
X043181Y007931D01*
X043431Y007681D01*
X044181Y007181D02*
X042681Y005681D01*
X042931Y006431D02*
X042931Y012681D01*
X042181Y012181D02*
X042181Y003181D01*
X042681Y003181D02*
X042681Y002931D01*
X042431Y002681D01*
X041931Y002681D01*
X041681Y002431D01*
X041681Y001931D01*
X042181Y001431D01*
X049681Y001431D01*
X049681Y014431D01*
X048931Y015181D01*
X046681Y015181D01*
X046681Y014681D01*
X046681Y014181D02*
X046681Y013681D01*
X046681Y014181D02*
X048931Y014181D01*
X049181Y013931D01*
X049181Y008431D01*
X048681Y007931D01*
X048681Y001681D01*
X043681Y001681D01*
X043181Y002181D01*
X042681Y002681D02*
X042181Y002181D01*
X042681Y002681D02*
X044681Y002681D01*
X044681Y011681D01*
X047931Y012931D02*
X048681Y013681D01*
X047931Y012931D02*
X047931Y006931D01*
X047181Y006181D01*
X046681Y008681D02*
X046181Y009181D01*
X046181Y016181D01*
X046681Y016681D01*
X048931Y017181D02*
X044181Y017181D01*
X044181Y015181D01*
X043681Y014681D01*
X043681Y015681D02*
X041681Y015681D01*
X046681Y015681D02*
X048681Y015681D01*
X048931Y017181D02*
X050681Y015431D01*
X050681Y001181D01*
X041181Y001181D01*
X040181Y002181D01*
X041181Y003181D02*
X040931Y003431D01*
X040931Y012181D01*
X040181Y012431D02*
X040181Y009181D01*
X038431Y007431D01*
X038431Y003431D01*
X038181Y003181D01*
X036681Y002681D02*
X036681Y007931D01*
X037181Y008431D01*
X037181Y009431D01*
X037931Y010181D01*
X037931Y011931D01*
X037681Y012681D02*
X037681Y010181D01*
X036431Y010181D01*
X036181Y009931D01*
X036181Y003181D01*
X034681Y002681D02*
X034181Y002181D01*
X033681Y001681D02*
X034681Y001681D01*
X035181Y002181D01*
X033181Y003181D02*
X033181Y011181D01*
X033681Y011681D01*
X032681Y011681D02*
X033681Y012681D01*
X032431Y012431D02*
X032431Y003431D01*
X032181Y003181D01*
X032681Y002681D02*
X032681Y011681D01*
X031681Y012181D02*
X031181Y012681D01*
X031681Y012181D02*
X031681Y008431D01*
X031431Y008181D01*
X031431Y006931D01*
X031181Y006681D01*
X028681Y008431D02*
X027181Y006931D01*
X027181Y002681D01*
X026181Y002681D01*
X025681Y002181D01*
X026681Y002181D02*
X027181Y001681D01*
X030431Y001681D01*
X030431Y011181D01*
X028931Y012681D01*
X028181Y012681D01*
X027681Y012931D02*
X027931Y013181D01*
X028681Y013181D01*
X027681Y012931D02*
X027681Y012181D01*
X028431Y012181D01*
X028681Y011931D01*
X028681Y008431D01*
X027681Y009181D02*
X026931Y008431D01*
X026931Y003431D01*
X026681Y003181D01*
X025681Y003181D02*
X026681Y004181D01*
X026681Y011931D01*
X027681Y011181D02*
X028181Y011681D01*
X029181Y011931D02*
X029181Y003681D01*
X028681Y003181D01*
X028181Y002681D02*
X029931Y002681D01*
X029931Y010681D01*
X027681Y011181D02*
X027681Y009181D01*
X023931Y007431D02*
X023931Y004431D01*
X023681Y004181D01*
X022681Y003181D02*
X022681Y011181D01*
X016181Y008681D02*
X015431Y009431D01*
X015431Y015931D01*
X016181Y016681D01*
X012431Y013431D02*
X011181Y014681D01*
X010681Y014681D01*
X010681Y013681D02*
X009431Y012431D01*
X009431Y004181D01*
X010181Y003431D01*
X010181Y001681D01*
X012181Y001681D01*
X012681Y002181D01*
X013181Y002181D02*
X013181Y002431D01*
X012931Y002681D01*
X012181Y002681D01*
X012181Y013181D01*
X011931Y013431D01*
X012431Y013431D02*
X012431Y003431D01*
X012681Y003181D01*
X011681Y003181D02*
X011431Y003431D01*
X011431Y011931D01*
X010681Y012681D01*
X008431Y012931D02*
X007681Y013681D01*
X008431Y012931D02*
X008431Y004431D01*
X009681Y003181D01*
X009181Y002681D02*
X008181Y003681D01*
X008181Y012181D01*
X007681Y012681D01*
X010681Y011681D02*
X011181Y011181D01*
X011181Y002681D01*
X011681Y002181D01*
X013181Y002181D02*
X013681Y002181D01*
X014181Y002681D02*
X014681Y002181D01*
X015681Y002181D02*
X016181Y001681D01*
X016931Y001681D01*
X017181Y001931D01*
X016681Y002181D02*
X016181Y002681D01*
X016181Y007931D01*
X016681Y008431D01*
X021181Y007681D02*
X021181Y002681D01*
X021681Y002181D01*
X022681Y002181D02*
X022931Y002431D01*
X022931Y002681D01*
X023181Y002931D01*
X024181Y002431D02*
X024181Y001681D01*
X023431Y001681D01*
X020931Y003431D02*
X020681Y003181D01*
X016931Y003431D02*
X016681Y003181D01*
X015681Y003181D02*
X015181Y003681D01*
X015181Y011681D01*
X014931Y011931D01*
X014681Y011431D02*
X014681Y003181D01*
X014181Y002681D02*
X014181Y013181D01*
X013681Y013181D02*
X013181Y013681D01*
X013681Y013181D02*
X013681Y003181D01*
X007181Y005931D02*
X007181Y010181D01*
X002431Y013431D02*
X007181Y018181D01*
X036181Y018181D01*
X036181Y017181D01*
X036681Y016681D01*
X051181Y016181D02*
X051181Y009181D01*
X051681Y008681D01*
X043181Y003181D02*
X042681Y003181D01*
X045181Y002181D02*
X045681Y002681D01*
X028181Y002681D02*
X027681Y002181D01*
X007181Y005931D02*
X003431Y002181D01*
X003381Y002181D01*
X002431Y003431D02*
X003181Y004181D01*
X003381Y004181D01*
X003381Y005181D02*
X003181Y005181D01*
X002431Y005931D01*
X002431Y013431D01*
X007181Y016181D02*
X007681Y016681D01*
X051181Y016181D02*
X051681Y016681D01*
D16*
X042931Y013181D03*
X040931Y012181D03*
X040181Y012431D03*
X044681Y011681D03*
X047431Y011431D03*
X043431Y007681D03*
X045181Y007181D03*
X042931Y006431D03*
X042681Y005681D03*
X047181Y006181D03*
X046681Y003681D03*
X035181Y004181D03*
X031181Y006681D03*
X023681Y007681D03*
X029931Y010681D03*
X029181Y011931D03*
X019931Y011681D03*
X019431Y011931D03*
X017181Y011681D03*
X014931Y011931D03*
X014681Y011431D03*
X014181Y013181D03*
X011931Y013431D03*
X005431Y010181D03*
X006681Y007681D03*
X009181Y002681D03*
X023681Y004181D03*
M02*
